<?xml version="1.0" standalone="no"?>
<svg width="567.429" height="351.276" viewBox="0 0 567.429 351.276" xmlns="http://www.w3.org/2000/svg" shape-rendering="crispEdges">
<title>
root_canvas_float.svg
</title>
<desc>
Creator: ROOT Version 6.18/04
CreationDate: Thu Jun 25 17:18:40 2020</desc>
<defs>
</defs>
<rect x="0.5" y="0" width="566.929" height="350.776" fill="white"/>
<rect x="57.1929" y="35.0776" width="453.543" height="280.62" fill="white"/>
<rect x="57.1929" y="35.0776" width="453.543" height="280.62" fill="none" stroke="black"/>
<rect x="57.1929" y="35.0776" width="453.543" height="280.62" fill="white"/>
<rect x="57.1929" y="35.0776" width="453.543" height="280.62" fill="none" stroke="black"/>
<path d="M57.1929,315.698h 453.543" fill="none" stroke="black"/>
<path d="M77.7673,307.279v 8.41861" fill="none" stroke="black"/>
<path d="M98.3849,311.489v 4.20931" fill="none" stroke="black"/>
<path d="M119.003,311.489v 4.20931" fill="none" stroke="black"/>
<path d="M139.62,311.489v 4.20931" fill="none" stroke="black"/>
<path d="M160.238,307.279v 8.41861" fill="none" stroke="black"/>
<path d="M180.856,311.489v 4.20931" fill="none" stroke="black"/>
<path d="M201.473,311.489v 4.20931" fill="none" stroke="black"/>
<path d="M222.091,311.489v 4.20931" fill="none" stroke="black"/>
<path d="M242.709,307.279v 8.41861" fill="none" stroke="black"/>
<path d="M263.326,311.489v 4.20931" fill="none" stroke="black"/>
<path d="M283.944,311.489v 4.20931" fill="none" stroke="black"/>
<path d="M304.562,311.489v 4.20931" fill="none" stroke="black"/>
<path d="M325.179,307.279v 8.41861" fill="none" stroke="black"/>
<path d="M345.797,311.489v 4.20931" fill="none" stroke="black"/>
<path d="M366.415,311.489v 4.20931" fill="none" stroke="black"/>
<path d="M387.032,311.489v 4.20931" fill="none" stroke="black"/>
<path d="M407.65,307.279v 8.41861" fill="none" stroke="black"/>
<path d="M428.268,311.489v 4.20931" fill="none" stroke="black"/>
<path d="M448.885,311.489v 4.20931" fill="none" stroke="black"/>
<path d="M469.503,311.489v 4.20931" fill="none" stroke="black"/>
<path d="M490.121,307.279v 8.41861" fill="none" stroke="black"/>
<path d="M77.7673,307.279v 8.41861" fill="none" stroke="black"/>
<path d="M490.121,307.279v 8.41861" fill="none" stroke="black"/>
<text xml:space="preserve" x="74.4473" y="327.075" fill="black" font-size="11.7634" font-family="Helvetica">0</text>
<text xml:space="preserve" x="150.291" y="327.075" fill="black" font-size="11.7634" font-family="Helvetica">200</text>
<text xml:space="preserve" x="232.77" y="327.075" fill="black" font-size="11.7634" font-family="Helvetica">400</text>
<text xml:space="preserve" x="315.25" y="327.075" fill="black" font-size="11.7634" font-family="Helvetica">600</text>
<text xml:space="preserve" x="397.73" y="327.075" fill="black" font-size="11.7634" font-family="Helvetica">800</text>
<text xml:space="preserve" x="476.891" y="327.075" fill="black" font-size="11.7634" font-family="Helvetica">1000</text>
<text xml:space="preserve" x="530.93" y="310.01" fill="black" font-size="8.00896" font-family="Helvetica">3</text>
<text xml:space="preserve" x="518.605" y="315.698" fill="black" font-size="11.7634" font-family="Helvetica">10</text>
<text xml:space="preserve" x="512.443" y="315.698" fill="black" font-size="11.7634" font-family="Times">&#0215;</text>
<text xml:space="preserve" x="439.917" y="338.451" fill="black" font-size="11.7634" font-family="Helvetica"> X number (N)</text>
<path d="M57.1929,315.698v -280.62" fill="none" stroke="black"/>
<path d="M70.7992,315.698h -13.6063" fill="none" stroke="black"/>
<path d="M63.9961,307.517h -6.80315" fill="none" stroke="black"/>
<path d="M63.9961,299.336h -6.80315" fill="none" stroke="black"/>
<path d="M63.9961,291.155h -6.80315" fill="none" stroke="black"/>
<path d="M70.7992,282.974h -13.6063" fill="none" stroke="black"/>
<path d="M63.9961,274.793h -6.80315" fill="none" stroke="black"/>
<path d="M63.9961,266.612h -6.80315" fill="none" stroke="black"/>
<path d="M63.9961,258.431h -6.80315" fill="none" stroke="black"/>
<path d="M70.7992,250.25h -13.6063" fill="none" stroke="black"/>
<path d="M63.9961,242.069h -6.80315" fill="none" stroke="black"/>
<path d="M63.9961,233.888h -6.80315" fill="none" stroke="black"/>
<path d="M63.9961,225.707h -6.80315" fill="none" stroke="black"/>
<path d="M70.7992,217.526h -13.6063" fill="none" stroke="black"/>
<path d="M63.9961,209.345h -6.80315" fill="none" stroke="black"/>
<path d="M63.9961,201.164h -6.80315" fill="none" stroke="black"/>
<path d="M63.9961,192.983h -6.80315" fill="none" stroke="black"/>
<path d="M70.7992,184.802h -13.6063" fill="none" stroke="black"/>
<path d="M63.9961,176.621h -6.80315" fill="none" stroke="black"/>
<path d="M63.9961,168.44h -6.80315" fill="none" stroke="black"/>
<path d="M63.9961,160.259h -6.80315" fill="none" stroke="black"/>
<path d="M70.7992,152.078h -13.6063" fill="none" stroke="black"/>
<path d="M63.9961,143.897h -6.80315" fill="none" stroke="black"/>
<path d="M63.9961,135.716h -6.80315" fill="none" stroke="black"/>
<path d="M63.9961,127.535h -6.80315" fill="none" stroke="black"/>
<path d="M70.7992,119.354h -13.6063" fill="none" stroke="black"/>
<path d="M63.9961,111.173h -6.80315" fill="none" stroke="black"/>
<path d="M63.9961,102.991h -6.80315" fill="none" stroke="black"/>
<path d="M63.9961,94.8105h -6.80315" fill="none" stroke="black"/>
<path d="M70.7992,86.6294h -13.6063" fill="none" stroke="black"/>
<path d="M63.9961,78.4484h -6.80315" fill="none" stroke="black"/>
<path d="M63.9961,70.2674h -6.80315" fill="none" stroke="black"/>
<path d="M63.9961,62.0864h -6.80315" fill="none" stroke="black"/>
<path d="M70.7992,53.9054h -13.6063" fill="none" stroke="black"/>
<path d="M70.7992,53.9054h -13.6063" fill="none" stroke="black"/>
<path d="M63.9961,45.7243h -6.80315" fill="none" stroke="black"/>
<path d="M63.9961,37.5433h -6.80315" fill="none" stroke="black"/>
<text xml:space="preserve" x="47.9021" y="319.964" fill="black" font-size="11.7634" font-family="Helvetica">0</text>
<text xml:space="preserve" x="41.7398" y="286.783" fill="black" font-size="11.7634" font-family="Helvetica">20</text>
<text xml:space="preserve" x="41.7398" y="254.075" fill="black" font-size="11.7634" font-family="Helvetica">40</text>
<text xml:space="preserve" x="41.7398" y="221.368" fill="black" font-size="11.7634" font-family="Helvetica">60</text>
<text xml:space="preserve" x="41.7398" y="188.66" fill="black" font-size="11.7634" font-family="Helvetica">80</text>
<text xml:space="preserve" x="35.5776" y="155.953" fill="black" font-size="11.7634" font-family="Helvetica">100</text>
<text xml:space="preserve" x="35.5776" y="123.245" fill="black" font-size="11.7634" font-family="Helvetica">120</text>
<text xml:space="preserve" x="35.5776" y="90.538" fill="black" font-size="11.7634" font-family="Helvetica">140</text>
<text xml:space="preserve" x="35.5776" y="57.8306" fill="black" font-size="11.7634" font-family="Helvetica">160</text>
<g transform="rotate(-90,21.3569,95.7523)">
<text xml:space="preserve" x="21.3569" y="95.7523" fill="black" font-size="11.7634" font-family="Helvetica"> Y time (ms)</text>
</g>
<path d="M77.8085,315.698l 0.825944, -0.196344l 0.826356, -0.229069l 0.826356, -0.229069l 0.826356, -0.245431l 0.826356, -0.245431l 0.825944, -0.245431l 0.826356, -0.409051l 0.826356, -0.179982l 0.826356, -0.392689l 0.826356, -0.507223l 0.825944,
 -0.0327241l 0.826356, -0.327241l 0.826356, -0.605395l 0.826356, -0.376327l 0.826356, -0.343603l 0.825944, -0.278155l 0.826356, -0.327241l 0.826356, -0.932636l 0.826356, 0.278155l 0.826356, 0.229069l 0.825944, -0.278155l 0.826356, -0.899912l
 0.826356, -1.03081l 0.826356, -0.327241l 0.826356, 0.130896l 0.825944, 0.359965l 0.826356, 0.229069l 0.826356, -0.130896l 0.826356, -0.409051l 0.826356, -0.998084h 0.826356l 0.825944, -1.01445l 0.826356, -2.74882l 0.826356, 3.32149l 0.826356,
 -2.87972l 0.826356, 0.278155l 0.825944, 1.07989l 0.826356, -1.17807h 0.826356l 0.826356, -1.61984l 0.826356, 2.09434l 0.825944, -1.65257l 0.826356, -0.80174l 0.826356, 1.32533l 0.826356, -3.92689l 0.826356, 1.48895l 0.825944, 0.392689h 0.826356l
 0.826356, -1.11262l 0.826356, -0.0818102l 0.826356, 0.392689l 0.825944, 0.343603l 0.826356, -0.327241l 0.826356, -0.278155l 0.826356, -1.75074l 0.826356, 1.09626l 0.826356, -1.65257l 0.825944, 1.24352l 0.826356, -1.70165l 0.826356, 0.147258l
 0.826356, -1.71801l 0.826356, -0.589033l 0.825944, 2.02889l 0.826356, -0.523585l 0.826356, -0.327241l 0.826356, -1.03081l 0.826356, 0.474499l 0.825944, -2.33977l 0.826356, 0.343603l 0.826356, -0.441775l 0.826356, 0.392689l 0.826356, -2.2416l
 0.825944, 2.29069l 0.826356, -1.79982l 0.826356, -0.310879l 0.826356, 0.458137l 0.826356, 0.261793l 0.825944, -1.27624l 0.826356, -0.948998l 0.826356, -0.343603l 0.826356, 1.27624l 0.826356, -0.114534l 0.826356, -3.1906l 0.825944, 2.12707l 0.826356,
 -2.02889l 0.826356, 0.670844l 0.826356, 0.71993l 0.826356, -0.441775l 0.825944, -0.392689l 0.826356, -1.60348l 0.826356, 0.981722l 0.826356, -0.261793l 0.826356, -4.3523l 0.825944, 2.87972l 0.826356, -1.47258l 0.826356, 0.409051l 0.826356, -1.37441l
 0.826356, 0.261793l 0.825944, 0.0981722l 0.826356, -0.278155l 0.826356, 0.654482l 0.826356, -0.96536l 0.826356, -1.07989l 0.825944, -0.932636l 0.826356, 1.40714l 0.826356, -0.932636l 0.826356, -0.71993l 0.826356, -1.35805l 0.826356, 1.88163l
 0.825944, -3.37058l 0.826356, -0.0981722l 0.826356, 1.04717l 0.826356, -0.932636l 0.826356, -1.37441l 0.825944, -0.71993l 0.826356, 2.07798l 0.826356, 0.261793l 0.826356, -3.92689l 0.826356, 1.37441l 0.825944, -0.916274l 0.826356, -0.0981722l
 0.826356, 1.50531l 0.826356, -1.94708l 0.826356, 0.458137l 0.825944, -0.016362l 0.826356, -0.539947l 0.826356, -1.04717l 0.826356, -1.12898l 0.826356, 2.09434l 0.825944, -3.37058l 0.826356, 0.80174l 0.826356, 1.27624l 0.826356, -1.71801l 0.826356,
 -1.37441l 0.826356, 2.09434l 0.825944, -5.9067l 0.826356, 2.45431l 0.826356, 1.04717l 0.826356, -1.06353l 0.826356, 0.294517l 0.825944, -0.196344l 0.826356, -1.81619l 0.826356, -0.474499l 0.826356, -0.229069l 0.826356, -0.212707l 0.825944,
 -0.016362l 0.826356, 0.310879l 0.826356, -4.23777l 0.826356, 1.73438l 0.826356, 2.04525l 0.825944, -2.74882l 0.826356, -1.55439l 0.826356, 3.28877l 0.826356, -3.99234l 0.826356, 2.99425l 0.825944, -1.21079l 0.826356, -4.45047l 0.826356, 4.05779l
 0.826356, -2.847l 0.826356, 0.769016l 0.826356, 1.22715l 0.825944, -3.23968l 0.826356, -2.66701l 0.826356, 0.96536l 0.826356, 2.1107l 0.826356, 1.27624l 0.825944, -5.08859l 0.826356, 1.24352l 0.826356, 0.0654482l 0.826356, -1.19443l 0.826356,
 0.998084l 0.825944, -0.343603l 0.826356, -2.42158l 0.826356, 1.40714l 0.826356, -0.458137l 0.826356, -2.32341l 0.825944, 3.10879l 0.826356, -5.46492l 0.826356, 4.51592l 0.826356, -8.80278l 0.826356, 9.68633l 0.825944, -10.7008l 0.826356, 8.24647l
 0.826356, 0.687206l 0.826356, -3.33786l 0.826356, -1.32533l 0.826356, -0.589033l 0.825944, 2.847l 0.826356, -4.6141l 0.826356, 3.92689l 0.826356, -2.2416l 0.826356, -1.50531l 0.825944, 0.196344l 0.826356, -2.01253l 0.826356, 4.59773l 0.826356,
 -8.34464l 0.826356, 7.24838l 0.825944, -6.21758l 0.826356, 0.229069l 0.826356, 0.687206l 0.826356, 3.37058l 0.826356, -2.27432l 0.825944, -4.1396l 0.826356, 2.48703l 0.826356, 1.11262l 0.826356, -4.63046l 0.826356, -1.60348l 0.825944, 3.69782l
 0.826356, -2.50339l 0.826356, 2.22524l 0.826356, -4.94134l 0.826356, 2.63429l 0.826356, 1.19443l 0.825944, -5.21949l 0.826356, 2.50339l 0.826356, -0.490861l 0.826356, 2.43794l 0.826356, -3.01062l 0.825944, -1.66893l 0.826356, 3.20696l 0.826356,
 -3.27241l 0.826356, 5.46492l 0.826356, -6.00487l 0.825944, 0.769016l 0.826356, -6.39756l 0.826356, 5.61218l 0.826356, -3.91053l 0.826356, -2.91244l 0.825944, 3.10879l 0.826356, 0.114534l 0.826356, 0.0654482l 0.826356, 0.507223l 0.826356, -4.10687l
 0.825944, 3.14151l 0.826356, -3.63237l 0.826356, 1.61984l 0.826356, 0.343603l 0.826356, 0.261793l 0.826356, -1.71801l 0.825944, 2.17615l 0.826356, -2.38886l 0.826356, -0.589033l 0.826356, -7.01932l 0.826356, 7.15021l 0.825944, -4.46684l 0.826356,
 4.46684l 0.826356, -0.0981722l 0.826356, -6.1194l 0.826356, 2.06162l 0.825944, 0.114534l 0.826356, 1.40714l 0.826356, 1.83255l 0.826356, -4.22141l 0.826356, 1.58712l 0.825944, -1.27624l 0.826356, -3.8778l 0.826356, -5.92306l 0.826356, 9.04821l
 0.826356, -6.2503l 0.825944, 6.70844l 0.826356, 2.74882l 0.826356, -6.16849l 0.826356, -1.47258l 0.826356, 0.80174l 0.826356, -13.2696l 0.825944, 12.517l 0.826356, -4.66318l 0.826356, -5.35039l 0.826356, 7.31383l 0.826356, 1.22715l 0.825944,
 -2.53612l 0.826356, 3.82872l 0.826356, -4.90861l 0.826356, 0.294517l 0.826356, 0.0981722l 0.825944, 1.78346l 0.826356, -0.96536l 0.826356, 0.670844l 0.826356, -2.48703l 0.826356, 0.16362l 0.825944, 0.016362l 0.826356, -2.32341l 0.826356, 4.97406l
 0.826356, -4.51592l 0.826356, -5.53037l 0.825944, 3.82872l 0.826356, 4.07415l 0.826356, -6.52845l 0.826356, 2.17615l 0.826356, -7.49381l 0.826356, 3.35422l 0.825944, 5.03951l 0.826356, -3.61601l 0.826356, -2.3725l 0.826356, 4.1396l 0.826356,
 -4.49956l 0.825944, 4.77772l 0.826356, -8.23011l 0.826356, 5.07223l 0.826356, -2.79791l 0.826356, -2.86336l 0.825944, 0.229069l 0.826356, 9.50635l 0.826356, -5.15404l 0.826356, -3.17424l 0.826356, -2.94517l 0.825944, -1.97981l 0.826356, 2.56884l
 0.826356, -1.58712l 0.826356, 0.327241l 0.826356, 6.05396l 0.825944, -5.15404l 0.826356, 4.30322l 0.826356, -12.0261l 0.826356, 0.867188l 0.826356, 2.91244l 0.826356, -12.0588l 0.825944, 14.7913l 0.826356, -0.818102l 0.826356, -3.0597l 0.826356,
 -0.310879l 0.826356, 0.88355l 0.825944, 4.56501l 0.826356, -6.52845l 0.826356, -3.22332l 0.826356, 8.67188l 0.826356, -4.20504l 0.825944, -4.81044l 0.826356, 3.74691l 0.826356, 5.84125l 0.826356, -7.98468l 0.826356, -4.49956l 0.825944, 4.31958l
 0.826356, -6.31575l 0.826356, 6.07032l 0.826356, -4.63046l 0.826356, 3.63237l 0.825944, -1.24352l 0.826356, -4.90861l 0.826356, 2.81427l 0.826356, -2.30705l 0.826356, 4.36866l 0.826356, -3.59965l 0.825944, 4.40139l 0.826356, -0.769016l 0.826356,
 2.07798l 0.826356, -6.2503l 0.826356, -6.23394l 0.825944, 9.35909l 0.826356, -7.28111l 0.826356, 1.79982l 0.826356, -8.24647l 0.826356, 4.45047l 0.825944, 2.92881l 0.826356, 0.196344l 0.826356, -15.1349l 0.826356, 7.13385l 0.826356, 4.4832l
 0.825944, -6.20121l 0.826356, 4.77772l 0.826356, -15.0694l 0.826356, 22.8414l 0.826356, -21.3197l 0.825944, 13.8096l 0.826356, -11.8788l 0.826356, 11.5843l 0.826356, -4.30322l 0.826356, 2.40522l 0.826356, 4.76135l 0.825944, -1.40714l 0.826356,
 -4.28685l 0.826356, -4.8268l 0.826356, 0.196344l 0.826356, -2.92881l 0.825944, 8.00104l 0.826356, -11.5189l 0.826356, 2.47067l 0.826356, 10.3244l 0.826356, -2.79791l 0.825944, -6.67571l 0.826356, 9.6536l 0.826356, -9.22819l 0.826356, 3.30513l
 0.826356, -2.79791l 0.825944, -0.409051l 0.826356, -13.3841l 0.826356, 20.9434l 0.826356, -8.60643l 0.826356, 3.33786l 0.825944, -1.24352l 0.826356, -1.39077l 0.826356, 2.35613l 0.826356, -4.33594l 0.826356, 3.79599l 0.826356, -8.44281l 0.825944,
 -14.0386l 0.826356, 20.698l 0.826356, -2.79791l 0.826356, 1.39077l 0.826356, -13.6132l 0.825944, 9.35909l 0.826356, 10.0136l 0.826356, -15.364l 0.826356, -4.76135l 0.826356, 8.0174l 0.825944, -3.46875l 0.826356, 12.5824l 0.826356, -15.8057l
 0.826356, 9.70269l 0.826356, -12.8769l 0.825944, 3.4033l 0.826356, 7.80469l 0.826356, -18.6364l 0.826356, 18.5546l 0.826356, 0.507223l 0.825944, -14.2841l 0.826356, 13.6787l 0.826356, -5.10496l 0.826356, 4.1396l 0.826356, -16.8529l 0.826356,
 11.3553l 0.825944, 4.64682l 0.826356, -8.50826l 0.826356, 4.67954l 0.826356, -17.9982l 0.826356, 19.5363l 0.825944, 3.30513l 0.826356, -16.4766l 0.826356, 4.40139l 0.826356, -13.875l 0.826356, 9.76814l 0.825944, 1.96344l 0.826356, 4.58137l 0.826356,
 0.441775l 0.826356, -6.47937l 0.826356, -0.556309l 0.825944, 5.6449l 0.826356, 2.847l 0.826356, -4.40139l 0.826356, -17.3438l 0.826356, 17.2129l 0.825944, 4.87589l 0.826356, -4.07415l 0.826356, -3.4033l 0.826356, -0.916274l 0.826356, 2.5852l
 0.826356, -2.91244l 0.825944, 1.94708l 0.826356, -10.5699l 0.826356, -7.412l 0.826356, 18.9309l 0.826356, -3.56692l 0.825944, 2.1107l 0.826356, -2.32341l 0.826356, -4.6141l 0.826356, 5.21949l 0.826356, -11.4698l 0.825944, 11.1753l 0.826356,
 -14.4313l 0.826356, 2.60156l 0.826356, 8.26283l 0.826356, -15.3967l 0.825944, 13.7114l 0.826356, -16.8202l 0.826356, 19.4545l 0.826356, -1.83255l 0.826356, -16.2966l 0.825944, 18.5055l 0.826356, -7.93559l 0.826356, 2.87972l 0.826356, -11.3062l
 0.826356, 8.41009l 0.826356, -3.91053l 0.825944, -3.15787l 0.826356, 11.388l 0.826356, -12.1734l 0.826356, 5.6449l 0.826356, 2.2416l 0.825944, -15.3312l 0.826356, -4.38503l 0.826356, 20.0926l 0.826356, -8.18102l 0.826356, -18.9309l 0.825944,
 27.2428l 0.826356, -15.8385l 0.826356, 4.27049l 0.826356, -1.55439l 0.826356, 9.26091l 0.825944, -11.208l 0.826356, 7.44473l 0.826356, -0.916274l 0.826356, 4.6141l 0.826356, -5.53037l 0.825944, 2.22524l 0.826356, -14.0714l 0.826356, 16.0184l
 0.826356, -9.21183l 0.826356, 5.03951l 0.826356, -3.89417" fill="none" stroke="#00ff00"/>
<path d="M77.8085,315.698l 0.825944, -0.245431l 0.826356, -0.327241l 0.826356, -0.310879l 0.826356, -0.327241l 0.826356, -0.359965l 0.825944, -0.327241l 0.826356, -0.409051l 0.826356, -0.539947l 0.826356, -0.278155l 0.826356, -0.490861l 0.825944,
 -0.458137l 0.826356, -0.752654l 0.826356, -0.359965l 0.826356, -1.04717l 0.826356, -0.392689l 0.825944, -0.16362l 0.826356, -0.310879l 0.826356, -0.605395l 0.826356, -0.850826l 0.826356, 0.0490861l 0.825944, -0.458137l 0.826356, -0.425413l 0.826356,
 0.261793l 0.826356, -0.130896l 0.826356, -0.245431l 0.825944, -0.998084l 0.826356, -0.670844l 0.826356, -1.04717l 0.826356, -2.19251l 0.826356, 0.278155l 0.826356, 0.605395l 0.825944, -0.507223l 0.826356, 0.458137l 0.826356, -1.93072l 0.826356,
 -1.58712l 0.826356, 2.43794l 0.825944, -1.898l 0.826356, 1.11262l 0.826356, -1.65257l 0.826356, -0.850826l 0.826356, -1.2926l 0.825944, 0.63812l 0.826356, 0.130896l 0.826356, -2.35613l 0.826356, 0.687206l 0.826356, -0.245431l 0.825944, -1.25988l
 0.826356, -0.736292l 0.826356, -0.818102l 0.826356, 1.43986l 0.826356, -0.0818102l 0.825944, -0.850826l 0.826356, 0.310879l 0.826356, -0.88355l 0.826356, -1.35805l 0.826356, -0.0981722l 0.826356, -2.42158l 0.825944, 2.86336l 0.826356, -1.86527l
 0.826356, -1.25988l 0.826356, -0.327241l 0.826356, 0.212707l 0.825944, -1.6362l 0.826356, 0.294517l 0.826356, -0.16362l 0.826356, -0.589033l 0.826356, -2.20888l 0.825944, 3.01062l 0.826356, -3.02698l 0.826356, 2.86336l 0.826356, -1.25988l 0.826356,
 -2.50339l 0.825944, -1.71801l 0.826356, 2.94517l 0.826356, -4.63046l 0.826356, 2.29069l 0.826356, -0.703568l 0.825944, -1.04717l 0.826356, -2.35613l 0.826356, 1.22715l 0.826356, -0.556309l 0.826356, 1.34169l 0.826356, -0.834464l 0.825944, -3.46875l
 0.826356, 1.79982l 0.826356, 0.507223l 0.826356, 0.212707l 0.826356, -1.73438l 0.825944, -5.61218l 0.826356, 1.898l 0.826356, 0.703568l 0.826356, 0.245431l 0.826356, -0.196344l 0.825944, -7.49381l 0.826356, 5.7758l 0.826356, -0.0654482l 0.826356,
 -5.10496l 0.826356, -1.37441l 0.825944, 4.49956l 0.826356, 0.948998l 0.826356, -3.68146l 0.826356, 0.229069l 0.826356, 2.14343l 0.825944, -0.523585l 0.826356, -2.78155l 0.826356, -3.56692l 0.826356, 2.48703l 0.826356, 2.81427l 0.826356, -1.47258l
 0.825944, -4.90861l 0.826356, 2.68337h 0.826356l 0.826356, -1.88163l 0.826356, 1.70165l 0.825944, -0.425413l 0.826356, -1.61984l 0.826356, -0.605395l 0.826356, -4.23777l 0.826356, 2.51975l 0.825944, -0.261793l 0.826356, -1.45622l 0.826356, -1.43986l
 0.826356, 1.37441l 0.826356, 0.392689l 0.825944, -2.2416l 0.826356, -0.0818102l 0.826356, 2.66701l 0.826356, -1.898l 0.826356, -1.79982l 0.825944, -4.31958l 0.826356, -2.65065l 0.826356, 3.45239l 0.826356, 3.74691l 0.826356, -1.83255l 0.826356,
 -0.0654482l 0.825944, -1.7671l 0.826356, 0.687206l 0.826356, -0.621758l 0.826356, -6.49573l 0.826356, 4.85953l 0.825944, -5.6449l 0.826356, 3.41967l 0.826356, 0.589033l 0.826356, 1.73438l 0.826356, -3.82872l 0.825944, 0.71993l 0.826356, -4.71227l
 0.826356, 0.0490861l 0.826356, 5.02315l 0.826356, -1.2926l 0.825944, -3.63237l 0.826356, 4.41775l 0.826356, -4.38503l 0.826356, 1.12898l 0.826356, -1.78346l 0.825944, 2.89608l 0.826356, -8.4919l 0.826356, 6.23394l 0.826356, -3.01062l 0.826356,
 -0.130896l 0.826356, -1.43986l 0.825944, 1.99617l 0.826356, -4.69591l 0.826356, 4.51592l 0.826356, -4.38503l 0.826356, 1.79982l 0.825944, -2.01253l 0.826356, 2.78155l 0.826356, -2.45431l 0.826356, -2.96153l 0.826356, -0.0654482l 0.825944, -0.916274l
 0.826356, -2.2416l 0.826356, 6.10304l 0.826356, -7.51018l 0.826356, 0.310879l 0.825944, -1.11262l 0.826356, 3.12515l 0.826356, -1.60348l 0.826356, 0.392689l 0.826356, 2.19251l 0.825944, -5.69399l 0.826356, 5.46492l 0.826356, -4.12323l 0.826356,
 2.09434l 0.826356, -5.7758l 0.826356, 1.65257l 0.825944, -3.64874l 0.826356, 3.48511l 0.826356, 0.441775l 0.826356, -3.91053l 0.826356, -0.932636l 0.825944, 3.55056l 0.826356, -1.32533l 0.826356, -0.278155l 0.826356, -3.81236l 0.826356, 2.60156l
 0.825944, -4.17232l 0.826356, 2.66701l 0.826356, -2.69974l 0.826356, 1.96344l 0.826356, 0.670844l 0.825944, -0.0654482l 0.826356, -0.948998l 0.826356, -3.33786l 0.826356, 2.87972l 0.826356, -0.409051l 0.825944, 0.0327241l 0.826356, 0.212707l
 0.826356, -0.409051l 0.826356, -6.65935l 0.826356, 2.69974l 0.826356, 2.15979l 0.825944, -4.30322l 0.826356, 4.20504l 0.826356, -1.898l 0.826356, -0.916274l 0.826356, -2.40522l 0.825944, 2.02889l 0.826356, -2.99425l 0.826356, 1.24352l 0.826356,
 -0.0654482l 0.826356, 1.35805l 0.825944, -1.79982l 0.826356, -1.12898l 0.826356, -2.87972l 0.826356, 1.32533l 0.826356, -1.55439l 0.825944, -11.2734l 0.826356, 13.0078l 0.826356, -1.84891l 0.826356, 0.523585l 0.826356, -7.05204l 0.825944, 2.17615l
 0.826356, -5.18677l 0.826356, 5.7758l 0.826356, -6.07032l 0.826356, 6.70844l 0.826356, -2.14343l 0.825944, 0.196344l 0.826356, -3.74691l 0.826356, 2.25796l 0.826356, -5.66127l 0.826356, 5.49765l 0.825944, -5.07223l 0.826356, 1.58712l 0.826356,
 -0.0490861l 0.826356, 0.507223l 0.826356, -1.43986l 0.825944, 2.92881l 0.826356, -9.4409l 0.826356, 3.27241l 0.826356, 1.06353l 0.826356, -1.91436l 0.825944, 3.95961l 0.826356, -0.834464l 0.826356, -12.8115l 0.826356, 9.86631l 0.826356, -4.97406l
 0.825944, -3.38694l 0.826356, 1.93072l 0.826356, -9.31l 0.826356, 12.3533l 0.826356, 0.16362l 0.826356, 1.61984l 0.825944, -0.376327l 0.826356, -0.261793l 0.826356, -1.14534l 0.826356, -4.0087l 0.826356, 1.07989l 0.825944, 2.1107l 0.826356,
 -2.07798l 0.826356, -3.73055l 0.826356, 4.63046l 0.826356, -1.25988l 0.825944, -1.78346l 0.826356, -1.34169l 0.826356, -12.2879l 0.826356, 14.7422l 0.826356, -12.1079l 0.825944, 6.39756l 0.826356, -1.83255l 0.826356, 2.76518l 0.826356, -2.76518l
 0.826356, -1.75074l 0.825944, -2.02889l 0.826356, 2.5852l 0.826356, 0.310879l 0.826356, -2.09434l 0.826356, -3.99234l 0.826356, 1.55439l 0.825944, 0.0981722l 0.826356, -0.752654l 0.826356, -8.4919l 0.826356, 2.50339l 0.826356, 2.2416l 0.825944,
 4.79408l 0.826356, -7.36292l 0.826356, 8.03376l 0.826356, 1.01445l 0.826356, -3.58329l 0.825944, -4.1396l 0.826356, 4.23777l 0.826356, -3.82872l 0.826356, 0.998084l 0.826356, -3.33786l 0.825944, 0.392689l 0.826356, -0.278155l 0.826356, -3.79599l
 0.826356, -2.35613l 0.826356, 0.850826l 0.825944, 4.87589l 0.826356, -0.916274l 0.826356, 1.86527l 0.826356, -8.16466l 0.826356, 0.425413l 0.826356, -1.97981l 0.825944, -1.52167l 0.826356, 1.71801l 0.826356, 4.43411l 0.826356, -1.81619l 0.826356,
 -3.32149l 0.825944, 0.736292l 0.826356, 1.45622l 0.826356, -9.04821l 0.826356, -2.09434l 0.826356, -9.37545l 0.825944, 8.24647l 0.826356, 1.4235l 0.826356, 6.33211l 0.826356, -6.29939l 0.826356, 6.02123l 0.825944, -1.91436l 0.826356, -1.2926l
 0.826356, -1.70165l 0.826356, -2.04525l 0.826356, -1.17807l 0.825944, -5.28494l 0.826356, 3.51784l 0.826356, 1.68529l 0.826356, -4.76135l 0.826356, -5.48128l 0.826356, 0.409051l 0.825944, -2.55248l 0.826356, 7.05204l 0.826356, 6.47937l 0.826356,
 -3.27241l 0.826356, 2.5852l 0.825944, -0.0818102l 0.826356, -4.20504l 0.826356, -3.12515l 0.826356, 2.17615l 0.826356, 1.39077l 0.825944, -0.0327241l 0.826356, -0.88355l 0.826356, -6.64299l 0.826356, 3.58329l 0.826356, 1.45622l 0.825944, -4.22141l
 0.826356, -1.898l 0.826356, 2.33977l 0.826356, 5.39947l 0.826356, -8.88459l 0.825944, 9.58816l 0.826356, -5.41584l 0.826356, -0.212707l 0.826356, -6.18485l 0.826356, -1.7671l 0.826356, 5.74308l 0.825944, 1.21079l 0.826356, -3.6651l 0.826356,
 -3.41967l 0.826356, -22.596l 0.826356, 16.8856l 0.825944, 2.15979l 0.826356, -4.18868l 0.826356, 8.42645l 0.826356, -11.2734l 0.826356, 1.96344l 0.825944, -1.66893l 0.826356, 4.4832l 0.826356, 1.39077l 0.826356, -4.25413l 0.826356, -3.09243l
 0.825944, 3.23968l 0.826356, -0.0327241l 0.826356, 4.0087l 0.826356, -5.87397l 0.826356, -1.2926l 0.825944, 0.245431l 0.826356, -7.6738l 0.826356, -5.62854l 0.826356, 3.79599l 0.826356, 7.37928l 0.826356, 2.87972l 0.825944, -11.4043l 0.826356,
 10.8153l 0.826356, 2.43794l 0.826356, -12.746l 0.826356, 0.71993l 0.825944, 6.85569l 0.826356, 4.27049l 0.826356, -1.01445l 0.826356, -6.43028l 0.826356, 1.24352l 0.825944, -1.57076l 0.826356, 0.687206l 0.826356, -6.08668l 0.826356, -5.59582l
 0.826356, 15.5603l 0.825944, -1.53803l 0.826356, 0.572671l 0.826356, -3.76327l 0.826356, -0.474499l 0.826356, -6.46301l 0.825944, 0.998084l 0.826356, -6.43028l 0.826356, 15.2331l 0.826356, -19.6672l 0.826356, 2.847l 0.826356, 1.83255l 0.825944,
 2.56884l 0.826356, -10.2263l 0.826356, 6.34847l 0.826356, -2.33977l 0.826356, -0.981722l 0.825944, 9.76814l 0.826356, -6.54482l 0.826356, 3.92689l 0.826356, -0.654482l 0.826356, -10.0299l 0.825944, 9.45726l 0.826356, -2.76518l 0.826356, 8.45918l
 0.826356, -7.16657l 0.826356, -4.20504l 0.825944, -3.5342l 0.826356, 6.92114l 0.826356, -1.12898l 0.826356, 0.948998l 0.826356, -5.10496l 0.825944, -3.20696l 0.826356, 1.96344l 0.826356, 4.04142l 0.826356, -3.51784l 0.826356, -5.36675l 0.826356,
 1.12898l 0.825944, 2.87972l 0.826356, -5.35039l 0.826356, -2.25796l 0.826356, 3.04334l 0.826356, 3.6651l 0.825944, -4.1396l 0.826356, -7.34656l 0.826356, -12.1079l 0.826356, 19.7817l 0.826356, -13.1878l 0.825944, -15.0858l 0.826356, 25.7048l
 0.826356, 3.22332l 0.826356, -3.82872l 0.826356, -0.229069l 0.825944, 3.43603l 0.826356, 0.490861l 0.826356, -13.3678l 0.826356, -6.16849l 0.826356, 8.8355l 0.825944, -3.12515l 0.826356, 6.95387l 0.826356, -9.13002l 0.826356, 0.899912l 0.826356,
 -7.75561l 0.826356, 3.69782l 0.825944, -0.179982l 0.826356, 3.61601l 0.826356, 0.0981722l 0.826356, 2.81427l 0.826356, -9.60452l 0.825944, 11.7807l 0.826356, -4.97406l 0.826356, -3.15787l 0.826356, 3.69782l 0.826356, -9.04821l 0.825944, 4.85953l
 0.826356, 4.02506l 0.826356, -2.42158l 0.826356, -6.54482l 0.826356, 1.88163l 0.825944, -1.6362l 0.826356, -0.0490861l 0.826356, -9.21183l 0.826356, -0.490861l 0.826356, 17.4747l 0.825944, -11.5189l 0.826356, 2.99425l 0.826356, 3.79599l 0.826356,
 -5.80852l 0.826356, -4.3523l 0.826356, 9.03185" fill="none" stroke="#ff0000"/>
<path d="M77.8085,315.698l 0.825944, -0.147258l 0.826356, -0.147258l 0.826356, -0.294517l 0.826356, -0.16362l 0.826356, 0.114534l 0.825944, -0.539947l 0.826356, -0.114534l 0.826356, 0.196344l 0.826356, -0.670844l 0.826356, 0.523585l 0.825944,
 -0.0327241l 0.826356, -0.621758l 0.826356, 0.458137l 0.826356, -0.670844l 0.826356, -0.0981722l 0.825944, -0.147258l 0.826356, 0.0490861l 0.826356, 0.130896l 0.826356, -1.21079l 0.826356, -1.04717l 0.825944, 1.93072l 0.826356, -0.212707l 0.826356,
 0.245431l 0.826356, -0.409051l 0.826356, 0.278155l 0.825944, -0.245431l 0.826356, -0.376327l 0.826356, 0.0490861l 0.826356, -1.09626l 0.826356, 1.86527l 0.826356, -0.556309l 0.825944, 0.71993l 0.826356, -0.654482l 0.826356, 0.0490861l 0.826356,
 -0.114534l 0.826356, -1.79982l 0.825944, 1.91436l 0.826356, -0.932636l 0.826356, -0.589033l 0.826356, 0.621758l 0.826356, 0.916274l 0.825944, -3.25605l 0.826356, 2.07798l 0.826356, 0.392689l 0.826356, 0.179982l 0.826356, -0.212707l 0.825944,
 0.556309l 0.826356, -0.490861l 0.826356, -1.32533l 0.826356, -0.687206l 0.826356, 0.63812l 0.825944, -1.40714l 0.826356, 0.670844l 0.826356, 2.19251l 0.826356, -2.42158l 0.826356, 1.50531l 0.826356, -2.81427l 0.825944, 2.66701l 0.826356, -1.40714l
 0.826356, 0.998084l 0.826356, 0.899912l 0.826356, -0.654482l 0.825944, -2.76518l 0.826356, 3.20696h 0.826356l 0.826356, -1.03081l 0.826356, -1.25988l 0.825944, 2.22524l 0.826356, -1.6362l 0.826356, -0.114534l 0.826356, 1.55439l 0.826356, -0.114534l
 0.825944, -1.37441l 0.826356, 1.57076l 0.826356, -0.818102l 0.826356, -0.981722l 0.826356, -0.130896l 0.825944, -0.278155l 0.826356, 1.52167l 0.826356, -2.50339l 0.826356, 0.752654l 0.826356, 0.327241l 0.826356, 2.07798l 0.825944, -1.07989l
 0.826356, -2.63429l 0.826356, -1.32533l 0.826356, 1.37441l 0.826356, -2.50339l 0.825944, 5.20313l 0.826356, -1.07989l 0.826356, -0.556309l 0.826356, 1.91436l 0.826356, -1.32533l 0.825944, 0.834464l 0.826356, -3.07606l 0.826356, 2.45431l 0.826356,
 0.523585l 0.826356, -2.15979l 0.825944, 2.69974l 0.826356, -3.02698l 0.826356, 2.56884l 0.826356, -3.68146l 0.826356, 1.57076l 0.825944, 0.0327241l 0.826356, 0.16362l 0.826356, 0.670844l 0.826356, 0.752654l 0.826356, 0.130896l 0.826356, -0.556309l
 0.825944, -0.0981722l 0.826356, -2.50339l 0.826356, 3.25605l 0.826356, -1.75074l 0.826356, -0.818102l 0.825944, 2.56884l 0.826356, -2.99425l 0.826356, 1.83255l 0.826356, 0.556309l 0.826356, -0.261793l 0.825944, -0.88355l 0.826356, -1.09626l
 0.826356, 1.70165l 0.826356, -0.834464l 0.826356, 0.359965l 0.825944, 0.670844l 0.826356, -0.310879l 0.826356, -2.15979l 0.826356, -0.310879l 0.826356, 1.7671l 0.825944, 1.01445l 0.826356, -0.441775l 0.826356, 0.834464l 0.826356, -1.04717l 0.826356,
 0.474499l 0.826356, -1.57076l 0.825944, 1.22715l 0.826356, -1.19443l 0.826356, -0.0981722l 0.826356, 0.310879l 0.826356, 0.0327241l 0.825944, 1.22715l 0.826356, -0.261793l 0.826356, -0.687206l 0.826356, 0.736292l 0.826356, -1.27624l 0.825944,
 0.229069l 0.826356, 0.114534l 0.826356, -1.2926l 0.826356, 1.68529l 0.826356, -2.32341l 0.825944, 1.68529l 0.826356, -1.30896l 0.826356, 1.65257l 0.826356, -1.88163l 0.826356, 0.114534l 0.825944, 0.409051l 0.826356, -0.916274l 0.826356, 1.53803l
 0.826356, -0.507223l 0.826356, 1.60348l 0.826356, -2.40522l 0.825944, 0.556309l 0.826356, 0.310879l 0.826356, 0.490861l 0.826356, -1.30896l 0.826356, 1.61984l 0.825944, -1.45622l 0.826356, 0.245431l 0.826356, -0.212707l 0.826356, 0.687206l 0.826356,
 -0.916274l 0.825944, 0.245431l 0.826356, -2.47067l 0.826356, 3.1906l 0.826356, -0.245431l 0.826356, -0.507223l 0.825944, 0.376327l 0.826356, 0.572671l 0.826356, -0.899912l 0.826356, -1.09626l 0.826356, 0.88355l 0.825944, -0.294517l 0.826356,
 0.278155l 0.826356, 0.196344l 0.826356, 0.278155l 0.826356, 0.245431l 0.826356, -2.5852l 0.825944, 2.50339l 0.826356, -0.736292l 0.826356, 0.16362l 0.826356, 0.229069l 0.826356, -2.3725l 0.825944, 2.27432l 0.826356, -0.752654l 0.826356, -0.507223l
 0.826356, 0.998084l 0.826356, -1.52167l 0.825944, -1.37441l 0.826356, 2.83063l 0.826356, -1.2926l 0.826356, 1.4235l 0.826356, -1.32533l 0.825944, 0.16362l 0.826356, 1.47258l 0.826356, -3.17424l 0.826356, 2.32341l 0.826356, 0.294517l 0.825944,
 -0.572671l 0.826356, -1.47258l 0.826356, 0.736292l 0.826356, 0.179982l 0.826356, -0.458137l 0.826356, -0.016362l 0.825944, -1.70165l 0.826356, 2.55248l 0.826356, -0.736292l 0.826356, 0.376327l 0.826356, 0.114534l 0.825944, -0.392689l 0.826356,
 -0.769016l 0.826356, 0.948998l 0.826356, -0.916274l 0.826356, 1.48895l 0.825944, -1.96344l 0.826356, 0.818102l 0.826356, -1.47258l 0.826356, 0.769016l 0.826356, 1.04717l 0.825944, -1.86527l 0.826356, 2.29069l 0.826356, -0.212707l 0.826356,
 -0.769016l 0.826356, -1.75074l 0.825944, 1.07989l 0.826356, 0.212707l 0.826356, -1.96344l 0.826356, 3.01062l 0.826356, -1.7671l 0.826356, 1.37441l 0.825944, -1.21079l 0.826356, -0.0327241l 0.826356, -0.130896l 0.826356, -0.409051l 0.826356,
 0.327241l 0.825944, -0.16362l 0.826356, 0.899912l 0.826356, -1.83255l 0.826356, 1.75074l 0.826356, -0.899912l 0.825944, 0.998084l 0.826356, -1.12898l 0.826356, 1.09626l 0.826356, -2.51975l 0.826356, 2.15979l 0.825944, 0.818102l 0.826356, -0.409051l
 0.826356, -1.07989l 0.826356, 0.327241l 0.826356, 0.80174l 0.825944, -0.703568l 0.826356, -2.06162l 0.826356, 2.27432l 0.826356, -5.23585l 0.826356, 3.95961l 0.826356, 0.327241l 0.825944, -2.15979l 0.826356, 2.7161l 0.826356, 0.261793l 0.826356,
 -3.51784l 0.826356, 2.47067l 0.825944, -2.17615l 0.826356, 2.07798l 0.826356, -0.212707l 0.826356, 1.30896l 0.826356, -1.4235l 0.825944, 1.40714l 0.826356, -2.96153l 0.826356, 2.25796l 0.826356, -1.71801l 0.826356, 1.50531l 0.825944, -2.22524l
 0.826356, 2.09434l 0.826356, -0.310879l 0.826356, 1.52167l 0.826356, -1.96344l 0.825944, -2.09434l 0.826356, 3.07606l 0.826356, -0.589033l 0.826356, -2.50339l 0.826356, 1.21079l 0.826356, 1.21079l 0.825944, 0.539947l 0.826356, -1.30896l 0.826356,
 0.229069l 0.826356, -3.41967l 0.826356, 1.2926l 0.825944, 1.60348l 0.826356, 0.736292l 0.826356, -0.261793l 0.826356, -0.130896l 0.826356, 1.21079l 0.825944, -0.785378l 0.826356, -0.130896l 0.826356, -1.27624l 0.826356, 1.24352l 0.826356, -0.327241l
 0.825944, -0.130896l 0.826356, -0.327241l 0.826356, -1.86527l 0.826356, -3.61601l 0.826356, 6.36483l 0.825944, -1.39077l 0.826356, 1.12898l 0.826356, -2.20888l 0.826356, 1.93072l 0.826356, -2.07798l 0.826356, 1.07989l 0.825944, 1.30896l 0.826356,
 -2.30705l 0.826356, 1.2926l 0.826356, 0.212707l 0.826356, -1.01445l 0.825944, 0.458137l 0.826356, 0.703568l 0.826356, -0.785378l 0.826356, -2.83063l 0.826356, 0.785378l 0.825944, 1.01445l 0.826356, 0.80174l 0.826356, 1.50531l 0.826356, -1.61984l
 0.826356, -0.670844l 0.825944, -0.0654482l 0.826356, 0.016362l 0.826356, -0.80174l 0.826356, 0.572671l 0.826356, 1.09626l 0.825944, -0.245431l 0.826356, 0.834464l 0.826356, -1.60348l 0.826356, 1.17807l 0.826356, 0.376327l 0.826356, -1.83255l
 0.825944, -1.94708l 0.826356, 2.47067l 0.826356, -0.490861l 0.826356, 1.30896l 0.826356, -2.01253l 0.825944, -0.458137l 0.826356, 1.48895l 0.826356, -0.490861l 0.826356, -2.69974l 0.826356, 2.35613l 0.825944, 1.21079l 0.826356, 0.0327241l 0.826356,
 0.0490861l 0.826356, 0.245431l 0.826356, 0.0654482l 0.825944, -1.48895l 0.826356, 0.327241l 0.826356, -3.01062l 0.826356, 2.38886l 0.826356, 0.867188l 0.825944, -2.07798l 0.826356, 1.11262l 0.826356, 0.130896l 0.826356, 0.523585l 0.826356,
 -0.147258l 0.826356, -2.09434l 0.825944, 2.2416l 0.826356, -1.2926l 0.826356, -0.441775l 0.826356, 1.99617l 0.826356, -0.654482l 0.825944, 1.01445l 0.826356, -1.52167l 0.826356, -0.310879l 0.826356, 1.53803l 0.826356, -1.7671l 0.825944, 2.15979l
 0.826356, -2.94517l 0.826356, 0.310879l 0.826356, 1.52167l 0.826356, 1.1617l 0.825944, -2.14343l 0.826356, -0.916274l 0.826356, -2.25796l 0.826356, 2.79791l 0.826356, 0.899912l 0.825944, -2.66701l 0.826356, -1.94708l 0.826356, 5.10496l 0.826356,
 -0.294517l 0.826356, -1.88163l 0.826356, 1.52167l 0.825944, -1.65257l 0.826356, 0.523585l 0.826356, 0.196344l 0.826356, -0.376327l 0.826356, 1.60348l 0.825944, -1.97981l 0.826356, -0.932636l 0.826356, 0.343603l 0.826356, 0.785378l 0.826356,
 -0.703568l 0.825944, 0.703568l 0.826356, -2.12707l 0.826356, 1.7671l 0.826356, 0.88355l 0.826356, 0.310879l 0.825944, -1.88163l 0.826356, 1.07989l 0.826356, 0.294517l 0.826356, -0.589033l 0.826356, 1.30896l 0.825944, -3.64874l 0.826356, 2.02889l
 0.826356, -0.71993l 0.826356, 1.7671l 0.826356, -1.50531l 0.826356, 0.785378l 0.825944, -3.02698l 0.826356, 0.867188l 0.826356, 1.94708l 0.826356, -0.589033l 0.826356, 0.572671l 0.825944, 0.88355l 0.826356, -2.56884l 0.826356, 1.60348l 0.826356,
 -0.63812l 0.826356, 0.539947l 0.825944, 0.818102l 0.826356, -1.81619l 0.826356, 1.07989l 0.826356, 0.490861l 0.826356, -0.621758l 0.825944, 0.605395l 0.826356, -3.63237l 0.826356, 4.1396l 0.826356, -1.07989l 0.826356, -4.4832l 0.825944, 5.10496l
 0.826356, 0.261793l 0.826356, -2.79791l 0.826356, -2.33977l 0.826356, 2.09434l 0.826356, 1.21079l 0.825944, -1.97981l 0.826356, 2.81427l 0.826356, -1.40714l 0.826356, 1.1617l 0.826356, 0.016362l 0.825944, -0.490861l 0.826356, -0.441775l 0.826356,
 -1.04717l 0.826356, 0.981722l 0.826356, -0.0654482l 0.825944, -1.75074l 0.826356, -0.278155l 0.826356, -2.30705l 0.826356, 2.847l 0.826356, 0.80174l 0.825944, 1.35805l 0.826356, 0.130896l 0.826356, -0.71993l 0.826356, -0.539947l 0.826356, -0.376327l
 0.825944, -2.2416l 0.826356, 2.15979l 0.826356, 0.474499l 0.826356, -0.63812l 0.826356, 1.68529l 0.826356, -0.998084l 0.825944, -0.409051l 0.826356, 0.507223l 0.826356, -0.96536l 0.826356, -0.376327l 0.826356, 0.556309l 0.825944, 0.589033l 0.826356,
 -2.06162l 0.826356, -1.30896l 0.826356, 2.12707l 0.826356, 0.605395l 0.825944, -0.343603l 0.826356, 0.523585l 0.826356, -1.19443l 0.826356, 1.97981l 0.826356, -4.12323l 0.825944, 2.06162l 0.826356, 1.6362l 0.826356, -0.392689l 0.826356, -0.359965l
 0.826356, -0.80174l 0.825944, 0.703568l 0.826356, -0.0490861l 0.826356, -1.91436l 0.826356, -0.376327l 0.826356, 1.24352l 0.826356, 0.932636" fill="none" stroke="#0000ff"/>
<rect x="85.5394" y="52.6163" width="170.079" height="70.1551" fill="white"/>
<path d="M85.5394,122.771h 170.079" fill="none" stroke="black"/>
<path d="M255.618,122.771v -70.1551" fill="none" stroke="black"/>
<path d="M255.618,52.6163h -170.079" fill="none" stroke="black"/>
<path d="M85.5394,52.6163v 70.1551" fill="none" stroke="black"/>
<text xml:space="preserve" x="145.55" y="64.9409" fill="black" font-size="13.5464" font-family="Helvetica">algorithm</text>
<text xml:space="preserve" x="128.012" y="82.4797" fill="black" font-size="13.5464" font-family="Helvetica">heap sort</text>
<path d="M91.9173,85.0631h 29.7638v -12.2771h -29.7638z" fill="white"/>
<path d="M91.9173,78.9245h 29.7638" fill="none" stroke="#00ff00"/>
<g stroke="black" stroke-width="1" fill="none">
<line x1="105.799" y1="78.9245" x2="106.799" y2="78.9245"/>
</g>
<text xml:space="preserve" x="128.012" y="100.018" fill="black" font-size="13.5464" font-family="Helvetica">shell sort</text>
<path d="M91.9173,102.602h 29.7638v -12.2771h -29.7638z" fill="white"/>
<path d="M91.9173,96.4633h 29.7638" fill="none" stroke="#ff0000"/>
<g stroke="black" stroke-width="1" fill="none">
<line x1="105.799" y1="96.4633" x2="106.799" y2="96.4633"/>
</g>
<text xml:space="preserve" x="128.012" y="117.557" fill="black" font-size="13.5464" font-family="Helvetica">parallel quicksort</text>
<path d="M91.9173,120.141h 29.7638v -12.2771h -29.7638z" fill="white"/>
<path d="M91.9173,114.002h 29.7638" fill="none" stroke="#0000ff"/>
<g stroke="black" stroke-width="1" fill="none">
<line x1="105.799" y1="114.002" x2="106.799" y2="114.002"/>
</g>
<text xml:space="preserve" x="203.855" y="17.0648" fill="black" font-size="15.5447" font-family="Helvetica">Sort Benchmark T=float</text></svg>
