<?xml version="1.0" standalone="no"?>
<svg width="567.429" height="351.276" viewBox="0 0 567.429 351.276" xmlns="http://www.w3.org/2000/svg" shape-rendering="crispEdges">
<title>
root_canvas_double.svg
</title>
<desc>
Creator: ROOT Version 6.18/04
CreationDate: Thu Jun 25 17:18:39 2020</desc>
<defs>
</defs>
<rect x="0.5" y="0" width="566.929" height="350.776" fill="white"/>
<rect x="57.1929" y="35.0776" width="453.543" height="280.62" fill="white"/>
<rect x="57.1929" y="35.0776" width="453.543" height="280.62" fill="none" stroke="black"/>
<rect x="57.1929" y="35.0776" width="453.543" height="280.62" fill="white"/>
<rect x="57.1929" y="35.0776" width="453.543" height="280.62" fill="none" stroke="black"/>
<path d="M57.1929,315.698h 453.543" fill="none" stroke="black"/>
<path d="M77.7673,307.279v 8.41861" fill="none" stroke="black"/>
<path d="M98.3849,311.489v 4.20931" fill="none" stroke="black"/>
<path d="M119.003,311.489v 4.20931" fill="none" stroke="black"/>
<path d="M139.62,311.489v 4.20931" fill="none" stroke="black"/>
<path d="M160.238,307.279v 8.41861" fill="none" stroke="black"/>
<path d="M180.856,311.489v 4.20931" fill="none" stroke="black"/>
<path d="M201.473,311.489v 4.20931" fill="none" stroke="black"/>
<path d="M222.091,311.489v 4.20931" fill="none" stroke="black"/>
<path d="M242.709,307.279v 8.41861" fill="none" stroke="black"/>
<path d="M263.326,311.489v 4.20931" fill="none" stroke="black"/>
<path d="M283.944,311.489v 4.20931" fill="none" stroke="black"/>
<path d="M304.562,311.489v 4.20931" fill="none" stroke="black"/>
<path d="M325.179,307.279v 8.41861" fill="none" stroke="black"/>
<path d="M345.797,311.489v 4.20931" fill="none" stroke="black"/>
<path d="M366.415,311.489v 4.20931" fill="none" stroke="black"/>
<path d="M387.032,311.489v 4.20931" fill="none" stroke="black"/>
<path d="M407.65,307.279v 8.41861" fill="none" stroke="black"/>
<path d="M428.268,311.489v 4.20931" fill="none" stroke="black"/>
<path d="M448.885,311.489v 4.20931" fill="none" stroke="black"/>
<path d="M469.503,311.489v 4.20931" fill="none" stroke="black"/>
<path d="M490.121,307.279v 8.41861" fill="none" stroke="black"/>
<path d="M77.7673,307.279v 8.41861" fill="none" stroke="black"/>
<path d="M490.121,307.279v 8.41861" fill="none" stroke="black"/>
<text xml:space="preserve" x="74.4473" y="327.075" fill="black" font-size="11.7634" font-family="Helvetica">0</text>
<text xml:space="preserve" x="150.291" y="327.075" fill="black" font-size="11.7634" font-family="Helvetica">200</text>
<text xml:space="preserve" x="232.77" y="327.075" fill="black" font-size="11.7634" font-family="Helvetica">400</text>
<text xml:space="preserve" x="315.25" y="327.075" fill="black" font-size="11.7634" font-family="Helvetica">600</text>
<text xml:space="preserve" x="397.73" y="327.075" fill="black" font-size="11.7634" font-family="Helvetica">800</text>
<text xml:space="preserve" x="476.891" y="327.075" fill="black" font-size="11.7634" font-family="Helvetica">1000</text>
<text xml:space="preserve" x="530.93" y="310.01" fill="black" font-size="8.00896" font-family="Helvetica">3</text>
<text xml:space="preserve" x="518.605" y="315.698" fill="black" font-size="11.7634" font-family="Helvetica">10</text>
<text xml:space="preserve" x="512.443" y="315.698" fill="black" font-size="11.7634" font-family="Times">&#0215;</text>
<text xml:space="preserve" x="439.917" y="338.451" fill="black" font-size="11.7634" font-family="Helvetica"> X number (N)</text>
<path d="M57.1929,315.698v -280.62" fill="none" stroke="black"/>
<path d="M70.7992,315.698h -13.6063" fill="none" stroke="black"/>
<path d="M63.9961,307.691h -6.80315" fill="none" stroke="black"/>
<path d="M63.9961,299.683h -6.80315" fill="none" stroke="black"/>
<path d="M63.9961,291.676h -6.80315" fill="none" stroke="black"/>
<path d="M70.7992,283.668h -13.6063" fill="none" stroke="black"/>
<path d="M63.9961,275.661h -6.80315" fill="none" stroke="black"/>
<path d="M63.9961,267.653h -6.80315" fill="none" stroke="black"/>
<path d="M63.9961,259.646h -6.80315" fill="none" stroke="black"/>
<path d="M70.7992,251.638h -13.6063" fill="none" stroke="black"/>
<path d="M63.9961,243.631h -6.80315" fill="none" stroke="black"/>
<path d="M63.9961,235.623h -6.80315" fill="none" stroke="black"/>
<path d="M63.9961,227.616h -6.80315" fill="none" stroke="black"/>
<path d="M70.7992,219.608h -13.6063" fill="none" stroke="black"/>
<path d="M63.9961,211.601h -6.80315" fill="none" stroke="black"/>
<path d="M63.9961,203.593h -6.80315" fill="none" stroke="black"/>
<path d="M63.9961,195.586h -6.80315" fill="none" stroke="black"/>
<path d="M70.7992,187.578h -13.6063" fill="none" stroke="black"/>
<path d="M63.9961,179.571h -6.80315" fill="none" stroke="black"/>
<path d="M63.9961,171.563h -6.80315" fill="none" stroke="black"/>
<path d="M63.9961,163.556h -6.80315" fill="none" stroke="black"/>
<path d="M70.7992,155.548h -13.6063" fill="none" stroke="black"/>
<path d="M63.9961,147.541h -6.80315" fill="none" stroke="black"/>
<path d="M63.9961,139.533h -6.80315" fill="none" stroke="black"/>
<path d="M63.9961,131.526h -6.80315" fill="none" stroke="black"/>
<path d="M70.7992,123.519h -13.6063" fill="none" stroke="black"/>
<path d="M63.9961,115.511h -6.80315" fill="none" stroke="black"/>
<path d="M63.9961,107.504h -6.80315" fill="none" stroke="black"/>
<path d="M63.9961,99.4961h -6.80315" fill="none" stroke="black"/>
<path d="M70.7992,91.4886h -13.6063" fill="none" stroke="black"/>
<path d="M63.9961,83.4812h -6.80315" fill="none" stroke="black"/>
<path d="M63.9961,75.4737h -6.80315" fill="none" stroke="black"/>
<path d="M63.9961,67.4662h -6.80315" fill="none" stroke="black"/>
<path d="M70.7992,59.4587h -13.6063" fill="none" stroke="black"/>
<path d="M70.7992,59.4587h -13.6063" fill="none" stroke="black"/>
<path d="M63.9961,51.4512h -6.80315" fill="none" stroke="black"/>
<path d="M63.9961,43.4438h -6.80315" fill="none" stroke="black"/>
<path d="M63.9961,35.4363h -6.80315" fill="none" stroke="black"/>
<text xml:space="preserve" x="47.9021" y="319.964" fill="black" font-size="11.7634" font-family="Helvetica">0</text>
<text xml:space="preserve" x="41.7398" y="287.731" fill="black" font-size="11.7634" font-family="Helvetica">20</text>
<text xml:space="preserve" x="41.7398" y="255.497" fill="black" font-size="11.7634" font-family="Helvetica">40</text>
<text xml:space="preserve" x="41.7398" y="223.738" fill="black" font-size="11.7634" font-family="Helvetica">60</text>
<text xml:space="preserve" x="41.7398" y="191.505" fill="black" font-size="11.7634" font-family="Helvetica">80</text>
<text xml:space="preserve" x="35.5776" y="159.745" fill="black" font-size="11.7634" font-family="Helvetica">100</text>
<text xml:space="preserve" x="35.5776" y="127.512" fill="black" font-size="11.7634" font-family="Helvetica">120</text>
<text xml:space="preserve" x="35.5776" y="95.7523" fill="black" font-size="11.7634" font-family="Helvetica">140</text>
<text xml:space="preserve" x="35.5776" y="63.5188" fill="black" font-size="11.7634" font-family="Helvetica">160</text>
<g transform="rotate(-90,21.3569,95.7523)">
<text xml:space="preserve" x="21.3569" y="95.7523" fill="black" font-size="11.7634" font-family="Helvetica"> Y time (ms)</text>
</g>
<path d="M77.8085,315.698l 0.825944, -0.272254l 0.826356, -0.12812l 0.826356, -0.208194l 0.826356, -0.224209l 0.826356, -0.240224l 0.825944, -0.256239l 0.826356, -0.224209l 0.826356, -0.256239l 0.826356, -0.240224l 0.826356, -0.256239l 0.825944,
 -0.256239l 0.826356, -0.320299l 0.826356, -0.336314l 0.826356, -0.112105l 0.826356, -0.272254l 0.825944, -0.272254l 0.826356, -0.272254l 0.826356, -0.624583l 0.826356, -0.0320299l 0.826356, -0.288269l 0.825944, -0.960897l 0.826356, -0.624583l
 0.826356, 0.320299l 0.826356, 0.0800748l 0.826356, -0.400374l 0.825944, -0.208194l 0.826356, -0.272254l 0.826356, -0.304284l 0.826356, -0.288269l 0.826356, -0.288269l 0.826356, -0.304284l 0.825944, -0.352329l 0.826356, -1.40932l 0.826356, 0.736688l
 0.826356, -0.240224l 0.826356, -0.832778l 0.825944, -0.512479l 0.826356, -0.0320299l 0.826356, -1.00894l 0.826356, 0.640598l 0.826356, -0.992927l 0.825944, 0.560523l 0.826356, -0.816763l 0.826356, -0.0320299l 0.826356, -1.02496l 0.826356,
 -0.0480449l 0.825944, -0.176165l 0.826356, -0.448419l 0.826356, -0.592553l 0.826356, -0.944882l 0.826356, -0.368344l 0.825944, 0.608568l 0.826356, -0.0640598l 0.826356, -0.304284l 0.826356, -0.272254l 0.826356, -0.288269l 0.826356, -1.52142l
 0.825944, -0.960897l 0.826356, 1.47338l 0.826356, -0.112105l 0.826356, -1.34526l 0.826356, 0.0800748l 0.825944, -1.37729l 0.826356, -1.50541l 0.826356, 1.18511l 0.826356, -1.05699l 0.826356, 0.12812l 0.825944, 0.960897l 0.826356, -0.800748l
 0.826356, -2.96277l 0.826356, 2.83465l 0.826356, -0.896837l 0.825944, -0.256239l 0.826356, -0.672628l 0.826356, -3.4272l 0.826356, 0.432404l 0.826356, -0.528494l 0.825944, 0.416389l 0.826356, 2.41826l 0.826356, -3.13893l 0.826356, 2.01788l 0.826356,
 -0.0800748l 0.826356, -0.432404l 0.825944, -1.18511l 0.826356, -0.896837l 0.826356, 0.528494l 0.826356, 0.272254l 0.826356, -2.30615l 0.825944, 0.12812l 0.826356, 1.90578l 0.826356, -1.50541l 0.826356, -1.3933l 0.826356, 0.688643l 0.825944,
 -1.64954l 0.826356, -1.69759l 0.826356, -0.448419l 0.826356, 1.53744l 0.826356, -0.512479l 0.825944, -5.54117l 0.826356, -0.816763l 0.826356, 5.41305l 0.826356, 0.784733l 0.826356, -0.224209l 0.825944, -3.57133l 0.826356, -0.496464l 0.826356,
 3.04284l 0.826356, -0.256239l 0.826356, -7.03057l 0.826356, 5.15682l 0.825944, -1.29721l 0.826356, 0.12812l 0.826356, -1.61751l 0.826356, 0.608568l 0.826356, 0.544508l 0.825944, -1.42533l 0.826356, 0.224209l 0.826356, -2.80262l 0.826356, 4.1799l
 0.826356, -1.3933l 0.825944, -5.62125l 0.826356, 4.61231l 0.826356, 0.112105l 0.826356, -5.42907l 0.826356, 3.8596l 0.825944, -3.01081l 0.826356, -1.15308l 0.826356, 3.52329l 0.826356, -3.1069l 0.826356, -1.34526l 0.825944, 3.81156l 0.826356,
 -4.32404l 0.826356, -1.92179l 0.826356, 0.816763l 0.826356, -1.50541h 0.826356l 0.825944, 3.79554l 0.826356, -5.28493l 0.826356, 3.21901l 0.826356, -3.28307l 0.826356, -5.4611l 0.825944, 8.568l 0.826356, -2.72254l 0.826356, -2.25811l 0.826356,
 1.55345l 0.826356, -0.0320299l 0.825944, 1.2812l 0.826356, -4.08381l 0.826356, 1.34526l 0.826356, -1.50541l 0.826356, 0.576538l 0.825944, -2.91472l 0.826356, 0.896837l 0.826356, 0.880823l 0.826356, -2.146l 0.826356, -4.29201l 0.825944, -4.7084l
 0.826356, 6.18177l 0.826356, 5.98959l 0.826356, -3.57133l 0.826356, -7.71921l 0.826356, 11.6589l 0.825944, -9.54491l 0.826356, 6.34192l 0.826356, -7.54304l 0.826356, 4.58028l 0.826356, -2.06593l 0.825944, -2.45029l 0.826356, 2.25811l 0.826356,
 -6.66222l 0.826356, 5.26892l 0.826356, -2.91472l 0.825944, 6.50207l 0.826356, -11.1464l 0.826356, 9.5289l 0.826356, -12.3315l 0.826356, 4.05178l 0.825944, 3.17096l 0.826356, -9.17657l 0.826356, 8.74417l 0.826356, 1.37729l 0.826356, -5.12479l
 0.825944, -1.21714l 0.826356, 1.6015l 0.826356, -6.14974l 0.826356, 12.6518l 0.826356, -12.6038l 0.826356, -0.704658l 0.825944, -2.53036l 0.826356, 4.53223l 0.826356, -3.82757l 0.826356, 0.144135l 0.826356, -0.272254l 0.825944, 2.24209l 0.826356,
 -2.59442l 0.826356, -5.1408l 0.826356, 9.43281l 0.826356, 3.07487l 0.825944, -2.21006l 0.826356, -0.208194l 0.826356, -5.10877l 0.826356, -1.42533l 0.826356, 3.41119l 0.825944, -10.3937l 0.826356, 5.4611l 0.826356, 1.073l 0.826356, 0.928867l
 0.826356, -0.192179l 0.825944, -7.04658l 0.826356, 5.81343l 0.826356, 3.58735l 0.826356, -5.70132l 0.826356, 0.480449l 0.826356, -7.31883l 0.825944, 11.6589l 0.826356, -5.47711l 0.826356, -3.37916l 0.826356, -4.43614l 0.826356, -2.9948l 0.825944,
 14.2853l 0.826356, -4.85253l 0.826356, 4.53223l 0.826356, -11.1784l 0.826356, 2.77059l 0.825944, -6.47004l 0.826356, 7.22274l 0.826356, 4.19592l 0.826356, -4.30802l 0.826356, -6.72628l 0.825944, 5.28493l 0.826356, -1.6015l 0.826356, -6.1017l
 0.826356, 4.24396l 0.826356, 1.52142l 0.825944, 1.7136l 0.826356, -4.59629l 0.826356, -3.8596l 0.826356, 10.1695l 0.826356, -7.12666l 0.826356, -0.0800748l 0.825944, 1.13706l 0.826356, -0.256239l 0.826356, 1.68157l 0.826356, -16.2392l 0.826356,
 11.0663l 0.825944, 6.27786l 0.826356, -5.49313l 0.826356, -3.71547l 0.826356, 0.0800748l 0.826356, 0.560523l 0.825944, -6.8544l 0.826356, 8.85627l 0.826356, -13.3885l 0.826356, 14.99l 0.826356, -5.97358l 0.825944, -3.90765l 0.826356, 6.88643l
 0.826356, -19.8585l 0.826356, 11.0823l 0.826356, 0.768718l 0.825944, 3.93968l 0.826356, -2.51435l 0.826356, -6.63019l 0.826356, 5.1408l 0.826356, -2.33818l 0.826356, 6.422l 0.825944, -7.9274l 0.826356, 6.67824l 0.826356, 6.83839l 0.826356, -13.5487l
 0.826356, 4.03577l 0.825944, -1.66556l 0.826356, 10.2656l 0.826356, -15.8548l 0.826356, 10.0093l 0.826356, -9.44882l 0.825944, 9.65702l 0.826356, -6.71027l 0.826356, -7.31883l 0.826356, 6.82237l 0.826356, -0.144135l 0.825944, -3.71547l 0.826356,
 10.5378l 0.826356, -22.6291l 0.826356, 15.5826l 0.826356, -1.44135l 0.825944, 5.54117l 0.826356, -17.7125l 0.826356, 17.0559l 0.826356, -12.1554l 0.826356, -6.98252l 0.826356, 5.07674l 0.825944, 6.422l 0.826356, 6.14974l 0.826356, -15.0701l
 0.826356, -3.1069l 0.826356, -5.5732l 0.825944, 11.6429l 0.826356, -14.7177l 0.826356, 14.2213l 0.826356, -4.90058l 0.826356, 6.91846l 0.825944, -2.77059l 0.826356, -11.0343l 0.826356, 2.4663l 0.826356, 14.0451l 0.826356, -9.91326l 0.825944,
 2.49833l 0.826356, 4.1799l 0.826356, -1.48939l 0.826356, 5.30095l 0.826356, -22.8694l 0.825944, 18.7375l 0.826356, -2.06593l 0.826356, -8.21567l 0.826356, 5.36501l 0.826356, -18.177l 0.826356, 22.4049l 0.825944, -8.47191l 0.826356, -1.85773l
 0.826356, 5.95756l 0.826356, -2.06593l 0.826356, 0.880823l 0.825944, -9.22461l 0.826356, 5.98959l 0.826356, -9.22461l 0.826356, 8.42387l 0.826356, 2.40224l 0.825944, -5.86147l 0.826356, -4.51622l 0.826356, 12.9081l 0.826356, -5.18885l 0.826356,
 -21.6362l 0.825944, 16.2552l 0.826356, -1.40932l 0.826356, 0.368344l 0.826356, -2.01788l 0.826356, 2.94675l 0.825944, 4.54825l 0.826356, -22.9014l 0.826356, 0.288269l 0.826356, 11.803l 0.826356, 1.13706l 0.826356, -9.01642l 0.825944, 11.7069l
 0.826356, 3.37916l 0.826356, -2.65848l 0.826356, -23.9424l 0.826356, 19.0098l 0.825944, -5.58922l 0.826356, 12.4276l 0.826356, -11.4507l 0.826356, 11.5148l 0.826356, -11.6108l 0.825944, 4.74043l 0.826356, 5.84546l 0.826356, -9.73709l 0.826356,
 -9.92927l 0.826356, 2.86668l 0.825944, -1.53744l 0.826356, 2.72254l 0.826356, -4.61231l 0.826356, 2.01788l 0.826356, 0.176165l 0.825944, 5.15682l 0.826356, -1.50541l 0.826356, -2.12999l 0.826356, 0.496464l 0.826356, 2.01788l 0.826356, -12.0593l
 0.825944, 4.40411l 0.826356, -2.30615l 0.826356, -6.16576l 0.826356, -1.77766l 0.826356, 11.4827l 0.825944, -0.400374l 0.826356, -11.1624l 0.826356, 8.96837l 0.826356, -10.9702l 0.826356, 20.9315l 0.825944, -6.50207l 0.826356, 9.2086l 0.826356,
 -3.45923l 0.826356, -7.39891l 0.826356, -5.01268l 0.825944, -1.48939l 0.826356, 6.90245l 0.826356, -6.16576l 0.826356, -8.10357l 0.826356, 15.7427l 0.825944, -15.7267l 0.826356, -4.72441l 0.826356, 2.4663l 0.826356, 12.1073l 0.826356, -10.1855l
 0.826356, 3.02683l 0.825944, 3.23502l 0.826356, -13.9811l 0.826356, 14.1412l 0.826356, 10.5699l 0.826356, -19.9706l 0.825944, -4.66035l 0.826356, 4.27599l 0.826356, 6.99854l 0.826356, 0.800748l 0.826356, -0.112105l 0.825944, -15.0861l 0.826356,
 21.9725l 0.826356, -15.9029l 0.826356, 21.7323l 0.826356, -12.2675l 0.825944, 6.55012l 0.826356, -16.6716l 0.826356, -7.57507l 0.826356, 26.4087l 0.826356, -21.8124l 0.825944, -3.05886l 0.826356, 3.50728l 0.826356, 17.6965l 0.826356, -1.87375l
 0.826356, -22.0686l 0.826356, 4.5002l 0.825944, 11.2585l 0.826356, -8.87228l 0.826356, 1.88976l 0.826356, 0.464434l 0.826356, -9.8492l 0.825944, 0.544508l 0.826356, -3.44322l 0.826356, 20.1148l 0.826356, -10.7941l 0.826356, -14.974l 0.825944,
 17.2161l 0.826356, 8.10357l 0.826356, -12.1714l 0.826356, -7.35086l 0.826356, -5.18885l 0.825944, 7.95943l 0.826356, 0.688643l 0.826356, -6.8544l 0.826356, 12.876l 0.826356, -13.965l 0.825944, 1.79367l 0.826356, 7.8153l 0.826356, -4.59629l 0.826356,
 -5.8935l 0.826356, 6.43801l 0.826356, 3.93968l 0.825944, 1.44135l 0.826356, -12.7479l 0.826356, -8.43988l 0.826356, 19.5382l 0.826356, 9.30469l 0.825944, -10.0254l 0.826356, -11.787l 0.826356, 17.6004l 0.826356, -17.5684l 0.826356, 14.2053l
 0.825944, -19.3781l 0.826356, 4.1799l 0.826356, 15.3904l 0.826356, -23.6221l 0.826356, 14.4615l 0.825944, -6.82237l 0.826356, -6.5341l 0.826356, 10.8101l 0.826356, -9.60897l 0.826356, 0.464434l 0.825944, 1.45736l 0.826356, 7.495l 0.826356, -7.33485l
 0.826356, -1.63353l 0.826356, 3.28307l 0.826356, 11.5628l 0.825944, -25.4317l 0.826356, 13.1162l 0.826356, -3.7475l 0.826356, 1.31323l 0.826356, -3.61938l 0.825944, 6.69425l 0.826356, 2.43427l 0.826356, 0.560523l 0.826356, -4.78847l 0.826356,
 -17.4083l 0.825944, 19.7464l 0.826356, -13.1803l 0.826356, 14.4935l 0.826356, 4.93261l 0.826356, -6.05365l 0.825944, -3.17096l 0.826356, -15.7107l 0.826356, 20.6753l 0.826356, -17.4723l 0.826356, 10.5539l 0.825944, -14.8298l 0.826356, 6.47004l
 0.826356, -2.30615l 0.826356, -5.20486l 0.826356, 4.34005l 0.826356, 6.13373" fill="none" stroke="#00ff00"/>
<path d="M77.8085,315.698l 0.825944, -0.224209l 0.826356, -0.336314l 0.826356, -0.272254l 0.826356, -0.288269l 0.826356, -0.336314l 0.825944, -0.432404l 0.826356, -0.176165l 0.826356, -0.480449l 0.826356, -0.192179l 0.826356, -0.400374l 0.825944,
 -0.384359l 0.826356, -0.464434l 0.826356, -0.240224l 0.826356, -0.400374l 0.826356, -0.352329l 0.825944, -0.656613l 0.826356, -0.0480449l 0.826356, -1.84172l 0.826356, 0.16015l 0.826356, -0.144135l 0.825944, -0.0800748l 0.826356, -0.512479l
 0.826356, -0.16015l 0.826356, -0.464434l 0.826356, -1.37729l 0.825944, -1.16909l 0.826356, 0.272254l 0.826356, -0.736688l 0.826356, -0.816763l 0.826356, -0.976912l 0.826356, -0.656613l 0.825944, -0.0480449l 0.826356, 1.44135l 0.826356, -0.448419l
 0.826356, -2.89871l 0.826356, 1.08902l 0.825944, -1.7136l 0.826356, -0.576538l 0.826356, 2.00187l 0.826356, -2.09796l 0.826356, 0.400374l 0.825944, -3.1069l 0.826356, 3.20299l 0.826356, -1.68157l 0.826356, -3.01081l 0.826356, 0.512479l 0.825944,
 -0.448419l 0.826356, 0.928867l 0.826356, -2.91472l 0.826356, 1.21714l 0.826356, 1.13706l 0.825944, -1.69759l 0.826356, -0.832778l 0.826356, 0.352329l 0.826356, -0.208194l 0.826356, -1.04097l 0.826356, 1.44135l 0.825944, -4.53223l 0.826356, 0.464434l
 0.826356, -1.24917l 0.826356, 3.28307l 0.826356, -2.9948l 0.825944, -0.368344l 0.826356, 1.92179l 0.826356, -1.15308l 0.826356, -2.62645l 0.826356, -3.17096l 0.825944, 3.41119l 0.826356, 1.2812l 0.826356, -5.66929l 0.826356, 0.736688l 0.826356,
 1.16909l 0.825944, 2.17803l 0.826356, -0.288269l 0.826356, -4.45216l 0.826356, 0.144135l 0.826356, 1.88976l 0.825944, -4.98065l 0.826356, 0.272254l 0.826356, 3.44322l 0.826356, -6.11771l 0.826356, -0.0480449l 0.826356, -1.90578l 0.825944, 6.1017l
 0.826356, 1.55345l 0.826356, -6.30989l 0.826356, -1.8257l 0.826356, 5.20486l 0.825944, -1.15308l 0.826356, -3.39517l 0.826356, 3.33111l 0.826356, -4.13186l 0.826356, -2.59442l 0.825944, 3.65141l 0.826356, 1.21714l 0.826356, -5.50914l 0.826356,
 -0.832778l 0.826356, 3.17096l 0.825944, 0.176165l 0.826356, -3.50728l 0.826356, 0.480449l 0.826356, -1.93781l 0.826356, -0.912852l 0.825944, 2.53036l 0.826356, -0.496464l 0.826356, -3.7475l 0.826356, -3.77953l 0.826356, 4.77246l 0.826356, 1.32924l
 0.825944, -1.05699l 0.826356, -1.64954l 0.826356, 0.736688l 0.826356, -4.16389l 0.826356, 2.38623l 0.825944, -2.56239l 0.826356, 0.992927l 0.826356, 0.112105l 0.826356, -5.5732l 0.826356, 4.8205l 0.825944, -0.848793l 0.826356, -6.72628l 0.826356,
 5.10877l 0.826356, 0.16015l 0.826356, 0.16015l 0.825944, -0.208194l 0.826356, -0.12812l 0.826356, -7.41492l 0.826356, 6.72628l 0.826356, -0.496464l 0.825944, -1.08902l 0.826356, -6.8544l 0.826356, 5.49313l 0.826356, 3.26705l 0.826356, -3.61938l
 0.826356, -0.896837l 0.825944, 1.80969l 0.826356, -2.96277l 0.826356, 0.240224l 0.826356, -6.29388l 0.826356, 8.71214l 0.825944, -8.95236l 0.826356, 5.98959l 0.826356, -3.28307l 0.826356, -1.56947l 0.826356, -0.112105l 0.825944, -0.544508l 0.826356,
 -1.85773l 0.826356, 6.5341l 0.826356, -7.01455l 0.826356, -0.656613l 0.825944, 5.70132l 0.826356, -6.13373l 0.826356, -0.512479l 0.826356, 1.63353l 0.826356, -4.66035l 0.825944, 5.62125l 0.826356, -0.272254l 0.826356, -0.992927l 0.826356, -6.43801l
 0.826356, 7.55906l 0.826356, -3.77953l 0.825944, -3.01081l 0.826356, -0.592553l 0.826356, 2.09796l 0.826356, -3.26705l 0.826356, 4.11584l 0.825944, -4.54825l 0.826356, 4.48419l 0.826356, -1.6015l 0.826356, -6.43801l 0.826356, 5.66929l 0.825944,
 -6.40598l 0.826356, 6.48606l 0.826356, -2.17803l 0.826356, 1.3933l 0.826356, -4.1799l 0.825944, 2.19405l 0.826356, -3.84359l 0.826356, 2.04991l 0.826356, -2.65848l 0.826356, 4.00374l 0.825944, -3.50728l 0.826356, 0.576538l 0.826356, -2.29014l
 0.826356, 3.52329l 0.826356, -6.58215l 0.826356, 3.41119l 0.825944, -5.63726l 0.826356, 3.12292l 0.826356, -4.46817l 0.826356, 4.29201l 0.826356, -0.192179l 0.825944, -0.12812l 0.826356, -2.4663l 0.826356, -2.06593l 0.826356, 1.18511l 0.826356,
 0.464434l 0.825944, 0.208194l 0.826356, -3.25104l 0.826356, 2.30615l 0.826356, 1.48939l 0.826356, -6.87042l 0.825944, 6.22982l 0.826356, -1.7136l 0.826356, -2.12999l 0.826356, 1.05699l 0.826356, 2.37021l 0.825944, -4.09983l 0.826356, 2.51435l
 0.826356, -3.58735l 0.826356, -0.544508l 0.826356, -1.74563l 0.826356, -1.42533l 0.825944, 0.624583l 0.826356, 3.84359l 0.826356, -2.45029l 0.826356, 1.80969l 0.826356, -3.57133l 0.825944, -1.45736l 0.826356, 0.12812l 0.826356, -0.12812l 0.826356,
 0.496464l 0.826356, -0.624583l 0.825944, -4.34005l 0.826356, 5.44508l 0.826356, -3.50728l 0.826356, -0.896837l 0.826356, 0.192179l 0.825944, -15.3904l 0.826356, 17.136l 0.826356, -4.64434l 0.826356, 2.53036l 0.826356, -7.41492l 0.825944, 1.80969l
 0.826356, -0.0320299l 0.826356, 2.3542l 0.826356, -6.06967l 0.826356, 2.61044l 0.826356, 0.960897l 0.825944, -1.23315l 0.826356, -4.25998l 0.826356, 5.84546l 0.826356, -3.25104l 0.826356, -4.7084l 0.825944, 1.77766l 0.826356, -1.2812l 0.826356,
 -4.98065l 0.826356, 4.77246l 0.826356, 2.7866l 0.825944, -2.06593l 0.826356, -2.19405l 0.826356, 0.416389l 0.826356, -1.34526l 0.826356, 4.40411l 0.825944, -5.62125l 0.826356, -5.81343l 0.826356, 0.864808l 0.826356, 2.45029l 0.826356, -3.41119l
 0.825944, -4.80449l 0.826356, 3.55532l 0.826356, -11.8351l 0.826356, 9.03243l 0.826356, 5.34899l 0.826356, 1.16909l 0.825944, 0.288269l 0.826356, 0.288269l 0.826356, -1.77766l 0.826356, 1.92179l 0.826356, -4.11584l 0.825944, 2.97878l 0.826356,
 1.40932l 0.826356, -5.30095l 0.826356, 3.34713l 0.826356, -3.47525l 0.825944, -0.752703l 0.826356, -0.256239l 0.826356, -15.5986l 0.826356, 16.5114l 0.826356, -9.43281l 0.825944, 1.20112l 0.826356, 3.61938l 0.826356, 3.1069l 0.826356, -2.45029l
 0.826356, -3.26705l 0.825944, -4.99667l 0.826356, 3.45923l 0.826356, 2.3542l 0.826356, -4.91659l 0.826356, 4.58028l 0.826356, 0.416389l 0.825944, -10.9222l 0.826356, 6.18177l 0.826356, -9.54491l 0.826356, 10.8902l 0.826356, -0.192179l 0.825944,
 2.06593l 0.826356, -7.03057l 0.826356, -2.00187l 0.826356, 2.48232l 0.826356, -0.208194l 0.825944, -3.63539l 0.826356, 3.29908l 0.826356, -0.224209l 0.826356, -1.45736l 0.826356, -2.6745l 0.825944, 0.704658l 0.826356, -0.624583l 0.826356, -5.58922l
 0.826356, -6.00561l 0.826356, 6.61418l 0.825944, 4.94862l 0.826356, -1.68157l 0.826356, -0.16015l 0.826356, -5.90952l 0.826356, 4.69238l 0.826356, -0.880823l 0.825944, -6.56613l 0.826356, -0.896837l 0.826356, 0.0640598l 0.826356, -3.1069l 0.826356,
 6.67824l 0.825944, -6.14974l 0.826356, 2.93074l 0.826356, -1.48939l 0.826356, -1.37729l 0.826356, -13.3405l 0.825944, 12.5237l 0.826356, 1.74563l 0.826356, 0.960897l 0.826356, -4.03577l 0.826356, 0.12812l 0.825944, 0.960897l 0.826356, 0.976912l
 0.826356, -2.00187l 0.826356, -7.07861l 0.826356, 10.4578l 0.825944, -1.84172l 0.826356, -1.96984l 0.826356, -2.19405l 0.826356, 0.288269l 0.826356, -1.93781l 0.826356, -0.12812l 0.825944, -2.0339l 0.826356, 4.45216l 0.826356, -1.32924l 0.826356,
 -0.144135l 0.826356, -0.144135l 0.825944, -6.72628l 0.826356, 2.54638l 0.826356, -3.66742l 0.826356, 4.00374l 0.826356, -7.31883l 0.825944, 4.75644l 0.826356, -2.57841l 0.826356, 4.56426l 0.826356, -9.14454l 0.826356, 5.49313l 0.825944, -2.72254l
 0.826356, 1.34526l 0.826356, -3.09089l 0.826356, 6.43801l 0.826356, -4.74043l 0.825944, 3.44322l 0.826356, -11.2745l 0.826356, 9.99333l 0.826356, -5.74937l 0.826356, -0.672628l 0.826356, 3.3151l 0.825944, 0.0640598l 0.826356, -1.42533l 0.826356,
 -8.79221l 0.826356, -16.3353l 0.826356, 12.844l 0.825944, 0.368344l 0.826356, -0.640598l 0.826356, 9.73709l 0.826356, -6.64621l 0.826356, 4.05178l 0.825944, -3.8596l 0.826356, 2.81863l 0.826356, -4.7084l 0.826356, 1.74563l 0.826356, -2.22608l
 0.825944, 3.58735l 0.826356, -1.87375l 0.826356, -0.224209l 0.826356, -13.3565l 0.826356, 5.42907l 0.825944, -0.240224l 0.826356, 2.01788l 0.826356, -0.848793l 0.826356, -7.22274l 0.826356, 2.94675l 0.826356, 5.47711l 0.825944, -6.37395l 0.826356,
 8.7762l 0.826356, -0.960897l 0.826356, -8.19966l 0.826356, 3.68344l 0.825944, 5.01268l 0.826356, -2.04991l 0.826356, -2.0339l 0.826356, -5.41305l 0.826356, 11.8671l 0.825944, -4.09983l 0.826356, -2.93074l 0.826356, -6.69425l 0.826356, -8.7762l
 0.826356, 13.9971l 0.825944, 0.320299l 0.826356, 0.784733l 0.826356, 1.85773l 0.826356, -7.06259l 0.826356, -3.28307l 0.825944, 2.29014l 0.826356, -5.66929l 0.826356, 7.30282l 0.826356, -17.4243l 0.826356, 11.3226l 0.826356, -2.12999l 0.825944,
 1.92179l 0.826356, -2.41826l 0.826356, -1.04097l 0.826356, -9.89724l 0.826356, 11.1144l 0.825944, -1.31323l 0.826356, -1.32924l 0.826356, 3.52329l 0.826356, -6.06967l 0.826356, 6.03764l 0.825944, 1.2812l 0.826356, -7.6071l 0.826356, 7.01455l
 0.826356, -2.146l 0.826356, -2.45029l 0.825944, -12.844l 0.826356, 11.9151l 0.826356, -1.15308l 0.826356, -1.90578l 0.826356, -0.720673l 0.825944, 3.65141l 0.826356, -4.72441l 0.826356, 5.0287l 0.826356, -4.45216l 0.826356, 1.3933l 0.826356,
 -1.31323l 0.825944, -4.8205l 0.826356, -0.864808l 0.826356, 1.34526l 0.826356, -1.6015l 0.826356, 2.04991l 0.825944, -6.03764l 0.826356, 0.304284l 0.826356, 0.672628l 0.826356, -1.36127l 0.826356, -5.63726l 0.825944, -28.6187l 0.826356, 30.3323l
 0.826356, 0.784733l 0.826356, 6.47004l 0.826356, -2.38623l 0.825944, 1.3933l 0.826356, -0.896837l 0.826356, -8.64808l 0.826356, -2.43427l 0.826356, -0.672628l 0.825944, 4.77246l 0.826356, -2.73856l 0.826356, -3.12292l 0.826356, 7.01455l 0.826356,
 -12.2995l 0.826356, 8.50394l 0.825944, -6.06967l 0.826356, 3.05886l 0.826356, 2.08194l 0.826356, 2.146l 0.826356, -6.16576l 0.825944, 3.98772l 0.826356, -6.47004l 0.826356, 6.38997l 0.826356, -9.88123l 0.826356, 4.83652l 0.825944, 1.13706l 0.826356,
 3.25104l 0.826356, -2.88269l 0.826356, 2.12999l 0.826356, -6.93448l 0.825944, -2.37021l 0.826356, -0.0960897l 0.826356, -12.4596l 0.826356, 16.4153l 0.826356, 2.17803l 0.825944, -5.09276l 0.826356, 6.35794l 0.826356, -4.77246l 0.826356, -8.48793l
 0.826356, 7.20673l 0.826356, -3.39517" fill="none" stroke="#ff0000"/>
<path d="M77.8085,315.698l 0.825944, -0.12812l 0.826356, -0.16015l 0.826356, -0.816763l 0.826356, 0.512479h 0.826356l 0.825944, -0.528494l 0.826356, 0.192179l 0.826356, -0.176165l 0.826356, -0.192179l 0.826356, -0.384359l 0.825944, -0.272254l
 0.826356, 0.288269l 0.826356, 0.12812l 0.826356, -0.176165l 0.826356, -0.912852l 0.825944, -0.736688l 0.826356, 1.58548l 0.826356, -0.624583l 0.826356, -1.52142l 0.826356, 1.66556l 0.825944, -0.960897l 0.826356, 0.688643l 0.826356, 0.656613l
 0.826356, -0.272254l 0.826356, 0.0640598l 0.825944, -0.16015l 0.826356, -0.928867l 0.826356, -0.416389l 0.826356, 0.192179l 0.826356, -0.0640598l 0.826356, 0.816763l 0.825944, -1.073l 0.826356, 1.15308l 0.826356, -1.8257l 0.826356, 2.01788l
 0.826356, 0.0800748l 0.825944, -2.65848l 0.826356, 2.21006l 0.826356, -1.40932l 0.826356, 0.512479l 0.826356, -1.26518l 0.825944, 0.256239l 0.826356, 0.736688l 0.826356, 0.976912l 0.826356, -1.20112l 0.826356, -0.320299l 0.825944, 1.44135l 0.826356,
 -3.84359l 0.826356, 1.44135l 0.826356, 0.960897l 0.826356, -0.448419l 0.825944, -0.352329l 0.826356, -0.240224l 0.826356, -0.304284l 0.826356, 0.896837l 0.826356, -0.816763l 0.826356, 1.2812l 0.825944, 0.0640598l 0.826356, 0.400374l 0.826356,
 -1.52142l 0.826356, 0.976912l 0.826356, -1.26518l 0.825944, 0.496464l 0.826356, 0.464434l 0.826356, -0.016015l 0.826356, -0.672628l 0.826356, 0.752703l 0.825944, -1.79367l 0.826356, 2.38623l 0.826356, 0.208194l 0.826356, -1.79367l 0.826356,
 -0.688643l 0.825944, 1.52142l 0.826356, 0.512479l 0.826356, -0.864808l 0.826356, 0.976912l 0.826356, -0.448419l 0.825944, -2.93074l 0.826356, 1.3933l 0.826356, 0.272254l 0.826356, -1.31323l 0.826356, 0.464434l 0.826356, 1.6015l 0.825944, -0.512479l
 0.826356, -0.784733l 0.826356, 0.912852l 0.826356, 0.352329l 0.826356, -0.656613l 0.825944, -6.11771l 0.826356, 5.5732l 0.826356, 1.2812l 0.826356, 0.112105l 0.826356, -0.432404l 0.825944, -0.480449l 0.826356, -2.12999l 0.826356, 1.02496l 0.826356,
 -0.368344l 0.826356, -0.656613l 0.825944, -6.50207l 0.826356, 6.422l 0.826356, 0.944882l 0.826356, -2.57841l 0.826356, 3.55532l 0.825944, -1.79367l 0.826356, 0.320299l 0.826356, 0.640598l 0.826356, -3.26705l 0.826356, 1.98585l 0.826356, 0.0960897l
 0.825944, 1.84172l 0.826356, -1.40932l 0.826356, 1.073l 0.826356, 0.800748l 0.826356, -2.24209l 0.825944, 0.320299l 0.826356, 0.608568l 0.826356, 1.08902l 0.826356, -1.21714l 0.826356, -2.08194l 0.825944, 1.76165l 0.826356, 0.816763l 0.826356,
 -0.672628l 0.826356, 0.960897l 0.826356, -1.56947l 0.825944, 1.42533l 0.826356, -1.64954l 0.826356, 1.23315l 0.826356, -1.073l 0.826356, 0.624583l 0.825944, 0.224209l 0.826356, 0.704658l 0.826356, -1.8257l 0.826356, 1.69759l 0.826356, -2.17803l
 0.826356, 1.00894l 0.825944, -0.112105l 0.826356, -0.848793l 0.826356, 1.6015l 0.826356, -0.992927l 0.826356, -0.592553l 0.825944, 0.416389l 0.826356, 0.544508l 0.826356, -0.0480449l 0.826356, -0.512479l 0.826356, -1.12105l 0.825944, 1.00894l
 0.826356, -0.352329l 0.826356, -0.0640598l 0.826356, 0.736688l 0.826356, -0.880823l 0.825944, 1.00894l 0.826356, -1.50541l 0.826356, 1.29721l 0.826356, -2.65848l 0.826356, 1.77766l 0.825944, 0.864808l 0.826356, -0.0800748l 0.826356, -1.10503l
 0.826356, 0.544508l 0.826356, -1.2812l 0.826356, 2.22608l 0.825944, -1.21714l 0.826356, -1.58548l 0.826356, 1.92179l 0.826356, -1.50541l 0.826356, 1.69759l 0.825944, -0.240224l 0.826356, 0.176165l 0.826356, -1.3933l 0.826356, 1.20112l 0.826356,
 -0.480449l 0.825944, -0.976912l 0.826356, -3.7475l 0.826356, 5.28493l 0.826356, -0.400374l 0.826356, -0.464434l 0.825944, 0.752703l 0.826356, -0.176165l 0.826356, -3.60336l 0.826356, 3.21901l 0.826356, -0.240224l 0.825944, -1.87375l 0.826356,
 -2.24209l 0.826356, 4.43614l 0.826356, 0.464434l 0.826356, -2.29014l 0.826356, -2.6745l 0.825944, 4.24396l 0.826356, -1.32924l 0.826356, 1.52142l 0.826356, -1.08902l 0.826356, -0.304284l 0.825944, -0.624583l 0.826356, 0.752703l 0.826356, 0.944882l
 0.826356, -2.62645l 0.826356, 1.7136l 0.825944, -2.40224l 0.826356, 3.44322l 0.826356, -0.704658l 0.826356, -0.416389l 0.826356, -0.608568l 0.825944, 1.12105l 0.826356, -0.256239l 0.826356, -0.16015l 0.826356, -0.576538l 0.826356, 0.480449l
 0.825944, -1.87375l 0.826356, -0.0640598l 0.826356, 2.37021l 0.826356, -1.3933l 0.826356, -0.272254l 0.826356, -2.17803l 0.825944, 3.49126l 0.826356, -0.896837l 0.826356, 0.928867l 0.826356, -0.432404l 0.826356, -4.13186l 0.825944, 3.71547l
 0.826356, -1.90578l 0.826356, 1.92179l 0.826356, -0.832778l 0.826356, -4.03577l 0.825944, 5.09276l 0.826356, 0.272254l 0.826356, -1.13706l 0.826356, -0.208194l 0.826356, -0.304284l 0.825944, 0.848793l 0.826356, 0.336314l 0.826356, -1.42533l
 0.826356, 1.05699l 0.826356, 0.480449l 0.825944, -0.624583l 0.826356, 0.144135l 0.826356, 0.560523l 0.826356, -1.85773l 0.826356, -0.704658l 0.826356, 0.12812l 0.825944, -0.0480449l 0.826356, 1.6015l 0.826356, -1.50541l 0.826356, -0.624583l
 0.826356, 0.608568l 0.825944, -1.04097l 0.826356, 1.52142l 0.826356, 0.16015l 0.826356, 0.704658l 0.826356, -0.528494l 0.825944, -0.800748l 0.826356, -1.58548l 0.826356, 0.656613l 0.826356, -0.736688l 0.826356, 0.240224l 0.825944, 2.65848l 0.826356,
 -2.62645l 0.826356, 1.48939l 0.826356, -0.432404l 0.826356, 1.26518l 0.825944, -3.4272l 0.826356, 2.56239l 0.826356, -0.0320299l 0.826356, 0.288269l 0.826356, -1.63353l 0.826356, 0.784733l 0.825944, -0.304284l 0.826356, 0.256239l 0.826356, 0.944882l
 0.826356, 0.208194l 0.826356, -4.91659l 0.825944, 4.24396l 0.826356, -1.04097l 0.826356, 1.90578l 0.826356, -4.14787l 0.826356, 3.05886l 0.825944, -1.45736l 0.826356, 1.45736l 0.826356, -7.33485l 0.826356, 7.75124l 0.826356, -0.928867l 0.825944,
 0.224209l 0.826356, 0.12812l 0.826356, -0.0640598l 0.826356, -2.7866l 0.826356, 3.01081l 0.825944, -0.816763l 0.826356, -0.224209l 0.826356, 1.76165l 0.826356, -1.37729l 0.826356, 1.21714l 0.826356, -2.37021l 0.825944, 0.960897l 0.826356, -1.47338l
 0.826356, 2.54638l 0.826356, -1.21714l 0.826356, -0.192179l 0.825944, -0.272254l 0.826356, -2.146l 0.826356, 3.21901l 0.826356, -0.688643l 0.826356, -1.56947l 0.825944, 0.240224l 0.826356, 1.37729l 0.826356, -0.624583l 0.826356, 1.6015l 0.826356,
 -7.57507l 0.825944, 4.8205l 0.826356, 0.816763l 0.826356, -0.960897l 0.826356, 1.34526l 0.826356, -1.23315l 0.825944, -0.288269l 0.826356, 1.00894l 0.826356, 0.576538l 0.826356, -2.96277l 0.826356, 2.97878l 0.826356, -1.58548l 0.825944, -3.98772l
 0.826356, 5.06073l 0.826356, 0.192179l 0.826356, -0.400374l 0.826356, 0.640598l 0.825944, -1.15308l 0.826356, 0.976912l 0.826356, -0.832778l 0.826356, -1.48939l 0.826356, -1.31323l 0.825944, -0.0320299l 0.826356, 2.54638l 0.826356, -0.12812l
 0.826356, 0.112105l 0.826356, -3.21901l 0.825944, 2.94675l 0.826356, 1.20112l 0.826356, -0.144135l 0.826356, -1.31323l 0.826356, 0.496464l 0.825944, 0.320299l 0.826356, -0.448419l 0.826356, -0.720673l 0.826356, 1.6015l 0.826356, -4.21193l 0.826356,
 -0.560523l 0.825944, 4.54825l 0.826356, -0.0480449l 0.826356, -2.53036l 0.826356, 1.92179l 0.826356, -2.49833l 0.825944, 2.51435l 0.826356, 0.368344l 0.826356, -2.69051l 0.826356, 2.22608l 0.826356, -1.13706l 0.825944, -3.29908l 0.826356, 2.12999l
 0.826356, -0.656613l 0.826356, 2.65848l 0.826356, 0.736688l 0.825944, -1.72962l 0.826356, -2.69051l 0.826356, 3.89163l 0.826356, -1.45736l 0.826356, 0.256239l 0.825944, 0.656613l 0.826356, -3.79554l 0.826356, 3.60336l 0.826356, 0.992927l 0.826356,
 -3.45923l 0.826356, 2.08194l 0.825944, -0.16015l 0.826356, -1.77766l 0.826356, 0.480449l 0.826356, -0.976912l 0.826356, 3.82757l 0.825944, -1.31323l 0.826356, -0.656613l 0.826356, -2.0339l 0.826356, 0.496464l 0.826356, 1.68157l 0.825944, -0.656613l
 0.826356, 0.432404l 0.826356, -0.928867l 0.826356, -0.720673l 0.826356, 1.90578l 0.825944, -0.144135l 0.826356, -1.00894l 0.826356, -0.704658l 0.826356, 1.37729l 0.826356, -1.08902l 0.825944, 1.18511l 0.826356, -1.44135l 0.826356, 1.23315l 0.826356,
 -9.35273l 0.826356, 7.79928l 0.826356, 0.272254l 0.825944, 1.96984l 0.826356, -0.912852l 0.826356, -1.00894l 0.826356, -0.592553l 0.826356, 2.27412l 0.825944, -1.24917l 0.826356, -1.18511l 0.826356, -2.4663l 0.826356, 3.58735l 0.826356, -1.29721l
 0.825944, -0.144135l 0.826356, -0.144135l 0.826356, 0.608568l 0.826356, 1.84172l 0.826356, -1.92179l 0.825944, -1.52142l 0.826356, 2.93074l 0.826356, -2.85066l 0.826356, 1.10503l 0.826356, 1.56947l 0.825944, -2.43427l 0.826356, 2.00187l 0.826356,
 -0.0640598l 0.826356, -1.7136l 0.826356, 0.0480449l 0.826356, 1.58548l 0.825944, 0.752703l 0.826356, -0.816763l 0.826356, -0.992927l 0.826356, -2.16202l 0.826356, 2.72254l 0.825944, 0.864808l 0.826356, -1.80969l 0.826356, 1.20112l 0.826356,
 -4.27599l 0.826356, 3.79554l 0.825944, -3.15495l 0.826356, 3.25104l 0.826356, -1.05699l 0.826356, 1.08902l 0.826356, -1.34526l 0.825944, 0.784733l 0.826356, -1.37729l 0.826356, -1.56947l 0.826356, 1.23315l 0.826356, 1.16909l 0.825944, -1.92179l
 0.826356, -1.02496l 0.826356, 4.14787l 0.826356, -2.37021l 0.826356, 1.05699l 0.826356, -5.42907l 0.825944, 6.66222l 0.826356, -0.224209l 0.826356, -2.33818l 0.826356, -0.304284l 0.826356, 1.7136l 0.825944, 0.240224l 0.826356, -3.73148l 0.826356,
 2.96277l 0.826356, -2.04991l 0.826356, 0.16015l 0.825944, 0.256239l 0.826356, 0.800748l 0.826356, -3.01081l 0.826356, 0.736688l 0.826356, 3.77953l 0.825944, -0.16015l 0.826356, -0.288269l 0.826356, -1.52142l 0.826356, -0.448419l 0.826356, 0.992927l
 0.825944, 0.208194l 0.826356, -4.5002l 0.826356, 5.82944l 0.826356, -2.12999l 0.826356, -3.01081l 0.826356, 3.34713l 0.825944, -3.5393l 0.826356, 3.8596l 0.826356, 0.0800748l 0.826356, -0.992927l 0.826356, -0.0960897l 0.825944, -0.976912l 0.826356,
 1.02496l 0.826356, -1.77766l 0.826356, 0.816763l 0.826356, 3.01081l 0.825944, -1.92179l 0.826356, 1.04097l 0.826356, -0.464434l 0.826356, -1.42533l 0.826356, 1.80969l 0.825944, -0.368344l 0.826356, -0.992927l 0.826356, 2.146l 0.826356, -4.45216l
 0.826356, 2.57841l 0.825944, -0.944882l 0.826356, 0.720673l 0.826356, 0.912852l 0.826356, -3.8596l 0.826356, -0.528494l 0.826356, 1.45736" fill="none" stroke="#0000ff"/>
<rect x="85.5394" y="52.6163" width="170.079" height="70.1551" fill="white"/>
<path d="M85.5394,122.771h 170.079" fill="none" stroke="black"/>
<path d="M255.618,122.771v -70.1551" fill="none" stroke="black"/>
<path d="M255.618,52.6163h -170.079" fill="none" stroke="black"/>
<path d="M85.5394,52.6163v 70.1551" fill="none" stroke="black"/>
<text xml:space="preserve" x="145.55" y="64.9409" fill="black" font-size="13.5464" font-family="Helvetica">algorithm</text>
<text xml:space="preserve" x="128.012" y="82.4797" fill="black" font-size="13.5464" font-family="Helvetica">heap sort</text>
<path d="M91.9173,85.0631h 29.7638v -12.2771h -29.7638z" fill="white"/>
<path d="M91.9173,78.9245h 29.7638" fill="none" stroke="#00ff00"/>
<g stroke="black" stroke-width="1" fill="none">
<line x1="105.799" y1="78.9245" x2="106.799" y2="78.9245"/>
</g>
<text xml:space="preserve" x="128.012" y="100.018" fill="black" font-size="13.5464" font-family="Helvetica">shell sort</text>
<path d="M91.9173,102.602h 29.7638v -12.2771h -29.7638z" fill="white"/>
<path d="M91.9173,96.4633h 29.7638" fill="none" stroke="#ff0000"/>
<g stroke="black" stroke-width="1" fill="none">
<line x1="105.799" y1="96.4633" x2="106.799" y2="96.4633"/>
</g>
<text xml:space="preserve" x="128.012" y="117.557" fill="black" font-size="13.5464" font-family="Helvetica">parallel quicksort</text>
<path d="M91.9173,120.141h 29.7638v -12.2771h -29.7638z" fill="white"/>
<path d="M91.9173,114.002h 29.7638" fill="none" stroke="#0000ff"/>
<g stroke="black" stroke-width="1" fill="none">
<line x1="105.799" y1="114.002" x2="106.799" y2="114.002"/>
</g>
<text xml:space="preserve" x="195.797" y="17.0648" fill="black" font-size="15.5447" font-family="Helvetica">Sort Benchmark T=double</text></svg>
