<?xml version="1.0" standalone="no"?>
<svg width="567.429" height="351.276" viewBox="0 0 567.429 351.276" xmlns="http://www.w3.org/2000/svg" shape-rendering="crispEdges">
<title>
root_canvas___int64.svg
</title>
<desc>
Creator: ROOT Version 6.18/04
CreationDate: Thu Jun 25 17:18:43 2020</desc>
<defs>
</defs>
<rect x="0.5" y="0" width="566.929" height="350.776" fill="white"/>
<rect x="57.1929" y="35.0776" width="453.543" height="280.62" fill="white"/>
<rect x="57.1929" y="35.0776" width="453.543" height="280.62" fill="none" stroke="black"/>
<rect x="57.1929" y="35.0776" width="453.543" height="280.62" fill="white"/>
<rect x="57.1929" y="35.0776" width="453.543" height="280.62" fill="none" stroke="black"/>
<path d="M57.1929,315.698h 453.543" fill="none" stroke="black"/>
<path d="M77.7673,307.279v 8.41861" fill="none" stroke="black"/>
<path d="M98.3849,311.489v 4.20931" fill="none" stroke="black"/>
<path d="M119.003,311.489v 4.20931" fill="none" stroke="black"/>
<path d="M139.62,311.489v 4.20931" fill="none" stroke="black"/>
<path d="M160.238,307.279v 8.41861" fill="none" stroke="black"/>
<path d="M180.856,311.489v 4.20931" fill="none" stroke="black"/>
<path d="M201.473,311.489v 4.20931" fill="none" stroke="black"/>
<path d="M222.091,311.489v 4.20931" fill="none" stroke="black"/>
<path d="M242.709,307.279v 8.41861" fill="none" stroke="black"/>
<path d="M263.326,311.489v 4.20931" fill="none" stroke="black"/>
<path d="M283.944,311.489v 4.20931" fill="none" stroke="black"/>
<path d="M304.562,311.489v 4.20931" fill="none" stroke="black"/>
<path d="M325.179,307.279v 8.41861" fill="none" stroke="black"/>
<path d="M345.797,311.489v 4.20931" fill="none" stroke="black"/>
<path d="M366.415,311.489v 4.20931" fill="none" stroke="black"/>
<path d="M387.032,311.489v 4.20931" fill="none" stroke="black"/>
<path d="M407.65,307.279v 8.41861" fill="none" stroke="black"/>
<path d="M428.268,311.489v 4.20931" fill="none" stroke="black"/>
<path d="M448.885,311.489v 4.20931" fill="none" stroke="black"/>
<path d="M469.503,311.489v 4.20931" fill="none" stroke="black"/>
<path d="M490.121,307.279v 8.41861" fill="none" stroke="black"/>
<path d="M77.7673,307.279v 8.41861" fill="none" stroke="black"/>
<path d="M490.121,307.279v 8.41861" fill="none" stroke="black"/>
<text xml:space="preserve" x="74.4473" y="327.075" fill="black" font-size="11.7634" font-family="Helvetica">0</text>
<text xml:space="preserve" x="150.291" y="327.075" fill="black" font-size="11.7634" font-family="Helvetica">200</text>
<text xml:space="preserve" x="232.77" y="327.075" fill="black" font-size="11.7634" font-family="Helvetica">400</text>
<text xml:space="preserve" x="315.25" y="327.075" fill="black" font-size="11.7634" font-family="Helvetica">600</text>
<text xml:space="preserve" x="397.73" y="327.075" fill="black" font-size="11.7634" font-family="Helvetica">800</text>
<text xml:space="preserve" x="476.891" y="327.075" fill="black" font-size="11.7634" font-family="Helvetica">1000</text>
<text xml:space="preserve" x="530.93" y="310.01" fill="black" font-size="8.00896" font-family="Helvetica">3</text>
<text xml:space="preserve" x="518.605" y="315.698" fill="black" font-size="11.7634" font-family="Helvetica">10</text>
<text xml:space="preserve" x="512.443" y="315.698" fill="black" font-size="11.7634" font-family="Times">&#0215;</text>
<text xml:space="preserve" x="439.917" y="338.451" fill="black" font-size="11.7634" font-family="Helvetica"> X number (N)</text>
<path d="M57.1929,315.698v -280.62" fill="none" stroke="black"/>
<path d="M70.7992,315.698h -13.6063" fill="none" stroke="black"/>
<path d="M63.9961,307.061h -6.80315" fill="none" stroke="black"/>
<path d="M63.9961,298.423h -6.80315" fill="none" stroke="black"/>
<path d="M63.9961,289.786h -6.80315" fill="none" stroke="black"/>
<path d="M70.7992,281.149h -13.6063" fill="none" stroke="black"/>
<path d="M63.9961,272.511h -6.80315" fill="none" stroke="black"/>
<path d="M63.9961,263.874h -6.80315" fill="none" stroke="black"/>
<path d="M63.9961,255.236h -6.80315" fill="none" stroke="black"/>
<path d="M70.7992,246.599h -13.6063" fill="none" stroke="black"/>
<path d="M63.9961,237.962h -6.80315" fill="none" stroke="black"/>
<path d="M63.9961,229.324h -6.80315" fill="none" stroke="black"/>
<path d="M63.9961,220.687h -6.80315" fill="none" stroke="black"/>
<path d="M70.7992,212.05h -13.6063" fill="none" stroke="black"/>
<path d="M63.9961,203.412h -6.80315" fill="none" stroke="black"/>
<path d="M63.9961,194.775h -6.80315" fill="none" stroke="black"/>
<path d="M63.9961,186.137h -6.80315" fill="none" stroke="black"/>
<path d="M70.7992,177.5h -13.6063" fill="none" stroke="black"/>
<path d="M63.9961,168.863h -6.80315" fill="none" stroke="black"/>
<path d="M63.9961,160.225h -6.80315" fill="none" stroke="black"/>
<path d="M63.9961,151.588h -6.80315" fill="none" stroke="black"/>
<path d="M70.7992,142.951h -13.6063" fill="none" stroke="black"/>
<path d="M63.9961,134.313h -6.80315" fill="none" stroke="black"/>
<path d="M63.9961,125.676h -6.80315" fill="none" stroke="black"/>
<path d="M63.9961,117.038h -6.80315" fill="none" stroke="black"/>
<path d="M70.7992,108.401h -13.6063" fill="none" stroke="black"/>
<path d="M63.9961,99.7637h -6.80315" fill="none" stroke="black"/>
<path d="M63.9961,91.1263h -6.80315" fill="none" stroke="black"/>
<path d="M63.9961,82.489h -6.80315" fill="none" stroke="black"/>
<path d="M70.7992,73.8516h -13.6063" fill="none" stroke="black"/>
<path d="M63.9961,65.2142h -6.80315" fill="none" stroke="black"/>
<path d="M63.9961,56.5768h -6.80315" fill="none" stroke="black"/>
<path d="M63.9961,47.9395h -6.80315" fill="none" stroke="black"/>
<path d="M70.7992,39.3021h -13.6063" fill="none" stroke="black"/>
<path d="M70.7992,39.3021h -13.6063" fill="none" stroke="black"/>
<text xml:space="preserve" x="47.9021" y="319.964" fill="black" font-size="11.7634" font-family="Helvetica">0</text>
<text xml:space="preserve" x="41.7398" y="285.361" fill="black" font-size="11.7634" font-family="Helvetica">20</text>
<text xml:space="preserve" x="41.7398" y="250.757" fill="black" font-size="11.7634" font-family="Helvetica">40</text>
<text xml:space="preserve" x="41.7398" y="216.154" fill="black" font-size="11.7634" font-family="Helvetica">60</text>
<text xml:space="preserve" x="41.7398" y="181.55" fill="black" font-size="11.7634" font-family="Helvetica">80</text>
<text xml:space="preserve" x="35.5776" y="146.947" fill="black" font-size="11.7634" font-family="Helvetica">100</text>
<text xml:space="preserve" x="35.5776" y="112.343" fill="black" font-size="11.7634" font-family="Helvetica">120</text>
<text xml:space="preserve" x="35.5776" y="77.7394" fill="black" font-size="11.7634" font-family="Helvetica">140</text>
<text xml:space="preserve" x="35.5776" y="43.1359" fill="black" font-size="11.7634" font-family="Helvetica">160</text>
<g transform="rotate(-90,21.3569,95.7523)">
<text xml:space="preserve" x="21.3569" y="95.7523" fill="black" font-size="11.7634" font-family="Helvetica"> Y time (ms)</text>
</g>
<path d="M77.8085,315.698l 0.825944, -0.207297l 0.826356, -0.241846l 0.826356, -0.241846l 0.826356, -0.259121l 0.826356, -0.259121l 0.825944, -0.276396l 0.826356, -0.293671l 0.826356, -0.259121l 0.826356, -0.414594l 0.826356, -0.293671l 0.825944,
 -0.276396l 0.826356, -0.241846l 0.826356, -0.345495l 0.826356, -0.69099h 0.826356l 0.825944, -1.4338l 0.826356, 0.742814l 0.826356, -0.570067l 0.826356, -4.42233l 0.826356, 1.53745l 0.825944, 2.19389l 0.826356, -0.310945l 0.826356, -0.380044l
 0.826356, -0.518242l 0.826356, -0.259121l 0.825944, -0.915561l 0.826356, 0.0518242l 0.826356, -0.120923l 0.826356, -0.552792l 0.826356, -1.9175l 0.826356, -2.53939l 0.825944, 3.66225l 0.826356, -0.380044l 0.826356, -0.36277l 0.826356, -0.777363l
 0.826356, -1.96932l 0.825944, 1.08831h 0.826356l 0.826356, -1.12286l 0.826356, 0.276396l 0.826356, -0.0345495l 0.825944, -1.45108l 0.826356, 0.673715l 0.826356, -2.55666l 0.826356, 0.863737l 0.826356, 0.449143l 0.825944, -1.26106l 0.826356,
 0.0518242l 0.826356, 0.138198l 0.826356, -0.535517l 0.826356, -1.88295l 0.825944, 0.742814l 0.826356, -1.83112l 0.826356, 1.17468l 0.826356, -0.794638l 0.826356, -0.0172747l 0.826356, -1.5029l 0.825944, 1.15741l 0.826356, -1.96932l 0.826356,
 -3.54132l 0.826356, 2.00387l 0.826356, 2.00387l 0.825944, -1.4338l 0.826356, -2.41846l 0.826356, 2.19389l 0.826356, -4.12866l 0.826356, 1.3647l 0.825944, -4.07684l 0.826356, 4.87148l 0.826356, -4.71601l 0.826356, 3.97319l 0.826356, -0.673715l
 0.825944, -1.60655l 0.826356, -0.0863737l 0.826356, 0.431869l 0.826356, -5.00968l 0.826356, 1.88295l 0.825944, 3.04035l 0.826356, -1.46835l 0.826356, -0.932836l 0.826356, -0.293671l 0.826356, -0.483693l 0.826356, -4.87148l 0.825944, 0.380044l
 0.826356, 4.52598l 0.826356, -4.66418l 0.826356, 0.069099l 0.826356, 1.07103l 0.825944, 0.138198l 0.826356, -3.2131l 0.826356, 4.47416l 0.826356, -1.39925l 0.826356, -5.42427l 0.825944, 3.92137l 0.826356, -0.069099l 0.826356, -2.05569l 0.826356,
 -0.552792l 0.826356, 2.12479l 0.825944, -0.915561l 0.826356, 0.552792l 0.826356, -2.66031l 0.826356, 2.09024l 0.826356, -3.29948l 0.825944, 2.24572l 0.826356, -3.02308l 0.826356, 1.15741l 0.826356, -1.7102l 0.826356, -0.431869l 0.826356, -3.92137l
 0.825944, 4.59508l 0.826356, -0.69099l 0.826356, 0.552792l 0.826356, -3.71407l 0.826356, 2.41846l 0.825944, -1.27833l 0.826356, -2.28027l 0.826356, 0.276396l 0.826356, 1.17468l 0.826356, 0.932836l 0.825944, -5.51064l 0.826356, 3.26493l 0.826356,
 -5.28607l 0.826356, 0.483693l 0.826356, 2.55666l 0.825944, -1.572l 0.826356, 1.34743l 0.826356, -3.78317l 0.826356, 2.40119l 0.826356, -3.16128l 0.825944, 2.41846l 0.826356, -2.17662l 0.826356, -1.72747l 0.826356, 3.144l 0.826356, -2.85033l
 0.826356, -4.73328l 0.825944, 4.04229l 0.826356, 2.17662l 0.826356, -6.92717l 0.826356, 1.79657l 0.826356, 1.69292l 0.825944, -6.08071l 0.826356, 1.65838l 0.826356, -1.72747l 0.826356, 1.3647l 0.826356, 0.500968l 0.825944, 0.760089l 0.826356,
 -0.380044l 0.826356, -3.38585l 0.826356, 2.72941l 0.826356, -0.570067l 0.825944, -1.31288l 0.826356, 0.345495l 0.826356, 2.76396l 0.826356, -7.70454l 0.826356, -0.621891l 0.825944, -2.53939l 0.826356, 6.06344l 0.826356, -3.04035l 0.826356, -6.01161l
 0.826356, 2.21117l 0.826356, 3.80044l 0.825944, -1.20923l 0.826356, -2.24572l 0.826356, -0.535517l 0.826356, 2.91943l 0.826356, 3.6968l 0.825944, -7.13447l 0.826356, -3.05763l 0.826356, 1.65838l 0.826356, 0.639166l 0.826356, -1.74475l 0.825944,
 0.915561l 0.826356, -4.24959l 0.826356, 2.40119l 0.826356, -3.2131l 0.826356, 4.33596l 0.825944, -3.74862l 0.826356, 3.5586l 0.826356, -8.51645l 0.826356, -5.04423l 0.826356, 5.70067l 0.825944, 1.6411l 0.826356, 0.190022l 0.826356, 1.19196l
 0.826356, 1.81385l 0.826356, -9.82933l 0.826356, 6.37438l 0.825944, -5.21697l 0.826356, -8.25733l 0.826356, 8.2746l 0.826356, 1.03648l 0.826356, -3.33403l 0.825944, 2.90216l 0.826356, -3.04035l 0.826356, 1.88295l 0.826356, 1.12286l 0.826356,
 -6.71988l 0.825944, 2.62576l 0.826356, -0.915561l 0.826356, 1.95205l 0.826356, -3.73134l 0.826356, -2.85033l 0.825944, 5.45882l 0.826356, -13.3534l 0.826356, 2.64304l 0.826356, 5.73522l 0.826356, -5.68339l 0.825944, 0.0863737l 0.826356, 8.39553l
 0.826356, -8.37825l 0.826356, 5.70067l 0.826356, 2.93671l 0.826356, -9.67386l 0.825944, -2.74668l 0.826356, 5.82159l 0.826356, 0.967386l 0.826356, -2.60849l 0.826356, -4.66418l 0.825944, 6.59895l 0.826356, -2.28027l 0.826356, -1.76202l 0.826356,
 5.82159l 0.826356, -10.503l 0.825944, 6.68533l 0.826356, -2.78123l 0.826356, -5.00968l 0.826356, 9.7775l 0.826356, -9.05197l 0.825944, -0.380044l 0.826356, -1.45108l 0.826356, 0.742814l 0.826356, 2.19389l 0.826356, -4.38778l 0.825944, 4.31869l
 0.826356, -2.14207l 0.826356, -8.30915l 0.826356, 9.43201l 0.826356, -11.6605l 0.826356, 11.0213l 0.825944, -4.31869l 0.826356, 4.21504l 0.826356, -5.92524l 0.826356, 5.21697l 0.826356, -5.32062l 0.825944, 1.20923l 0.826356, 5.73522l 0.826356,
 -13.8025l 0.826356, 2.64304l 0.826356, 3.29948l 0.825944, -2.62576l 0.826356, -0.587341l 0.826356, 5.45882l 0.826356, -7.15174l 0.826356, -0.760089l 0.825944, 2.67759l 0.826356, -7.58361l 0.826356, 7.37632l 0.826356, -4.59508l 0.826356, -2.34937l
 0.825944, -3.29948l 0.826356, 12.1787l 0.826356, -6.23618l 0.826356, -4.23231l 0.826356, 2.60849l 0.826356, 3.09218l 0.825944, -1.31288l 0.826356, -7.47996l 0.826356, 7.37632l 0.826356, -0.36277l 0.826356, -12.3687l 0.825944, 13.1461l 0.826356,
 1.03648l 0.826356, -7.27267l 0.826356, -4.50871l 0.826356, 3.19583l 0.825944, 0.742814l 0.826356, -4.28414l 0.826356, -6.78897l 0.826356, 4.24959l 0.826356, 3.17855l 0.825944, -3.4895l 0.826356, 0.846462l 0.826356, -2.72941l 0.826356, 4.80238l
 0.826356, -0.483693l 0.825944, -10.4858l 0.826356, 1.17468l 0.826356, 5.64884l 0.826356, 0.0518242l 0.826356, 5.83886l 0.826356, -10.9867l 0.825944, -4.75055l 0.826356, 1.24378l 0.826356, 5.47609l 0.826356, 10.4685l 0.826356, -12.4378l 0.825944,
 0.881012l 0.826356, 1.33016l 0.826356, -3.38585l 0.826356, -2.81578l 0.826356, 2.90216l 0.825944, -0.742814l 0.826356, 5.64884l 0.826356, 0.552792l 0.826356, -5.85614l 0.826356, 6.9099l 0.825944, -21.3516l 0.826356, 15.2881l 0.826356, -7.41087l
 0.826356, -3.93864l 0.826356, 18.2767l 0.825944, -9.9157l 0.826356, 4.00774l 0.826356, -17.8794l 0.826356, -2.00387l 0.826356, 6.35711l 0.826356, 14.6663l 0.825944, -12.9733l 0.826356, 0.259121l 0.826356, -8.36098l 0.826356, 2.07297l 0.826356,
 -1.5029l 0.825944, 1.29561l 0.826356, 4.42233l 0.826356, 3.33403l 0.826356, -4.57781l 0.826356, -0.500968l 0.825944, -5.38972l 0.826356, 13.2152l 0.826356, -10.5549l 0.826356, -0.0518242l 0.826356, -3.12673l 0.825944, 3.6968l 0.826356, -3.59315l
 0.826356, -0.621891l 0.826356, 4.50871l 0.826356, -5.2688l 0.825944, 17.1711l 0.826356, -14.5972l 0.826356, -6.9099l 0.826356, 13.0079l 0.826356, -27.225l 0.826356, 16.5838l 0.825944, 5.63157l 0.826356, -0.604616l 0.826356, -4.52598l 0.826356,
 -5.1997l 0.826356, 0.259121l 0.825944, 1.93477l 0.826356, 10.9176l 0.826356, -12.3687l 0.826356, 9.43201l 0.826356, -9.25926l 0.825944, 10.2957l 0.826356, -22.6299l 0.826356, 0.915561l 0.826356, 14.0789l 0.826356, -9.22471l 0.825944, -3.80044l
 0.826356, -5.51064l 0.826356, 11.2113l 0.826356, 6.6335l 0.826356, -14.6663l 0.825944, 12.7488l 0.826356, -13.9062l 0.826356, 7.49724l 0.826356, 3.78317l 0.826356, -4.83693l 0.826356, 3.93864l 0.825944, -8.43007l 0.826356, 14.4935l 0.826356,
 -1.14013l 0.826356, -25.0657l 0.826356, 9.69113l 0.825944, 5.83886l 0.826356, -19.4341l 0.826356, 17.292l 0.826356, -4.64691l 0.826356, -6.27073l 0.825944, 5.51064l 0.826356, 3.3513l 0.826356, -0.483693l 0.826356, 4.8542l 0.826356, -4.24959l
 0.825944, -1.34743l 0.826356, 8.70647l 0.826356, -7.01355l 0.826356, -17.983l 0.826356, 7.79091l 0.825944, 12.4033l 0.826356, -7.22084l 0.826356, -6.08071l 0.826356, 8.79284l 0.826356, -4.7851l 0.826356, -3.83499l 0.825944, -0.500968l 0.826356,
 -10.0885l 0.826356, 3.81772l 0.826356, 10.123l 0.826356, -9.67386l 0.825944, -10.7449l 0.826356, 4.38778l 0.826356, 0.570067l 0.826356, 11.1595l 0.826356, 9.03469l 0.825944, -29.5744l 0.826356, 18.0176l 0.826356, -18.0176l 0.826356, 22.3708l
 0.826356, -1.83112l 0.825944, 0.863737l 0.826356, -9.24199l 0.826356, 4.47416l 0.826356, -10.2785l 0.826356, -13.0079l 0.825944, 11.194l 0.826356, 19.866l 0.826356, -6.979l 0.826356, -13.1806l 0.826356, 4.54326l 0.826356, -6.51258l 0.825944,
 -4.66418l 0.826356, 9.50111l 0.826356, 7.46269l 0.826356, -26.4476l 0.826356, 27.7778l 0.825944, 3.85227l 0.826356, -12.6106l 0.826356, -5.85614l 0.826356, 10.6067l 0.826356, -23.3555l 0.825944, 19.2268l 0.826356, -13.1979l 0.826356, 8.2746l
 0.826356, -9.50111l 0.826356, 19.6587l 0.825944, -3.29948l 0.826356, -18.6394l 0.826356, -5.40699l 0.826356, 10.7103l 0.826356, 8.11913l 0.825944, 3.31675l 0.826356, -0.863737l 0.826356, -13.958l 0.826356, 10.7967l 0.826356, -22.3535l 0.826356,
 3.93864l 0.825944, 0.345495l 0.826356, -0.863737l 0.826356, 11.0213l 0.826356, -10.3994l 0.826356, -0.103648l 0.825944, -1.79657l 0.826356, 10.1057l 0.826356, -4.83693l 0.826356, 10.6758l 0.826356, -4.47416l 0.825944, -10.5376l 0.826356, -9.7775l
 0.826356, 20.436l 0.826356, -20.1769l 0.826356, 20.1424l 0.825944, -13.8025l 0.826356, 15.7027l 0.826356, -25.6703l 0.826356, -1.08831l 0.826356, 25.0484l 0.825944, -6.21891l 0.826356, 5.49337l 0.826356, -9.03469l 0.826356, 2.85033l 0.826356,
 2.38391l 0.826356, 5.44154l 0.825944, -2.90216l 0.826356, -18.4149l 0.826356, 0.932836l 0.826356, 0.811913l 0.826356, -15.2881l 0.825944, 4.59508l 0.826356, 1.96932l 0.826356, 22.6645l 0.826356, -8.37825l 0.826356, -25.2039l 0.825944, 14.0271l
 0.826356, -5.00968l 0.826356, 7.75636l 0.826356, 11.1768l 0.826356, -5.66612l 0.825944, 0.725539l 0.826356, -20.7124l 0.826356, -4.94058l 0.826356, 30.4899l 0.826356, -29.678l 0.825944, 15.6682l 0.826356, 12.3687l 0.826356, -9.82933l 0.826356,
 -7.49724l 0.826356, -18.3458l 0.826356, 17.8794" fill="none" stroke="#00ff00"/>
<path d="M77.8085,315.698l 0.825944, -0.207297l 0.826356, -0.293671l 0.826356, -0.207297l 0.826356, -0.259121l 0.826356, -0.32822l 0.825944, -0.259121l 0.826356, -0.259121l 0.826356, -0.414594l 0.826356, -0.310945l 0.826356, -0.570067l 0.825944,
 -0.0518242l 0.826356, -0.483693l 0.826356, -0.259121l 0.826356, -0.881012l 0.826356, 0.172747l 0.825944, -2.48756l 0.826356, 1.79657l 0.826356, -0.414594l 0.826356, -0.310945l 0.826356, -0.483693l 0.825944, -0.431869l 0.826356, -0.0518242l 0.826356,
 -0.36277l 0.826356, -0.570067l 0.826356, -0.621891l 0.825944, -0.103648l 0.826356, -0.241846l 0.826356, -0.466418l 0.826356, -0.500968l 0.826356, -0.207297l 0.826356, -0.742814l 0.825944, -0.103648l 0.826356, -1.07103l 0.826356, -1.22651l 0.826356,
 -1.86567l 0.826356, 2.48756l 0.825944, -3.86954l 0.826356, 1.72747l 0.826356, 1.07103l 0.826356, -2.53939l 0.826356, 0.207297l 0.825944, -1.7793l 0.826356, 0.777363l 0.826356, 0.449143l 0.826356, -3.38585l 0.826356, 3.43767l 0.825944, -3.73134l
 0.826356, 1.19196l 0.826356, -1.41653l 0.826356, 1.79657l 0.826356, -2.62576l 0.825944, 2.17662l 0.826356, -0.621891l 0.826356, 0.207297l 0.826356, -2.60849l 0.826356, 0.241846l 0.826356, 0.604616l 0.825944, -0.708265l 0.826356, -0.570067l 0.826356,
 -4.18049l 0.826356, 0.431869l 0.826356, -0.190022l 0.825944, 2.24572l 0.826356, -3.4895l 0.826356, -0.535517l 0.826356, -0.811913l 0.826356, 0.103648l 0.825944, 1.41653l 0.826356, 2.03842l 0.826356, -7.11719l 0.826356, 1.90022l 0.826356, -0.449143l
 0.825944, 3.3513l 0.826356, -4.35324l 0.826356, 4.04229l 0.826356, 0.190022l 0.826356, -9.01742l 0.825944, 3.24765l 0.826356, -0.276396l 0.826356, 3.09218l 0.826356, -0.380044l 0.826356, -0.397319l 0.826356, -0.120923l 0.825944, -1.572l 0.826356,
 -3.93864l 0.826356, 4.49143l 0.826356, -6.13253l 0.826356, 4.38778l 0.825944, -3.4204l 0.826356, -2.17662l 0.826356, 2.15934l 0.826356, 1.9866l 0.826356, -4.75055l 0.825944, -2.97126l 0.826356, 6.37438l 0.826356, -5.09605l 0.826356, 3.12673l
 0.826356, -9.76023l 0.825944, 6.20163l 0.826356, -0.915561l 0.826356, 4.16321l 0.826356, -6.96172l 0.826356, 2.50484l 0.825944, -0.846462l 0.826356, -0.380044l 0.826356, -5.95979l 0.826356, 4.7851l 0.826356, 0.103648l 0.826356, -1.17468l 0.825944,
 0.69099l 0.826356, -1.00194l 0.826356, -0.881012l 0.826356, -0.241846l 0.826356, 0.069099l 0.825944, 0.0518242l 0.826356, 2.95398l 0.826356, -3.09218l 0.826356, -6.4262l 0.826356, 4.62963l 0.825944, 0.811913l 0.826356, -1.65838l 0.826356, -0.932836l
 0.826356, -0.0863737l 0.826356, 0.950111l 0.825944, -1.93477l 0.826356, -2.52211l 0.826356, 1.69292l 0.826356, -0.760089l 0.826356, 0.639166l 0.825944, -2.67759l 0.826356, -4.37051l 0.826356, 6.39166l 0.826356, 0.535517l 0.826356, -2.31482l
 0.826356, 4.04229l 0.825944, -6.28801l 0.826356, 1.27833l 0.826356, -1.88295l 0.826356, -2.71213l 0.826356, 3.97319l 0.825944, -9.72568l 0.826356, 5.99434l 0.826356, -1.52018l 0.826356, 1.7102l 0.826356, -1.81385l 0.825944, 1.31288l 0.826356,
 -2.81578l 0.826356, -0.414594l 0.826356, 3.54132l 0.826356, -0.483693l 0.825944, -3.99047l 0.826356, 7.42814l 0.826356, -8.01548l 0.826356, 1.7793l 0.826356, 0.98466l 0.825944, 1.5029l 0.826356, -5.59702l 0.826356, 4.88875l 0.826356, -2.29754l
 0.826356, 0.310945l 0.826356, -8.60282l 0.825944, 3.57587l 0.826356, 3.0749l 0.826356, -5.14787l 0.826356, -1.34743l 0.826356, 7.25539l 0.825944, -1.14013l 0.826356, -0.207297l 0.826356, -0.65644l 0.826356, -6.78897l 0.826356, 2.29754l 0.825944,
 -3.92137l 0.826356, 8.39553l 0.826356, -1.3647l 0.826356, -0.500968l 0.826356, -12.8524l 0.825944, 5.14787l 0.826356, 2.17662l 0.826356, 2.07297l 0.826356, -5.38972l 0.826356, 6.33983l 0.825944, -0.69099l 0.826356, -1.95205l 0.826356, -0.190022l
 0.826356, -4.40506l 0.826356, 4.05957l 0.826356, -2.52211l 0.825944, -4.49143l 0.826356, 2.53939l 0.826356, 2.83306l 0.826356, -3.85227l 0.826356, 0.224572l 0.825944, 0.0172747l 0.826356, 0.673715l 0.826356, -0.760089l 0.826356, -4.90603l 0.826356,
 2.22844l 0.825944, -0.552792l 0.826356, -0.777363l 0.826356, 2.03842l 0.826356, -1.8484l 0.826356, 2.15934l 0.825944, -2.95398l 0.826356, -1.58928l 0.826356, -0.829188l 0.826356, 1.86567l 0.826356, 3.10945l 0.825944, -5.09605l 0.826356, 4.33596l
 0.826356, -3.0749l 0.826356, -3.3513l 0.826356, -0.777363l 0.826356, 3.90409l 0.825944, -1.20923l 0.826356, -0.069099l 0.826356, -3.43767l 0.826356, 3.10945l 0.826356, -1.60655l 0.825944, -0.276396l 0.826356, -1.20923l 0.826356, 1.08831l 0.826356,
 -0.0172747l 0.826356, -0.552792l 0.825944, -2.15934l 0.826356, 1.62383l 0.826356, -5.51064l 0.826356, 4.38778l 0.826356, -3.86954l 0.825944, -12.576l 0.826356, 15.5645l 0.826356, -3.23038l 0.826356, 1.34743l 0.826356, -8.87922l 0.825944, 3.05763l
 0.826356, 0.172747l 0.826356, 1.15741l 0.826356, -1.15741l 0.826356, 1.6411l 0.826356, -4.26686l 0.825944, 0.587341l 0.826356, 2.12479l 0.826356, 1.00194l 0.826356, -2.28027l 0.826356, -2.93671l 0.825944, 0.760089l 0.826356, 2.12479l 0.826356,
 -5.1306l 0.826356, 4.97513l 0.826356, -0.500968l 0.825944, 0.0172747l 0.826356, -5.47609l 0.826356, 2.71213l 0.826356, -0.224572l 0.826356, -6.11526l 0.825944, 5.85614l 0.826356, -2.28027l 0.826356, -7.16902l 0.826356, 4.69873l 0.826356, 1.22651l
 0.825944, -14.4935l 0.826356, 10.1921l 0.826356, -15.4091l 0.826356, 14.2689l 0.826356, 1.15741l 0.826356, 2.24572l 0.825944, 1.96932l 0.826356, -4.38778l 0.826356, -6.40893l 0.826356, 5.3379l 0.826356, -0.380044l 0.825944, -1.26106l 0.826356,
 1.31288l 0.826356, 0.0172747l 0.826356, -1.03648l 0.826356, -2.26299l 0.825944, 2.34937l 0.826356, -3.81772l 0.826356, -15.4609l 0.826356, 15.7027l 0.826356, -9.58748l 0.825944, 7.30722l 0.826356, 1.07103l 0.826356, -4.11139l 0.826356, 3.16128l
 0.826356, 0.535517l 0.825944, -6.35711l 0.826356, 6.08071l 0.826356, -3.97319l 0.826356, -3.54132l 0.826356, 4.97513l 0.826356, -1.24378l 0.825944, 0.604616l 0.826356, -3.43767l 0.826356, -5.42427l 0.826356, 7.22084l 0.826356, -0.414594l 0.825944,
 2.05569l 0.826356, -2.86761l 0.826356, -3.23038l 0.826356, 2.03842l 0.826356, 3.24765l 0.825944, -7.72181l 0.826356, -0.345495l 0.826356, 3.40312l 0.826356, -0.155473l 0.826356, -2.26299l 0.825944, -5.07877l 0.826356, 7.54906l 0.826356, -4.97513l
 0.826356, -4.54326l 0.826356, -1.26106l 0.825944, 6.8408l 0.826356, 3.93864l 0.826356, -4.19776l 0.826356, -7.61816l 0.826356, 7.18629l 0.826356, -1.58928l 0.825944, -1.27833l 0.826356, -1.45108l 0.826356, 0.207297l 0.826356, 2.22844l 0.826356,
 -2.71213l 0.825944, -0.621891l 0.826356, 0.708265l 0.826356, -7.22084l 0.826356, -0.794638l 0.826356, -7.51451l 0.825944, 4.75055l 0.826356, -1.6411l 0.826356, 7.94638l 0.826356, -6.58168l 0.826356, 6.33983l 0.825944, -0.518242l 0.826356, -2.43574l
 0.826356, -4.12866l 0.826356, -0.0172747l 0.826356, 0.967386l 0.825944, 1.20923l 0.826356, -2.95398l 0.826356, 5.75249l 0.826356, -2.62576l 0.826356, -3.2822l 0.826356, -0.172747l 0.825944, -5.11332l 0.826356, 7.92911l 0.826356, 0.483693l 0.826356,
 -4.9233l 0.826356, 3.83499l 0.825944, -4.28414l 0.826356, -0.811913l 0.826356, -7.46269l 0.826356, 6.73715l 0.826356, -2.72941l 0.825944, 0.898287l 0.826356, 0.863737l 0.826356, 2.31482l 0.826356, -6.6335l 0.826356, 3.88682l 0.825944, -2.07297l
 0.826356, -8.551l 0.826356, 9.36291l 0.826356, -0.932836l 0.826356, -3.144l 0.825944, 1.95205l 0.826356, 2.22844l 0.826356, -2.79851l 0.826356, -1.03648l 0.826356, -4.43961l 0.826356, 8.11913l 0.825944, -7.80818l 0.826356, -6.65078l 0.826356,
 3.26493l 0.826356, -19.8141l 0.826356, 20.246l 0.825944, 3.4895l 0.826356, -6.82352l 0.826356, 9.60476l 0.826356, -7.73909l 0.826356, -0.414594l 0.825944, -1.69292l 0.826356, 7.03082l 0.826356, -9.38019l 0.826356, 5.64884l 0.826356, -4.83693l
 0.825944, -4.45688l 0.826356, 4.75055l 0.826356, 0.293671l 0.826356, 1.31288l 0.826356, -2.31482l 0.825944, 0.518242l 0.826356, -1.67565l 0.826356, -3.86954l 0.826356, -8.2055l 0.826356, 4.14594l 0.826356, 9.24199l 0.825944, -14.5972l 0.826356,
 13.6816l 0.826356, -1.95205l 0.826356, -3.73134l 0.826356, -0.915561l 0.825944, 7.77363l 0.826356, -4.30141l 0.826356, 4.9924l 0.826356, -12.9388l 0.826356, 1.96932l 0.825944, 4.12866l 0.826356, -0.604616l 0.826356, -2.64304l 0.826356, -2.47029l
 0.826356, 5.18242l 0.825944, 3.40312l 0.826356, -7.60089l 0.826356, 5.1306l 0.826356, 3.81772l 0.826356, -8.63737l 0.825944, -4.24959l 0.826356, -4.81965l 0.826356, 10.8313l 0.826356, -23.3727l 0.826356, 17.292l 0.826356, -11.0558l 0.825944,
 8.67192l 0.826356, -1.9175l 0.826356, -2.21117l 0.826356, -1.01921l 0.826356, 3.02308l 0.825944, 5.38972l 0.826356, -11.1768l 0.826356, 11.3495l 0.826356, -0.915561l 0.826356, -0.397319l 0.825944, -7.84273l 0.826356, 0.881012l 0.826356, 4.73328l
 0.826356, -5.76976l 0.826356, 1.95205l 0.825944, -8.7583l 0.826356, 1.22651l 0.826356, 5.28607l 0.826356, -0.0345495l 0.826356, -5.85614l 0.825944, 2.50484l 0.826356, 1.00194l 0.826356, 0.742814l 0.826356, -1.39925l 0.826356, -0.138198l 0.826356,
 1.00194l 0.825944, -0.431869l 0.826356, -11.9714l 0.826356, 12.6969l 0.826356, -0.0518242l 0.826356, -5.68339l 0.825944, 0.103648l 0.826356, -8.70647l 0.826356, 10.3821l 0.826356, -5.71794l 0.826356, -5.99434l 0.825944, -19.0368l 0.826356, 31.6646l
 0.826356, -1.96932l 0.826356, -4.09411l 0.826356, 0.811913l 0.825944, -0.276396l 0.826356, -5.75249l 0.826356, 3.61042l 0.826356, -15.7373l 0.826356, 12.6624l 0.825944, 3.52405l 0.826356, -4.09411l 0.826356, -4.80238l 0.826356, 6.94445l 0.826356,
 -8.25733l 0.826356, 1.69292l 0.825944, -5.73522l 0.826356, 9.01742l 0.826356, 0.604616l 0.826356, -3.3513l 0.826356, -13.3534l 0.825944, 15.5473l 0.826356, -4.47416l 0.826356, 3.36858l 0.826356, -7.98093l 0.826356, -2.00387l 0.825944, 10.1575l
 0.826356, -3.02308l 0.826356, -0.604616l 0.826356, -1.74475l 0.826356, -7.61816l 0.825944, 4.56053l 0.826356, -12.0405l 0.826356, 5.49337l 0.826356, 6.4262l 0.826356, 2.97126l 0.825944, 0.069099l 0.826356, 0.414594l 0.826356, -7.08264l 0.826356,
 3.43767l 0.826356, 0.863737l 0.826356, -5.1306" fill="none" stroke="#ff0000"/>
<path d="M77.8085,315.698l 0.825944, -0.138198l 0.826356, -0.138198l 0.826356, -0.535517h 0.826356l 0.826356, -0.0172747l 0.825944, -0.069099l 0.826356, -0.241846l 0.826356, -0.0518242l 0.826356, -0.241846l 0.826356, -1.15741l 0.825944, 1.17468l
 0.826356, -0.673715l 0.826356, -0.0863737l 0.826356, -0.604616l 0.826356, 0.293671l 0.825944, -0.103648l 0.826356, -0.69099l 0.826356, 0.742814l 0.826356, 0.32822l 0.826356, 0.103648l 0.825944, -1.03648l 0.826356, 0.138198l 0.826356, 0.207297l
 0.826356, -0.345495l 0.826356, -0.863737l 0.825944, 0.310945l 0.826356, -0.120923l 0.826356, 0.449143l 0.826356, -0.069099l 0.826356, 0.483693l 0.826356, -2.21117l 0.825944, 0.811913l 0.826356, 0.293671l 0.826356, -1.24378l 0.826356, 1.45108l
 0.826356, -0.120923l 0.825944, -1.72747l 0.826356, 1.67565l 0.826356, 0.535517l 0.826356, -1.24378l 0.826356, 1.29561l 0.825944, -1.34743l 0.826356, -0.172747l 0.826356, -0.310945l 0.826356, 0.397319h 0.826356l 0.825944, 0.742814l 0.826356,
 -0.708265l 0.826356, 1.05376l 0.826356, -1.4338l 0.826356, -1.29561l 0.825944, 1.12286l 0.826356, -2.26299l 0.826356, 3.83499l 0.826356, -4.12866l 0.826356, 3.33403l 0.826356, 0.898287l 0.825944, -1.53745l 0.826356, -0.276396l 0.826356, 0.155473l
 0.826356, -0.397319l 0.826356, -1.41653l 0.825944, 1.08831l 0.826356, 1.72747l 0.826356, -0.138198l 0.826356, -0.811913l 0.826356, 0.190022l 0.825944, -1.38198l 0.826356, 1.3647l 0.826356, -2.76396l 0.826356, 0.241846l 0.826356, 1.19196l 0.825944,
 0.881012l 0.826356, -1.9866l 0.826356, 1.88295l 0.826356, -0.535517l 0.826356, 0.65644l 0.825944, -0.69099l 0.826356, -1.07103l 0.826356, 0.138198l 0.826356, 0.380044l 0.826356, -0.466418l 0.826356, -0.397319l 0.825944, -0.103648l 0.826356,
 -2.28027l 0.826356, 1.7793l 0.826356, -0.0345495l 0.826356, 2.66031l 0.825944, -2.07297l 0.826356, 0.224572l 0.826356, -1.07103l 0.826356, 0.36277l 0.826356, 2.00387l 0.825944, -1.60655l 0.826356, 2.00387l 0.826356, -2.85033l 0.826356, 0.570067l
 0.826356, 1.76202l 0.825944, 0.293671l 0.826356, -3.00581l 0.826356, -0.172747l 0.826356, 3.00581l 0.826356, -3.144l 0.825944, 2.21117l 0.826356, 1.03648l 0.826356, -2.41846l 0.826356, 0.397319l 0.826356, 0.639166l 0.826356, -0.310945l 0.825944,
 1.31288l 0.826356, -1.48563l 0.826356, 0.552792l 0.826356, -2.36664l 0.826356, 1.65838l 0.825944, 1.14013l 0.826356, -1.31288l 0.826356, -0.069099l 0.826356, 0.742814l 0.826356, -1.15741l 0.825944, 0.552792l 0.826356, 0.224572l 0.826356, 0.293671l
 0.826356, -0.570067l 0.826356, -1.7793l 0.825944, 2.26299l 0.826356, -1.46835l 0.826356, 0.380044l 0.826356, 1.60655l 0.826356, -0.483693l 0.825944, -0.950111l 0.826356, -0.241846l 0.826356, 0.742814l 0.826356, -2.22844l 0.826356, 0.932836l
 0.826356, 0.570067l 0.825944, -0.414594l 0.826356, 0.138198l 0.826356, -1.86567l 0.826356, 2.85033l 0.826356, -4.54326l 0.825944, 1.53745l 0.826356, 2.26299l 0.826356, -1.8484l 0.826356, 1.03648l 0.826356, 1.7793l 0.825944, -3.73134l 0.826356,
 2.86761l 0.826356, -0.639166l 0.826356, -0.846462l 0.826356, 1.39925l 0.825944, -0.708265l 0.826356, -1.83112l 0.826356, 2.41846l 0.826356, -3.16128l 0.826356, 2.90216l 0.825944, -0.397319l 0.826356, 0.449143l 0.826356, -1.14013l 0.826356, 0.932836l
 0.826356, -0.725539l 0.826356, -0.172747l 0.825944, 0.967386l 0.826356, -1.79657l 0.826356, 1.14013l 0.826356, 0.518242l 0.826356, -1.69292l 0.825944, -0.0172747l 0.826356, 0.449143l 0.826356, -2.05569l 0.826356, 3.5586l 0.826356, -3.59315l
 0.825944, 3.10945l 0.826356, -0.587341l 0.826356, -0.673715l 0.826356, -2.41846l 0.826356, 1.55473l 0.825944, -1.14013l 0.826356, 1.33016l 0.826356, -1.52018l 0.826356, 3.17855l 0.826356, -2.71213l 0.825944, -1.26106l 0.826356, 3.92137l 0.826356,
 -2.14207l 0.826356, -1.65838l 0.826356, 1.00194l 0.826356, 1.572l 0.825944, -0.742814l 0.826356, 1.60655l 0.826356, -3.3513l 0.826356, 2.41846l 0.826356, -4.11139l 0.825944, 4.83693l 0.826356, -3.23038l 0.826356, 0.69099l 0.826356, 2.00387l
 0.826356, -2.88488l 0.825944, 0.431869l 0.826356, 0.190022l 0.826356, 1.00194l 0.826356, 0.794638l 0.826356, -0.431869l 0.825944, 0.431869l 0.826356, -2.38391l 0.826356, 1.15741l 0.826356, 0.466418l 0.826356, -2.05569l 0.825944, 1.95205l 0.826356,
 0.98466l 0.826356, -2.31482l 0.826356, 0.449143l 0.826356, -0.241846l 0.826356, 1.9175l 0.825944, -2.19389l 0.826356, 1.65838l 0.826356, -5.42427l 0.826356, 5.70067l 0.826356, -2.86761l 0.825944, -1.08831l 0.826356, 2.66031l 0.826356, -0.103648l
 0.826356, 0.811913l 0.826356, -0.241846l 0.825944, -2.36664l 0.826356, 0.293671l 0.826356, 2.50484l 0.826356, -1.03648l 0.826356, -2.67759l 0.825944, 2.64304l 0.826356, -0.725539l 0.826356, -3.95592l 0.826356, 1.9866l 0.826356, 0.431869l 0.825944,
 2.07297l 0.826356, 0.380044l 0.826356, -0.36277l 0.826356, 0.414594l 0.826356, -2.88488l 0.826356, 3.00581l 0.825944, 0.120923l 0.826356, -1.19196l 0.826356, -0.794638l 0.826356, 0.65644l 0.826356, -1.53745l 0.825944, 1.74475l 0.826356, -2.41846l
 0.826356, 3.61042l 0.826356, -0.621891l 0.826356, -1.19196l 0.825944, 0.190022l 0.826356, -0.483693l 0.826356, -0.414594l 0.826356, 1.03648l 0.826356, 0.172747l 0.825944, -2.05569l 0.826356, 2.40119l 0.826356, -2.71213l 0.826356, 1.58928l 0.826356,
 0.708265l 0.825944, -2.33209l 0.826356, 2.09024l 0.826356, -1.14013l 0.826356, -1.93477l 0.826356, 3.29948l 0.826356, -2.36664l 0.825944, -0.742814l 0.826356, 0.621891l 0.826356, 0.570067l 0.826356, 0.414594l 0.826356, -6.25346l 0.825944, 6.71988l
 0.826356, -1.52018l 0.826356, -3.47222l 0.826356, 3.71407l 0.826356, -2.38391l 0.825944, 1.95205l 0.826356, -1.31288l 0.826356, -4.35324l 0.826356, 6.01161l 0.826356, 0.587341l 0.825944, 0.846462l 0.826356, -2.60849l 0.826356, 1.39925l 0.826356,
 0.950111l 0.826356, -3.04035l 0.825944, -0.103648l 0.826356, 0.207297l 0.826356, 1.39925l 0.826356, -0.760089l 0.826356, -1.20923l 0.826356, 2.90216l 0.825944, -5.0615l 0.826356, 1.86567l 0.826356, 0.293671l 0.826356, 1.15741l 0.826356, 1.34743l
 0.825944, -0.0863737l 0.826356, -0.898287l 0.826356, -3.57587l 0.826356, 3.36858l 0.826356, 1.03648l 0.825944, -2.17662l 0.826356, -1.07103l 0.826356, 3.16128l 0.826356, -3.47222l 0.826356, -0.881012l 0.825944, -5.1306l 0.826356, 8.46462l 0.826356,
 0.155473l 0.826356, 0.65644l 0.826356, -1.55473l 0.825944, 0.259121l 0.826356, -1.38198l 0.826356, -1.05376l 0.826356, 2.24572l 0.826356, 1.05376l 0.826356, -1.55473l 0.825944, -2.28027l 0.826356, 2.22844l 0.826356, 0.466418l 0.826356, -0.621891l
 0.826356, 0.397319l 0.825944, 1.26106l 0.826356, -0.207297l 0.826356, -0.397319l 0.826356, -1.4338l 0.826356, -0.69099l 0.825944, -1.22651l 0.826356, 3.26493l 0.826356, -0.777363l 0.826356, 0.500968l 0.826356, -0.518242l 0.825944, -3.4204l 0.826356,
 1.69292l 0.826356, 1.7102l 0.826356, -4.54326l 0.826356, 4.07684l 0.825944, -3.26493l 0.826356, 3.57587l 0.826356, 0.224572l 0.826356, -1.33016l 0.826356, 1.46835l 0.826356, -0.863737l 0.825944, -1.74475l 0.826356, 3.80044l 0.826356, -0.932836l
 0.826356, -3.64497l 0.826356, 4.19776l 0.825944, -0.863737l 0.826356, -3.74862l 0.826356, 1.74475l 0.826356, 1.14013l 0.826356, -1.08831l 0.825944, -3.47222l 0.826356, 3.52405l 0.826356, 1.72747l 0.826356, -1.58928l 0.826356, 0.587341l 0.825944,
 -1.20923l 0.826356, -2.38391l 0.826356, 3.54132l 0.826356, -0.794638l 0.826356, -0.483693l 0.825944, -0.155473l 0.826356, 0.673715l 0.826356, 0.604616l 0.826356, -0.138198l 0.826356, -0.138198l 0.826356, -2.10752l 0.825944, 2.22844l 0.826356,
 0.65644l 0.826356, -3.99047l 0.826356, 0.742814l 0.826356, 1.60655l 0.825944, -0.0518242l 0.826356, -1.86567l 0.826356, 1.572l 0.826356, -1.572l 0.826356, 2.79851l 0.825944, -1.10558l 0.826356, -0.380044l 0.826356, -1.95205l 0.826356, -0.293671l
 0.826356, 3.47222l 0.825944, -0.500968l 0.826356, -1.33016l 0.826356, -0.915561l 0.826356, 1.8484l 0.826356, -0.397319l 0.825944, 0.431869l 0.826356, -0.639166l 0.826356, -3.80044l 0.826356, 0.138198l 0.826356, 2.97126l 0.826356, -0.190022l
 0.825944, -4.76783l 0.826356, 2.67759l 0.826356, 2.66031l 0.826356, -3.50677l 0.826356, 2.53939l 0.825944, 1.65838l 0.826356, -2.10752l 0.826356, 1.60655l 0.826356, 2.10752l 0.826356, -4.75055l 0.825944, 2.21117l 0.826356, -0.32822l 0.826356,
 0.604616l 0.826356, -2.14207l 0.826356, 2.34937l 0.825944, -3.92137l 0.826356, 3.09218l 0.826356, -2.69486l 0.826356, -3.19583l 0.826356, 1.7102l 0.825944, 4.09411l 0.826356, 2.40119l 0.826356, -6.35711l 0.826356, 3.6968l 0.826356, 0.207297l
 0.826356, -1.03648l 0.825944, -2.45301l 0.826356, 4.26686l 0.826356, -3.5586l 0.826356, 2.95398l 0.826356, -0.950111l 0.825944, 0.846462l 0.826356, -6.5644l 0.826356, 6.39166l 0.826356, -2.67759l 0.826356, -1.08831l 0.825944, -0.500968l 0.826356,
 1.55473l 0.826356, 3.38585l 0.826356, -1.9866l 0.826356, 1.14013l 0.825944, -2.78123l 0.826356, 0.69099l 0.826356, -2.17662l 0.826356, 1.9866l 0.826356, -2.00387l 0.825944, 2.24572l 0.826356, 0.881012l 0.826356, -7.34177l 0.826356, 5.0615l 0.826356,
 2.66031l 0.826356, -1.96932l 0.825944, -0.811913l 0.826356, -0.155473l 0.826356, 3.71407l 0.826356, -3.10945l 0.826356, -1.7793l 0.825944, 2.00387l 0.826356, 1.19196l 0.826356, 0.414594l 0.826356, -3.50677l 0.826356, -2.05569l 0.825944, 5.3379l
 0.826356, -6.52985l 0.826356, 3.95592l 0.826356, 0.950111l 0.826356, 0.898287l 0.825944, -0.310945l 0.826356, -1.86567l 0.826356, 2.12479l 0.826356, -1.60655l 0.826356, 1.62383l 0.825944, -0.241846l 0.826356, -4.81965l 0.826356, 4.69873l 0.826356,
 0.207297l 0.826356, -2.55666l 0.826356, 1.3647l 0.825944, -1.34743l 0.826356, 0.32822l 0.826356, 2.57394l 0.826356, -1.79657l 0.826356, 0.241846l 0.825944, -5.49337l 0.826356, 3.85227l 0.826356, 1.33016l 0.826356, -2.02115l 0.826356, 1.60655l
 0.825944, 2.09024l 0.826356, -1.17468l 0.826356, -2.60849l 0.826356, 2.19389l 0.826356, -0.0172747l 0.825944, -5.21697l 0.826356, 5.75249l 0.826356, -5.68339l 0.826356, 6.02889l 0.826356, -0.811913l 0.825944, -2.98853l 0.826356, 4.81965l 0.826356,
 -3.4204l 0.826356, -5.28607l 0.826356, 5.18242l 0.826356, -0.310945" fill="none" stroke="#0000ff"/>
<rect x="85.5394" y="52.6163" width="170.079" height="70.1551" fill="white"/>
<path d="M85.5394,122.771h 170.079" fill="none" stroke="black"/>
<path d="M255.618,122.771v -70.1551" fill="none" stroke="black"/>
<path d="M255.618,52.6163h -170.079" fill="none" stroke="black"/>
<path d="M85.5394,52.6163v 70.1551" fill="none" stroke="black"/>
<text xml:space="preserve" x="145.55" y="64.9409" fill="black" font-size="13.5464" font-family="Helvetica">algorithm</text>
<text xml:space="preserve" x="128.012" y="82.4797" fill="black" font-size="13.5464" font-family="Helvetica">heap sort</text>
<path d="M91.9173,85.0631h 29.7638v -12.2771h -29.7638z" fill="white"/>
<path d="M91.9173,78.9245h 29.7638" fill="none" stroke="#00ff00"/>
<g stroke="black" stroke-width="1" fill="none">
<line x1="105.799" y1="78.9245" x2="106.799" y2="78.9245"/>
</g>
<text xml:space="preserve" x="128.012" y="100.018" fill="black" font-size="13.5464" font-family="Helvetica">shell sort</text>
<path d="M91.9173,102.602h 29.7638v -12.2771h -29.7638z" fill="white"/>
<path d="M91.9173,96.4633h 29.7638" fill="none" stroke="#ff0000"/>
<g stroke="black" stroke-width="1" fill="none">
<line x1="105.799" y1="96.4633" x2="106.799" y2="96.4633"/>
</g>
<text xml:space="preserve" x="128.012" y="117.557" fill="black" font-size="13.5464" font-family="Helvetica">parallel quicksort</text>
<path d="M91.9173,120.141h 29.7638v -12.2771h -29.7638z" fill="white"/>
<path d="M91.9173,114.002h 29.7638" fill="none" stroke="#0000ff"/>
<g stroke="black" stroke-width="1" fill="none">
<line x1="105.799" y1="114.002" x2="106.799" y2="114.002"/>
</g>
<text xml:space="preserve" x="184.894" y="16.5907" fill="black" font-size="16.9124" font-family="Helvetica">Sort Benchmark T=__int64</text></svg>
