<?xml version="1.0" standalone="no"?>
<svg width="567.429" height="351.276" viewBox="0 0 567.429 351.276" xmlns="http://www.w3.org/2000/svg" shape-rendering="crispEdges">
<title>
root_canvas_int.svg
</title>
<desc>
Creator: ROOT Version 6.18/04
CreationDate: Thu Jun 25 17:18:41 2020</desc>
<defs>
</defs>
<rect x="0.5" y="0" width="566.929" height="350.776" fill="white"/>
<rect x="57.1929" y="35.0776" width="453.543" height="280.62" fill="white"/>
<rect x="57.1929" y="35.0776" width="453.543" height="280.62" fill="none" stroke="black"/>
<rect x="57.1929" y="35.0776" width="453.543" height="280.62" fill="white"/>
<rect x="57.1929" y="35.0776" width="453.543" height="280.62" fill="none" stroke="black"/>
<path d="M57.1929,315.698h 453.543" fill="none" stroke="black"/>
<path d="M77.7673,307.279v 8.41861" fill="none" stroke="black"/>
<path d="M98.3849,311.489v 4.20931" fill="none" stroke="black"/>
<path d="M119.003,311.489v 4.20931" fill="none" stroke="black"/>
<path d="M139.62,311.489v 4.20931" fill="none" stroke="black"/>
<path d="M160.238,307.279v 8.41861" fill="none" stroke="black"/>
<path d="M180.856,311.489v 4.20931" fill="none" stroke="black"/>
<path d="M201.473,311.489v 4.20931" fill="none" stroke="black"/>
<path d="M222.091,311.489v 4.20931" fill="none" stroke="black"/>
<path d="M242.709,307.279v 8.41861" fill="none" stroke="black"/>
<path d="M263.326,311.489v 4.20931" fill="none" stroke="black"/>
<path d="M283.944,311.489v 4.20931" fill="none" stroke="black"/>
<path d="M304.562,311.489v 4.20931" fill="none" stroke="black"/>
<path d="M325.179,307.279v 8.41861" fill="none" stroke="black"/>
<path d="M345.797,311.489v 4.20931" fill="none" stroke="black"/>
<path d="M366.415,311.489v 4.20931" fill="none" stroke="black"/>
<path d="M387.032,311.489v 4.20931" fill="none" stroke="black"/>
<path d="M407.65,307.279v 8.41861" fill="none" stroke="black"/>
<path d="M428.268,311.489v 4.20931" fill="none" stroke="black"/>
<path d="M448.885,311.489v 4.20931" fill="none" stroke="black"/>
<path d="M469.503,311.489v 4.20931" fill="none" stroke="black"/>
<path d="M490.121,307.279v 8.41861" fill="none" stroke="black"/>
<path d="M77.7673,307.279v 8.41861" fill="none" stroke="black"/>
<path d="M490.121,307.279v 8.41861" fill="none" stroke="black"/>
<text xml:space="preserve" x="74.4473" y="327.075" fill="black" font-size="11.7634" font-family="Helvetica">0</text>
<text xml:space="preserve" x="150.291" y="327.075" fill="black" font-size="11.7634" font-family="Helvetica">200</text>
<text xml:space="preserve" x="232.77" y="327.075" fill="black" font-size="11.7634" font-family="Helvetica">400</text>
<text xml:space="preserve" x="315.25" y="327.075" fill="black" font-size="11.7634" font-family="Helvetica">600</text>
<text xml:space="preserve" x="397.73" y="327.075" fill="black" font-size="11.7634" font-family="Helvetica">800</text>
<text xml:space="preserve" x="476.891" y="327.075" fill="black" font-size="11.7634" font-family="Helvetica">1000</text>
<text xml:space="preserve" x="530.93" y="310.01" fill="black" font-size="8.00896" font-family="Helvetica">3</text>
<text xml:space="preserve" x="518.605" y="315.698" fill="black" font-size="11.7634" font-family="Helvetica">10</text>
<text xml:space="preserve" x="512.443" y="315.698" fill="black" font-size="11.7634" font-family="Times">&#0215;</text>
<text xml:space="preserve" x="439.917" y="338.451" fill="black" font-size="11.7634" font-family="Helvetica"> X number (N)</text>
<path d="M57.1929,315.698v -280.62" fill="none" stroke="black"/>
<path d="M70.7992,315.698h -13.6063" fill="none" stroke="black"/>
<path d="M63.9961,305.644h -6.80315" fill="none" stroke="black"/>
<path d="M63.9961,295.59h -6.80315" fill="none" stroke="black"/>
<path d="M63.9961,285.536h -6.80315" fill="none" stroke="black"/>
<path d="M70.7992,275.482h -13.6063" fill="none" stroke="black"/>
<path d="M63.9961,265.428h -6.80315" fill="none" stroke="black"/>
<path d="M63.9961,255.374h -6.80315" fill="none" stroke="black"/>
<path d="M63.9961,245.319h -6.80315" fill="none" stroke="black"/>
<path d="M70.7992,235.265h -13.6063" fill="none" stroke="black"/>
<path d="M63.9961,225.211h -6.80315" fill="none" stroke="black"/>
<path d="M63.9961,215.157h -6.80315" fill="none" stroke="black"/>
<path d="M63.9961,205.103h -6.80315" fill="none" stroke="black"/>
<path d="M70.7992,195.049h -13.6063" fill="none" stroke="black"/>
<path d="M63.9961,184.995h -6.80315" fill="none" stroke="black"/>
<path d="M63.9961,174.941h -6.80315" fill="none" stroke="black"/>
<path d="M63.9961,164.887h -6.80315" fill="none" stroke="black"/>
<path d="M70.7992,154.833h -13.6063" fill="none" stroke="black"/>
<path d="M63.9961,144.779h -6.80315" fill="none" stroke="black"/>
<path d="M63.9961,134.725h -6.80315" fill="none" stroke="black"/>
<path d="M63.9961,124.67h -6.80315" fill="none" stroke="black"/>
<path d="M70.7992,114.616h -13.6063" fill="none" stroke="black"/>
<path d="M63.9961,104.562h -6.80315" fill="none" stroke="black"/>
<path d="M63.9961,94.5082h -6.80315" fill="none" stroke="black"/>
<path d="M63.9961,84.4542h -6.80315" fill="none" stroke="black"/>
<path d="M70.7992,74.4001h -13.6063" fill="none" stroke="black"/>
<path d="M70.7992,74.4001h -13.6063" fill="none" stroke="black"/>
<path d="M63.9961,64.346h -6.80315" fill="none" stroke="black"/>
<path d="M63.9961,54.2919h -6.80315" fill="none" stroke="black"/>
<path d="M63.9961,44.2378h -6.80315" fill="none" stroke="black"/>
<text xml:space="preserve" x="47.9021" y="319.964" fill="black" font-size="11.7634" font-family="Helvetica">0</text>
<text xml:space="preserve" x="41.7398" y="279.672" fill="black" font-size="11.7634" font-family="Helvetica">20</text>
<text xml:space="preserve" x="41.7398" y="239.381" fill="black" font-size="11.7634" font-family="Helvetica">40</text>
<text xml:space="preserve" x="41.7398" y="199.089" fill="black" font-size="11.7634" font-family="Helvetica">60</text>
<text xml:space="preserve" x="41.7398" y="158.797" fill="black" font-size="11.7634" font-family="Helvetica">80</text>
<text xml:space="preserve" x="35.5776" y="118.505" fill="black" font-size="11.7634" font-family="Helvetica">100</text>
<text xml:space="preserve" x="35.5776" y="78.2135" fill="black" font-size="11.7634" font-family="Helvetica">120</text>
<g transform="rotate(-90,21.3569,95.7523)">
<text xml:space="preserve" x="21.3569" y="95.7523" fill="black" font-size="11.7634" font-family="Helvetica"> Y time (ms)</text>
</g>
<path d="M77.8085,315.698l 0.825944, -0.22119l 0.826356, -0.281514l 0.826356, -0.321731l 0.826356, -0.261406l 0.826356, -0.301622l 0.825944, -0.180973l 0.826356, -0.482596l 0.826356, -0.180973l 0.826356, -0.261406l 0.826356, -0.241298l 0.825944,
 -0.321731l 0.826356, -0.301622l 0.826356, -0.301622l 0.826356, -0.341839l 0.826356, -0.301622l 0.825944, -0.301622l 0.826356, -0.422271l 0.826356, -0.241298l 0.826356, -0.321731l 0.826356, -0.462488l 0.825944, -0.281514l 0.826356, -0.382055l
 0.826356, -0.321731l 0.826356, -0.180973l 0.826356, -0.321731l 0.825944, -0.44238l 0.826356, -1.02552l 0.826356, 0.160865l 0.826356, -0.140757l 0.826356, -0.482596l 0.826356, -3.35806l 0.825944, 2.77493l 0.826356, -2.59395l 0.826356, 1.9706l
 0.826356, -4.20261l 0.826356, 3.4586l 0.825944, -2.83525l 0.826356, 2.27222l 0.826356, -4.36347l 0.826356, 3.61947l 0.826356, -0.321731l 0.825944, -0.422271l 0.826356, -2.79503l 0.826356, 0.180973l 0.826356, 0.844543l 0.826356, 0.563029l 0.825944,
 -0.402163l 0.826356, -2.43309l 0.826356, 1.60865l 0.826356, -0.402163l 0.826356, -2.35265l 0.825944, 0.100541l 0.826356, 1.12606l 0.826356, -0.180973l 0.826356, -0.382055l 0.826356, -0.361947l 0.826356, -0.44238l 0.825944, -1.4679l 0.826356,
 0.0603245l 0.826356, -2.33255l 0.826356, -1.06573l 0.826356, 1.7293l 0.825944, -0.583137l 0.826356, 0.402163l 0.826356, -0.703786l 0.826356, -1.40757l 0.826356, 0.22119l 0.825944, 0.482596l 0.826356, -2.67439l 0.826356, 2.43309l 0.826356, -1.95049l
 0.826356, 0.784218l 0.825944, -1.488l 0.826356, -4.54444l 0.826356, 3.13687l 0.826356, 1.2266l 0.826356, -0.683677l 0.825944, -1.44779l 0.826356, -0.563029l 0.826356, 0.120649l 0.826356, 1.28692l 0.826356, -1.14617l 0.826356, -0.824435l 0.825944,
 -1.38746l 0.826356, -0.261406l 0.826356, 0.924975l 0.826356, -1.44779l 0.826356, -0.382055l 0.825944, -1.10595l 0.826356, 0.482596l 0.826356, 1.34725l 0.826356, -0.603245l 0.826356, -1.00541l 0.825944, -1.06573l 0.826356, -0.281514l 0.826356,
 0.140757l 0.826356, 0.100541l 0.826356, -1.02552l 0.825944, -1.2266l 0.826356, 0.663569l 0.826356, -1.40757l 0.826356, -0.804326l 0.826356, 0.0603245l 0.825944, -5.08736l 0.826356, 4.86617l 0.826356, -0.522812l 0.826356, -1.06573l 0.826356,
 -0.201082l 0.826356, 0.160865l 0.825944, -0.301622l 0.826356, -0.965192l 0.826356, 0.643461l 0.826356, -2.25211l 0.826356, -0.402163l 0.825944, 1.7293l 0.826356, -0.281514l 0.826356, -0.361947l 0.826356, -1.50811l 0.826356, 0.100541l 0.825944,
 -1.04562l 0.826356, 0.482596l 0.826356, 0.201082l 0.826356, -2.25211l 0.826356, -1.74941l 0.825944, 1.36735l 0.826356, -0.663569l 0.826356, -0.482596l 0.826356, -2.57384l 0.826356, 0.100541l 0.825944, 2.51352l 0.826356, -0.281514l 0.826356,
 -2.19179l 0.826356, 0.44238l 0.826356, -2.33255l 0.826356, 0.0603245l 0.825944, -0.160865l 0.826356, 0.904867l 0.826356, -1.60865l 0.826356, 1.08584l 0.826356, -2.17168l 0.825944, -1.30703l 0.826356, -1.488l 0.826356, 3.65969l 0.826356, -2.79503l
 0.826356, -0.22119l 0.825944, 1.26681l 0.826356, -0.522812l 0.826356, -2.25211l 0.826356, -0.884759l 0.826356, 1.38746l 0.825944, 0.623353l 0.826356, -0.583137l 0.826356, -2.01082l 0.826356, 2.05103l 0.826356, -5.30855l 0.825944, 3.4586l 0.826356,
 -1.2266l 0.826356, -0.180973l 0.826356, -0.864651l 0.826356, 0.261406l 0.826356, -3.82055l 0.825944, 0.402163l 0.826356, 0.422271l 0.826356, -9.6117l 0.826356, 8.3851l 0.826356, -2.03092l 0.825944, 0.140757l 0.826356, 2.4532l 0.826356, -7.07807l
 0.826356, 1.44779l 0.826356, 4.4439l 0.825944, -5.24823l 0.826356, 4.30315l 0.826356, -2.59395l 0.826356, 2.69449l 0.826356, -5.08736l 0.825944, -1.28692l 0.826356, 2.2119l 0.826356, 0.0804326l 0.826356, 1.40757l 0.826356, -1.26681l 0.825944,
 -4.06185l 0.826356, 0.0201082l 0.826356, 0.0603245l 0.826356, -2.29233l 0.826356, 2.49341l 0.826356, -3.47871l 0.825944, 2.73471l 0.826356, -4.36347l 0.826356, 1.38746l 0.826356, 2.29233l 0.826356, -3.98142l 0.825944, 6.45472l 0.826356, -3.25752l
 0.826356, -1.58854l 0.826356, -2.2119l 0.826356, 0.422271l 0.825944, -5.48953l 0.826356, 6.6558l 0.826356, -4.46401l 0.826356, 6.67591l 0.826356, -6.17321l 0.825944, 2.59395l 0.826356, -5.34877l 0.826356, -0.643461l 0.826356, 3.59936l 0.826356,
 -6.57537l 0.825944, 5.00693l 0.826356, -1.14617l 0.826356, -3.07655l 0.826356, -2.01082l 0.826356, 0.884759l 0.826356, 3.31785l 0.825944, -1.60865l 0.826356, 1.20649l 0.826356, -1.04562l 0.826356, 0.563029l 0.826356, -7.11829l 0.825944, 4.16239l
 0.826356, -3.27763l 0.826356, 1.38746l 0.826356, 2.27222l 0.826356, 2.13146l 0.825944, -6.23353l 0.826356, 0.462488l 0.826356, -2.49341l 0.826356, 2.99612l 0.826356, -2.09125l 0.825944, 0.623353l 0.826356, -1.24671l 0.826356, -1.4679l 0.826356,
 5.52974l 0.826356, -8.84759l 0.825944, -0.422271l 0.826356, 2.33255l 0.826356, 5.02704l 0.826356, -4.84607l 0.826356, -3.61947l 0.826356, 0.844543l 0.825944, 1.56844l 0.826356, 1.14617l 0.826356, -5.38899l 0.826356, -1.34725l 0.826356, 3.59936l
 0.825944, -2.2119l 0.826356, -1.9706l 0.826356, -2.11136l 0.826356, 4.28304l 0.826356, -4.74553l 0.825944, 4.16239l 0.826356, -3.27763l 0.826356, 1.36735l 0.826356, 1.42768l 0.826356, -5.00693l 0.825944, 2.25211l 0.826356, -0.844543l 0.826356,
 1.42768l 0.826356, -0.261406l 0.826356, -2.81514l 0.825944, -0.884759l 0.826356, 2.53363l 0.826356, -1.54833l 0.826356, -2.23201l 0.826356, -1.62876l 0.826356, 1.18638l 0.825944, 3.98142l 0.826356, -3.21731l 0.826356, 3.6999l 0.826356, -4.22271l
 0.826356, 1.10595l 0.825944, -0.924975l 0.826356, 0.462488l 0.826356, -19.5853l 0.826356, 8.40521l 0.826356, 0.54292l 0.825944, 4.74553l 0.826356, 2.05103l 0.826356, 1.62876l 0.826356, -8.26445l 0.826356, 3.29774h 0.825944l 0.826356, -3.55914l
 0.826356, 0.422271l 0.826356, -3.88088l 0.826356, 5.85147l 0.825944, 6.33407l 0.826356, -9.3503l 0.826356, -4.04174l 0.826356, 12.3464l 0.826356, -13.3116l 0.826356, 1.87006l 0.825944, 0.180973h 0.826356l 0.826356, 2.35265l 0.826356, -2.87547l
 0.826356, 5.54985l 0.825944, -18.8212l 0.826356, 8.52586l 0.826356, 1.89017l 0.826356, -1.84995l 0.826356, 6.27375l 0.825944, -5.46942l 0.826356, -10.6975l 0.826356, 13.9953l 0.826356, 0.120649l 0.826356, -13.935l 0.825944, 12.1453l 0.826356,
 1.16627l 0.826356, -7.21883l 0.826356, 0.904867l 0.826356, -1.4679l 0.825944, -1.95049l 0.826356, -1.78963l 0.826356, -1.9706l 0.826356, 3.15698l 0.826356, 6.57537l 0.826356, -9.109l 0.825944, -0.563029l 0.826356, 8.365l 0.826356, -0.0804326l
 0.826356, -10.4361l 0.826356, 10.2149l 0.825944, -9.47094l 0.826356, -6.51504l 0.826356, 5.46942l 0.826356, -4.96672l 0.826356, 6.49494l 0.825944, -0.623353l 0.826356, 4.16239l 0.826356, 2.29233l 0.826356, -11.9442l 0.826356, 1.18638l 0.825944,
 0.965192l 0.826356, -4.12217l 0.826356, 1.78963l 0.826356, 5.02704l 0.826356, 0.723894l 0.825944, -3.59936l 0.826356, -1.58854l 0.826356, -1.76952l 0.826356, -2.27222l 0.826356, 7.44002l 0.826356, -6.87699l 0.825944, -7.21883l 0.826356, 12.8893l
 0.826356, -7.68132l 0.826356, 7.17861l 0.826356, -5.14769l 0.825944, 7.19872l 0.826356, -10.4562l 0.826356, 7.96283l 0.826356, -6.6558l 0.826356, -8.24435l 0.825944, 6.37429l 0.826356, 5.61018l 0.826356, -8.66662l 0.826356, -0.643461l 0.826356,
 -4.9265l 0.825944, 4.54444l 0.826356, 5.99223l 0.826356, 0.945084l 0.826356, -9.75246l 0.826356, -2.81514l 0.825944, 2.73471l 0.826356, -5.46942l 0.826356, -2.39287l 0.826356, 5.93191l 0.826356, -0.361947l 0.826356, -3.27763l 0.825944, 6.85688l
 0.826356, -4.36347l 0.826356, 9.00846l 0.826356, -10.7981l 0.826356, 4.78574l 0.825944, -4.96672l 0.826356, 6.81667l 0.826356, -13.8947l 0.826356, 5.61018l 0.826356, -1.68909l 0.825944, 2.01082l 0.826356, 0.160865l 0.826356, -8.02316l 0.826356,
 3.33795l 0.826356, 10.5367l 0.825944, -5.08736l 0.826356, -7.56067l 0.826356, 2.35265l 0.826356, -4.04174l 0.826356, 8.32478l 0.825944, -5.50964l 0.826356, -1.9706l 0.826356, 5.18791l 0.826356, 4.30315l 0.826356, -14.0154l 0.826356, 1.82984l
 0.825944, 0.683677l 0.826356, -4.16239l 0.826356, 8.82748l 0.826356, -8.82748l 0.826356, 2.41298l 0.825944, 2.43309l 0.826356, -1.24671l 0.826356, 6.55526l 0.826356, -1.9706l 0.826356, -8.10359l 0.825944, -1.08584l 0.826356, -2.75482l 0.826356,
 -4.02163l 0.826356, 3.74012l 0.826356, -0.120649l 0.825944, 9.69213l 0.826356, -10.0541l 0.826356, 0.140757l 0.826356, -3.47871l 0.826356, 8.64651l 0.825944, -0.301622l 0.826356, 2.13146l 0.826356, -2.65428l 0.826356, -3.55914l 0.826356, -6.85688l
 0.826356, 10.0139l 0.825944, -10.6372l 0.826356, 3.92109l 0.826356, 5.12758l 0.826356, -9.43073l 0.826356, 5.54985l 0.825944, -3.67979l 0.826356, -7.94272l 0.826356, -8.52586l 0.826356, 8.72694l 0.826356, 10.4965l 0.825944, -5.52974l 0.826356,
 -2.37276l 0.826356, -0.965192l 0.826356, 0.904867l 0.826356, 9.45084l 0.825944, -1.89017l 0.826356, -10.4562l 0.826356, -2.69449l 0.826356, 3.51893l 0.826356, -2.35265l 0.825944, 0.402163l 0.826356, 6.37429l 0.826356, 5.10747l 0.826356, -17.2729l
 0.826356, 13.1306l 0.826356, -14.7594l 0.825944, 5.87158l 0.826356, 8.00305l 0.826356, -0.844543l 0.826356, -14.6387l 0.826356, 13.6735l 0.825944, -1.06573l 0.826356, -10.2954l 0.826356, 9.77257l 0.826356, -6.3944l 0.826356, -3.29774l 0.825944,
 1.28692l 0.826356, -1.60865l 0.826356, 9.04867l 0.826356, -11.6225l 0.826356, 10.2753l 0.825944, -7.72153l 0.826356, -3.6999l 0.826356, -0.623353l 0.826356, 1.02552l 0.826356, 0.0402163l 0.825944, 5.9118l 0.826356, 0.723894l 0.826356, -9.853l
 0.826356, -2.67439l 0.826356, -3.74012l 0.826356, 14.9806l 0.825944, -12.1654l 0.826356, 1.64887l 0.826356, 0.824435l 0.826356, 0.382055l 0.826356, -1.66898l 0.825944, -0.784218l 0.826356, 4.14228l 0.826356, -3.31785l 0.826356, -1.44779l 0.826356,
 8.02316l 0.825944, -8.82748l 0.826356, -1.24671l 0.826356, -4.82596l 0.826356, 12.1051l 0.826356, -8.14381l 0.825944, 5.48953l 0.826356, -5.87158l 0.826356, -2.2119l 0.826356, 2.99612l 0.826356, 3.74012l 0.825944, -14.5985l 0.826356, 4.14228l
 0.826356, 7.76175l 0.826356, 1.87006l 0.826356, -16.2072l 0.826356, 6.61558" fill="none" stroke="#00ff00"/>
<path d="M77.8085,315.698l 0.825944, -0.341839l 0.826356, -0.261406l 0.826356, -0.261406l 0.826356, -0.341839l 0.826356, -0.281514l 0.825944, -0.422271l 0.826356, -0.201082l 0.826356, -0.603245l 0.826356, -0.261406l 0.826356, -0.361947l 0.825944,
 -0.422271l 0.826356, -0.382055l 0.826356, -0.341839l 0.826356, -0.563029l 0.826356, -0.341839l 0.825944, -0.44238l 0.826356, -0.462488l 0.826356, -0.22119l 0.826356, -0.321731l 0.826356, -0.824435l 0.825944, -0.201082l 0.826356, -0.341839l 0.826356,
 -1.56844l 0.826356, -1.04562l 0.826356, -0.603245l 0.825944, -0.603245l 0.826356, 0.241298l 0.826356, 0.965192l 0.826356, -1.4679l 0.826356, -0.382055l 0.826356, 0.462488l 0.825944, -1.62876l 0.826356, 0.703786l 0.826356, -0.301622l 0.826356,
 -0.180973l 0.826356, -1.30703l 0.825944, -1.30703l 0.826356, -0.241298l 0.826356, 0.864651l 0.826356, -1.80973l 0.826356, -0.663569l 0.825944, -0.0201082l 0.826356, -0.0201082l 0.826356, 0.0201082l 0.826356, -1.60865l 0.826356, -1.44779l 0.825944,
 0.180973l 0.826356, 0.341839l 0.826356, -1.89017l 0.826356, -0.683677l 0.826356, 1.54833l 0.825944, -0.180973l 0.826356, -2.67439l 0.826356, -0.522812l 0.826356, 0.301622l 0.826356, -0.0603245l 0.826356, -0.884759l 0.825944, 1.16627l 0.826356,
 -0.723894l 0.826356, -0.522812l 0.826356, -0.502704l 0.826356, -0.341839l 0.825944, -0.76411l 0.826356, 0.281514l 0.826356, -1.89017l 0.826356, 0.76411l 0.826356, -0.54292l 0.825944, -2.61406l 0.826356, 1.66898l 0.826356, -1.4679l 0.826356, 1.30703l
 0.826356, -3.31785l 0.825944, 1.10595l 0.826356, -0.100541l 0.826356, -0.361947l 0.826356, -4.16239l 0.826356, 3.13687l 0.825944, -0.22119l 0.826356, -1.38746l 0.826356, 0.361947l 0.826356, -3.80044l 0.826356, 1.76952l 0.826356, -0.382055l 0.825944,
 -0.120649l 0.826356, -0.120649l 0.826356, -0.100541l 0.826356, -2.63417l 0.826356, 1.52822l 0.825944, -0.924975l 0.826356, -0.703786l 0.826356, 1.95049l 0.826356, -2.09125l 0.826356, -1.10595l 0.825944, -4.60477l 0.826356, 2.7146l 0.826356,
 -3.76023l 0.826356, 0.54292l 0.826356, 0.0402163l 0.825944, 2.07114l 0.826356, -2.27222l 0.826356, -1.84995l 0.826356, -0.180973l 0.826356, 2.2119l 0.825944, -1.78963l 0.826356, -0.160865l 0.826356, -1.93038l 0.826356, 2.69449l 0.826356, -2.07114l
 0.826356, 1.32714l 0.825944, -3.9412l 0.826356, 1.4679l 0.826356, -1.04562l 0.826356, -1.9706l 0.826356, 0.120649l 0.825944, 0.402163l 0.826356, 0.462488l 0.826356, -0.180973l 0.826356, -3.51893l 0.826356, -0.643461h 0.825944l 0.826356, -1.44779l
 0.826356, -0.482596l 0.826356, 0.904867l 0.826356, 1.12606l 0.825944, 1.87006l 0.826356, -3.67979l 0.826356, -0.9853l 0.826356, 0.301622l 0.826356, 0.120649l 0.825944, -2.61406l 0.826356, -5.38899l 0.826356, 6.03245l 0.826356, 0.422271l 0.826356,
 -3.27763l 0.826356, -0.583137l 0.825944, 0.904867l 0.826356, -1.42768l 0.826356, -0.462488l 0.826356, -2.15157l 0.826356, 5.87158l 0.825944, -9.28997l 0.826356, 3.09666l 0.826356, 0.522812l 0.826356, -0.281514l 0.826356, -0.341839l 0.825944,
 -1.58854l 0.826356, -4.04174l 0.826356, 3.35806l 0.826356, 0.0402163l 0.826356, -0.341839l 0.825944, -0.462488l 0.826356, 3.47871l 0.826356, -5.34877l 0.826356, -0.563029l 0.826356, 0.623353l 0.825944, -0.864651l 0.826356, -0.462488l 0.826356,
 0.22119l 0.826356, -0.824435l 0.826356, -0.9853l 0.826356, -0.663569l 0.825944, -0.744002l 0.826356, -2.11136l 0.826356, -0.120649l 0.826356, 0.844543l 0.826356, -0.603245l 0.825944, -1.44779l 0.826356, -0.623353l 0.826356, 1.64887l 0.826356,
 -0.945084l 0.826356, 1.12606l 0.825944, -3.47871l 0.826356, 3.80044l 0.826356, -2.9559l 0.826356, -0.744002l 0.826356, -7.70143l 0.825944, 4.70531l 0.826356, 2.59395l 0.826356, -1.26681l 0.826356, -3.15698l 0.826356, 1.02552l 0.825944, 3.31785l
 0.826356, -3.65969l 0.826356, 0.22119l 0.826356, -2.97601l 0.826356, -1.04562l 0.826356, 1.50811l 0.825944, -1.60865l 0.826356, -0.422271l 0.826356, -0.723894l 0.826356, 1.68909l 0.826356, -6.6558l 0.825944, 4.96672l 0.826356, -2.27222l 0.826356,
 -4.34336l 0.826356, 1.10595l 0.826356, 0.0402163l 0.825944, 3.29774l 0.826356, -2.37276l 0.826356, -5.85147l 0.826356, 8.26445l 0.826356, -1.34725l 0.825944, -3.51893l 0.826356, -0.9853l 0.826356, -4.10206l 0.826356, 8.02316l 0.826356, 0.0804326l
 0.825944, -1.52822l 0.826356, -0.522812l 0.826356, -3.13687l 0.826356, 0.583137l 0.826356, -1.68909l 0.826356, 0.100541l 0.825944, 1.64887l 0.826356, 1.7293l 0.826356, -3.17709l 0.826356, 2.09125l 0.826356, -5.89169l 0.825944, 4.16239l 0.826356,
 -5.34877l 0.826356, 1.4679l 0.826356, -2.37276l 0.826356, 1.68909l 0.825944, -3.35806l 0.826356, 3.6999l 0.826356, -0.965192l 0.826356, -2.33255l 0.826356, -3.05644l 0.825944, -9.33019l 0.826356, 10.0943l 0.826356, 1.10595l 0.826356, 0.54292l
 0.826356, -11.5421l 0.825944, 8.96824l 0.826356, -3.6999l 0.826356, -1.82984l 0.826356, 1.44779l 0.826356, 4.1825l 0.826356, -2.4532l 0.825944, -1.02552l 0.826356, -0.180973l 0.826356, -1.95049l 0.826356, -2.59395l 0.826356, 3.61947l 0.825944,
 -4.50423l 0.826356, 2.27222l 0.826356, -2.85536l 0.826356, 3.78033l 0.826356, -2.43309l 0.825944, 2.41298l 0.826356, -2.09125l 0.826356, -2.33255l 0.826356, -1.20649l 0.826356, 3.57925l 0.825944, -0.864651l 0.826356, -2.05103l 0.826356, -12.7888l
 0.826356, 10.6774l 0.826356, -0.120649l 0.825944, -5.26834l 0.826356, -0.643461l 0.826356, -12.7888l 0.826356, 14.6991l 0.826356, 0.44238l 0.826356, -0.22119l 0.825944, 1.70919l 0.826356, -1.14617l 0.826356, -6.37429l 0.826356, 4.14228l 0.826356,
 -0.864651l 0.825944, -0.22119l 0.826356, 1.30703l 0.826356, -6.07266l 0.826356, -0.261406l 0.826356, 3.74012l 0.825944, -0.462488l 0.826356, -1.40757l 0.826356, -16.167l 0.826356, 18.5799l 0.826356, -10.5769l 0.825944, -1.08584l 0.826356, 4.1825l
 0.826356, 3.82055l 0.826356, -5.06726l 0.826356, 2.35265l 0.825944, -6.45472l 0.826356, 5.99223l 0.826356, -1.26681l 0.826356, -9.71224l 0.826356, 8.20413l 0.826356, 1.18638l 0.825944, -5.18791l 0.826356, 2.91568l 0.826356, -5.87158l 0.826356,
 4.26293l 0.826356, -1.60865l 0.825944, 2.4532l 0.826356, -3.03633l 0.826356, 3.21731l 0.826356, -0.864651l 0.826356, -3.67979l 0.825944, -3.49882l 0.826356, 1.54833l 0.826356, -0.180973l 0.826356, -0.120649l 0.826356, -2.01082l 0.825944, 2.57384l
 0.826356, -2.09125l 0.826356, 0.563029l 0.826356, -5.02704l 0.826356, 0.22119l 0.825944, 3.29774l 0.826356, 0.462488l 0.826356, -4.06185l 0.826356, -8.34489l 0.826356, 11.2807l 0.826356, -1.84995l 0.825944, -6.1531l 0.826356, 2.11136l 0.826356,
 1.74941l 0.826356, -0.281514l 0.826356, -2.55374l 0.825944, -2.59395l 0.826356, 1.68909l 0.826356, -0.945084l 0.826356, -9.1291l 0.826356, -3.88088l 0.825944, 4.84607l 0.826356, 3.03633l 0.826356, 4.02163l 0.826356, -6.23353l 0.826356, 4.62488l
 0.825944, -1.62876l 0.826356, -1.2266l 0.826356, -2.27222l 0.826356, 6.09277l 0.826356, -3.63958l 0.825944, -2.2119l 0.826356, -1.56844l 0.826356, -0.623353l 0.826356, -2.39287l 0.826356, -0.301622l 0.826356, 3.35806l 0.825944, -4.54444l 0.826356,
 3.53904l 0.826356, 1.28692l 0.826356, -0.824435l 0.826356, -3.21731l 0.825944, -4.74553l 0.826356, 1.74941l 0.826356, -1.36735l 0.826356, 1.06573l 0.826356, 0.904867l 0.825944, 1.08584l 0.826356, -3.72001l 0.826356, 5.36888l 0.826356, -5.54985l
 0.826356, 2.13146l 0.825944, -3.29774l 0.826356, -0.784218l 0.826356, 3.59936l 0.826356, 0.100541l 0.826356, -0.462488l 0.825944, 1.56844l 0.826356, -2.33255l 0.826356, 2.85536l 0.826356, -6.63569l 0.826356, -1.42768l 0.826356, 0.0201082l 0.825944,
 1.42768l 0.826356, -1.91028l 0.826356, -10.2149l 0.826356, -18.962l 0.826356, 19.4044l 0.825944, 1.488l 0.826356, -0.160865l 0.826356, 5.14769l 0.826356, -4.78574l 0.826356, -2.23201l 0.825944, 1.82984l 0.826356, 3.78033l 0.826356, -5.1678l
 0.826356, 3.07655l 0.826356, -9.06878l 0.825944, 3.76023l 0.826356, -3.23741l 0.826356, 4.94661l 0.826356, -3.21731l 0.826356, 4.14228l 0.825944, -2.65428l 0.826356, -6.6558l 0.826356, -6.55526l 0.826356, 0.22119l 0.826356, 6.55526l 0.826356,
 4.50423l 0.825944, -17.4539l 0.826356, 16.911l 0.826356, -2.05103h 0.826356l 0.826356, -7.6411l 0.825944, 11.522l 0.826356, -1.26681l 0.826356, 0.0804326l 0.826356, -0.965192l 0.826356, 0.44238l 0.825944, -3.59936l 0.826356, -3.65969l 0.826356,
 -2.65428l 0.826356, -3.4385l 0.826356, 10.2149l 0.825944, -2.23201l 0.826356, -6.77645l 0.826356, 7.48024l 0.826356, -0.261406l 0.826356, -6.67591l 0.825944, 0.904867l 0.826356, -8.20413l 0.826356, 9.6117l 0.826356, -15.6039l 0.826356, 3.6999l
 0.826356, -4.6852l 0.825944, 10.9388l 0.826356, -4.94661l 0.826356, -4.04174l 0.826356, -0.422271l 0.826356, 2.03092l 0.825944, 8.24435l 0.826356, -5.95202l 0.826356, 2.91568l 0.826356, 4.06185l 0.826356, -9.18943l 0.825944, 0.382055l 0.826356,
 -7.35959l 0.826356, 10.9791l 0.826356, 0.623353l 0.826356, -0.844543l 0.825944, -0.804326l 0.826356, 0.522812l 0.826356, -3.53904l 0.826356, -2.25211l 0.826356, -2.17168l 0.825944, 3.25752l 0.826356, -2.75482l 0.826356, 0.422271l 0.826356, 1.16627l
 0.826356, -0.784218l 0.826356, 1.20649l 0.825944, -7.48024l 0.826356, 1.7293l 0.826356, 0.422271l 0.826356, -0.76411l 0.826356, -0.723894l 0.825944, -1.50811l 0.826356, -7.66121l 0.826356, 6.45472l 0.826356, -6.07266l 0.826356, -1.488l 0.825944,
 -24.9542l 0.826356, 29.5992l 0.826356, -0.0603245l 0.826356, 1.12606l 0.826356, -1.99071l 0.825944, 3.6999l 0.826356, -1.7293l 0.826356, -2.97601l 0.826356, -7.94272l 0.826356, 11.4214l 0.825944, -4.46401l 0.826356, 0.321731l 0.826356, -7.78186l
 0.826356, 5.04715l 0.826356, -7.66121l 0.826356, 5.36888l 0.825944, -6.17321l 0.826356, -1.78963l 0.826356, 13.4323l 0.826356, -8.04326l 0.826356, -4.20261l 0.825944, 7.56067l 0.826356, -5.75093l 0.826356, 1.10595l 0.826356, -1.12606l 0.826356,
 -3.84066l 0.825944, 3.39828l 0.826356, -0.422271l 0.826356, -4.40369l 0.826356, 7.03786l 0.826356, -8.30467l 0.825944, -0.864651l 0.826356, -8.44543l 0.826356, 1.84995l 0.826356, 6.17321l 0.826356, 8.52586l 0.825944, -9.77257l 0.826356, 6.81667l
 0.826356, -3.41839l 0.826356, -3.80044l 0.826356, 3.11677l 0.826356, -5.08736" fill="none" stroke="#ff0000"/>
<path d="M77.8085,315.698l 0.825944, -0.261406l 0.826356, -0.140757l 0.826356, -0.723894l 0.826356, 0.301622l 0.826356, -0.120649l 0.825944, -0.924975l 0.826356, 0.422271l 0.826356, -0.160865l 0.826356, -0.583137l 0.826356, 0.583137l 0.825944,
 -0.502704l 0.826356, -0.160865h 0.826356l 0.826356, 0.140757l 0.826356, -0.563029l 0.825944, 0.140757l 0.826356, -0.321731l 0.826356, -0.301622l 0.826356, 0.100541l 0.826356, 0.0804326l 0.825944, -0.201082l 0.826356, -0.301622l 0.826356, -0.804326l
 0.826356, -0.402163l 0.826356, 0.864651l 0.825944, 0.9853l 0.826356, -1.06573l 0.826356, 0.603245l 0.826356, -0.321731l 0.826356, -1.06573l 0.826356, -0.924975l 0.825944, 1.08584l 0.826356, 0.0603245l 0.826356, -2.15157l 0.826356, 1.54833l 0.826356,
 -2.99612l 0.825944, 1.91028l 0.826356, 0.522812l 0.826356, 1.58854l 0.826356, -1.16627l 0.826356, 0.663569l 0.825944, -3.27763l 0.826356, -0.844543l 0.826356, 3.86077h 0.826356l 0.826356, 0.54292l 0.825944, -2.35265l 0.826356, 1.84995l 0.826356,
 0.201082l 0.826356, -1.24671l 0.826356, 0.884759l 0.825944, -1.02552l 0.826356, 1.34725l 0.826356, -0.482596l 0.826356, -0.482596l 0.826356, -1.04562l 0.826356, 0.462488l 0.825944, 0.180973l 0.826356, -0.663569l 0.826356, -0.120649h 0.826356l
 0.826356, 1.80973l 0.825944, -1.54833l 0.826356, 0.965192l 0.826356, -3.1972l 0.826356, 3.23741l 0.826356, -0.76411l 0.825944, 0.744002l 0.826356, 0.0201082l 0.826356, -1.60865l 0.826356, 0.945084l 0.826356, -1.20649l 0.825944, 0.402163l 0.826356,
 -1.80973l 0.826356, 3.90098l 0.826356, -1.4679l 0.826356, 0.844543l 0.825944, 0.0804326l 0.826356, -2.93579l 0.826356, 1.4679l 0.826356, -1.87006l 0.826356, 1.66898l 0.826356, -0.482596l 0.825944, 1.02552l 0.826356, -3.33795l 0.826356, 3.55914l
 0.826356, -1.95049l 0.826356, 1.56844l 0.825944, -1.50811l 0.826356, 1.76952l 0.826356, -3.72001l 0.826356, 3.13687h 0.826356l 0.825944, -4.86617l 0.826356, 3.51893l 0.826356, 0.44238l 0.826356, 0.76411l 0.826356, 0.22119l 0.825944, -2.67439l
 0.826356, 0.804326l 0.826356, -0.744002l 0.826356, 2.85536l 0.826356, -5.75093l 0.825944, 3.51893l 0.826356, -2.19179l 0.826356, 2.17168l 0.826356, -4.74553l 0.826356, 3.61947l 0.826356, 2.11136l 0.825944, 0.603245l 0.826356, -0.824435l 0.826356,
 0.321731l 0.826356, -2.4733l 0.826356, 1.16627l 0.825944, 1.87006l 0.826356, -2.4733l 0.826356, -1.52822l 0.826356, 2.2119l 0.826356, 1.18638l 0.825944, -0.120649l 0.826356, -4.02163l 0.826356, 3.4586l 0.826356, -0.804326l 0.826356, -1.12606l
 0.825944, 1.93038l 0.826356, -0.563029l 0.826356, 0.44238l 0.826356, -0.261406l 0.826356, 0.140757l 0.825944, 0.160865l 0.826356, -1.54833l 0.826356, -0.402163l 0.826356, 0.321731l 0.826356, 1.38746l 0.826356, -1.02552l 0.825944, 0.522812l 0.826356,
 -2.37276l 0.826356, -0.301622l 0.826356, 3.55914l 0.826356, -1.80973l 0.825944, 0.884759l 0.826356, -1.28692l 0.826356, -0.321731l 0.826356, 0.965192l 0.826356, -1.36735l 0.825944, 0.844543l 0.826356, 0.0804326l 0.826356, -0.643461l 0.826356,
 0.824435l 0.826356, 0.321731l 0.825944, -0.321731l 0.826356, -3.49882l 0.826356, 3.55914l 0.826356, -0.884759l 0.826356, -1.62876l 0.825944, 2.03092l 0.826356, 0.22119l 0.826356, -0.54292l 0.826356, 0.784218l 0.826356, -1.16627l 0.826356, -0.623353l
 0.825944, 0.703786l 0.826356, -2.7146l 0.826356, 2.89558l 0.826356, 0.643461l 0.826356, 0.361947l 0.825944, -2.2119l 0.826356, -1.12606l 0.826356, 1.12606l 0.826356, 1.16627l 0.826356, -1.24671l 0.825944, 0.54292l 0.826356, -1.08584l 0.826356,
 1.14617l 0.826356, -1.32714l 0.826356, 1.488l 0.825944, 0.623353l 0.826356, -1.04562l 0.826356, -1.7293l 0.826356, 2.63417l 0.826356, -1.87006l 0.825944, 1.66898l 0.826356, -0.683677l 0.826356, 0.180973l 0.826356, -1.18638l 0.826356, 0.824435l
 0.826356, -0.382055l 0.825944, 1.10595l 0.826356, -2.07114l 0.826356, 0.261406l 0.826356, -2.63417l 0.826356, 3.74012l 0.825944, -0.54292l 0.826356, -0.54292l 0.826356, -2.09125l 0.826356, 3.29774l 0.826356, -0.462488l 0.825944, -1.89017l 0.826356,
 2.4532l 0.826356, -0.663569l 0.826356, -1.04562l 0.826356, 0.341839l 0.825944, -1.04562l 0.826356, 0.382055l 0.826356, 0.623353l 0.826356, -1.84995l 0.826356, 1.50811l 0.825944, -0.100541l 0.826356, 0.683677l 0.826356, -0.382055l 0.826356, 0.522812l
 0.826356, 0.422271l 0.826356, -1.40757l 0.825944, -1.2266l 0.826356, 1.18638l 0.826356, 1.30703l 0.826356, -2.39287l 0.826356, 2.09125l 0.825944, -0.341839l 0.826356, -1.91028l 0.826356, 0.180973l 0.826356, -0.281514l 0.826356, 0.382055l 0.825944,
 0.824435l 0.826356, -0.402163l 0.826356, 0.643461l 0.826356, -1.24671l 0.826356, 0.341839l 0.825944, 1.50811l 0.826356, -0.663569l 0.826356, -4.06185l 0.826356, 1.91028l 0.826356, -0.100541l 0.825944, 2.29233l 0.826356, -2.75482l 0.826356, 2.39287l
 0.826356, -1.50811l 0.826356, 0.22119l 0.826356, -1.24671l 0.825944, 2.01082l 0.826356, -1.74941l 0.826356, 1.7293l 0.826356, -1.2266l 0.826356, 1.54833l 0.825944, -0.422271l 0.826356, -1.70919l 0.826356, -0.140757l 0.826356, 2.31244l 0.826356,
 -1.06573l 0.825944, -0.884759l 0.826356, -0.301622l 0.826356, -2.49341l 0.826356, 3.31785l 0.826356, -0.301622l 0.825944, -2.31244l 0.826356, 1.28692l 0.826356, 0.904867l 0.826356, -0.904867l 0.826356, -0.784218l 0.825944, 2.41298l 0.826356,
 -2.23201l 0.826356, 1.68909l 0.826356, -0.502704l 0.826356, 1.18638l 0.826356, -2.25211l 0.825944, 0.723894l 0.826356, 0.180973l 0.826356, 1.00541l 0.826356, -1.76952l 0.826356, -0.9853l 0.825944, 1.36735l 0.826356, -1.40757l 0.826356, -5.22812l
 0.826356, 6.73623l 0.826356, -0.0201082l 0.825944, -0.744002l 0.826356, 2.07114l 0.826356, -0.924975l 0.826356, -0.462488l 0.826356, -0.844543l 0.825944, 0.241298l 0.826356, -2.41298l 0.826356, 2.09125l 0.826356, -0.0804326l 0.826356, 0.180973l
 0.825944, 0.201082l 0.826356, -1.30703l 0.826356, -0.583137l 0.826356, 3.29774l 0.826356, -1.42768l 0.826356, -1.02552l 0.825944, 1.84995l 0.826356, -1.80973l 0.826356, 1.06573l 0.826356, -5.44931l 0.826356, 4.84607l 0.825944, -1.44779l 0.826356,
 -0.140757l 0.826356, 1.30703l 0.826356, 0.884759l 0.826356, -0.924975l 0.825944, -0.22119l 0.826356, -1.64887l 0.826356, 1.99071l 0.826356, 0.0402163l 0.826356, -0.663569l 0.825944, 0.0201082l 0.826356, -1.91028l 0.826356, 2.09125l 0.826356,
 -0.100541l 0.826356, -1.24671l 0.825944, -2.39287l 0.826356, -0.723894l 0.826356, 2.97601l 0.826356, 1.20649l 0.826356, 0.583137l 0.826356, -4.78574l 0.825944, 0.603245l 0.826356, -0.0201082l 0.826356, -1.40757l 0.826356, 4.36347l 0.826356, 1.36735l
 0.825944, -0.502704l 0.826356, -1.91028l 0.826356, -1.87006l 0.826356, 3.84066l 0.826356, -1.62876l 0.825944, 0.0603245l 0.826356, 0.864651l 0.826356, -0.321731l 0.826356, -1.488l 0.826356, 0.9853l 0.825944, -1.2266l 0.826356, 0.462488l 0.826356,
 1.60865l 0.826356, -0.54292l 0.826356, 0.563029l 0.825944, -1.08584l 0.826356, -0.140757l 0.826356, -0.904867l 0.826356, -3.78033l 0.826356, 4.48412l 0.826356, -0.0603245l 0.825944, -0.301622l 0.826356, 0.0201082l 0.826356, 0.502704l 0.826356,
 -0.864651l 0.826356, -2.31244l 0.825944, 3.07655l 0.826356, -3.11677l 0.826356, 4.08196l 0.826356, -0.824435l 0.826356, -0.804326l 0.825944, 0.422271l 0.826356, -1.4679l 0.826356, 0.723894l 0.826356, -2.03092l 0.826356, 2.05103l 0.825944, 0.804326l
 0.826356, -4.30315l 0.826356, 1.40757l 0.826356, 3.07655l 0.826356, -1.24671l 0.825944, 1.54833l 0.826356, -1.00541l 0.826356, 0.0603245l 0.826356, 0.945084l 0.826356, -2.4532l 0.826356, 1.50811l 0.825944, -0.422271l 0.826356, 0.120649l 0.826356,
 -3.4586l 0.826356, 1.95049l 0.826356, -0.180973l 0.825944, 0.563029l 0.826356, -0.321731l 0.826356, 0.0804326l 0.826356, 0.583137l 0.826356, -2.49341l 0.825944, 0.422271l 0.826356, 2.55374l 0.826356, -1.40757h 0.826356l 0.826356, -2.85536l 0.825944,
 3.86077l 0.826356, -0.723894l 0.826356, -1.26681l 0.826356, -1.30703l 0.826356, 2.87547l 0.825944, 0.160865l 0.826356, -2.4532l 0.826356, 2.19179l 0.826356, -0.54292l 0.826356, 1.16627l 0.826356, -1.99071l 0.825944, -3.65969l 0.826356, 5.69061l
 0.826356, -2.9559l 0.826356, 1.36735l 0.826356, -0.241298l 0.825944, 0.241298l 0.826356, 0.361947l 0.826356, -0.723894l 0.826356, -0.0804326l 0.826356, -0.261406l 0.825944, -3.1972l 0.826356, 2.25211l 0.826356, 0.945084l 0.826356, 0.623353l
 0.826356, 0.281514l 0.825944, -2.39287l 0.826356, 2.35265l 0.826356, -4.1825l 0.826356, 0.201082l 0.826356, -1.06573l 0.825944, 2.67439l 0.826356, 2.11136l 0.826356, -0.0201082l 0.826356, -1.40757l 0.826356, -4.66509l 0.826356, 4.80585l 0.825944,
 -0.44238l 0.826356, 0.784218l 0.826356, 1.14617l 0.826356, -1.16627l 0.826356, 0.180973l 0.825944, -0.482596l 0.826356, -6.43461l 0.826356, 0.643461l 0.826356, 4.08196l 0.826356, 2.03092l 0.825944, -1.93038l 0.826356, 0.623353l 0.826356, -1.24671l
 0.826356, 2.17168l 0.826356, -2.65428l 0.825944, 0.0402163l 0.826356, -1.62876l 0.826356, 3.96131l 0.826356, -0.522812l 0.826356, -1.89017l 0.825944, 0.361947l 0.826356, 0.683677l 0.826356, 1.50811l 0.826356, -0.663569l 0.826356, -0.462488l
 0.826356, 0.361947l 0.825944, 0.0603245l 0.826356, -0.884759l 0.826356, -0.884759l 0.826356, -0.744002l 0.826356, 1.9706l 0.825944, 0.301622l 0.826356, -1.4679l 0.826356, 1.44779l 0.826356, -0.884759l 0.826356, -1.10595l 0.825944, 1.84995l 0.826356,
 0.703786l 0.826356, -4.24282l 0.826356, 3.17709l 0.826356, -0.924975l 0.825944, 0.140757l 0.826356, 0.583137l 0.826356, 1.62876l 0.826356, -3.78033l 0.826356, 1.44779l 0.825944, -3.23741l 0.826356, 2.19179l 0.826356, -0.281514l 0.826356, 1.50811l
 0.826356, 0.100541l 0.826356, -0.502704l 0.825944, -4.16239l 0.826356, 0.784218l 0.826356, 3.90098l 0.826356, -1.30703l 0.826356, 0.502704l 0.825944, 0.623353l 0.826356, -0.361947l 0.826356, -1.00541l 0.826356, -0.683677l 0.826356, 0.643461l
 0.825944, 0.924975l 0.826356, 0.0603245l 0.826356, 0.281514l 0.826356, -0.120649l 0.826356, -2.67439l 0.825944, -3.74012l 0.826356, 5.61018l 0.826356, 1.58854l 0.826356, -2.75482l 0.826356, -2.91568l 0.825944, -1.28692l 0.826356, 3.78033l 0.826356,
 -2.11136l 0.826356, 1.06573l 0.826356, 1.56844l 0.826356, -0.864651" fill="none" stroke="#0000ff"/>
<rect x="85.5394" y="52.6163" width="170.079" height="70.1551" fill="white"/>
<path d="M85.5394,122.771h 170.079" fill="none" stroke="black"/>
<path d="M255.618,122.771v -70.1551" fill="none" stroke="black"/>
<path d="M255.618,52.6163h -170.079" fill="none" stroke="black"/>
<path d="M85.5394,52.6163v 70.1551" fill="none" stroke="black"/>
<text xml:space="preserve" x="145.55" y="64.9409" fill="black" font-size="13.5464" font-family="Helvetica">algorithm</text>
<text xml:space="preserve" x="128.012" y="82.4797" fill="black" font-size="13.5464" font-family="Helvetica">heap sort</text>
<path d="M91.9173,85.0631h 29.7638v -12.2771h -29.7638z" fill="white"/>
<path d="M91.9173,78.9245h 29.7638" fill="none" stroke="#00ff00"/>
<g stroke="black" stroke-width="1" fill="none">
<line x1="105.799" y1="78.9245" x2="106.799" y2="78.9245"/>
</g>
<text xml:space="preserve" x="128.012" y="100.018" fill="black" font-size="13.5464" font-family="Helvetica">shell sort</text>
<path d="M91.9173,102.602h 29.7638v -12.2771h -29.7638z" fill="white"/>
<path d="M91.9173,96.4633h 29.7638" fill="none" stroke="#ff0000"/>
<g stroke="black" stroke-width="1" fill="none">
<line x1="105.799" y1="96.4633" x2="106.799" y2="96.4633"/>
</g>
<text xml:space="preserve" x="128.012" y="117.557" fill="black" font-size="13.5464" font-family="Helvetica">parallel quicksort</text>
<path d="M91.9173,120.141h 29.7638v -12.2771h -29.7638z" fill="white"/>
<path d="M91.9173,114.002h 29.7638" fill="none" stroke="#0000ff"/>
<g stroke="black" stroke-width="1" fill="none">
<line x1="105.799" y1="114.002" x2="106.799" y2="114.002"/>
</g>
<text xml:space="preserve" x="210.491" y="17.0648" fill="black" font-size="15.5447" font-family="Helvetica">Sort Benchmark T=int</text></svg>
