<?xml version="1.0" standalone="no"?>
<svg width="567.429" height="351.276" viewBox="0 0 567.429 351.276" xmlns="http://www.w3.org/2000/svg" shape-rendering="crispEdges">
<title>
root_canvas_long_double.svg
</title>
<desc>
Creator: ROOT Version 6.18/04
CreationDate: Thu Jun 25 17:18:42 2020</desc>
<defs>
</defs>
<rect x="0.5" y="0" width="566.929" height="350.776" fill="white"/>
<rect x="57.1929" y="35.0776" width="453.543" height="280.62" fill="white"/>
<rect x="57.1929" y="35.0776" width="453.543" height="280.62" fill="none" stroke="black"/>
<rect x="57.1929" y="35.0776" width="453.543" height="280.62" fill="white"/>
<rect x="57.1929" y="35.0776" width="453.543" height="280.62" fill="none" stroke="black"/>
<path d="M57.1929,315.698h 453.543" fill="none" stroke="black"/>
<path d="M77.7673,307.279v 8.41861" fill="none" stroke="black"/>
<path d="M98.3849,311.489v 4.20931" fill="none" stroke="black"/>
<path d="M119.003,311.489v 4.20931" fill="none" stroke="black"/>
<path d="M139.62,311.489v 4.20931" fill="none" stroke="black"/>
<path d="M160.238,307.279v 8.41861" fill="none" stroke="black"/>
<path d="M180.856,311.489v 4.20931" fill="none" stroke="black"/>
<path d="M201.473,311.489v 4.20931" fill="none" stroke="black"/>
<path d="M222.091,311.489v 4.20931" fill="none" stroke="black"/>
<path d="M242.709,307.279v 8.41861" fill="none" stroke="black"/>
<path d="M263.326,311.489v 4.20931" fill="none" stroke="black"/>
<path d="M283.944,311.489v 4.20931" fill="none" stroke="black"/>
<path d="M304.562,311.489v 4.20931" fill="none" stroke="black"/>
<path d="M325.179,307.279v 8.41861" fill="none" stroke="black"/>
<path d="M345.797,311.489v 4.20931" fill="none" stroke="black"/>
<path d="M366.415,311.489v 4.20931" fill="none" stroke="black"/>
<path d="M387.032,311.489v 4.20931" fill="none" stroke="black"/>
<path d="M407.65,307.279v 8.41861" fill="none" stroke="black"/>
<path d="M428.268,311.489v 4.20931" fill="none" stroke="black"/>
<path d="M448.885,311.489v 4.20931" fill="none" stroke="black"/>
<path d="M469.503,311.489v 4.20931" fill="none" stroke="black"/>
<path d="M490.121,307.279v 8.41861" fill="none" stroke="black"/>
<path d="M77.7673,307.279v 8.41861" fill="none" stroke="black"/>
<path d="M490.121,307.279v 8.41861" fill="none" stroke="black"/>
<text xml:space="preserve" x="74.4473" y="327.075" fill="black" font-size="11.7634" font-family="Helvetica">0</text>
<text xml:space="preserve" x="150.291" y="327.075" fill="black" font-size="11.7634" font-family="Helvetica">200</text>
<text xml:space="preserve" x="232.77" y="327.075" fill="black" font-size="11.7634" font-family="Helvetica">400</text>
<text xml:space="preserve" x="315.25" y="327.075" fill="black" font-size="11.7634" font-family="Helvetica">600</text>
<text xml:space="preserve" x="397.73" y="327.075" fill="black" font-size="11.7634" font-family="Helvetica">800</text>
<text xml:space="preserve" x="476.891" y="327.075" fill="black" font-size="11.7634" font-family="Helvetica">1000</text>
<text xml:space="preserve" x="530.93" y="310.01" fill="black" font-size="8.00896" font-family="Helvetica">3</text>
<text xml:space="preserve" x="518.605" y="315.698" fill="black" font-size="11.7634" font-family="Helvetica">10</text>
<text xml:space="preserve" x="512.443" y="315.698" fill="black" font-size="11.7634" font-family="Times">&#0215;</text>
<text xml:space="preserve" x="439.917" y="338.451" fill="black" font-size="11.7634" font-family="Helvetica"> X number (N)</text>
<path d="M57.1929,315.698v -280.62" fill="none" stroke="black"/>
<path d="M70.7992,315.698h -13.6063" fill="none" stroke="black"/>
<path d="M63.9961,307.632h -6.80315" fill="none" stroke="black"/>
<path d="M63.9961,299.565h -6.80315" fill="none" stroke="black"/>
<path d="M63.9961,291.499h -6.80315" fill="none" stroke="black"/>
<path d="M70.7992,283.432h -13.6063" fill="none" stroke="black"/>
<path d="M63.9961,275.366h -6.80315" fill="none" stroke="black"/>
<path d="M63.9961,267.299h -6.80315" fill="none" stroke="black"/>
<path d="M63.9961,259.233h -6.80315" fill="none" stroke="black"/>
<path d="M70.7992,251.166h -13.6063" fill="none" stroke="black"/>
<path d="M63.9961,243.1h -6.80315" fill="none" stroke="black"/>
<path d="M63.9961,235.034h -6.80315" fill="none" stroke="black"/>
<path d="M63.9961,226.967h -6.80315" fill="none" stroke="black"/>
<path d="M70.7992,218.901h -13.6063" fill="none" stroke="black"/>
<path d="M63.9961,210.834h -6.80315" fill="none" stroke="black"/>
<path d="M63.9961,202.768h -6.80315" fill="none" stroke="black"/>
<path d="M63.9961,194.701h -6.80315" fill="none" stroke="black"/>
<path d="M70.7992,186.635h -13.6063" fill="none" stroke="black"/>
<path d="M63.9961,178.568h -6.80315" fill="none" stroke="black"/>
<path d="M63.9961,170.502h -6.80315" fill="none" stroke="black"/>
<path d="M63.9961,162.435h -6.80315" fill="none" stroke="black"/>
<path d="M70.7992,154.369h -13.6063" fill="none" stroke="black"/>
<path d="M63.9961,146.303h -6.80315" fill="none" stroke="black"/>
<path d="M63.9961,138.236h -6.80315" fill="none" stroke="black"/>
<path d="M63.9961,130.17h -6.80315" fill="none" stroke="black"/>
<path d="M70.7992,122.103h -13.6063" fill="none" stroke="black"/>
<path d="M63.9961,114.037h -6.80315" fill="none" stroke="black"/>
<path d="M63.9961,105.97h -6.80315" fill="none" stroke="black"/>
<path d="M63.9961,97.9039h -6.80315" fill="none" stroke="black"/>
<path d="M70.7992,89.8374h -13.6063" fill="none" stroke="black"/>
<path d="M63.9961,81.771h -6.80315" fill="none" stroke="black"/>
<path d="M63.9961,73.7046h -6.80315" fill="none" stroke="black"/>
<path d="M63.9961,65.6381h -6.80315" fill="none" stroke="black"/>
<path d="M70.7992,57.5717h -13.6063" fill="none" stroke="black"/>
<path d="M70.7992,57.5717h -13.6063" fill="none" stroke="black"/>
<path d="M63.9961,49.5052h -6.80315" fill="none" stroke="black"/>
<path d="M63.9961,41.4388h -6.80315" fill="none" stroke="black"/>
<text xml:space="preserve" x="47.9021" y="319.964" fill="black" font-size="11.7634" font-family="Helvetica">0</text>
<text xml:space="preserve" x="41.7398" y="287.257" fill="black" font-size="11.7634" font-family="Helvetica">20</text>
<text xml:space="preserve" x="41.7398" y="255.023" fill="black" font-size="11.7634" font-family="Helvetica">40</text>
<text xml:space="preserve" x="41.7398" y="222.79" fill="black" font-size="11.7634" font-family="Helvetica">60</text>
<text xml:space="preserve" x="41.7398" y="190.556" fill="black" font-size="11.7634" font-family="Helvetica">80</text>
<text xml:space="preserve" x="35.5776" y="158.323" fill="black" font-size="11.7634" font-family="Helvetica">100</text>
<text xml:space="preserve" x="35.5776" y="126.09" fill="black" font-size="11.7634" font-family="Helvetica">120</text>
<text xml:space="preserve" x="35.5776" y="93.8562" fill="black" font-size="11.7634" font-family="Helvetica">140</text>
<text xml:space="preserve" x="35.5776" y="61.6227" fill="black" font-size="11.7634" font-family="Helvetica">160</text>
<g transform="rotate(-90,21.3569,95.7523)">
<text xml:space="preserve" x="21.3569" y="95.7523" fill="black" font-size="11.7634" font-family="Helvetica"> Y time (ms)</text>
</g>
<path d="M77.8085,315.698l 0.825944, -0.177462l 0.826356, -0.193595l 0.826356, -0.209728l 0.826356, -0.225861l 0.826356, -0.225861l 0.825944, -0.225861l 0.826356, -0.241993l 0.826356, -0.241993l 0.826356, -0.241993l 0.826356, -0.241993l 0.825944,
 -0.258126l 0.826356, -0.225861l 0.826356, -0.516253h 0.826356l 0.826356, -0.38719l 0.825944, -0.11293l 0.826356, -0.274259l 0.826356, -0.371057l 0.826356, -1.11317l 0.826356, 0.564651l 0.825944, -0.596917l 0.826356, -0.241993l 0.826356, -0.72598l
 0.826356, -0.0483987l 0.826356, 0.193595l 0.825944, -0.274259l 0.826356, -0.516253l 0.826356, -0.0806645l 0.826356, -0.290392l 0.826356, -0.322658l 0.826356, -0.371057l 0.825944, -0.38719l 0.826356, -0.871176l 0.826356, -0.0483987l 0.826356,
 -0.177462l 0.826356, -0.758246l 0.825944, -0.0483987l 0.826356, 0.145196l 0.826356, -2.46833l 0.826356, 1.61329l 0.826356, 0.0483987l 0.825944, -1.11317l 0.826356, 0.532386l 0.826356, -1.67782l 0.826356, 0.951841l 0.826356, -0.790512l 0.825944,
 -0.258126l 0.826356, -0.209728l 0.826356, -0.580784l 0.826356, -0.274259l 0.826356, 0.0967974l 0.825944, -0.709847l 0.826356, -0.935708l 0.826356, 0.790512l 0.826356, -0.403322l 0.826356, -1.19383l 0.826356, -0.371057l 0.825944, 0.72598l 0.826356,
 -2.69419l 0.826356, 0.806645l 0.826356, -1.80688l 0.826356, 1.51649l 0.825944, 0.435588l 0.826356, -1.79075l 0.826356, 1.19383l 0.826356, -1.25837l 0.826356, -0.274259l 0.825944, -0.467854l 0.826356, -0.661449l 0.826356, -0.645316l 0.826356,
 0.177462l 0.826356, -0.0322658l 0.825944, -0.145196l 0.826356, -1.59716l 0.826356, -1.03251l 0.826356, 0.935708l 0.826356, -1.16157l 0.825944, 1.91981l 0.826356, -0.467854l 0.826356, 0.0161329l 0.826356, -0.403322l 0.826356, -3.69443l 0.826356,
 2.03274l 0.825944, -0.855044l 0.826356, -0.887309l 0.826356, 1.91981l 0.826356, -2.85552l 0.826356, 1.20997l 0.825944, -0.209728l 0.826356, 0.0483987l 0.826356, -0.322658l 0.826356, -0.419455l 0.826356, -2.03274l 0.825944, 1.35516l 0.826356,
 -0.419455l 0.826356, -0.145196l 0.826356, -0.709847l 0.826356, -0.548518l 0.825944, 0.774379l 0.826356, -4.92053l 0.826356, -0.145196l 0.826356, 3.04912l 0.826356, -0.129063l 0.825944, -0.564651l 0.826356, -2.24247l 0.826356, 0.451721l 0.826356,
 0.677582l 0.826356, -3.43631l 0.826356, 1.04864l 0.825944, 1.69395l 0.826356, -5.29159l 0.826356, 2.43607l 0.826356, -0.919575l 0.826356, 1.83915l 0.825944, 0.354924l 0.826356, -4.51721l 0.826356, 2.00048l 0.826356, 1.41969l 0.826356, -5.80784l
 0.825944, 2.08114l 0.826356, 2.48447l 0.826356, -4.92053l 0.826356, 3.88803l 0.826356, -6.34023l 0.825944, 3.59764l 0.826356, 0.661449l 0.826356, 1.04864l 0.826356, -1.64556l 0.826356, 0.72598l 0.825944, -1.3713l 0.826356, -2.27474l 0.826356,
 -1.33903l 0.826356, 1.72622l 0.826356, -2.21021l 0.826356, 0.225861l 0.825944, -1.98435l 0.826356, 3.17818l 0.826356, -1.93595l 0.826356, -3.17818l 0.826356, 5.51745l 0.825944, -5.77558l 0.826356, -1.62942l 0.826356, 5.30772l 0.826356, -5.92077l
 0.826356, 5.43679l 0.825944, -4.48495l 0.826356, -1.40356l 0.826356, 4.22682l 0.826356, -5.59811l 0.826356, 5.85624l 0.825944, -3.75897l 0.826356, -6.87261l 0.826356, 3.38791l 0.826356, -3.06525l 0.826356, 4.11389l 0.825944, 0.774379l 0.826356,
 -2.09728l 0.826356, 3.17818l 0.826356, -6.30796l 0.826356, 4.14615l 0.826356, -3.45244l 0.825944, 3.88803l 0.826356, -7.43727l 0.826356, 0.855044l 0.826356, 0.0645316l 0.826356, 2.11341l 0.825944, -0.403322l 0.826356, -1.72622l 0.826356, -1.93595l
 0.826356, 1.77462l 0.826356, 2.79099l 0.825944, -3.5331l 0.826356, -3.11365l 0.826356, -0.742113l 0.826356, 4.35588l 0.826356, -5.50132l 0.825944, 1.43583l 0.826356, -8.66337l 0.826356, 6.50156l 0.826356, -3.29111l 0.826356, 6.63062l 0.825944,
 -2.01661l 0.826356, -4.88827l 0.826356, 3.59764l 0.826356, -3.5815l 0.826356, 1.14544l 0.826356, -0.596917l 0.825944, -7.92125l 0.826356, 5.01733l 0.826356, 1.90368l 0.826356, 4.9044l 0.826356, -8.55044l 0.825944, -2.67806l 0.826356, 11.7609l
 0.826356, -5.11413l 0.826356, -0.806645l 0.826356, -1.71009l 0.825944, -2.22634l 0.826356, 1.80688l 0.826356, 6.0821l 0.826356, -5.58198l 0.826356, -2.29087l 0.825944, -9.11509l 0.826356, 14.1324l 0.826356, -7.29207l 0.826356, 3.16205l 0.826356,
 -11.6802l 0.825944, 12.5837l 0.826356, -12.1158l 0.826356, 12.3739l 0.826356, -10.2928l 0.826356, 8.22778l 0.826356, -6.84035l 0.825944, 1.83915l 0.826356, 0.177462l 0.826356, -0.709847l 0.826356, -1.96821l 0.826356, -1.2745l 0.825944, -0.451721l
 0.826356, 2.25861l 0.826356, -9.6636l 0.826356, 15.423l 0.826356, -6.35636l 0.825944, 6.64675l 0.826356, -8.06645l 0.826356, -2.24247l 0.826356, -7.59859l 0.826356, 6.43703l 0.825944, -2.46833l 0.826356, 0.435588l 0.826356, 4.43655l 0.826356,
 -9.19575l 0.826356, -0.419455l 0.825944, 12.6159l 0.826356, -11.7125l 0.826356, 5.61425l 0.826356, -7.03394l 0.826356, -7.05008l 0.826356, 14.2131l 0.825944, -7.53406l 0.826356, 6.88875l 0.826356, 1.1293l 0.826356, -4.17842l 0.826356, -5.80784l
 0.825944, -10.0992l 0.826356, 20.7792l 0.826356, -10.7768l 0.826356, -3.16205l 0.826356, 6.06597l 0.825944, -7.2598l 0.826356, 7.2598l 0.826356, -3.24271l 0.826356, -1.19383l 0.826356, -7.3082l 0.825944, 14.2776l 0.826356, -1.95208l 0.826356,
 -10.4703l 0.826356, -4.35588l 0.826356, 3.24271l 0.825944, 2.307l 0.826356, -5.37225l 0.826356, 3.90416l 0.826356, 10.7122l 0.826356, -7.09847l 0.826356, -3.42017l 0.825944, -0.935708l 0.826356, 5.50132l 0.826356, -3.17818l 0.826356, -6.00144l
 0.826356, -4.06549l 0.825944, 15.1649l 0.826356, -10.4057l 0.826356, -0.193595l 0.826356, 4.13002l 0.826356, -5.46905l 0.825944, 5.84011l 0.826356, -0.338791l 0.826356, -0.258126l 0.826356, 3.11365l 0.826356, -1.25837l 0.825944, -8.4859l 0.826356,
 -6.79195l 0.826356, 1.96821l 0.826356, 12.5353l 0.826356, 1.45196l 0.825944, -10.7606l 0.826356, -2.24247l 0.826356, 0.887309l 0.826356, 5.80784l 0.826356, -12.2771l 0.826356, 10.2283l 0.825944, 1.88755l 0.826356, -8.82469l 0.826356, -3.16205l
 0.826356, 8.46977l 0.826356, -6.58222l 0.825944, 1.53263l 0.826356, 3.50084l 0.826356, -18.5206l 0.826356, 13.7775l 0.826356, 8.16325l 0.825944, -7.405l 0.826356, -5.0012l 0.826356, -3.71057l 0.826356, -1.91981l 0.826356, 7.96965l 0.825944, -10.68l
 0.826356, 5.19479l 0.826356, 11.5512l 0.826356, -8.45364l 0.826356, -3.66217l 0.825944, -1.04864l 0.826356, -9.35708l 0.826356, 19.1981l 0.826356, -4.79147l 0.826356, -2.56513l 0.826356, -4.96893l 0.825944, -1.91981l 0.826356, 6.72742l 0.826356,
 8.11485l 0.826356, -1.38743l 0.826356, -13.5032l 0.825944, -3.40404l 0.826356, 7.72766l 0.826356, -3.56537l 0.826356, 0.984107l 0.826356, 4.92053l 0.825944, 5.13026l 0.826356, -4.09776l 0.826356, 1.33903l 0.826356, -3.29111l 0.826356, 2.88779l
 0.825944, -5.22706l 0.826356, 1.01637l 0.826356, -2.27474l 0.826356, 2.04888l 0.826356, -10.4864l 0.825944, -17.1331l 0.826356, 23.5863l 0.826356, -10.5832l 0.826356, -9.67974l 0.826356, 12.1319l 0.826356, -0.0806645l 0.825944, 7.66313l 0.826356,
 2.37154l 0.826356, -25.2157l 0.826356, 10.68l 0.826356, 0.822778l 0.825944, 11.9383l 0.826356, -20.4888l 0.826356, 7.11461l 0.826356, -3.98483l 0.826356, 0.290392l 0.825944, 6.35636l 0.826356, -6.29183l 0.826356, -5.16253l 0.826356, -5.03346l
 0.826356, 1.87142l 0.825944, -2.69419l 0.826356, 24.1025l 0.826356, -20.8276l 0.826356, -4.51721l 0.826356, 5.93691l 0.825944, 17.3106l 0.826356, -14.6648l 0.826356, 3.61377l 0.826356, 0.177462l 0.826356, 1.91981l 0.826356, -9.08282l 0.825944,
 6.71129l 0.826356, -18.1334l 0.826356, -2.38767l 0.826356, 5.13026l 0.826356, 15.2456l 0.825944, 0.822778l 0.826356, 6.77582l 0.826356, -14.1647l 0.826356, -13.7775l 0.826356, -0.903442l 0.825944, 2.82326l 0.826356, 5.51745l 0.826356, -2.85552l
 0.826356, 1.3229l 0.826356, 4.56561l 0.825944, -3.46857l 0.826356, 3.92029l 0.826356, -4.00096l 0.826356, -6.54996l 0.826356, 8.92149l 0.825944, -6.40476l 0.826356, -3.09752l 0.826356, 11.2446l 0.826356, -2.93619l 0.826356, 5.48518l 0.826356,
 6.77582l 0.825944, -18.6174l 0.826356, -12.3417l 0.826356, 4.61401l 0.826356, 16.7943l 0.826356, -14.9068l 0.825944, 2.29087l 0.826356, -0.306525l 0.826356, 0.951841l 0.826356, -1.46809l 0.826356, 6.80808l 0.825944, -5.35612l 0.826356, 2.96845l
 0.826356, 4.93667l 0.826356, 0.774379l 0.826356, -9.00216l 0.825944, -4.17842l 0.826356, 6.75968l 0.826356, 7.37273l 0.826356, -8.14711l 0.826356, -4.35588l 0.825944, 13.6484l 0.826356, -23.0862l 0.826356, 5.9853l 0.826356, 7.06621l 0.826356,
 2.82326l 0.826356, -3.5331l 0.825944, -11.9383l 0.826356, 21.6665l 0.826356, 2.67806l 0.826356, -19.2143l 0.826356, -11.2608l 0.825944, 4.46881l 0.826356, 4.88827l 0.826356, -2.85552l 0.826356, 14.6325l 0.826356, 1.54876l 0.825944, 1.2745l 0.826356,
 -22.1827l 0.826356, -1.00024l 0.826356, 17.7946l 0.826356, -6.79195l 0.825944, -15.9393l 0.826356, 10.8413l 0.826356, -2.32314l 0.826356, -0.629183l 0.826356, 1.74235l 0.825944, 0.209728l 0.826356, -0.548518l 0.826356, -12.1642l 0.826356, 11.7931l
 0.826356, -6.71129l 0.826356, 0.161329l 0.825944, 7.87285l 0.826356, -9.43774l 0.826356, -1.29063l 0.826356, 7.13074l 0.826356, -6.09824l 0.825944, -4.21069l 0.826356, 8.01805l 0.826356, -4.14615l 0.826356, 12.7773l 0.826356, 4.53334l 0.825944,
 -19.9403l 0.826356, 2.48447l 0.826356, -4.69467l 0.826356, -0.758246l 0.826356, 5.48518l 0.825944, -0.0322658l 0.826356, -3.17818l 0.826356, 13.7936l 0.826356, -9.712l 0.826356, 2.21021l 0.825944, 9.01829l 0.826356, -19.7305l 0.826356, -1.93595l
 0.826356, 5.24319l 0.826356, 6.1789l 0.826356, 6.46929l 0.825944, -28.894l 0.826356, 28.652l 0.826356, -14.9552l 0.826356, -3.46857l 0.826356, 17.5687l 0.825944, -15.907l 0.826356, 4.33975l 0.826356, -15.6166l 0.826356, 22.5699l 0.826356, -18.0527l
 0.825944, 0.419455l 0.826356, 16.9718l 0.826356, -11.4544l 0.826356, 9.72814l 0.826356, -15.7457l 0.825944, 9.34095l 0.826356, -20.1177l 0.826356, 27.4905l 0.826356, -21.8117l 0.826356, 15.3908l 0.825944, -10.3896l 0.826356, -7.5018l 0.826356,
 23.3282l 0.826356, -19.4563l 0.826356, 2.92005l 0.826356, -1.50036" fill="none" stroke="#00ff00"/>
<path d="M77.8085,315.698l 0.825944, -0.225861l 0.826356, -0.322658l 0.826356, -0.258126l 0.826356, -0.338791l 0.826356, -0.306525l 0.825944, -0.322658l 0.826356, -0.306525l 0.826356, -0.467854l 0.826356, -0.209728l 0.826356, -0.371057l 0.825944,
 -0.38719l 0.826356, -0.38719l 0.826356, -0.451721l 0.826356, -0.258126l 0.826356, -1.1777l 0.825944, 0.290392l 0.826356, -0.225861l 0.826356, -0.758246l 0.826356, -0.241993l 0.826356, -1.45196l 0.825944, 0.50012l 0.826356, -0.11293l 0.826356,
 -0.677582l 0.826356, -0.774379l 0.826356, 0.0161329l 0.825944, -1.35516l 0.826356, -1.29063l 0.826356, -0.693715l 0.826356, -1.38743l 0.826356, 0.532386l 0.826356, 0.61305l 0.825944, 0.742113l 0.826356, -2.14568l 0.826356, 0.290392l 0.826356,
 -1.95208l 0.826356, 1.69395l 0.825944, -1.88755l 0.826356, -1.41969l 0.826356, 1.58102l 0.826356, -2.48447l 0.826356, -1.1777l 0.825944, 3.16205l 0.826356, -3.90416l 0.826356, 3.14591l 0.826356, -4.11389l 0.826356, 1.64556l 0.825944, -1.01637l
 0.826356, -1.1777l 0.826356, -1.93595l 0.826356, 2.85552l 0.826356, 0.50012l 0.825944, -2.06501l 0.826356, -4.58174l 0.826356, 5.27546l 0.826356, -2.21021l 0.826356, -2.88779l 0.826356, -1.19383l 0.825944, 3.93643l 0.826356, -2.83939l 0.826356,
 -0.951841l 0.826356, -0.564651l 0.826356, -0.129063l 0.825944, -0.322658l 0.826356, -1.61329l 0.826356, 1.19383l 0.826356, -0.774379l 0.826356, 2.72646l 0.825944, -3.21045l 0.826356, 1.98435l 0.826356, -3.93643l 0.826356, -0.72598l 0.826356,
 3.00072l 0.825944, -0.919575l 0.826356, -2.95232l 0.826356, -2.77486l 0.826356, 2.66193l 0.826356, -6.50156l 0.825944, 0.855044l 0.826356, -1.1777l 0.826356, -1.72622l 0.826356, 2.67806l 0.826356, -2.87166l 0.826356, 4.72694l 0.825944, 2.09728l
 0.826356, -2.3554l 0.826356, -2.79099l 0.826356, 0.984107l 0.826356, 2.77486l 0.825944, -5.48518l 0.826356, -1.61329l 0.826356, -0.532386l 0.826356, -1.61329l 0.826356, 3.5815l 0.825944, -4.13002l 0.826356, -1.38743l 0.826356, 1.91981l 0.826356,
 -3.37178l 0.826356, 2.27474l 0.825944, 1.79075l 0.826356, 0.677582l 0.826356, -2.56513l 0.826356, -3.30724l 0.826356, 1.2745l 0.825944, 1.11317l 0.826356, -2.04888l 0.826356, 3.17818l 0.826356, -0.855044l 0.826356, -1.64556l 0.826356, -0.177462l
 0.825944, 2.67806l 0.826356, -6.69515l 0.826356, 3.14591l 0.826356, -0.709847l 0.826356, -3.66217l 0.825944, 1.88755l 0.826356, 1.98435l 0.826356, -1.56489l 0.826356, -10.6477l 0.826356, 8.32457l 0.825944, 0.274259l 0.826356, -6.71129l 0.826356,
 2.04888l 0.826356, 3.71057l 0.826356, -1.0809l 0.825944, -2.4522l 0.826356, 0.548518l 0.826356, -6.53382l 0.826356, 4.53334l 0.826356, 1.59716l 0.825944, -3.54924l 0.826356, -2.72646l 0.826356, 3.7267l 0.826356, 0.645316l 0.826356, 2.16181l
 0.826356, -0.161329l 0.825944, -3.08138l 0.826356, 0.580784l 0.826356, -1.25837l 0.826356, -4.856l 0.826356, 3.96869l 0.825944, -7.32434l 0.826356, 3.29111l 0.826356, -2.85552l 0.826356, 3.22658l 0.826356, -0.532386l 0.825944, 3.69443l 0.826356,
 -8.42137l 0.826356, 3.25885l 0.826356, -1.98435l 0.826356, 2.307l 0.825944, -1.45196l 0.826356, 5.19479l 0.826356, -6.06597l 0.826356, 1.1777l 0.826356, -0.322658l 0.825944, -1.35516l 0.826356, -2.85552l 0.826356, -1.66169l 0.826356, -2.53286l
 0.826356, 2.46833l 0.826356, 4.43655l 0.825944, 0.0483987l 0.826356, -7.29207l 0.826356, 4.69467l 0.826356, -2.4522l 0.826356, 2.72646l 0.825944, -8.30844l 0.826356, 3.08138l 0.826356, 3.45244l 0.826356, -0.984107l 0.826356, -0.371057l 0.825944,
 -7.56633l 0.826356, 5.72718l 0.826356, -0.903442l 0.826356, -4.25908l 0.826356, 1.88755l 0.825944, 1.30676l 0.826356, -0.677582l 0.826356, 0.467854l 0.826356, -4.27522l 0.826356, -2.5006l 0.825944, 1.51649l 0.826356, 3.56537l 0.826356, -2.92005l
 0.826356, 4.04936l 0.826356, -11.6318l 0.826356, 7.98578l 0.825944, -5.9853l 0.826356, 3.12978l 0.826356, 0.532386l 0.826356, 1.03251l 0.826356, -2.83939l 0.825944, -1.19383l 0.826356, 0.516253l 0.826356, 0.322658l 0.826356, -4.9044l 0.826356,
 2.96845l 0.825944, 1.1293l 0.826356, -0.709847l 0.826356, -0.596917l 0.826356, 1.16157l 0.826356, -1.53263l 0.825944, -3.48471l 0.826356, -3.54924l 0.826356, 5.0496l 0.826356, -0.693715l 0.826356, 1.3713l 0.825944, -1.95208l 0.826356, 1.75849l
 0.826356, -1.91981l 0.826356, -0.742113l 0.826356, -1.82302l 0.826356, -1.40356l 0.825944, -3.48471l 0.826356, 5.80784l 0.826356, 0.0483987l 0.826356, -4.72694l 0.826356, 2.32314l 0.825944, 0.838911l 0.826356, -2.27474l 0.826356, -1.45196l 0.826356,
 1.66169h 0.826356l 0.825944, -3.59764l 0.826356, 2.4038l 0.826356, -1.3713l 0.826356, -1.25837l 0.826356, -3.51697l 0.825944, -10.3089l 0.826356, 7.80832l 0.826356, 4.32362l 0.826356, 0.72598l 0.826356, -7.13074l 0.825944, 3.33951l 0.826356,
 -2.51673l 0.826356, 0.919575l 0.826356, -1.3713l 0.826356, -0.935708l 0.826356, -0.50012l 0.825944, 2.06501l 0.826356, -7.14687l 0.826356, 7.56633l 0.826356, -4.98506l 0.826356, 2.37154l 0.825944, -9.8572l 0.826356, 8.37297l 0.826356, -1.87142l
 0.826356, 2.16181l 0.826356, -0.919575l 0.825944, 0.919575l 0.826356, -1.11317l 0.826356, -6.71129l 0.826356, 2.87166l 0.826356, 2.38767l 0.825944, -0.322658l 0.826356, -5.87237l 0.826356, -4.8076l 0.826356, 7.2598l 0.826356, -5.33999l 0.825944,
 -2.04888l 0.826356, 2.72646l 0.826356, -12.987l 0.826356, 12.1965l 0.826356, 4.61401l 0.826356, -2.53286l 0.825944, 2.03274l 0.826356, -0.306525l 0.826356, -5.64651l 0.826356, 1.30676l 0.826356, -1.75849l 0.825944, 3.92029l 0.826356, -2.4522l
 0.826356, -0.742113l 0.826356, -2.69419l 0.826356, 1.19383l 0.825944, -0.322658l 0.826356, -0.887309l 0.826356, -17.7462l 0.826356, 17.5042l 0.826356, -8.09871l 0.825944, 4.01709l 0.826356, -1.43583l 0.826356, -0.0967974l 0.826356, -5.71105l
 0.826356, 2.03274l 0.825944, 1.91981l 0.826356, 4.01709l 0.826356, -3.64603l 0.826356, -3.74283l 0.826356, 0.564651l 0.826356, 4.42041l 0.825944, -3.37178l 0.826356, -3.14591l 0.826356, -3.17818l 0.826356, 2.88779l 0.826356, 1.91981l 0.825944,
 1.91981l 0.826356, -2.88779l 0.826356, 3.24271l 0.826356, -4.16229l 0.826356, 0.645316l 0.825944, -3.93643l 0.826356, 3.69443l 0.826356, -2.74259l 0.826356, -0.451721l 0.826356, -2.48447l 0.825944, -3.29111l 0.826356, 2.58126l 0.826356, 0.467854l
 0.826356, -4.24295l 0.826356, -1.75849l 0.825944, 4.11389l 0.826356, 5.54972l 0.826356, -4.32362l 0.826356, -7.405l 0.826356, 5.80784l 0.826356, -3.95256l 0.825944, 2.09728l 0.826356, -3.12978l 0.826356, 3.6783l 0.826356, -1.90368l 0.826356,
 -4.82374l 0.825944, 3.75897l 0.826356, -3.25885l 0.826356, -3.22658l 0.826356, -3.14591l 0.826356, -3.32338l 0.825944, 2.21021l 0.826356, 0.838911l 0.826356, -1.64556l 0.826356, -1.45196l 0.826356, 5.33999l 0.825944, -1.74235l 0.826356, -1.40356l
 0.826356, -0.419455l 0.826356, 4.88827l 0.826356, -0.322658l 0.825944, -5.96917l 0.826356, 1.71009l 0.826356, -3.71057l 0.826356, -6.74355l 0.826356, 3.27498l 0.826356, 3.74283l 0.825944, -8.16325l 0.826356, 11.164l 0.826356, 0.61305l 0.826356,
 -5.0012l 0.826356, 0.967974l 0.825944, 1.24223l 0.826356, -3.95256l 0.826356, -0.72598l 0.826356, 1.29063l 0.826356, -0.548518l 0.825944, -0.855044l 0.826356, -3.38791l 0.826356, 1.06477l 0.826356, -3.12978l 0.826356, 0.274259l 0.825944, -0.241993l
 0.826356, 0.322658l 0.826356, 4.54948l 0.826356, -1.33903l 0.826356, -0.72598l 0.825944, 0.225861l 0.826356, -2.33927l 0.826356, 0.193595l 0.826356, -2.04888l 0.826356, -6.50156l 0.826356, 4.72694l 0.825944, 1.24223l 0.826356, 1.48423l 0.826356,
 -14.3099l 0.826356, -14.3583l 0.826356, 17.5526l 0.825944, 1.0809l 0.826356, -3.71057l 0.826356, 3.92029l 0.826356, 1.91981l 0.826356, 2.24247l 0.825944, -7.75992l 0.826356, 5.71105l 0.826356, -5.43679l 0.826356, 2.82326l 0.826356, -4.856l 0.825944,
 4.03322l 0.826356, -5.51745l 0.826356, 0.72598l 0.826356, -0.677582l 0.826356, -1.61329l 0.825944, 0.661449l 0.826356, -3.11365l 0.826356, 0.225861l 0.826356, -5.48518l 0.826356, 2.01661l 0.826356, 6.48542l 0.825944, -8.51817l 0.826356, 6.46929l
 0.826356, 6.58222l 0.826356, -7.32434l 0.826356, -2.11341l 0.825944, 4.7592l 0.826356, 0.177462l 0.826356, 3.22658l 0.826356, -4.96893l 0.826356, 4.33975l 0.825944, -8.61497l 0.826356, 0.693715l 0.826356, -9.00216l 0.826356, 5.29159l 0.826356,
 7.3566l 0.825944, -3.42017l 0.826356, -0.290392l 0.826356, -0.967974l 0.826356, 1.77462l 0.826356, -15.6166l 0.825944, 11.6964l 0.826356, -10.3573l 0.826356, 6.59835l 0.826356, -12.3901l 0.826356, 8.11485l 0.826356, -0.61305l 0.825944, -1.19383l
 0.826356, 5.40452l 0.826356, -6.71129l 0.826356, -6.19503l 0.826356, 15.4553l 0.825944, -5.27546l 0.826356, -0.0645316l 0.826356, 2.08114l 0.826356, 0.919575l 0.826356, -4.06549l 0.825944, -4.06549l 0.826356, 0.61305l 0.826356, 0.11293l 0.826356,
 1.51649l 0.826356, 3.00072l 0.825944, -9.05056l 0.826356, 4.856l 0.826356, -6.67902l 0.826356, 7.38887l 0.826356, -6.42089l 0.825944, 3.64603l 0.826356, 0.177462l 0.826356, -8.19551l 0.826356, 1.11317l 0.826356, 6.98554l 0.826356, -9.51841l
 0.825944, 5.59811l 0.826356, -7.37273l 0.826356, 6.64675l 0.826356, -0.806645l 0.826356, -0.967974l 0.825944, -4.51721l 0.826356, -11.3576l 0.826356, 12.0351l 0.826356, 1.3713l 0.826356, -13.2451l 0.825944, -24.8447l 0.826356, 33.7984l 0.826356,
 2.22634l 0.826356, -1.88755l 0.826356, 1.38743l 0.825944, 1.0809l 0.826356, -1.66169l 0.826356, -9.01829l 0.826356, -4.92053l 0.826356, 10.2605l 0.825944, -2.61353l 0.826356, -1.50036l 0.826356, -5.27546l 0.826356, 5.66265l 0.826356, -1.95208l
 0.826356, -8.55044l 0.825944, 4.37201l 0.826356, -19.6176l 0.826356, 27.5227l 0.826356, -4.56561l 0.826356, -4.9528l 0.825944, 9.51841l 0.826356, -11.2608l 0.826356, 7.63086l 0.826356, -5.43679l 0.826356, -12.7934l 0.825944, 16.5362l 0.826356,
 -0.61305l 0.826356, -4.72694l 0.826356, -2.33927l 0.826356, 2.6458l 0.825944, -15.4069l 0.826356, 9.19575l 0.826356, -5.32386l 0.826356, 2.33927l 0.826356, 9.14735l 0.825944, -4.96893l 0.826356, -8.6311l 0.826356, 1.1777l 0.826356, 13.0031l
 0.826356, -10.9381l 0.826356, 3.24271" fill="none" stroke="#ff0000"/>
<path d="M77.8085,315.698l 0.825944, -0.145196l 0.826356, -0.145196l 0.826356, -0.290392l 0.826356, -0.11293l 0.826356, 0.0161329h 0.825944l 0.826356, -0.258126l 0.826356, -0.306525l 0.826356, -0.38719l 0.826356, -0.0645316l 0.825944, 0.419455l
 0.826356, -0.258126l 0.826356, -0.290392l 0.826356, -0.145196l 0.826356, -0.338791l 0.825944, 0.50012l 0.826356, 0.225861l 0.826356, -0.564651l 0.826356, -0.177462l 0.826356, 0.0806645l 0.825944, -1.77462l 0.826356, 2.01661l 0.826356, -0.871176l
 0.826356, 0.0483987l 0.826356, -0.467854l 0.825944, -0.403322l 0.826356, 0.0645316l 0.826356, -0.193595l 0.826356, 0.50012l 0.826356, -0.871176l 0.826356, 1.62942l 0.825944, -1.14544l 0.826356, 0.742113l 0.826356, -0.645316l 0.826356, -0.193595l
 0.826356, 0.758246l 0.825944, -2.12954l 0.826356, 2.01661l 0.826356, -1.98435l 0.826356, 1.71009l 0.826356, 0.193595l 0.825944, -0.338791l 0.826356, -0.306525l 0.826356, 0.467854l 0.826356, 0.0161329l 0.826356, -2.37154l 0.825944, 0.0322658l
 0.826356, 0.193595l 0.826356, -0.177462l 0.826356, -1.04864l 0.826356, 0.145196l 0.825944, 1.83915l 0.826356, -0.580784l 0.826356, 0.967974l 0.826356, -1.40356l 0.826356, 1.3713l 0.826356, -0.161329l 0.825944, 0.371057l 0.826356, 0.451721l 0.826356,
 -0.483987l 0.826356, -3.04912l 0.826356, 3.35564l 0.825944, -0.661449l 0.826356, 0.629183l 0.826356, -3.37178l 0.826356, 0.951841l 0.826356, 1.41969l 0.825944, -0.0967974l 0.826356, -0.403322l 0.826356, 0.61305l 0.826356, -2.90392l 0.826356,
 1.90368l 0.825944, 1.71009l 0.826356, -0.451721l 0.826356, -0.322658l 0.826356, -5.14639l 0.826356, 3.30724l 0.825944, 1.1777l 0.826356, 0.887309l 0.826356, -1.1293l 0.826356, 1.19383l 0.826356, -0.483987l 0.826356, -1.45196l 0.825944, 0.677582l
 0.826356, -1.24223l 0.826356, 0.838911l 0.826356, -0.403322l 0.826356, -3.09752l 0.825944, 3.66217l 0.826356, 0.822778l 0.826356, -1.06477l 0.826356, -1.3229l 0.826356, 2.4038l 0.825944, -8.4859l 0.826356, 8.09871l 0.826356, 0.354924l 0.826356,
 -0.61305l 0.826356, -1.14544l 0.825944, -0.709847l 0.826356, 1.1293l 0.826356, 0.742113l 0.826356, -1.56489l 0.826356, -1.87142l 0.825944, 2.93619l 0.826356, -0.451721l 0.826356, 0.919575l 0.826356, -1.62942l 0.826356, 0.919575l 0.826356,
 -0.0645316l 0.825944, 0.72598l 0.826356, -0.0161329l 0.826356, -1.54876l 0.826356, -1.30676l 0.826356, 2.51673l 0.825944, -1.71009l 0.826356, 0.467854l 0.826356, -0.629183l 0.826356, 1.66169l 0.826356, 0.0645316l 0.825944, -2.66193l 0.826356,
 2.80712l 0.826356, -1.25837l 0.826356, 0.742113l 0.826356, -0.0967974l 0.825944, 0.306525l 0.826356, -1.50036l 0.826356, 0.290392l 0.826356, 1.06477l 0.826356, -0.709847l 0.825944, -1.11317l 0.826356, 0.322658l 0.826356, 0.371057l 0.826356,
 0.338791l 0.826356, -1.25837l 0.826356, 1.0809l 0.825944, 0.371057l 0.826356, -1.41969l 0.826356, 1.38743l 0.826356, -1.79075l 0.826356, 0.790512l 0.825944, 0.161329l 0.826356, -1.79075l 0.826356, 1.75849l 0.826356, -2.04888l 0.826356, 2.87166l
 0.825944, -2.11341l 0.826356, 1.95208l 0.826356, -0.0967974l 0.826356, -2.11341l 0.826356, 1.04864l 0.825944, 0.806645l 0.826356, -0.967974l 0.826356, -0.129063l 0.826356, 0.564651h 0.826356l 0.825944, -1.0809l 0.826356, 1.35516l 0.826356,
 -0.758246l 0.826356, 0.855044l 0.826356, 0.177462l 0.826356, -0.72598l 0.825944, -0.0967974l 0.826356, -1.48423l 0.826356, -0.161329l 0.826356, -1.69395l 0.826356, 2.22634l 0.825944, 0.0161329l 0.826356, 0.419455l 0.826356, -0.38719l 0.826356,
 0.935708l 0.826356, -1.64556l 0.825944, -0.887309l 0.826356, 2.08114l 0.826356, -0.0645316l 0.826356, -0.709847l 0.826356, 0.661449l 0.825944, -0.145196l 0.826356, 0.0967974l 0.826356, -1.53263l 0.826356, 1.1777l 0.826356, -2.01661l 0.825944,
 1.66169l 0.826356, 0.903442l 0.826356, -0.919575l 0.826356, -2.08114l 0.826356, 2.27474l 0.826356, -2.307l 0.825944, 1.3229l 0.826356, 1.67782l 0.826356, -0.580784l 0.826356, -0.677582l 0.826356, -0.693715l 0.825944, 1.19383l 0.826356, 0.209728l
 0.826356, -2.53286l 0.826356, 2.549l 0.826356, -0.822778l 0.825944, 0.274259l 0.826356, -0.564651l 0.826356, 0.564651l 0.826356, -0.742113l 0.826356, -0.967974l 0.825944, 2.03274l 0.826356, -1.11317l 0.826356, 0.0483987l 0.826356, -0.903442l
 0.826356, 0.790512l 0.825944, -0.371057l 0.826356, 0.274259l 0.826356, -1.54876l 0.826356, 2.22634l 0.826356, -2.96845l 0.826356, 0.548518l 0.825944, 1.69395l 0.826356, 0.967974l 0.826356, -0.693715l 0.826356, 0.0161329l 0.826356, -0.241993l
 0.825944, -2.549l 0.826356, -2.16181l 0.826356, 4.06549l 0.826356, 0.532386l 0.826356, -1.03251l 0.825944, 0.855044l 0.826356, -0.629183l 0.826356, -2.27474l 0.826356, 1.1293l 0.826356, 1.77462l 0.825944, 0.564651l 0.826356, -0.774379l 0.826356,
 -0.209728l 0.826356, -0.306525l 0.826356, 0.0645316l 0.825944, -0.645316l 0.826356, -1.53263l 0.826356, 2.95232l 0.826356, -1.87142l 0.826356, -1.90368l 0.826356, 3.38791l 0.825944, -2.46833l 0.826356, 1.62942l 0.826356, 1.04864l 0.826356, -1.24223l
 0.826356, -0.161329l 0.825944, -0.629183l 0.826356, -0.419455l 0.826356, 2.3554l 0.826356, -0.871176l 0.826356, -0.661449l 0.825944, -0.0322658l 0.826356, 0.241993l 0.826356, -0.564651l 0.826356, -1.1293l 0.826356, 1.3229l 0.825944, -0.967974l
 0.826356, -0.61305l 0.826356, 1.95208l 0.826356, -2.37154l 0.826356, 1.79075l 0.825944, 0.129063l 0.826356, 0.693715l 0.826356, -1.06477l 0.826356, 1.03251l 0.826356, -0.177462l 0.826356, -2.58126l 0.825944, 0.61305l 0.826356, -0.790512l 0.826356,
 1.11317l 0.826356, 0.677582l 0.826356, -0.693715l 0.825944, -0.435588l 0.826356, 1.19383l 0.826356, 0.0806645l 0.826356, -1.3713l 0.826356, -0.661449l 0.825944, 2.37154l 0.826356, -2.83939l 0.826356, 1.19383l 0.826356, 0.0806645l 0.826356, 0.951841l
 0.825944, -0.306525l 0.826356, -1.19383l 0.826356, 0.129063l 0.826356, 1.03251l 0.826356, -7.37273l 0.825944, 7.92125l 0.826356, -1.03251l 0.826356, 1.03251l 0.826356, -0.564651l 0.826356, 0.354924l 0.826356, -0.661449l 0.825944, -0.742113l
 0.826356, -0.193595l 0.826356, -1.09704l 0.826356, 1.88755l 0.826356, -2.71033l 0.825944, 2.37154l 0.826356, -1.00024l 0.826356, -0.306525l 0.826356, 1.54876l 0.826356, 0.580784l 0.825944, -2.09728l 0.826356, 0.467854l 0.826356, -0.596917l 0.826356,
 -0.72598l 0.826356, 1.0809l 0.825944, 0.209728l 0.826356, -1.45196l 0.826356, 1.75849l 0.826356, -1.11317l 0.826356, 0.709847l 0.825944, 0.564651l 0.826356, -0.0322658l 0.826356, -0.871176l 0.826356, -0.693715l 0.826356, -1.51649l 0.826356, 2.95232l
 0.825944, -1.19383l 0.826356, -0.0322658l 0.826356, 1.35516l 0.826356, -2.92005l 0.826356, 1.87142l 0.825944, 0.0322658l 0.826356, -0.564651l 0.826356, 0.790512l 0.826356, -3.17818l 0.826356, 3.83963l 0.825944, -2.6458l 0.826356, 2.25861l 0.826356,
 0.419455l 0.826356, -0.548518l 0.826356, -0.758246l 0.825944, -1.16157l 0.826356, 0.790512l 0.826356, -0.38719l 0.826356, 0.838911l 0.826356, 1.24223l 0.825944, -4.45268l 0.826356, 0.742113l 0.826356, 1.61329l 0.826356, 0.0645316l 0.826356,
 -3.14591l 0.826356, 3.71057l 0.825944, -0.548518l 0.826356, -1.2261l 0.826356, -2.75873l 0.826356, 3.5815l 0.826356, -4.93667l 0.825944, 5.08186l 0.826356, -1.96821l 0.826356, 2.4038l 0.826356, -6.0337l 0.826356, 5.32386l 0.825944, -0.903442l
 0.826356, -4.74307l 0.826356, 3.38791l 0.826356, 1.20997l 0.826356, -0.177462l 0.825944, 2.53286l 0.826356, -1.35516l 0.826356, -0.693715l 0.826356, 1.14544l 0.826356, -0.564651l 0.825944, 0.145196l 0.826356, -1.71009l 0.826356, 1.50036l 0.826356,
 0.580784l 0.826356, -0.258126l 0.826356, 0.806645l 0.825944, -0.532386l 0.826356, -6.40476l 0.826356, 5.17866l 0.826356, 0.435588l 0.826356, 1.2261l 0.825944, 0.0161329l 0.826356, -2.24247l 0.826356, -4.17842l 0.826356, 2.5974l 0.826356, -0.661449l
 0.825944, 0.483987l 0.826356, 1.14544l 0.826356, 0.435588l 0.826356, 1.2745l 0.826356, -2.90392l 0.825944, 2.17794l 0.826356, 0.548518l 0.826356, -1.20997l 0.826356, -5.56585l 0.826356, 5.53358l 0.825944, 1.74235l 0.826356, -2.00048l 0.826356,
 0.72598l 0.826356, -2.21021l 0.826356, 2.48447l 0.826356, -3.92029l 0.825944, 3.29111l 0.826356, -0.548518l 0.826356, -0.258126l 0.826356, -1.59716l 0.826356, -0.677582l 0.825944, 2.4038l 0.826356, -2.66193l 0.826356, 2.90392l 0.826356, -2.93619l
 0.826356, 1.1777l 0.825944, -1.3229l 0.826356, 2.77486l 0.826356, -1.3713l 0.826356, -0.403322l 0.826356, 1.38743l 0.825944, 1.64556l 0.826356, -1.00024l 0.826356, 0.290392l 0.826356, -0.822778l 0.826356, -0.61305l 0.825944, -2.06501l 0.826356,
 3.27498l 0.826356, -0.435588l 0.826356, -1.64556l 0.826356, -0.258126l 0.826356, -2.09728l 0.825944, 1.82302l 0.826356, 0.161329l 0.826356, 0.742113l 0.826356, 0.72598l 0.826356, -3.17818l 0.825944, 0.806645l 0.826356, 0.564651l 0.826356, 1.75849l
 0.826356, -0.951841l 0.826356, -3.14591l 0.825944, 3.29111l 0.826356, -3.01685l 0.826356, 2.01661l 0.826356, -5.24319l 0.826356, 3.5331l 0.825944, 1.25837l 0.826356, 2.6458l 0.826356, -1.00024l 0.826356, -0.322658l 0.826356, -1.58102l 0.825944,
 0.838911l 0.826356, 1.79075l 0.826356, -1.35516l 0.826356, 0.193595l 0.826356, -2.85552l 0.826356, 3.24271l 0.825944, -2.72646l 0.826356, 1.29063l 0.826356, 0.306525l 0.826356, 0.967974l 0.826356, -0.887309l 0.825944, -1.14544l 0.826356, 1.33903l
 0.826356, 1.00024l 0.826356, -1.64556l 0.826356, 2.04888l 0.825944, -3.30724l 0.826356, 1.96821l 0.826356, -0.629183l 0.826356, -5.54972l 0.826356, 6.63062l 0.825944, 0.338791l 0.826356, -5.0012l 0.826356, 3.96869l 0.826356, -2.75873l 0.826356,
 2.62966l 0.825944, -1.90368l 0.826356, 0.693715l 0.826356, 1.71009l 0.826356, -0.790512l 0.826356, -2.61353l 0.826356, -0.419455l 0.825944, 2.3554l 0.826356, -0.887309l 0.826356, -1.59716l 0.826356, 2.69419l 0.826356, -2.80712l 0.825944, 2.51673l
 0.826356, 0.532386l 0.826356, 0.0322658l 0.826356, 0.11293l 0.826356, -0.661449l 0.825944, 0.629183l 0.826356, -3.6783l 0.826356, 1.88755l 0.826356, 1.06477l 0.826356, -1.61329l 0.825944, 0.516253l 0.826356, -0.354924l 0.826356, -1.45196l 0.826356,
 3.40404l 0.826356, -2.25861l 0.825944, -4.53334l 0.826356, 6.74355l 0.826356, -0.693715l 0.826356, 0.129063l 0.826356, -0.935708l 0.826356, -0.338791" fill="none" stroke="#0000ff"/>
<rect x="85.5394" y="52.6163" width="170.079" height="70.1551" fill="white"/>
<path d="M85.5394,122.771h 170.079" fill="none" stroke="black"/>
<path d="M255.618,122.771v -70.1551" fill="none" stroke="black"/>
<path d="M255.618,52.6163h -170.079" fill="none" stroke="black"/>
<path d="M85.5394,52.6163v 70.1551" fill="none" stroke="black"/>
<text xml:space="preserve" x="145.55" y="64.9409" fill="black" font-size="13.5464" font-family="Helvetica">algorithm</text>
<text xml:space="preserve" x="128.012" y="82.4797" fill="black" font-size="13.5464" font-family="Helvetica">heap sort</text>
<path d="M91.9173,85.0631h 29.7638v -12.2771h -29.7638z" fill="white"/>
<path d="M91.9173,78.9245h 29.7638" fill="none" stroke="#00ff00"/>
<g stroke="black" stroke-width="1" fill="none">
<line x1="105.799" y1="78.9245" x2="106.799" y2="78.9245"/>
</g>
<text xml:space="preserve" x="128.012" y="100.018" fill="black" font-size="13.5464" font-family="Helvetica">shell sort</text>
<path d="M91.9173,102.602h 29.7638v -12.2771h -29.7638z" fill="white"/>
<path d="M91.9173,96.4633h 29.7638" fill="none" stroke="#ff0000"/>
<g stroke="black" stroke-width="1" fill="none">
<line x1="105.799" y1="96.4633" x2="106.799" y2="96.4633"/>
</g>
<text xml:space="preserve" x="128.012" y="117.557" fill="black" font-size="13.5464" font-family="Helvetica">parallel quicksort</text>
<path d="M91.9173,120.141h 29.7638v -12.2771h -29.7638z" fill="white"/>
<path d="M91.9173,114.002h 29.7638" fill="none" stroke="#0000ff"/>
<g stroke="black" stroke-width="1" fill="none">
<line x1="105.799" y1="114.002" x2="106.799" y2="114.002"/>
</g>
<text xml:space="preserve" x="164.037" y="17.0648" fill="black" font-size="17.356" font-family="Helvetica">Sort Benchmark T=long_double</text></svg>
