<?xml version="1.0" standalone="no"?>
<svg width="567.429" height="351.276" viewBox="0 0 567.429 351.276" xmlns="http://www.w3.org/2000/svg" shape-rendering="crispEdges">
<title>
root_canvas_long.svg
</title>
<desc>
Creator: ROOT Version 6.18/04
CreationDate: Thu Jun 25 17:18:41 2020</desc>
<defs>
</defs>
<rect x="0.5" y="0" width="566.929" height="350.776" fill="white"/>
<rect x="57.1929" y="35.0776" width="453.543" height="280.62" fill="white"/>
<rect x="57.1929" y="35.0776" width="453.543" height="280.62" fill="none" stroke="black"/>
<rect x="57.1929" y="35.0776" width="453.543" height="280.62" fill="white"/>
<rect x="57.1929" y="35.0776" width="453.543" height="280.62" fill="none" stroke="black"/>
<path d="M57.1929,315.698h 453.543" fill="none" stroke="black"/>
<path d="M77.7673,307.279v 8.41861" fill="none" stroke="black"/>
<path d="M98.3849,311.489v 4.20931" fill="none" stroke="black"/>
<path d="M119.003,311.489v 4.20931" fill="none" stroke="black"/>
<path d="M139.62,311.489v 4.20931" fill="none" stroke="black"/>
<path d="M160.238,307.279v 8.41861" fill="none" stroke="black"/>
<path d="M180.856,311.489v 4.20931" fill="none" stroke="black"/>
<path d="M201.473,311.489v 4.20931" fill="none" stroke="black"/>
<path d="M222.091,311.489v 4.20931" fill="none" stroke="black"/>
<path d="M242.709,307.279v 8.41861" fill="none" stroke="black"/>
<path d="M263.326,311.489v 4.20931" fill="none" stroke="black"/>
<path d="M283.944,311.489v 4.20931" fill="none" stroke="black"/>
<path d="M304.562,311.489v 4.20931" fill="none" stroke="black"/>
<path d="M325.179,307.279v 8.41861" fill="none" stroke="black"/>
<path d="M345.797,311.489v 4.20931" fill="none" stroke="black"/>
<path d="M366.415,311.489v 4.20931" fill="none" stroke="black"/>
<path d="M387.032,311.489v 4.20931" fill="none" stroke="black"/>
<path d="M407.65,307.279v 8.41861" fill="none" stroke="black"/>
<path d="M428.268,311.489v 4.20931" fill="none" stroke="black"/>
<path d="M448.885,311.489v 4.20931" fill="none" stroke="black"/>
<path d="M469.503,311.489v 4.20931" fill="none" stroke="black"/>
<path d="M490.121,307.279v 8.41861" fill="none" stroke="black"/>
<path d="M77.7673,307.279v 8.41861" fill="none" stroke="black"/>
<path d="M490.121,307.279v 8.41861" fill="none" stroke="black"/>
<text xml:space="preserve" x="74.4473" y="327.075" fill="black" font-size="11.7634" font-family="Helvetica">0</text>
<text xml:space="preserve" x="150.291" y="327.075" fill="black" font-size="11.7634" font-family="Helvetica">200</text>
<text xml:space="preserve" x="232.77" y="327.075" fill="black" font-size="11.7634" font-family="Helvetica">400</text>
<text xml:space="preserve" x="315.25" y="327.075" fill="black" font-size="11.7634" font-family="Helvetica">600</text>
<text xml:space="preserve" x="397.73" y="327.075" fill="black" font-size="11.7634" font-family="Helvetica">800</text>
<text xml:space="preserve" x="476.891" y="327.075" fill="black" font-size="11.7634" font-family="Helvetica">1000</text>
<text xml:space="preserve" x="530.93" y="310.01" fill="black" font-size="8.00896" font-family="Helvetica">3</text>
<text xml:space="preserve" x="518.605" y="315.698" fill="black" font-size="11.7634" font-family="Helvetica">10</text>
<text xml:space="preserve" x="512.443" y="315.698" fill="black" font-size="11.7634" font-family="Times">&#0215;</text>
<text xml:space="preserve" x="439.917" y="338.451" fill="black" font-size="11.7634" font-family="Helvetica"> X number (N)</text>
<path d="M57.1929,315.698v -280.62" fill="none" stroke="black"/>
<path d="M70.7992,315.698h -13.6063" fill="none" stroke="black"/>
<path d="M63.9961,306.71h -6.80315" fill="none" stroke="black"/>
<path d="M63.9961,297.723h -6.80315" fill="none" stroke="black"/>
<path d="M63.9961,288.735h -6.80315" fill="none" stroke="black"/>
<path d="M70.7992,279.747h -13.6063" fill="none" stroke="black"/>
<path d="M63.9961,270.76h -6.80315" fill="none" stroke="black"/>
<path d="M63.9961,261.772h -6.80315" fill="none" stroke="black"/>
<path d="M63.9961,252.784h -6.80315" fill="none" stroke="black"/>
<path d="M70.7992,243.797h -13.6063" fill="none" stroke="black"/>
<path d="M63.9961,234.809h -6.80315" fill="none" stroke="black"/>
<path d="M63.9961,225.821h -6.80315" fill="none" stroke="black"/>
<path d="M63.9961,216.834h -6.80315" fill="none" stroke="black"/>
<path d="M70.7992,207.846h -13.6063" fill="none" stroke="black"/>
<path d="M63.9961,198.858h -6.80315" fill="none" stroke="black"/>
<path d="M63.9961,189.871h -6.80315" fill="none" stroke="black"/>
<path d="M63.9961,180.883h -6.80315" fill="none" stroke="black"/>
<path d="M70.7992,171.895h -13.6063" fill="none" stroke="black"/>
<path d="M63.9961,162.907h -6.80315" fill="none" stroke="black"/>
<path d="M63.9961,153.92h -6.80315" fill="none" stroke="black"/>
<path d="M63.9961,144.932h -6.80315" fill="none" stroke="black"/>
<path d="M70.7992,135.944h -13.6063" fill="none" stroke="black"/>
<path d="M63.9961,126.957h -6.80315" fill="none" stroke="black"/>
<path d="M63.9961,117.969h -6.80315" fill="none" stroke="black"/>
<path d="M63.9961,108.981h -6.80315" fill="none" stroke="black"/>
<path d="M70.7992,99.9938h -13.6063" fill="none" stroke="black"/>
<path d="M63.9961,91.0061h -6.80315" fill="none" stroke="black"/>
<path d="M63.9961,82.0184h -6.80315" fill="none" stroke="black"/>
<path d="M63.9961,73.0307h -6.80315" fill="none" stroke="black"/>
<path d="M70.7992,64.043h -13.6063" fill="none" stroke="black"/>
<path d="M70.7992,64.043h -13.6063" fill="none" stroke="black"/>
<path d="M63.9961,55.0554h -6.80315" fill="none" stroke="black"/>
<path d="M63.9961,46.0677h -6.80315" fill="none" stroke="black"/>
<path d="M63.9961,37.08h -6.80315" fill="none" stroke="black"/>
<text xml:space="preserve" x="47.9021" y="319.964" fill="black" font-size="11.7634" font-family="Helvetica">0</text>
<text xml:space="preserve" x="41.7398" y="283.939" fill="black" font-size="11.7634" font-family="Helvetica">20</text>
<text xml:space="preserve" x="41.7398" y="247.913" fill="black" font-size="11.7634" font-family="Helvetica">40</text>
<text xml:space="preserve" x="41.7398" y="211.887" fill="black" font-size="11.7634" font-family="Helvetica">60</text>
<text xml:space="preserve" x="41.7398" y="175.862" fill="black" font-size="11.7634" font-family="Helvetica">80</text>
<text xml:space="preserve" x="35.5776" y="139.836" fill="black" font-size="11.7634" font-family="Helvetica">100</text>
<text xml:space="preserve" x="35.5776" y="103.811" fill="black" font-size="11.7634" font-family="Helvetica">120</text>
<text xml:space="preserve" x="35.5776" y="68.259" fill="black" font-size="11.7634" font-family="Helvetica">140</text>
<g transform="rotate(-90,21.3569,95.7523)">
<text xml:space="preserve" x="21.3569" y="95.7523" fill="black" font-size="11.7634" font-family="Helvetica"> Y time (ms)</text>
</g>
<path d="M77.8085,315.698l 0.825944, -0.23368l 0.826356, -0.251655l 0.826356, -0.305581l 0.826356, -0.23368l 0.826356, -0.197729l 0.825944, -0.323556l 0.826356, -0.179754l 0.826356, -0.215704l 0.826356, -0.26963l 0.826356, -0.23368l 0.825944,
 -0.287606l 0.826356, -0.287606l 0.826356, -0.287606l 0.826356, -0.629137l 0.826356, 0.0898768l 0.825944, -0.26963l 0.826356, -0.305581l 0.826356, -0.26963l 0.826356, -0.305581l 0.826356, -0.359507l 0.825944, -0.179754l 0.826356, -0.413433l 0.826356,
 -0.287606l 0.826356, -0.323556l 0.826356, -0.215704l 0.825944, -0.26963l 0.826356, -0.305581l 0.826356, -0.485335l 0.826356, -3.54114l 0.826356, 3.14569l 0.826356, -1.58183l 0.825944, 0.826866l 0.826356, -0.305581l 0.826356, -0.215704l 0.826356,
 -0.341532l 0.826356, -0.23368l 0.825944, -3.48722l 0.826356, 2.71428l 0.826356, -3.7928l 0.826356, 3.27151l 0.826356, -2.01324l 0.825944, 1.40208l 0.826356, -2.66035l 0.826356, 0.0359507l 0.826356, 0.808891l 0.826356, 0.161778l 0.825944, -2.26489l
 0.826356, 0.197729l 0.826356, -1.90539l 0.826356, 2.4806l 0.826356, -0.341532l 0.825944, 0.125827l 0.826356, -0.161778l 0.826356, -0.826866l 0.826356, 0.23368l 0.826356, -0.323556l 0.826356, -0.395458l 0.825944, -0.754965l 0.826356, 0.0539261l
 0.826356, -0.701039l 0.826356, -1.58183l 0.826356, 0.179754l 0.825944, -0.197729l 0.826356, 0.754965l 0.826356, -1.00662l 0.826356, -1.52791l 0.826356, -0.107852l 0.825944, 1.52791l 0.826356, -2.15704l 0.826356, -0.736989l 0.826356, 1.58183l
 0.826356, -2.10312l 0.825944, 0.287606l 0.826356, -0.952694l 0.826356, 0.431408l 0.826356, -1.86944l 0.826356, 0.880792l 0.825944, 0.790916l 0.826356, -1.2403l 0.826356, -0.611162l 0.826356, -3.07379l 0.826356, -0.593187l 0.826356, 2.26489l
 0.825944, -0.377482l 0.826356, 1.29423l 0.826356, -0.251655l 0.826356, -0.413433l 0.826356, -0.970669l 0.825944, -1.2403l 0.826356, -0.323556l 0.826356, -0.161778l 0.826356, -0.754965l 0.826356, 0.77294l 0.825944, 0.323556l 0.826356, -0.539261l
 0.826356, -1.456l 0.826356, -0.377482l 0.826356, 0.341532l 0.825944, 0.107852l 0.826356, -1.42005l 0.826356, -1.79754l 0.826356, 1.40208l 0.826356, -0.862817l 0.825944, -0.449384l 0.826356, -0.611162l 0.826356, -1.68968l 0.826356, 1.3841l 0.826356,
 0.107852l 0.826356, -1.27625l 0.825944, -0.611162l 0.826356, -0.125827l 0.826356, 1.13245l 0.826356, -0.431408l 0.826356, -2.08514l 0.825944, 1.67171l 0.826356, -1.56386l 0.826356, 1.0965l 0.826356, -2.31882l 0.826356, 0.377482l 0.825944, -1.13245l
 0.826356, 0.161778l 0.826356, -0.593187l 0.826356, -0.26963l 0.826356, 0.323556l 0.825944, 0.341532l 0.826356, -4.72752l 0.826356, 2.89403l 0.826356, 0.952694l 0.826356, -1.58183l 0.825944, -1.3841l 0.826356, 1.11447l 0.826356, -3.14569l 0.826356,
 1.56386l 0.826356, 0.539261l 0.826356, -0.575211l 0.825944, -1.0965l 0.826356, 0.449384l 0.826356, -0.736989l 0.826356, -1.61778l 0.826356, -0.431408l 0.825944, -0.305581l 0.826356, 0.880792l 0.826356, -0.647113l 0.826356, -3.9366l 0.826356,
 1.81551l 0.825944, 2.21097l 0.826356, -0.0179754l 0.826356, -4.56574l 0.826356, 1.3841l 0.826356, -2.24692l 0.825944, 3.14569l 0.826356, 0.305581l 0.826356, -2.78618l 0.826356, 1.83349l 0.826356, -3.66697l 0.825944, 3.97255l 0.826356, -1.13245l
 0.826356, -0.844842l 0.826356, -4.70954l 0.826356, 1.67171l 0.826356, -2.92998l 0.825944, 1.49195l 0.826356, 1.70766l 0.826356, -1.3841l 0.826356, 1.97729l 0.826356, -4.70954l 0.825944, -0.719014l 0.826356, 2.75023l 0.826356, -3.21759l 0.826356,
 0.0898768l 0.826356, 1.13245l 0.825944, -0.125827l 0.826356, -0.934718l 0.826356, -1.76158l 0.826356, 1.83349l 0.826356, 0.161778l 0.825944, -3.30747l 0.826356, -1.81551l 0.826356, 2.03121l 0.826356, 0.934718l 0.826356, -3.34342l 0.825944, 2.21097l
 0.826356, -4.24218l 0.826356, 3.34342l 0.826356, 0.359507l 0.826356, -4.29611l 0.826356, 2.7682l 0.825944, -4.70954l 0.826356, 2.42667l 0.826356, -0.341532l 0.826356, -0.161778l 0.826356, 0.880792l 0.825944, -2.15704l 0.826356, -0.161778l 0.826356,
 -3.7209l 0.826356, 5.0331l 0.826356, -1.456l 0.825944, -2.87606l 0.826356, -1.50993l 0.826356, 2.3368l 0.826356, -1.43803l 0.826356, 3.30747l 0.825944, -3.19961l 0.826356, 2.17502l 0.826356, -1.27625l 0.826356, -3.28949l 0.826356, 4.04445l 0.825944,
 -5.21285l 0.826356, 3.32544l 0.826356, -4.08041l 0.826356, 2.91201l 0.826356, -0.844842l 0.826356, -1.36613l 0.825944, -1.52791l 0.826356, -2.24692l 0.826356, 1.63576l 0.826356, -2.12109l 0.826356, 2.51655l 0.825944, 0.26963l 0.826356, -4.31409l
 0.826356, 1.67171l 0.826356, -1.3122l 0.826356, 0.395458l 0.825944, -1.0965l 0.826356, 1.43803l 0.826356, 4.08041l 0.826356, -7.24407l 0.826356, -0.431408l 0.825944, 2.82213l 0.826356, -1.85146l 0.826356, 0.593187l 0.826356, -2.4087l 0.826356,
 -0.665088l 0.825944, 0.125827l 0.826356, 0.197729l 0.826356, -1.85146l 0.826356, -2.15704l 0.826356, 6.65088l 0.826356, -4.56574l 0.825944, -2.51655l 0.826356, 1.0246l 0.826356, 1.0246l 0.826356, 3.82875l 0.826356, -0.0898768l 0.825944, -7.38787l
 0.826356, 2.12109l 0.826356, -0.629137l 0.826356, -1.3841l 0.826356, -1.79754l 0.825944, 4.38599l 0.826356, -5.37463l 0.826356, -3.75685l 0.826356, 4.35004l 0.826356, -4.87132l 0.825944, 10.5875l 0.826356, -5.85997l 0.826356, -24.1229l 0.826356,
 -8.07093l 0.826356, 6.66886l 0.825944, -8.34056l 0.826356, 22.0018l 0.826356, 0.467359l 0.826356, 7.19014l 0.826356, -69.2051l 0.826356, 6.57898l 0.825944, 3.95458l 0.826356, 35.2317l 0.826356, -7.6575l 0.826356, 3.00188l 0.826356, 9.61681l
 0.825944, 2.06717l 0.826356, -42.2061l 0.826356, 21.5165l 0.826356, 1.70766l 0.826356, -12.2412l 0.825944, 33.6499l 0.826356, -31.6366l 0.826356, -2.78618l 0.826356, 13.3737l 0.826356, 19.3415l 0.825944, -1.95931l 0.826356, -8.44842l 0.826356,
 -4.38599l 0.826356, 9.67074l 0.826356, -9.88645l 0.825944, 1.99526l 0.826356, -0.701039l 0.826356, -2.67833l 0.826356, -5.33868l 0.826356, 2.46262l 0.826356, 13.7152l 0.825944, -14.6859l 0.826356, 8.26866l 0.826356, 4.65562l 0.826356, -7.42382l
 0.826356, 1.65373l 0.825944, -1.33018l 0.826356, -16.034l 0.826356, -12.1873l 0.826356, 29.4616l 0.826356, -3.50519l 0.825944, -6.92051l 0.826356, -4.81739l 0.826356, -47.4909l 0.826356, 36.9573l 0.826356, 12.5827l 0.825944, -1.42005l 0.826356,
 2.28287l 0.826356, -12.3491l 0.826356, 13.5894l 0.826356, -9.88645l 0.825944, 9.63479l 0.826356, -13.7691l 0.826356, -2.78618l 0.826356, -9.29326l 0.826356, 16.3036l 0.826356, 4.38599l 0.825944, 4.0085l 0.826356, -11.1807l 0.826356, -10.228l
 0.826356, 4.13433l 0.826356, 4.83537l 0.825944, -6.45315l 0.826356, 15.4408l 0.826356, -0.0898768l 0.826356, -14.0388l 0.826356, 9.23933l 0.825944, -15.6925l 0.826356, 2.66035l 0.826356, 3.27151l 0.826356, 3.5771l 0.826356, 4.83537l 0.825944,
 -1.50993l 0.826356, -5.73414l 0.826356, -12.7266l 0.826356, -2.64238l 0.826356, 20.7615l 0.825944, -20.3481l 0.826356, -8.6821l 0.826356, 14.56l 0.826356, 5.87794l 0.826356, 17.4361l 0.826356, -8.43044l 0.825944, -14.0927l 0.826356, 1.13245l
 0.826356, -5.30273l 0.826356, -8.61019l 0.826356, -1.06055l 0.825944, 19.2336l 0.826356, 2.91201l 0.826356, -21.1031l 0.826356, 6.77671l 0.826356, -10.5336l 0.825944, 10.4796l 0.826356, -3.97255l 0.826356, 8.73602l 0.826356, -1.18637l 0.826356,
 -1.95931l 0.825944, 18.4787l 0.826356, -13.7152l 0.826356, 7.35192l 0.826356, -9.00565l 0.826356, 1.18637l 0.825944, -3.75685l 0.826356, 3.99053l 0.826356, 1.04257l 0.826356, -2.75023l 0.826356, -6.50708l 0.826356, 9.95835l 0.825944, -6.70481l
 0.826356, 2.84011l 0.826356, -2.4806l 0.826356, 9.77859l 0.826356, -0.952694l 0.825944, -5.01512l 0.826356, -0.215704l 0.826356, -3.90065l 0.826356, 1.0965l 0.826356, 8.28664l 0.825944, -13.5894l 0.826356, 1.58183l 0.826356, 1.04257l 0.826356,
 -1.40208l 0.826356, -7.11824l 0.825944, -4.83537l 0.826356, -8.19676l 0.826356, 14.7398l 0.826356, -17.9394l 0.826356, 31.6366l 0.825944, -6.65088l 0.826356, -8.28664l 0.826356, -1.70766l 0.826356, 16.016l 0.826356, -1.40208l 0.826356, -5.60831l
 0.825944, -10.8212l 0.826356, -3.43329l 0.826356, 13.6613l 0.826356, -3.8647l 0.826356, -6.02174l 0.825944, 1.33018l 0.826356, 9.1135l 0.826356, -8.19676l 0.826356, 11.684l 0.826356, -8.21474l 0.825944, 1.65373l 0.826356, -14.578l 0.826356, 4.38599l
 0.826356, -3.32544l 0.826356, 16.1778l 0.825944, -11.1986l 0.826356, -2.6244l 0.826356, 7.04634l 0.826356, -6.03972l 0.826356, -4.49384l 0.825944, -4.78144l 0.826356, -1.52791l 0.826356, 6.50708l 0.826356, 14.6679l 0.826356, -16.753l 0.826356,
 -0.826866l 0.825944, -2.82213l 0.826356, -0.701039l 0.826356, 1.456l 0.826356, 4.40396l 0.826356, -2.4087l 0.825944, -0.287606l 0.826356, -3.75685l 0.826356, -0.844842l 0.826356, 2.26489l 0.826356, -5.68021l 0.825944, 0.431408l 0.826356, 12.2951l
 0.826356, 1.99526l 0.826356, -11.1267l 0.826356, -2.31882l 0.825944, -3.32544l 0.826356, 8.17879l 0.826356, -10.6774l 0.826356, 16.034l 0.826356, -3.27151l 0.825944, -2.66035l 0.826356, 2.19299l 0.826356, -18.4247l 0.826356, 3.01986l 0.826356,
 5.08703l 0.826356, -4.49384l 0.825944, -0.50331l 0.826356, 3.43329l 0.826356, -7.94511l 0.826356, -0.143803l 0.826356, 10.6953l 0.825944, 3.00188l 0.826356, -9.81454l 0.826356, -0.449384l 0.826356, -10.192l 0.826356, 4.17028l 0.825944, 16.6272l
 0.826356, 2.4806l 0.826356, -1.77956l 0.826356, -14.2365l 0.826356, -3.48722l 0.825944, 16.4474l 0.826356, -19.3235l 0.826356, 12.7445l 0.826356, -11.8637l 0.826356, 10.0302l 0.825944, 0.826866l 0.826356, -11.3604l 0.826356, 15.333l 0.826356,
 -8.10688l 0.826356, -6.61493l 0.826356, -11.4143l 0.825944, 13.4456l 0.826356, 10.2999l 0.826356, 0.161778l 0.826356, -19.3774l 0.826356, 4.04445l 0.825944, -7.47775l 0.826356, 13.6613l 0.826356, -9.61681l 0.826356, -4.38599l 0.826356, 17.0586l
 0.825944, -19.8448l 0.826356, 11.1627l 0.826356, -9.79657l 0.826356, 21.0671l 0.826356, -23.0983l 0.825944, 4.60169l 0.826356, 8.57424l 0.826356, -13.4276l 0.826356, 10.0123l 0.826356, 19.1078l 0.825944, -34.1352l 0.826356, 27.6641l 0.826356,
 -12.1154l 0.826356, -7.02836l 0.826356, 0.880792l 0.826356, 9.40111" fill="none" stroke="#00ff00"/>
<path d="M77.8085,315.644l 0.825944, -0.215704l 0.826356, -0.323556l 0.826356, -0.143803l 0.826356, -0.431408l 0.826356, -0.413433l 0.825944, -0.179754l 0.826356, -0.23368l 0.826356, -0.485335l 0.826356, -0.197729l 0.826356, -0.467359l 0.825944,
 -0.251655l 0.826356, -0.359507l 0.826356, -0.341532l 0.826356, -1.27625l 0.826356, 0.647113l 0.825944, -0.665088l 0.826356, -0.305581l 0.826356, -0.197729l 0.826356, -0.26963l 0.826356, -1.15042l 0.825944, 0.287606l 0.826356, -0.377482l 0.826356,
 -1.04257h 0.826356l 0.826356, -0.287606l 0.825944, -1.0246l 0.826356, -0.665088l 0.826356, -0.557236l 0.826356, 0.844842l 0.826356, -2.01324l 0.826356, 0.719014l 0.825944, -0.0179754l 0.826356, -1.68968l 0.826356, 0.0179754l 0.826356, 0.0898768l
 0.826356, -0.23368l 0.825944, -0.808891l 0.826356, -1.34815l 0.826356, 1.34815l 0.826356, -2.37275l 0.826356, 1.15042l 0.825944, -0.880792l 0.826356, 0.467359l 0.826356, -0.395458l 0.826356, -1.04257l 0.826356, -0.952694l 0.825944, 0.449384l
 0.826356, -0.862817l 0.826356, -0.665088l 0.826356, -0.719014l 0.826356, -0.413433l 0.825944, 0.0719014l 0.826356, -1.0965l 0.826356, 0.898768l 0.826356, -2.19299l 0.826356, -0.665088l 0.826356, -0.0359507l 0.825944, 0.449384l 0.826356, -0.305581l
 0.826356, -0.215704l 0.826356, -0.305581l 0.826356, 0.143803l 0.825944, -1.13245l 0.826356, -1.33018l 0.826356, -1.04257l 0.826356, 2.04919l 0.826356, -2.22894l 0.825944, 1.3122l 0.826356, -0.305581l 0.826356, -2.6963l 0.826356, 0.0359507l 0.826356,
 1.3841l 0.825944, -2.80416l 0.826356, 1.95931l 0.826356, -2.75023l 0.826356, 1.456l 0.826356, -3.32544l 0.825944, 1.20435l 0.826356, 0.143803l 0.826356, 0.413433l 0.826356, -1.06055l 0.826356, -0.449384l 0.826356, 0.107852l 0.825944, -2.19299l
 0.826356, -2.7682l 0.826356, -1.29423l 0.826356, 2.17502l 0.826356, 2.4806l 0.825944, -3.90065l 0.826356, 0.970669l 0.826356, 1.88741l 0.826356, -1.70766l 0.826356, 0.107852l 0.825944, -2.12109l 0.826356, 0.0898768l 0.826356, -4.26016l 0.826356,
 2.71428l 0.826356, -2.04919l 0.825944, 1.34815l 0.826356, -2.31882l 0.826356, 2.71428l 0.826356, -3.37937l 0.826356, 0.754965l 0.825944, 1.42005l 0.826356, -2.57048l 0.826356, 0.359507l 0.826356, 1.63576l 0.826356, -3.36139l 0.826356, 0.251655l
 0.825944, -1.61778l 0.826356, 3.7209l 0.826356, -2.60643l 0.826356, 1.25827l 0.826356, -2.91201l 0.825944, 0.844842l 0.826356, -0.287606l 0.826356, -1.3841l 0.826356, -2.60643l 0.826356, 3.77482l 0.825944, -3.55912l 0.826356, -0.844842l 0.826356,
 -0.557236l 0.826356, 0.0179754l 0.826356, 0.0719014l 0.825944, 1.0965l 0.826356, -3.34342l 0.826356, 1.88741l 0.826356, -0.305581l 0.826356, -1.42005l 0.825944, -0.575211l 0.826356, -5.91389l 0.826356, 4.26016l 0.826356, 1.42005l 0.826356, -2.66035l
 0.826356, 1.04257l 0.825944, -0.413433l 0.826356, 0.952694l 0.826356, -0.970669l 0.826356, -3.91863l 0.826356, 2.64238l 0.825944, -3.52317l 0.826356, 0.916743l 0.826356, -2.53452l 0.826356, 3.05581l 0.826356, -0.629137l 0.825944, -1.36613l 0.826356,
 -3.23556l 0.826356, 1.52791l 0.826356, 0.611162l 0.826356, 0.575211l 0.825944, -1.42005l 0.826356, -0.161778l 0.826356, -3.73887l 0.826356, 3.54114l 0.826356, -3.55912l 0.825944, 2.21097l 0.826356, -0.341532l 0.826356, 0.539261l 0.826356, -5.01512l
 0.826356, 2.03121l 0.826356, -3.36139l 0.825944, 2.06717l 0.826356, -0.880792l 0.826356, -0.77294l 0.826356, 0.790916l 0.826356, 1.99526l 0.825944, -4.65562l 0.826356, 2.03121l 0.826356, -3.90065l 0.826356, 2.42667l 0.826356, 0.413433l 0.825944,
 -0.754965l 0.826356, -1.76158l 0.826356, 0.467359l 0.826356, -2.31882l 0.826356, -1.61778l 0.825944, 2.75023l 0.826356, -3.28949l 0.826356, 3.7928l 0.826356, -8.73602l 0.826356, 5.41058l 0.825944, 3.25354l 0.826356, -3.14569l 0.826356, -1.77956l
 0.826356, 0.808891l 0.826356, -1.27625l 0.826356, 0.0539261l 0.825944, -5.14095l 0.826356, 5.26678l 0.826356, -0.736989l 0.826356, -2.24692l 0.826356, 1.3122l 0.825944, -4.51181l 0.826356, -1.0246l 0.826356, 3.82875l 0.826356, -4.29611h 0.826356l
 0.825944, 1.06055l 0.826356, -0.0898768l 0.826356, -0.844842l 0.826356, 4.8893l 0.826356, -5.85997l 0.825944, 3.7209l 0.826356, -5.39261l 0.826356, -1.40208l 0.826356, 1.0965l 0.826356, 2.5525l 0.825944, 0.826866l 0.826356, 0.844842l 0.826356,
 -2.4087l 0.826356, -5.51843l 0.826356, 2.49857l 0.826356, -1.00662l 0.825944, 1.65373l 0.826356, 2.28287l 0.826356, -1.42005l 0.826356, -0.377482l 0.826356, -1.92336l 0.825944, 1.50993l 0.826356, -2.31882l 0.826356, 1.56386l 0.826356, -1.2403l
 0.826356, -1.42005l 0.825944, 0.701039l 0.826356, -4.65562l 0.826356, 2.71428l 0.826356, -1.54588l 0.826356, -3.70292l 0.825944, -7.01039l 0.826356, 10.5875l 0.826356, -3.7209l 0.826356, 4.31409l 0.826356, -6.1296l 0.825944, 3.03783l 0.826356,
 -1.79754l 0.826356, -1.22232l 0.826356, -1.13245l 0.826356, 1.63576l 0.826356, 0.359507l 0.825944, -2.12109l 0.826356, -0.467359l 0.826356, 2.51655l 0.826356, -2.64238l 0.826356, -4.29611l 0.825944, 1.74361l 0.826356, 2.17502l 0.826356, -2.58845l
 0.826356, 0.808891l 0.826356, 0.323556l 0.825944, 1.81551l 0.826356, -2.58845l 0.826356, -2.15704l 0.826356, -3.52317l 0.826356, 2.35477l 0.825944, 3.23556l 0.826356, -6.32732l 0.826356, -13.877l 0.826356, 11.9177l 0.826356, -8.50234l 0.825944,
 -5.64426l 0.826356, 9.95835l 0.826356, -13.6792l 0.826356, -4.38599l 0.826356, -3.90065l 0.826356, 12.7625l 0.825944, 8.61019l 0.826356, -9.77859l 0.826356, -4.60169l 0.826356, 10.1381l 0.826356, 0.808891l 0.825944, -1.15042l 0.826356, -10.8212l
 0.826356, 4.20623l 0.826356, -9.20338l 0.826356, 0.413433l 0.825944, 14.6319l 0.826356, -10.7313l 0.826356, -13.0501l 0.826356, 12.8704l 0.826356, 2.3368l 0.825944, 4.54776l 0.826356, -7.20812l 0.826356, -2.89403l 0.826356, 1.88741l 0.826356,
 2.6244l 0.825944, -2.66035l 0.826356, 4.33206l 0.826356, -7.5856l 0.826356, -4.09838l 0.826356, 13.1939l 0.826356, -10.0842l 0.825944, 1.3841l 0.826356, -7.53167l 0.826356, 6.75873l 0.826356, -0.287606l 0.826356, -0.611162l 0.825944, 5.80604l
 0.826356, -0.593187l 0.826356, -11.6121l 0.826356, 4.60169l 0.826356, 5.48248l 0.825944, -14.3623l 0.826356, 7.98106l 0.826356, -0.826866l 0.826356, -5.06905l 0.826356, -3.9366l 0.825944, 4.31409l 0.826356, 6.84861l 0.826356, -14.0747l 0.826356,
 3.27151l 0.826356, -14.0567l 0.825944, 20.0605l 0.826356, -5.3207l 0.826356, 7.83725l 0.826356, -21.0491l 0.826356, 11.0369l 0.826356, 7.63953l 0.825944, -1.42005l 0.826356, -5.64426l 0.826356, -4.04445l 0.826356, 1.61778l 0.826356, -12.4929l
 0.825944, -31.349l 0.826356, 42.1702l 0.826356, 0.916743l 0.826356, -13.5354l 0.826356, 4.69157l 0.825944, -7.53167l 0.826356, 0.988644l 0.826356, 8.14284l 0.826356, -9.16743l 0.826356, 13.2299l 0.825944, -11.7199l 0.826356, 6.25542l 0.826356,
 -7.71143l 0.826356, 3.54114l 0.826356, 4.38599l 0.825944, -17.2923l 0.826356, 15.1892l 0.826356, -8.86185l 0.826356, -0.844842l 0.826356, 9.58086l 0.826356, -13.4276l 0.825944, -1.58183l 0.826356, 20.2223l 0.826356, -14.3084l 0.826356, 4.02648l
 0.826356, 2.01324l 0.825944, -4.65562l 0.826356, -0.323556l 0.826356, 9.74264l 0.826356, -20.0245l 0.826356, 15.0274l 0.825944, -1.47398l 0.826356, -17.0406l 0.826356, 11.3784l 0.826356, -3.00188l 0.826356, 4.65562l 0.825944, 0.341532l 0.826356,
 -10.6055l 0.826356, 5.12298l 0.826356, 0.593187l 0.826356, 12.3131l 0.825944, -14.578l 0.826356, 0.593187l 0.826356, -1.20435l 0.826356, -2.49857l 0.826356, -4.45789l 0.826356, 14.3623l 0.825944, -3.39734l 0.826356, -4.38599l 0.826356, -10.192l
 0.826356, -3.59507l 0.826356, 17.2743l 0.825944, -29.5335l 0.826356, 12.0794l 0.826356, 6.47113l 0.826356, 9.77859l 0.826356, -10.21l 0.825944, -1.61778l 0.826356, 4.38599l 0.826356, -6.88456l 0.826356, 4.60169l 0.826356, -11.3424l 0.825944, 7.7294l
 0.826356, -8.14284l 0.826356, 4.47586l 0.826356, -3.73887l 0.826356, 17.508l 0.825944, -12.2592l 0.826356, -6.61493l 0.826356, -5.42856l 0.826356, 7.3699l 0.826356, 2.84011l 0.826356, 9.83252l 0.825944, -28.7965l 0.826356, 18.3888l 0.826356,
 4.54776l 0.826356, -7.83725l 0.826356, -6.30935l 0.825944, 13.3557l 0.826356, 0.359507l 0.826356, 7.90916l 0.826356, -11.0728l 0.826356, 4.97917l 0.825944, -0.754965l 0.826356, -15.6925l 0.826356, -5.73414l 0.826356, -2.22894l 0.826356, 27.0529l
 0.825944, -14.1826l 0.826356, -5.3207l 0.826356, 16.034l 0.826356, -18.928l 0.826356, 1.33018l 0.825944, 1.52791l 0.826356, -12.6187l 0.826356, 12.5827l 0.826356, 0.0898768l 0.826356, -8.12486l 0.826356, -2.44465l 0.825944, 2.5525l 0.826356,
 -1.1684l 0.826356, -2.30085l 0.826356, -4.43991l 0.826356, 0.0719014l 0.825944, 7.60357l 0.826356, -4.72752l 0.826356, 7.96308l 0.826356, 2.92998l 0.826356, -4.36801l 0.825944, -6.99241l 0.826356, 13.4096l 0.826356, 3.75685l 0.826356, -15.5846l
 0.826356, 1.65373l 0.825944, 4.27813l 0.826356, 13.3557l 0.826356, -25.3812l 0.826356, 16.4474l 0.826356, -28.1494l 0.825944, 31.5467l 0.826356, -19.2516l 0.826356, 15.8722l 0.826356, -15.333l 0.826356, 13.2658l 0.826356, -13.2299l 0.825944, 1.0246l
 0.826356, -7.13622l 0.826356, 4.69157l 0.826356, -6.16555l 0.826356, 1.50993l 0.825944, 3.68495l 0.826356, -12.2592l 0.826356, 6.65088l 0.826356, -5.35666l 0.826356, -7.89118l 0.825944, -0.287606l 0.826356, 23.9072l 0.826356, 2.5525l 0.826356,
 -14.1646l 0.826356, -0.647113l 0.825944, 12.7445l 0.826356, -13.4995l 0.826356, 10.6234l 0.826356, -22.2715l 0.826356, 12.6546l 0.825944, -9.02363l 0.826356, 3.73887l 0.826356, 12.3131l 0.826356, -13.5894l 0.826356, -5.42856l 0.826356, 3.48722l
 0.825944, -6.74076l 0.826356, 18.964l 0.826356, -1.1684l 0.826356, -9.09553l 0.826356, -8.80792l 0.825944, 3.19961l 0.826356, -3.32544l 0.826356, -3.61305l 0.826356, 1.43803l 0.826356, 5.51843l 0.825944, 9.74264l 0.826356, -13.104l 0.826356,
 0.26963l 0.826356, 11.8637l 0.826356, -17.2743l 0.825944, -4.49384l 0.826356, 1.06055l 0.826356, -3.19961l 0.826356, 9.49099l 0.826356, 15.9621l 0.825944, -14.578l 0.826356, 11.5042l 0.826356, -11.5761l 0.826356, 1.86944l 0.826356, -8.01701l
 0.826356, 12.0974" fill="none" stroke="#ff0000"/>
<path d="M77.8085,315.698l 0.825944, -0.197729l 0.826356, -0.161778l 0.826356, -0.23368l 0.826356, -0.287606l 0.826356, -0.179754l 0.825944, -0.251655l 0.826356, 0.26963l 0.826356, -0.575211l 0.826356, -0.341532l 0.826356, -0.701039l 0.825944,
 0.485335l 0.826356, 0.341532l 0.826356, -0.143803l 0.826356, -0.862817l 0.826356, -0.26963h 0.825944l 0.826356, -0.179754l 0.826356, 0.0539261l 0.826356, -0.77294l 0.826356, 0.683063l 0.825944, 0.413433l 0.826356, -1.2403l 0.826356, 0.215704l
 0.826356, -1.00662l 0.826356, 0.611162l 0.825944, 1.13245l 0.826356, 0.287606l 0.826356, -1.2403l 0.826356, -0.125827l 0.826356, -0.0719014h 0.826356l 0.825944, -0.970669l 0.826356, -0.0359507l 0.826356, -0.0719014l 0.826356, -0.0719014l 0.826356,
 -0.934718l 0.825944, 1.20435l 0.826356, 0.143803l 0.826356, 0.808891l 0.826356, 0.575211l 0.826356, -0.808891l 0.825944, 1.18637l 0.826356, -3.82875l 0.826356, 0.916743l 0.826356, 1.99526l 0.826356, 0.647113l 0.825944, -1.79754l 0.826356, 0.575211l
 0.826356, -0.557236l 0.826356, 0.485335l 0.826356, -0.23368l 0.825944, -0.0719014l 0.826356, -1.1684l 0.826356, 2.10312l 0.826356, -1.15042l 0.826356, -0.323556l 0.826356, 0.23368l 0.825944, 0.701039l 0.826356, 0.880792l 0.826356, -2.39072l
 0.826356, -0.377482l 0.826356, 1.72563l 0.825944, 0.287606l 0.826356, -1.33018l 0.826356, -0.521285l 0.826356, 1.42005l 0.826356, -0.125827l 0.825944, -1.54588l 0.826356, 0.880792l 0.826356, 1.456l 0.826356, -2.10312l 0.826356, 1.20435l 0.825944,
 0.77294l 0.826356, -2.80416l 0.826356, -0.0179754l 0.826356, 2.67833l 0.826356, -2.60643l 0.825944, 1.99526l 0.826356, -0.826866l 0.826356, 0.215704l 0.826356, -0.719014l 0.826356, -1.65373l 0.826356, 0.665088l 0.825944, 2.08514l 0.826356, -1.99526l
 0.826356, 1.2403l 0.826356, 0.790916l 0.826356, -0.701039l 0.825944, -1.36613l 0.826356, 0.665088l 0.826356, -0.826866l 0.826356, -0.808891l 0.826356, 0.575211l 0.825944, -0.575211l 0.826356, -1.13245l 0.826356, 3.34342l 0.826356, -0.539261l
 0.826356, 0.359507l 0.825944, -4.26016l 0.826356, 2.51655l 0.826356, 0.431408l 0.826356, 1.22232l 0.826356, -0.359507l 0.825944, -5.91389l 0.826356, 4.83537l 0.826356, -3.7928l 0.826356, 3.18164l 0.826356, 0.790916l 0.826356, -1.29423l 0.825944,
 1.54588l 0.826356, -0.395458l 0.826356, 1.11447l 0.826356, -1.47398l 0.826356, 0.323556l 0.825944, 1.22232l 0.826356, 0.161778l 0.826356, -0.521285l 0.826356, -4.97917l 0.826356, 1.13245l 0.825944, 4.24218l 0.826356, -0.359507l 0.826356, -1.99526l
 0.826356, 0.557236l 0.826356, -2.26489l 0.825944, 3.16366l 0.826356, -1.0246l 0.826356, -0.413433l 0.826356, -0.719014l 0.826356, 2.10312l 0.825944, -1.58183l 0.826356, 1.27625l 0.826356, -0.23368l 0.826356, -0.431408l 0.826356, 1.20435l 0.826356,
 -0.377482l 0.825944, -0.790916l 0.826356, 0.377482l 0.826356, -0.0179754l 0.826356, -0.377482l 0.826356, -0.395458l 0.825944, 0.0179754l 0.826356, -1.49195l 0.826356, 0.26963l 0.826356, 0.557236l 0.826356, 0.916743l 0.825944, -1.79754l 0.826356,
 1.95931l 0.826356, -0.593187l 0.826356, -1.90539l 0.826356, 0.665088l 0.825944, 0.107852l 0.826356, 0.701039l 0.826356, 0.647113l 0.826356, -1.04257l 0.826356, 0.539261l 0.825944, -0.305581l 0.826356, -1.99526l 0.826356, 0.431408l 0.826356, 1.3841l
 0.826356, -3.14569l 0.826356, 3.73887l 0.825944, -0.323556l 0.826356, 0.431408l 0.826356, -0.934718l 0.826356, -0.0539261l 0.826356, 0.467359l 0.825944, 0.251655l 0.826356, -3.55912l 0.826356, 3.30747l 0.826356, -2.06717l 0.826356, 1.70766l
 0.825944, -0.970669l 0.826356, -0.251655l 0.826356, -3.01986l 0.826356, 4.18826l 0.826356, -0.359507l 0.825944, 0.629137l 0.826356, -3.73887l 0.826356, 0.197729l 0.826356, 3.12771l 0.826356, -2.28287l 0.825944, 1.92336l 0.826356, 0.143803l 0.826356,
 -1.65373l 0.826356, 1.456l 0.826356, -2.60643l 0.826356, 2.85808l 0.825944, -0.665088l 0.826356, -0.341532l 0.826356, 0.916743l 0.826356, -0.143803l 0.826356, -2.6244l 0.825944, 1.456l 0.826356, 1.29423l 0.826356, -1.13245l 0.826356, -0.23368l
 0.826356, -0.323556l 0.825944, 0.0898768l 0.826356, 1.20435l 0.826356, -0.736989l 0.826356, -0.988644l 0.826356, -0.143803l 0.825944, 1.70766l 0.826356, -0.161778l 0.826356, -1.1684l 0.826356, 1.04257l 0.826356, -0.143803l 0.825944, -0.26963l
 0.826356, 0.719014l 0.826356, -0.77294l 0.826356, -0.611162l 0.826356, -0.665088l 0.826356, -1.54588l 0.825944, 2.06717l 0.826356, 0.808891l 0.826356, -1.456l 0.826356, 1.36613l 0.826356, -1.13245l 0.825944, 1.04257l 0.826356, -1.25827l 0.826356,
 0.521285l 0.826356, 1.456l 0.826356, -1.27625l 0.825944, -0.790916l 0.826356, 1.25827l 0.826356, -2.60643l 0.826356, 1.33018l 0.826356, 0.611162l 0.825944, -2.19299l 0.826356, 1.07852l 0.826356, 1.74361l 0.826356, -0.413433l 0.826356, 0.23368l
 0.825944, -0.754965l 0.826356, -1.13245l 0.826356, 1.27625l 0.826356, -0.575211l 0.826356, 0.611162l 0.826356, -0.916743l 0.825944, 0.611162l 0.826356, 0.467359l 0.826356, -2.26489l 0.826356, -2.44465l 0.826356, 3.99053l 0.825944, 0.0719014l
 0.826356, -2.60643l 0.826356, 3.19961l 0.826356, -3.23556l 0.826356, 1.33018l 0.825944, 0.323556l 0.826356, 0.26963l 0.826356, -5.21285l 0.826356, 4.92525l 0.826356, -0.179754l 0.825944, -1.06055l 0.826356, 1.20435l 0.826356, -1.81551l 0.826356,
 1.20435l 0.826356, -1.56386l 0.825944, 1.68968l 0.826356, -0.161778l 0.826356, 0.880792l 0.826356, -3.41532l 0.826356, -0.215704l 0.826356, 0.970669l 0.825944, 1.68968l 0.826356, -0.701039l 0.826356, -1.27625l 0.826356, 2.37275l 0.826356, -2.15704l
 0.825944, 0.934718l 0.826356, 0.0179754l 0.826356, -0.77294l 0.826356, -2.08514l 0.826356, 1.34815l 0.825944, 2.3368l 0.826356, -1.0965l 0.826356, -0.431408l 0.826356, -1.42005l 0.826356, 1.79754l 0.825944, -1.65373l 0.826356, 2.39072l 0.826356,
 -2.31882l 0.826356, 1.85146l 0.826356, 0.26963l 0.825944, -2.01324l 0.826356, 1.11447l 0.826356, -0.754965l 0.826356, 0.952694l 0.826356, -1.52791l 0.826356, -1.07852l 0.825944, 2.96593l 0.826356, -1.97729l 0.826356, 1.79754l 0.826356, -0.736989l
 0.826356, 0.359507l 0.825944, -1.79754l 0.826356, 1.79754l 0.826356, -0.934718l 0.826356, 0.934718l 0.826356, -1.04257l 0.825944, -1.34815l 0.826356, 1.61778l 0.826356, -1.50993l 0.826356, 1.97729l 0.826356, -0.395458l 0.825944, -0.593187l 0.826356,
 0.629137l 0.826356, -2.15704l 0.826356, 2.60643l 0.826356, -2.19299l 0.825944, -0.557236l 0.826356, 0.0359507l 0.826356, 1.18637l 0.826356, 0.557236l 0.826356, 0.107852l 0.826356, -2.4806l 0.825944, -0.611162l 0.826356, 2.73225l 0.826356, -1.56386l
 0.826356, 1.56386l 0.826356, -1.34815l 0.825944, 1.07852l 0.826356, -2.01324l 0.826356, 1.29423l 0.826356, -2.73225l 0.826356, 3.25354l 0.825944, -0.593187l 0.826356, 0.826866l 0.826356, -1.67171l 0.826356, -1.06055l 0.826356, 0.107852l 0.825944,
 0.107852l 0.826356, -0.719014l 0.826356, 1.77956l 0.826356, 0.0179754l 0.826356, 1.61778l 0.825944, -3.16366l 0.826356, 2.78618l 0.826356, -5.80604l 0.826356, 4.20623l 0.826356, 1.20435l 0.826356, -2.30085l 0.825944, 0.305581l 0.826356, 1.68968l
 0.826356, -3.97255l 0.826356, 2.80416l 0.826356, -1.11447l 0.825944, 0.215704l 0.826356, -2.58845l 0.826356, 3.73887l 0.826356, -1.50993l 0.826356, -0.179754l 0.825944, 1.92336l 0.826356, -1.52791l 0.826356, -2.26489l 0.826356, 2.53452l 0.826356,
 0.629137l 0.825944, 1.0965l 0.826356, -0.485335l 0.826356, -1.56386l 0.826356, -0.808891l 0.826356, -0.665088l 0.825944, 1.79754l 0.826356, 0.50331l 0.826356, -0.305581l 0.826356, 0.754965l 0.826356, -0.575211l 0.826356, 0.862817l 0.825944,
 -2.60643l 0.826356, 2.35477l 0.826356, -1.3841l 0.826356, -0.916743l 0.826356, 1.1684l 0.825944, -2.01324l 0.826356, 1.72563l 0.826356, -0.736989l 0.826356, -0.0719014l 0.826356, -1.11447l 0.825944, 1.54588l 0.826356, -2.96593l 0.826356, 3.50519l
 0.826356, -2.24692l 0.826356, 2.82213l 0.825944, -2.82213l 0.826356, 0.125827l 0.826356, 0.107852l 0.826356, 1.56386l 0.826356, 0.701039l 0.825944, -1.0246l 0.826356, -2.26489l 0.826356, 0.988644l 0.826356, -0.0898768l 0.826356, 0.26963l 0.826356,
 -1.72563l 0.825944, 1.59981l 0.826356, -0.880792l 0.826356, -0.467359l 0.826356, -2.66035l 0.826356, 2.28287l 0.825944, 0.287606l 0.826356, -0.575211l 0.826356, -0.485335l 0.826356, 2.96593l 0.826356, -1.67171l 0.825944, 2.53452l 0.826356, -1.25827l
 0.826356, 0.647113l 0.826356, -1.13245l 0.826356, 1.49195l 0.825944, -0.77294l 0.826356, -2.66035l 0.826356, 3.84673l 0.826356, -4.87132l 0.826356, 4.0085l 0.825944, -0.77294l 0.826356, -1.81551l 0.826356, 0.305581l 0.826356, 1.77956l 0.826356,
 0.593187l 0.826356, -2.19299l 0.825944, -0.790916l 0.826356, -0.593187l 0.826356, 1.59981l 0.826356, 0.736989l 0.826356, 0.790916l 0.825944, -1.34815l 0.826356, -0.539261l 0.826356, 1.11447l 0.826356, -2.92998l 0.826356, 1.92336l 0.825944, 0.125827l
 0.826356, 0.50331l 0.826356, 0.77294l 0.826356, -1.90539l 0.826356, 0.23368l 0.825944, -1.36613l 0.826356, 1.70766l 0.826356, -1.0965l 0.826356, -0.557236l 0.826356, 0.0539261l 0.825944, 2.17502l 0.826356, -2.4806l 0.826356, 1.27625l 0.826356,
 -0.575211l 0.826356, -2.19299l 0.826356, 3.18164l 0.825944, 0.862817l 0.826356, -1.58183l 0.826356, 0.952694l 0.826356, -0.485335l 0.826356, 0.161778l 0.825944, -1.11447l 0.826356, -0.161778l 0.826356, -0.719014l 0.826356, 0.161778l 0.826356,
 -0.215704l 0.825944, 1.0246l 0.826356, -1.06055l 0.826356, 1.1684l 0.826356, -2.57048l 0.826356, 2.89403l 0.825944, -1.85146l 0.826356, -0.754965l 0.826356, 3.09176l 0.826356, -4.81739l 0.826356, 4.15231l 0.825944, -0.179754l 0.826356, -1.88741l
 0.826356, -0.251655l 0.826356, 0.593187l 0.826356, 0.449384l 0.826356, 0.701039l 0.825944, -1.97729l 0.826356, 1.36613l 0.826356, 1.36613l 0.826356, -1.49195l 0.826356, 0.647113l 0.825944, -3.19961l 0.826356, 1.58183l 0.826356, 0.880792l 0.826356,
 -0.521285l 0.826356, 1.27625l 0.825944, -0.251655l 0.826356, -0.665088l 0.826356, -2.19299l 0.826356, 2.46262l 0.826356, 0.77294l 0.825944, -0.629137l 0.826356, -0.50331l 0.826356, 0.179754l 0.826356, -0.50331l 0.826356, 0.844842l 0.825944,
 -4.02648l 0.826356, 3.07379l 0.826356, 1.58183l 0.826356, -3.649l 0.826356, 1.90539l 0.826356, 0.50331" fill="none" stroke="#0000ff"/>
<rect x="85.5394" y="52.6163" width="170.079" height="70.1551" fill="white"/>
<path d="M85.5394,122.771h 170.079" fill="none" stroke="black"/>
<path d="M255.618,122.771v -70.1551" fill="none" stroke="black"/>
<path d="M255.618,52.6163h -170.079" fill="none" stroke="black"/>
<path d="M85.5394,52.6163v 70.1551" fill="none" stroke="black"/>
<text xml:space="preserve" x="145.55" y="64.9409" fill="black" font-size="13.5464" font-family="Helvetica">algorithm</text>
<text xml:space="preserve" x="128.012" y="82.4797" fill="black" font-size="13.5464" font-family="Helvetica">heap sort</text>
<path d="M91.9173,85.0631h 29.7638v -12.2771h -29.7638z" fill="white"/>
<path d="M91.9173,78.9245h 29.7638" fill="none" stroke="#00ff00"/>
<g stroke="black" stroke-width="1" fill="none">
<line x1="105.799" y1="78.9245" x2="106.799" y2="78.9245"/>
</g>
<text xml:space="preserve" x="128.012" y="100.018" fill="black" font-size="13.5464" font-family="Helvetica">shell sort</text>
<path d="M91.9173,102.602h 29.7638v -12.2771h -29.7638z" fill="white"/>
<path d="M91.9173,96.4633h 29.7638" fill="none" stroke="#ff0000"/>
<g stroke="black" stroke-width="1" fill="none">
<line x1="105.799" y1="96.4633" x2="106.799" y2="96.4633"/>
</g>
<text xml:space="preserve" x="128.012" y="117.557" fill="black" font-size="13.5464" font-family="Helvetica">parallel quicksort</text>
<path d="M91.9173,120.141h 29.7638v -12.2771h -29.7638z" fill="white"/>
<path d="M91.9173,114.002h 29.7638" fill="none" stroke="#0000ff"/>
<g stroke="black" stroke-width="1" fill="none">
<line x1="105.799" y1="114.002" x2="106.799" y2="114.002"/>
</g>
<text xml:space="preserve" x="194.375" y="17.0648" fill="black" font-size="17.356" font-family="Helvetica">Sort Benchmark T=long</text></svg>
