<?xml version="1.0" standalone="no"?>
<svg width="567.429" height="351.276" viewBox="0 0 567.429 351.276" xmlns="http://www.w3.org/2000/svg" shape-rendering="crispEdges">
<title>
root_canvas_char.svg
</title>
<desc>
Creator: ROOT Version 6.18/04
CreationDate: Thu Jun 25 17:18:39 2020</desc>
<defs>
</defs>
<rect x="0.5" y="0" width="566.929" height="350.776" fill="white"/>
<rect x="57.1929" y="35.0776" width="453.543" height="280.62" fill="white"/>
<rect x="57.1929" y="35.0776" width="453.543" height="280.62" fill="none" stroke="black"/>
<rect x="57.1929" y="35.0776" width="453.543" height="280.62" fill="white"/>
<rect x="57.1929" y="35.0776" width="453.543" height="280.62" fill="none" stroke="black"/>
<path d="M57.1929,315.698h 453.543" fill="none" stroke="black"/>
<path d="M77.7673,307.279v 8.41861" fill="none" stroke="black"/>
<path d="M98.3849,311.489v 4.20931" fill="none" stroke="black"/>
<path d="M119.003,311.489v 4.20931" fill="none" stroke="black"/>
<path d="M139.62,311.489v 4.20931" fill="none" stroke="black"/>
<path d="M160.238,307.279v 8.41861" fill="none" stroke="black"/>
<path d="M180.856,311.489v 4.20931" fill="none" stroke="black"/>
<path d="M201.473,311.489v 4.20931" fill="none" stroke="black"/>
<path d="M222.091,311.489v 4.20931" fill="none" stroke="black"/>
<path d="M242.709,307.279v 8.41861" fill="none" stroke="black"/>
<path d="M263.326,311.489v 4.20931" fill="none" stroke="black"/>
<path d="M283.944,311.489v 4.20931" fill="none" stroke="black"/>
<path d="M304.562,311.489v 4.20931" fill="none" stroke="black"/>
<path d="M325.179,307.279v 8.41861" fill="none" stroke="black"/>
<path d="M345.797,311.489v 4.20931" fill="none" stroke="black"/>
<path d="M366.415,311.489v 4.20931" fill="none" stroke="black"/>
<path d="M387.032,311.489v 4.20931" fill="none" stroke="black"/>
<path d="M407.65,307.279v 8.41861" fill="none" stroke="black"/>
<path d="M428.268,311.489v 4.20931" fill="none" stroke="black"/>
<path d="M448.885,311.489v 4.20931" fill="none" stroke="black"/>
<path d="M469.503,311.489v 4.20931" fill="none" stroke="black"/>
<path d="M490.121,307.279v 8.41861" fill="none" stroke="black"/>
<path d="M77.7673,307.279v 8.41861" fill="none" stroke="black"/>
<path d="M490.121,307.279v 8.41861" fill="none" stroke="black"/>
<text xml:space="preserve" x="74.4473" y="327.075" fill="black" font-size="11.7634" font-family="Helvetica">0</text>
<text xml:space="preserve" x="150.291" y="327.075" fill="black" font-size="11.7634" font-family="Helvetica">200</text>
<text xml:space="preserve" x="232.77" y="327.075" fill="black" font-size="11.7634" font-family="Helvetica">400</text>
<text xml:space="preserve" x="315.25" y="327.075" fill="black" font-size="11.7634" font-family="Helvetica">600</text>
<text xml:space="preserve" x="397.73" y="327.075" fill="black" font-size="11.7634" font-family="Helvetica">800</text>
<text xml:space="preserve" x="476.891" y="327.075" fill="black" font-size="11.7634" font-family="Helvetica">1000</text>
<text xml:space="preserve" x="530.93" y="310.01" fill="black" font-size="8.00896" font-family="Helvetica">3</text>
<text xml:space="preserve" x="518.605" y="315.698" fill="black" font-size="11.7634" font-family="Helvetica">10</text>
<text xml:space="preserve" x="512.443" y="315.698" fill="black" font-size="11.7634" font-family="Times">&#0215;</text>
<text xml:space="preserve" x="439.917" y="338.451" fill="black" font-size="11.7634" font-family="Helvetica"> X number (N)</text>
<path d="M57.1929,315.698v -280.62" fill="none" stroke="black"/>
<path d="M70.7992,315.698h -13.6063" fill="none" stroke="black"/>
<path d="M63.9961,309.907h -6.80315" fill="none" stroke="black"/>
<path d="M63.9961,304.117h -6.80315" fill="none" stroke="black"/>
<path d="M63.9961,298.326h -6.80315" fill="none" stroke="black"/>
<path d="M70.7992,292.536h -13.6063" fill="none" stroke="black"/>
<path d="M63.9961,286.745h -6.80315" fill="none" stroke="black"/>
<path d="M63.9961,280.955h -6.80315" fill="none" stroke="black"/>
<path d="M63.9961,275.164h -6.80315" fill="none" stroke="black"/>
<path d="M70.7992,269.373h -13.6063" fill="none" stroke="black"/>
<path d="M63.9961,263.583h -6.80315" fill="none" stroke="black"/>
<path d="M63.9961,257.792h -6.80315" fill="none" stroke="black"/>
<path d="M63.9961,252.002h -6.80315" fill="none" stroke="black"/>
<path d="M70.7992,246.211h -13.6063" fill="none" stroke="black"/>
<path d="M63.9961,240.421h -6.80315" fill="none" stroke="black"/>
<path d="M63.9961,234.63h -6.80315" fill="none" stroke="black"/>
<path d="M63.9961,228.839h -6.80315" fill="none" stroke="black"/>
<path d="M70.7992,223.049h -13.6063" fill="none" stroke="black"/>
<path d="M63.9961,217.258h -6.80315" fill="none" stroke="black"/>
<path d="M63.9961,211.468h -6.80315" fill="none" stroke="black"/>
<path d="M63.9961,205.677h -6.80315" fill="none" stroke="black"/>
<path d="M70.7992,199.887h -13.6063" fill="none" stroke="black"/>
<path d="M63.9961,194.096h -6.80315" fill="none" stroke="black"/>
<path d="M63.9961,188.305h -6.80315" fill="none" stroke="black"/>
<path d="M63.9961,182.515h -6.80315" fill="none" stroke="black"/>
<path d="M70.7992,176.724h -13.6063" fill="none" stroke="black"/>
<path d="M63.9961,170.934h -6.80315" fill="none" stroke="black"/>
<path d="M63.9961,165.143h -6.80315" fill="none" stroke="black"/>
<path d="M63.9961,159.353h -6.80315" fill="none" stroke="black"/>
<path d="M70.7992,153.562h -13.6063" fill="none" stroke="black"/>
<path d="M63.9961,147.771h -6.80315" fill="none" stroke="black"/>
<path d="M63.9961,141.981h -6.80315" fill="none" stroke="black"/>
<path d="M63.9961,136.19h -6.80315" fill="none" stroke="black"/>
<path d="M70.7992,130.4h -13.6063" fill="none" stroke="black"/>
<path d="M63.9961,124.609h -6.80315" fill="none" stroke="black"/>
<path d="M63.9961,118.819h -6.80315" fill="none" stroke="black"/>
<path d="M63.9961,113.028h -6.80315" fill="none" stroke="black"/>
<path d="M70.7992,107.237h -13.6063" fill="none" stroke="black"/>
<path d="M63.9961,101.447h -6.80315" fill="none" stroke="black"/>
<path d="M63.9961,95.6562h -6.80315" fill="none" stroke="black"/>
<path d="M63.9961,89.8656h -6.80315" fill="none" stroke="black"/>
<path d="M70.7992,84.0751h -13.6063" fill="none" stroke="black"/>
<path d="M63.9961,78.2845h -6.80315" fill="none" stroke="black"/>
<path d="M63.9961,72.4939h -6.80315" fill="none" stroke="black"/>
<path d="M63.9961,66.7034h -6.80315" fill="none" stroke="black"/>
<path d="M70.7992,60.9128h -13.6063" fill="none" stroke="black"/>
<path d="M63.9961,55.1222h -6.80315" fill="none" stroke="black"/>
<path d="M63.9961,49.3316h -6.80315" fill="none" stroke="black"/>
<path d="M63.9961,43.5411h -6.80315" fill="none" stroke="black"/>
<path d="M70.7992,37.7505h -13.6063" fill="none" stroke="black"/>
<path d="M70.7992,37.7505h -13.6063" fill="none" stroke="black"/>
<text xml:space="preserve" x="47.9021" y="319.964" fill="black" font-size="11.7634" font-family="Helvetica">0</text>
<text xml:space="preserve" x="41.7398" y="296.737" fill="black" font-size="11.7634" font-family="Helvetica">20</text>
<text xml:space="preserve" x="41.7398" y="273.51" fill="black" font-size="11.7634" font-family="Helvetica">40</text>
<text xml:space="preserve" x="41.7398" y="250.283" fill="black" font-size="11.7634" font-family="Helvetica">60</text>
<text xml:space="preserve" x="41.7398" y="227.056" fill="black" font-size="11.7634" font-family="Helvetica">80</text>
<text xml:space="preserve" x="35.5776" y="203.829" fill="black" font-size="11.7634" font-family="Helvetica">100</text>
<text xml:space="preserve" x="35.5776" y="180.602" fill="black" font-size="11.7634" font-family="Helvetica">120</text>
<text xml:space="preserve" x="35.5776" y="157.375" fill="black" font-size="11.7634" font-family="Helvetica">140</text>
<text xml:space="preserve" x="35.5776" y="134.622" fill="black" font-size="11.7634" font-family="Helvetica">160</text>
<text xml:space="preserve" x="35.5776" y="111.395" fill="black" font-size="11.7634" font-family="Helvetica">180</text>
<text xml:space="preserve" x="35.5776" y="88.1679" fill="black" font-size="11.7634" font-family="Helvetica">200</text>
<text xml:space="preserve" x="35.5776" y="64.9409" fill="black" font-size="11.7634" font-family="Helvetica">220</text>
<text xml:space="preserve" x="35.5776" y="41.7139" fill="black" font-size="11.7634" font-family="Helvetica">240</text>
<g transform="rotate(-90,21.3569,95.7523)">
<text xml:space="preserve" x="21.3569" y="95.7523" fill="black" font-size="11.7634" font-family="Helvetica"> Y time (ms)</text>
</g>
<path d="M77.8085,315.698l 0.825944, -0.138974l 0.826356, -0.150555l 0.826356, -0.162136l 0.826356, -0.162136l 0.826356, -0.486408l 0.825944, 0.150555l 0.826356, -0.173717l 0.826356, -0.138974l 0.826356, -0.196879l 0.826356, -0.138974l 0.825944,
 -0.208461l 0.826356, -0.393759l 0.826356, 0.0463246l 0.826356, -0.277948l 0.826356, -0.138974l 0.825944, -0.173717l 0.826356, -0.185298l 0.826356, -0.162136l 0.826356, -0.208461l 0.826356, -0.173717l 0.825944, -0.162136l 0.826356, -0.220042l
 0.826356, -0.150555l 0.826356, -0.220042l 0.826356, -0.150555l 0.825944, -0.162136l 0.826356, -0.220042l 0.826356, -0.185298l 0.826356, -0.127393l 0.826356, -0.463246l 0.826356, -0.521152l 0.825944, 0.324272l 0.826356, -0.30111l 0.826356,
 -0.0115811l 0.826356, -0.335853l 0.826356, -0.544314l 0.825944, 0.382178l 0.826356, -0.277948l 0.826356, -0.891748l 0.826356, 0.613801l 0.826356, -0.40534l 0.825944, -0.0347434l 0.826356, -0.590638l 0.826356, 0.220042l 0.826356, -0.451665l 0.826356,
 0.115811l 0.825944, -0.497989l 0.826356, 0.196879l 0.826356, -0.857005l 0.826356, 0.497989l 0.826356, -1.23918l 0.825944, 0.544314l 0.826356, 0.138974l 0.826356, -0.289529l 0.826356, -0.544314l 0.826356, -0.127393l 0.826356, 0.243204l 0.825944,
 -0.220042l 0.826356, -0.764356l 0.826356, -0.671706l 0.826356, 0.497989h 0.826356l 0.825944, -0.393759l 0.826356, -0.0347434l 0.826356, -0.115811l 0.826356, -0.150555l 0.826356, -0.845424l 0.825944, 0.30111l 0.826356, -0.30111l 0.826356, -0.0694869l
 0.826356, -0.382178l 0.826356, 0.60222l 0.825944, -0.857005l 0.826356, -0.0115811l 0.826356, 0.081068l 0.826356, -0.891748l 0.826356, 0.138974l 0.825944, -0.521152l 0.826356, -0.0231623l 0.826356, -0.30111l 0.826356, 0.162136l 0.826356, -0.845424l
 0.826356, 0.694869l 0.825944, -0.428502l 0.826356, -0.335853l 0.826356, -1.60978l 0.826356, 1.38974l 0.826356, 0.0463246l 0.825944, -0.914911l 0.826356, 0.150555l 0.826356, -0.0463246l 0.826356, -0.0926492l 0.826356, 0.150555l 0.825944, 0.138974l
 0.826356, -0.0231623l 0.826356, -1.8414l 0.826356, -0.150555l 0.826356, 0.497989l 0.825944, -0.150555l 0.826356, -0.266366l 0.826356, -0.532733l 0.826356, 0.150555l 0.826356, 0.497989l 0.825944, -0.567476l 0.826356, -0.370597l 0.826356, -1.20444l
 0.826356, 1.37816l 0.826356, -0.660125l 0.826356, -0.393759l 0.825944, 0.683288l 0.826356, -1.33183l 0.826356, 0.50957l 0.826356, 0.30111l 0.826356, -1.0423l 0.825944, 0.382178l 0.826356, -0.775937l 0.826356, 0.127393l 0.826356, 0.416921l 0.826356,
 -1.15811l 0.825944, 0.764356l 0.826356, -0.880167l 0.826356, 0.416921l 0.826356, -1.77192l 0.826356, 0.162136l 0.825944, -0.0926492l 0.826356, 0.081068l 0.826356, 0.40534l 0.826356, 0.266366l 0.826356, -1.19286l 0.825944, -0.127393l 0.826356,
 -0.764356l 0.826356, -0.0231623l 0.826356, 0.289529l 0.826356, -0.289529l 0.826356, -2.10777l 0.825944, 1.99196l 0.826356, 0.0231623l 0.826356, -0.521152l 0.826356, -0.857005l 0.826356, 0.579057l 0.825944, -0.428502l 0.826356, -0.196879l 0.826356,
 0.196879l 0.826356, -1.70243l 0.826356, 0.961235l 0.825944, -0.10423l 0.826356, 0.243204l 0.826356, -0.115811l 0.826356, -1.38974l 0.826356, 0.903329l 0.825944, -0.127393l 0.826356, -1.11179l 0.826356, 0.613801l 0.826356, -0.324272l 0.826356,
 -0.382178l 0.825944, 0.787518l 0.826356, -0.729612l 0.826356, -0.822261l 0.826356, -0.428502l 0.826356, 1.0423l 0.826356, -0.115811l 0.825944, 0.173717l 0.826356, -0.416921l 0.826356, 0.220042l 0.826356, -0.961235l 0.826356, -0.138974l 0.825944,
 -0.891748l 0.826356, 0.440084l 0.826356, -0.938073l 0.826356, -0.173717l 0.826356, 0.880167l 0.825944, -0.150555l 0.826356, -0.660125l 0.826356, 0.115811l 0.826356, -0.324272l 0.826356, -0.243204l 0.825944, 0.370597l 0.826356, -1.62136l 0.826356,
 0.359016l 0.826356, 0.150555l 0.826356, -0.60222l 0.825944, 0.416921l 0.826356, 0.0463246l 0.826356, -0.521152l 0.826356, 0.0115811l 0.826356, -0.660125l 0.826356, -0.0926492l 0.825944, -0.451665l 0.826356, 0.185298l 0.826356, 0.081068l 0.826356,
 0.30111l 0.826356, -0.718031l 0.825944, -0.254785l 0.826356, -0.196879l 0.826356, -0.463246l 0.826356, -0.266366l 0.826356, 1.07705l 0.825944, -0.474827l 0.826356, -1.19286l 0.826356, 0.995979l 0.826356, -0.40534l 0.826356, -0.243204l 0.825944,
 -0.393759l 0.826356, -0.463246l 0.826356, 0.312691l 0.826356, -0.995979l 0.826356, 1.06547l 0.825944, 0.0926492l 0.826356, -1.47081l 0.826356, 0.451665l 0.826356, 0.266366l 0.826356, -0.324272l 0.826356, -1.62136l 0.825944, 0.579057l 0.826356,
 -0.636963l 0.826356, 0.972816l 0.826356, -0.613801l 0.826356, 0.30111l 0.825944, -0.428502l 0.826356, -0.0579057l 0.826356, -1.1697l 0.826356, 0.787518l 0.826356, -0.938073l 0.825944, 0.0463246l 0.826356, 0.567476l 0.826356, -0.891748l 0.826356,
 -0.625382l 0.826356, -0.115811l 0.825944, 0.984397l 0.826356, -0.914911l 0.826356, 0.185298l 0.826356, -0.891748l 0.826356, 0.254785l 0.825944, -0.532733l 0.826356, 0.0579057l 0.826356, -0.254785l 0.826356, -1.0423l 0.826356, 1.0423l 0.826356,
 -0.115811l 0.825944, -0.463246l 0.826356, 0.254785l 0.826356, -0.60222l 0.826356, 0.474827l 0.826356, -0.266366l 0.825944, -0.868586l 0.826356, -0.880167l 0.826356, 0.845424l 0.826356, 0.0231623l 0.826356, -0.613801l 0.825944, -1.11179l 0.826356,
 1.03072l 0.826356, -0.463246l 0.826356, -0.463246l 0.826356, 1.0423l 0.825944, -0.914911l 0.826356, -0.138974l 0.826356, -0.60222l 0.826356, -0.694869l 0.826356, 0.741193l 0.825944, -1.01914l 0.826356, 0.636963l 0.826356, -0.277948l 0.826356,
 -0.30111l 0.826356, -0.196879l 0.826356, 0.833843l 0.825944, -0.590638l 0.826356, -0.127393l 0.826356, -0.0231623l 0.826356, -1.05388l 0.826356, -0.30111l 0.825944, -0.0347434l 0.826356, 1.11179l 0.826356, -1.5982l 0.826356, 0.474827l 0.826356,
 0.729612l 0.825944, -1.11179l 0.826356, -0.359016l 0.826356, 0.880167l 0.826356, -1.71401l 0.826356, 0.428502l 0.825944, 0.775937l 0.826356, -1.30867l 0.826356, 0.266366l 0.826356, -0.555895l 0.826356, -0.289529l 0.825944, 0.0231623l 0.826356,
 -0.625382l 0.826356, -0.463246l 0.826356, 1.8414l 0.826356, -1.20444l 0.826356, -0.0347434l 0.825944, -0.127393l 0.826356, -1.11179l 0.826356, 0.694869l 0.826356, -0.590638l 0.826356, -0.926492l 0.825944, -2.08461l 0.826356, 3.30063l 0.826356,
 -3.0111l 0.826356, 0.277948l 0.826356, 1.7835l 0.825944, -0.972816l 0.826356, -0.0579057l 0.826356, -0.382178l 0.826356, 0.60222l 0.826356, -0.903329l 0.825944, -1.58662l 0.826356, 1.5982l 0.826356, -0.822261l 0.826356, 1.05388l 0.826356,
 -0.0694869l 0.825944, -0.949654l 0.826356, -0.636963l 0.826356, 0.486408l 0.826356, -0.0231623l 0.826356, -1.74875l 0.826356, 0.243204l 0.825944, -0.752775l 0.826356, 0.926492l 0.826356, 0.138974l 0.826356, -0.324272l 0.826356, 0.196879l 0.825944,
 -0.729612l 0.826356, -0.208461l 0.826356, -1.23918l 0.826356, 0.30111l 0.826356, 0.590638l 0.825944, -0.613801l 0.826356, -0.208461l 0.826356, 0.382178l 0.826356, 0.833843l 0.826356, -2.46678l 0.825944, 0.729612l 0.826356, -0.382178l 0.826356,
 0.115811l 0.826356, -1.42448l 0.826356, 1.29709l 0.825944, -0.694869l 0.826356, -1.49397l 0.826356, 0.463246l 0.826356, -0.984397l 0.826356, 1.77192l 0.826356, -0.173717l 0.825944, -1.29709l 0.826356, 1.13495l 0.826356, -1.79508l 0.826356, 0.416921l
 0.826356, 0.370597l 0.825944, -1.07705l 0.826356, -2.25832l 0.826356, 3.69439l 0.826356, -0.521152l 0.826356, -1.20444l 0.825944, 0.50957l 0.826356, 0.220042l 0.826356, -0.451665l 0.826356, -0.972816l 0.826356, -1.86456l 0.825944, 0.173717l
 0.826356, -0.579057l 0.826356, 1.44764l 0.826356, -0.521152l 0.826356, -0.497989l 0.825944, -0.347434l 0.826356, 0.972816l 0.826356, -2.68683l 0.826356, 1.18128l 0.826356, 0.162136l 0.826356, 0.660125l 0.825944, -0.857005l 0.826356, 0.891748l
 0.826356, -2.24674l 0.826356, 1.08863l 0.826356, -0.857005l 0.825944, 2.14251l 0.826356, -3.13849l 0.826356, 2.65208l 0.826356, -0.243204l 0.826356, 0.138974l 0.825944, -1.73717l 0.826356, 1.18128l 0.826356, -1.07705l 0.826356, 0.0694869l 0.826356,
 -2.07303l 0.825944, 1.45922l 0.826356, -1.42448l 0.826356, 0.903329l 0.826356, -1.34341l 0.826356, 0.451665l 0.825944, 1.50555l 0.826356, -3.33537l 0.826356, 1.14653l 0.826356, -0.683288l 0.826356, 1.7835l 0.826356, -2.95319l 0.825944, 1.71401l
 0.826356, 0.474827l 0.826356, -1.20444l 0.826356, 1.21602l 0.826356, -3.05742l 0.825944, 2.18884l 0.826356, -1.20444l 0.826356, -1.64452l 0.826356, 1.88773l 0.826356, 0.451665l 0.825944, -0.50957l 0.826356, -2.67524l 0.826356, 1.45922l 0.826356,
 -1.56345l 0.826356, -1.32025l 0.825944, 2.48995l 0.826356, -2.59418l 0.826356, 2.94161l 0.826356, -1.64452l 0.826356, 1.28551l 0.825944, -1.07705l 0.826356, -1.4129l 0.826356, -0.671706l 0.826356, 2.11935l 0.826356, -1.66769l 0.826356, 1.33183l
 0.825944, -1.30867l 0.826356, 0.81068l 0.826356, 0.683288l 0.826356, -1.72559l 0.826356, 0.393759l 0.825944, -1.11179l 0.826356, -0.463246l 0.826356, 1.8414l 0.826356, -0.891748l 0.826356, -2.77948l 0.825944, 1.8414l 0.826356, -0.231623l 0.826356,
 -1.2276l 0.826356, 0.70645l 0.826356, -2.47837l 0.825944, 0.660125l 0.826356, 0.775937l 0.826356, -0.590638l 0.826356, -2.55943l 0.826356, 2.80264l 0.825944, -1.0423l 0.826356, 1.06547l 0.826356, -1.69085l 0.826356, -2.31623l 0.826356, 2.28149l
 0.826356, 0.984397l 0.825944, -4.31977l 0.826356, 3.32379l 0.826356, 0.683288l 0.826356, -3.23114l 0.826356, 1.12337l 0.825944, 2.20042l 0.826356, -3.26588l 0.826356, 1.60978l 0.826356, 1.25076l 0.826356, -1.42448l 0.825944, -1.71401l 0.826356,
 1.0423l 0.826356, 0.636963l 0.826356, -0.521152l 0.826356, -0.220042l 0.825944, -0.0463246l 0.826356, -0.671706l 0.826356, -2.61734l 0.826356, 2.89529l 0.826356, -0.335853l 0.825944, -5.37365l 0.826356, 3.92601l 0.826356, 0.150555l 0.826356,
 -1.72559l 0.826356, 0.752775l 0.826356, 0.613801l 0.825944, -0.741193l 0.826356, 1.1697l 0.826356, -2.73315l 0.826356, 1.98038l 0.826356, -0.845424l 0.825944, -1.01914l 0.826356, 0.799099l 0.826356, 0.208461l 0.826356, -0.393759l 0.826356, -1.74875l
 0.825944, -0.0463246l 0.826356, -0.949654l 0.826356, 1.55187l 0.826356, -2.14251l 0.826356, 0.741193l 0.825944, 0.752775l 0.826356, -0.324272l 0.826356, -0.683288l 0.826356, 1.50555l 0.826356, -0.741193l 0.825944, -0.208461l 0.826356, -1.1697l
 0.826356, -1.45922l 0.826356, 1.51713l 0.826356, -0.440084l 0.826356, -2.61734" fill="none" stroke="#00ff00"/>
<path d="M77.8085,315.698l 0.825944, -0.127393l 0.826356, -0.185298l 0.826356, -0.0926492l 0.826356, -0.138974l 0.826356, -0.30111h 0.825944l 0.826356, -0.150555l 0.826356, -0.208461l 0.826356, -0.335853l 0.826356, 0.10423l 0.825944, -0.162136l
 0.826356, -0.393759l 0.826356, -0.0347434l 0.826356, -0.359016l 0.826356, 0.0231623l 0.825944, -0.138974l 0.826356, -0.173717l 0.826356, -0.277948l 0.826356, -0.0694869l 0.826356, -0.185298l 0.825944, -0.243204l 0.826356, -0.0694869l 0.826356,
 -0.173717l 0.826356, -0.162136l 0.826356, -0.382178l 0.825944, 0.0694869l 0.826356, -0.208461l 0.826356, -0.289529l 0.826356, -0.359016l 0.826356, 0.0347434l 0.826356, -0.324272l 0.825944, -0.081068l 0.826356, -0.393759l 0.826356, 0.0926492l
 0.826356, -0.254785l 0.826356, 0.127393l 0.825944, -1.13495l 0.826356, 0.30111l 0.826356, -0.0115811l 0.826356, -0.127393l 0.826356, -0.613801l 0.825944, 0.243204l 0.826356, -0.359016l 0.826356, 0.0347434l 0.826356, -0.416921l 0.826356, -0.335853l
 0.825944, -0.162136l 0.826356, -0.613801l 0.826356, 1.05388l 0.826356, -0.833843l 0.826356, 0.40534l 0.825944, -0.428502l 0.826356, -0.115811l 0.826356, -0.474827l 0.826356, 0.324272l 0.826356, -0.162136l 0.826356, -0.486408l 0.825944, -0.625382l
 0.826356, -0.0347434l 0.826356, -0.0231623l 0.826356, 0.254785l 0.826356, -0.428502l 0.825944, -0.277948l 0.826356, 0.324272l 0.826356, -0.625382l 0.826356, -0.254785l 0.826356, 0.10423l 0.825944, -0.324272l 0.826356, -0.208461l 0.826356, -0.208461l
 0.826356, -0.775937l 0.826356, 0.636963l 0.825944, -0.938073l 0.826356, 0.254785h 0.826356l 0.826356, -0.196879l 0.826356, -0.127393l 0.825944, -0.289529l 0.826356, -0.50957l 0.826356, 0.0579057h 0.826356l 0.826356, -0.0926492l 0.826356, -0.138974l
 0.825944, -0.474827l 0.826356, 0.428502l 0.826356, -1.15811l 0.826356, 0.880167l 0.826356, -0.81068l 0.825944, -0.185298l 0.826356, -0.532733l 0.826356, 0.324272l 0.826356, -0.984397l 0.826356, 0.347434l 0.825944, -3.12691l 0.826356, 3.32379l
 0.826356, 0.0463246l 0.826356, -0.497989l 0.826356, 0.451665l 0.825944, -0.741193l 0.826356, 0.150555l 0.826356, -0.115811l 0.826356, 0.115811l 0.826356, -1.35499l 0.825944, -0.0347434l 0.826356, -0.138974l 0.826356, 0.474827l 0.826356, -0.752775l
 0.826356, 0.0579057l 0.826356, 0.138974l 0.825944, 0.150555l 0.826356, -0.579057l 0.826356, -0.50957l 0.826356, 0.0115811l 0.826356, 0.324272l 0.825944, -1.51713l 0.826356, 0.868586l 0.826356, -1.21602l 0.826356, -1.76033l 0.826356, 2.33939l
 0.825944, 0.335853l 0.826356, -1.27393l 0.826356, 0.636963l 0.826356, -1.1697l 0.826356, 0.474827l 0.825944, -0.347434l 0.826356, -0.0463246l 0.826356, 0.40534l 0.826356, -0.694869l 0.826356, -0.625382l 0.825944, -0.138974l 0.826356, -2.59418l
 0.826356, 2.14251l 0.826356, -0.173717l 0.826356, -1.0423l 0.826356, -0.648544l 0.825944, 0.451665l 0.826356, 0.0694869l 0.826356, 0.127393l 0.826356, -2.30465l 0.826356, 0.231623l 0.825944, -3.85652l 0.826356, 5.59369l 0.826356, -0.926492l
 0.826356, 0.0115811l 0.826356, 1.0423l 0.825944, 0.115811l 0.826356, -2.77948l 0.826356, 1.4129l 0.826356, 0.579057l 0.826356, -0.324272l 0.825944, -0.60222l 0.826356, -0.683288l 0.826356, 0.254785l 0.826356, 0.347434l 0.826356, -1.28551l 0.825944,
 0.0347434l 0.826356, 0.532733l 0.826356, -0.914911l 0.826356, 0.081068l 0.826356, -0.266366l 0.826356, 0.208461l 0.825944, -0.115811l 0.826356, -1.37816l 0.826356, -1.29709l 0.826356, 1.57504l 0.826356, 0.428502l 0.825944, -0.544314l 0.826356,
 -1.0423l 0.826356, 1.11179l 0.826356, -0.636963l 0.826356, 0.127393l 0.825944, -1.42448l 0.826356, 0.081068l 0.826356, 0.857005l 0.826356, -0.382178l 0.826356, -3.11533l 0.825944, 3.04584l 0.826356, -0.579057l 0.826356, -0.254785l 0.826356, -2.3973l
 0.826356, 2.40888l 0.825944, -1.35499l 0.826356, 0.393759l 0.826356, -2.48995l 0.826356, 1.63294l 0.826356, -1.79508l 0.826356, -0.185298l 0.825944, 2.98794l 0.826356, -1.32025l 0.826356, 1.57504l 0.826356, -1.54029l 0.826356, 0.555895l 0.825944,
 -0.764356l 0.826356, 0.718031l 0.826356, -0.0347434l 0.826356, -0.393759l 0.826356, -1.42448l 0.825944, 0.393759l 0.826356, -0.359016l 0.826356, 0.764356l 0.826356, -0.648544l 0.826356, -0.312691l 0.825944, 0.127393l 0.826356, 0.254785l 0.826356,
 -4.53981l 0.826356, 3.54383l 0.826356, -0.359016l 0.825944, -0.289529l 0.826356, -0.683288l 0.826356, -0.324272l 0.826356, 0.497989l 0.826356, 0.799099l 0.826356, -1.36658l 0.825944, 0.567476l 0.826356, -0.822261l 0.826356, 0.0579057l 0.826356,
 -0.370597l 0.826356, -0.370597l 0.825944, 0.428502l 0.826356, 0.764356l 0.826356, -4.35451l 0.826356, 1.21602l 0.826356, 1.5982l 0.825944, -0.359016l 0.826356, -0.555895l 0.826356, -0.0115811l 0.826356, -0.521152l 0.826356, 0.625382l 0.825944,
 -3.8681l 0.826356, 3.77545l 0.826356, -3.9955l 0.826356, 2.88371l 0.826356, -6.10326l 0.825944, 6.58967l 0.826356, -0.764356l 0.826356, 1.23918l 0.826356, -0.567476l 0.826356, -0.40534l 0.826356, -0.833843l 0.825944, 0.671706l 0.826356, -1.7835l
 0.826356, 1.95721l 0.826356, -2.4552l 0.826356, 1.4129l 0.825944, -0.463246l 0.826356, -0.857005l 0.826356, 0.150555l 0.826356, 0.312691l 0.826356, 0.938073l 0.825944, -2.67524l 0.826356, 0.671706l 0.826356, 0.683288l 0.826356, 0.0926492l 0.826356,
 -1.27393l 0.825944, -0.30111l 0.826356, -0.532733l 0.826356, -3.50909l 0.826356, 2.98794l 0.826356, 2.33939l 0.825944, -3.89127l 0.826356, 2.69841l 0.826356, -2.99952l 0.826356, 1.74875l 0.826356, -0.289529l 0.826356, -0.567476l 0.825944, -1.11179l
 0.826356, 0.694869l 0.826356, -2.28149l 0.826356, 2.65208l 0.826356, -2.48995l 0.825944, 0.799099l 0.826356, -0.208461l 0.826356, 0.636963l 0.826356, -1.81824l 0.826356, 0.335853l 0.825944, -1.13495l 0.826356, 1.6561l 0.826356, -6.86762l 0.826356,
 4.37767l 0.826356, -7.33087l 0.825944, 8.97539l 0.826356, -0.185298l 0.826356, -0.683288l 0.826356, 1.40132l 0.826356, -1.27393l 0.825944, -0.40534l 0.826356, 0.347434l 0.826356, 0.231623l 0.826356, -2.87212l 0.826356, 3.70597l 0.826356, -1.73717l
 0.825944, 0.567476l 0.826356, -0.254785l 0.826356, 0.764356l 0.826356, -2.57101l 0.826356, 0.868586l 0.825944, -2.25832l 0.826356, 0.961235l 0.826356, 0.567476l 0.826356, -0.625382l 0.826356, 0.926492l 0.825944, -1.62136l 0.826356, -1.01914l
 0.826356, 1.48239l 0.826356, -0.162136l 0.826356, 0.799099l 0.825944, -1.30867l 0.826356, 0.220042l 0.826356, -2.38572l 0.826356, 1.42448l 0.826356, -2.212l 0.825944, 1.08863l 0.826356, 0.359016l 0.826356, -0.162136l 0.826356, -4.49348l 0.826356,
 5.25784l 0.826356, -1.29709l 0.825944, 0.555895l 0.826356, -3.85652l 0.826356, 2.66366l 0.826356, -1.2276l 0.826356, 0.949654l 0.825944, -4.06498l 0.826356, 2.72157l 0.826356, -4.14605l 0.826356, 1.12337l 0.826356, 3.59016l 0.825944, -1.06547l
 0.826356, 1.5982l 0.826356, 0.0926492l 0.826356, -0.231623l 0.826356, -1.55187l 0.825944, -0.115811l 0.826356, 0.972816l 0.826356, 0.50957l 0.826356, -3.32379l 0.826356, 1.37816l 0.825944, -0.393759l 0.826356, 0.428502l 0.826356, -0.416921l
 0.826356, -0.127393l 0.826356, 1.00756l 0.826356, -0.984397l 0.825944, -6.96027l 0.826356, 6.16117l 0.826356, -0.150555l 0.826356, -0.822261l 0.826356, -0.50957l 0.825944, -2.04986l 0.826356, 2.96477l 0.826356, 0.81068l 0.826356, -4.57455l 0.826356,
 3.91443l 0.825944, -1.13495l 0.826356, 0.683288l 0.826356, -0.972816l 0.826356, -0.266366l 0.826356, -2.22358l 0.825944, 0.995979l 0.826356, -3.76387l 0.826356, 1.45922l 0.826356, 1.11179l 0.826356, -0.150555l 0.825944, -2.07303l 0.826356, 0.857005l
 0.826356, 0.359016l 0.826356, -1.5982l 0.826356, -2.03828l 0.826356, 2.32781l 0.825944, -2.20042l 0.826356, 0.636963l 0.826356, -7.27296l 0.826356, -8.52372l 0.826356, 20.2207l 0.825944, -0.0463246l 0.826356, -0.625382l 0.826356, -1.74875l 0.826356,
 0.868586l 0.826356, -0.50957l 0.825944, 0.938073l 0.826356, -1.45922l 0.826356, 0.752775l 0.826356, -1.19286l 0.826356, -0.752775l 0.825944, -1.62136l 0.826356, 0.949654l 0.826356, 0.880167l 0.826356, -0.625382l 0.826356, -0.926492l 0.825944,
 -0.127393l 0.826356, -0.555895l 0.826356, 1.10021l 0.826356, -2.44362l 0.826356, -0.393759l 0.826356, 0.312691l 0.825944, -5.33891l 0.826356, 7.64356l 0.826356, 0.463246l 0.826356, -3.20798l 0.826356, 2.23516l 0.825944, -3.23114l 0.826356, 1.81824l
 0.826356, -0.579057l 0.826356, 1.7835l 0.826356, -1.63294l 0.825944, -0.729612l 0.826356, -1.69085l 0.826356, 0.718031l 0.826356, -3.94917l 0.826356, 0.741193l 0.825944, 2.43204l 0.826356, -0.0694869l 0.826356, -2.0267l 0.826356, 2.212l 0.826356,
 -3.94917l 0.825944, 3.70597l 0.826356, -8.21103l 0.826356, 3.11533l 0.826356, -10.4578l 0.826356, 14.8702l 0.826356, 2.40888l 0.825944, -1.69085l 0.826356, 0.903329l 0.826356, -0.370597l 0.826356, -2.5826l 0.826356, -0.0347434l 0.825944, 1.86456l
 0.826356, -5.39681l 0.826356, 4.82934l 0.826356, -2.67524l 0.826356, 2.212l 0.825944, -2.35097l 0.826356, -0.10423l 0.826356, -0.880167l 0.826356, -0.10423l 0.826356, -0.555895l 0.825944, 0.833843l 0.826356, -2.03828l 0.826356, 1.80666l 0.826356,
 -1.88773l 0.826356, -1.47081l 0.825944, -0.799099l 0.826356, 3.72913l 0.826356, -1.01914l 0.826356, -0.40534l 0.826356, -0.857005l 0.826356, 1.63294l 0.825944, -1.73717l 0.826356, 2.15409l 0.826356, -3.04584l 0.826356, 0.359016l 0.826356, 0.0694869l
 0.825944, 0.972816l 0.826356, -6.06852l 0.826356, 5.72109l 0.826356, -2.212l 0.826356, -1.21602l 0.825944, -4.30819l 0.826356, 4.84092l 0.826356, 0.150555l 0.826356, 0.0463246l 0.826356, -4.16921l 0.825944, 2.29307l 0.826356, -1.99196l 0.826356,
 -1.52871l 0.826356, 8.48898l 0.826356, -1.36658l 0.825944, -3.52067l 0.826356, 2.95319l 0.826356, -4.16921l 0.826356, 2.01512l 0.826356, 1.00756l 0.826356, 1.64452l 0.825944, -0.636963l 0.826356, -2.3973l 0.826356, -0.613801l 0.826356, -3.15007l
 0.826356, 2.74473l 0.825944, -0.254785l 0.826356, -0.127393l 0.826356, 2.0267l 0.826356, -0.173717l 0.826356, -7.13399l 0.825944, 5.0957l 0.826356, -0.312691l 0.826356, -0.196879l 0.826356, -0.532733l 0.826356, -2.00354l 0.825944, 2.4552l 0.826356,
 1.29709l 0.826356, -7.97941l 0.826356, 5.35049l 0.826356, 0.440084l 0.825944, 0.81068l 0.826356, -3.65964l 0.826356, 0.312691l 0.826356, 1.33183l 0.826356, 1.98038l 0.826356, -8.03732" fill="none" stroke="#ff0000"/>
<path d="M77.8085,315.698l 0.825944, -0.081068l 0.826356, -0.081068l 0.826356, -0.359016l 0.826356, -0.266366l 0.826356, 0.208461l 0.825944, -0.0579057l 0.826356, -0.347434l 0.826356, -0.0926492l 0.826356, -0.10423l 0.826356, 0.220042l 0.825944,
 -0.822261l 0.826356, -0.277948l 0.826356, 0.718031l 0.826356, -0.857005l 0.826356, -0.162136l 0.825944, 0.81068l 0.826356, -0.0115811l 0.826356, -1.87615l 0.826356, 1.03072l 0.826356, 0.324272l 0.825944, 0.115811l 0.826356, -0.50957l 0.826356,
 -0.359016l 0.826356, 0.428502l 0.826356, -0.0347434l 0.825944, -0.799099l 0.826356, 0.266366l 0.826356, -0.694869l 0.826356, -0.115811l 0.826356, 0.799099l 0.826356, 0.266366l 0.825944, 0.138974l 0.826356, -0.463246l 0.826356, -1.01914l 0.826356,
 1.2276l 0.826356, -0.0694869l 0.825944, -0.752775l 0.826356, 0.138974l 0.826356, -0.150555l 0.826356, -0.961235l 0.826356, 1.07705l 0.825944, -1.29709l 0.826356, 0.961235l 0.826356, -0.845424l 0.826356, 0.289529l 0.826356, 0.50957l 0.825944,
 -0.10423l 0.826356, -0.497989l 0.826356, -0.162136l 0.826356, 0.289529l 0.826356, -0.833843l 0.825944, 0.486408l 0.826356, 0.277948l 0.826356, -0.613801l 0.826356, -0.70645l 0.826356, 0.30111l 0.826356, 0.150555l 0.825944, -0.729612l 0.826356,
 -0.718031l 0.826356, 1.21602l 0.826356, -0.335853l 0.826356, -0.40534l 0.825944, 0.0694869l 0.826356, -0.671706l 0.826356, 0.30111l 0.826356, -0.0694869l 0.826356, -0.173717l 0.825944, 0.115811l 0.826356, 0.0579057l 0.826356, -0.127393l 0.826356,
 -1.06547l 0.826356, -0.254785l 0.825944, -1.07705l 0.826356, 1.80666l 0.826356, -0.833843l 0.826356, 0.70645l 0.826356, -2.00354l 0.825944, 0.625382l 0.826356, 0.0347434l 0.826356, -0.138974l 0.826356, -0.949654l 0.826356, -0.0463246l 0.826356,
 0.312691l 0.825944, 0.138974l 0.826356, -0.359016l 0.826356, -0.648544l 0.826356, 0.729612l 0.826356, -0.891748l 0.825944, 0.440084l 0.826356, -0.150555l 0.826356, -0.277948l 0.826356, -0.567476l 0.826356, 0.393759l 0.825944, -0.914911l 0.826356,
 -0.382178l 0.826356, -0.138974l 0.826356, -0.115811l 0.826356, -0.949654l 0.825944, 1.27393l 0.826356, -1.93405l 0.826356, 0.463246l 0.826356, 0.544314l 0.826356, -0.162136l 0.825944, 0.567476l 0.826356, -1.51713l 0.826356, -2.03828l 0.826356,
 2.04986l 0.826356, -0.220042l 0.826356, -0.579057l 0.825944, 0.289529l 0.826356, -0.752775l 0.826356, -0.30111l 0.826356, -0.938073l 0.826356, -0.752775l 0.825944, 0.0926492l 0.826356, 1.38974l 0.826356, 0.0231623l 0.826356, -0.718031l 0.826356,
 -0.752775l 0.825944, -0.636963l 0.826356, -0.0463246l 0.826356, 0.208461l 0.826356, -0.555895l 0.826356, -0.150555l 0.825944, 0.0694869l 0.826356, -0.799099l 0.826356, -0.50957l 0.826356, -1.6561l 0.826356, 2.97635l 0.825944, -1.05388l 0.826356,
 0.0926492l 0.826356, -1.20444l 0.826356, 0.625382l 0.826356, -1.06547l 0.826356, 1.18128l 0.825944, -0.926492l 0.826356, -0.208461l 0.826356, -2.24674l 0.826356, 1.56345l 0.826356, 0.277948l 0.825944, -0.173717l 0.826356, -3.57857l 0.826356,
 0.208461l 0.826356, 1.63294l 0.826356, -0.938073l 0.825944, 0.10423l 0.826356, 0.382178l 0.826356, -1.00756l 0.826356, -0.138974l 0.826356, 0.660125l 0.825944, -1.58662l 0.826356, -0.961235l 0.826356, 1.40132l 0.826356, -0.440084l 0.826356,
 -0.243204l 0.825944, -0.30111l 0.826356, -1.38974l 0.826356, 0.833843l 0.826356, 0.162136l 0.826356, -0.891748l 0.826356, -0.799099l 0.825944, 0.370597l 0.826356, -1.11179l 0.826356, 1.01914l 0.826356, -0.312691l 0.826356, -1.6561l 0.825944,
 -0.324272l 0.826356, -0.81068l 0.826356, 0.150555l 0.826356, -1.6561l 0.826356, 2.24674l 0.825944, -1.32025l 0.826356, 0.440084l 0.826356, -0.0231623l 0.826356, -0.938073l 0.826356, -0.752775l 0.825944, -0.995979l 0.826356, 1.10021l 0.826356,
 0.127393l 0.826356, -1.8414l 0.826356, -2.10777l 0.825944, 2.57101l 0.826356, -0.474827l 0.826356, -0.625382l 0.826356, -2.31623l 0.826356, 0.949654l 0.826356, -1.10021l 0.825944, -0.382178l 0.826356, -0.648544l 0.826356, 1.43606l 0.826356,
 -0.926492l 0.826356, 0.0347434l 0.825944, -0.277948l 0.826356, -0.70645l 0.826356, -0.868586l 0.826356, -0.903329l 0.826356, 0.938073l 0.825944, 0.324272l 0.826356, -1.5982l 0.826356, -0.393759l 0.826356, -1.67927l 0.826356, 0.775937l 0.825944,
 0.868586l 0.826356, -1.67927l 0.826356, -0.382178l 0.826356, 0.115811l 0.826356, -2.00354l 0.825944, -0.428502l 0.826356, 0.764356l 0.826356, -2.00354l 0.826356, 1.43606l 0.826356, -0.729612l 0.826356, -1.7835l 0.825944, 1.33183l 0.826356, -2.83738l
 0.826356, 2.3973l 0.826356, -1.25076l 0.826356, -2.3973l 0.825944, 0.60222l 0.826356, -0.0694869l 0.826356, 0.0231623l 0.826356, -0.636963l 0.826356, -0.625382l 0.825944, -1.43606l 0.826356, 0.799099l 0.826356, -1.60978l 0.826356, 1.00756l 0.826356,
 -0.822261l 0.825944, -2.61734l 0.826356, 1.86456l 0.826356, -0.393759l 0.826356, -0.729612l 0.826356, -0.822261l 0.825944, -0.532733l 0.826356, -0.60222l 0.826356, 0.359016l 0.826356, -0.671706l 0.826356, -0.243204l 0.826356, -1.52871l 0.825944,
 0.636963l 0.826356, -2.3973l 0.826356, -0.70645l 0.826356, 0.775937l 0.826356, 0.579057l 0.825944, 0.0463246l 0.826356, -2.80264l 0.826356, 0.196879l 0.826356, -1.58662l 0.826356, -0.521152l 0.825944, 3.37011l 0.826356, 0.162136l 0.826356, -3.18482l
 0.826356, -1.92247l 0.826356, 0.289529l 0.825944, -0.254785l 0.826356, -1.52871l 0.826356, -0.196879l 0.826356, -1.62136l 0.826356, -1.25076l 0.825944, -0.138974l 0.826356, 2.14251l 0.826356, 1.5982l 0.826356, -5.80215l 0.826356, 1.88773l 0.826356,
 -1.23918l 0.825944, -1.77192l 0.826356, 0.440084l 0.826356, 0.799099l 0.826356, -1.21602l 0.826356, -1.63294l 0.825944, 0.555895l 0.826356, -1.30867l 0.826356, 0.0926492l 0.826356, -2.03828l 0.826356, 0.868586l 0.825944, -1.1697l 0.826356, -3.28905l
 0.826356, -3.76387l 0.826356, 4.95673l 0.826356, 0.567476l 0.825944, -1.35499l 0.826356, -2.33939l 0.826356, 0.254785l 0.826356, -3.08059l 0.826356, 0.671706l 0.825944, 0.451665l 0.826356, 0.243204l 0.826356, -0.440084l 0.826356, -1.56345l 0.826356,
 -2.17726l 0.826356, 2.38572l 0.825944, -1.21602l 0.826356, -2.66366l 0.826356, -1.06547l 0.826356, 1.2276l 0.826356, -10.3304l 0.825944, 7.44668l 0.826356, 0.370597l 0.826356, 0.173717l 0.826356, -1.26234l 0.826356, -3.13849l 0.825944, 2.69841l
 0.826356, 0.347434l 0.826356, -0.949654l 0.826356, -1.55187l 0.826356, -1.40132l 0.825944, 0.857005l 0.826356, -2.11935l 0.826356, -0.0579057l 0.826356, 0.312691l 0.826356, -2.40888l 0.825944, 0.30111l 0.826356, -1.54029l 0.826356, -1.79508l
 0.826356, 4.77143l 0.826356, -3.2543l 0.826356, -2.93003l 0.825944, -1.43606l 0.826356, -0.440084l 0.826356, 0.312691l 0.826356, -0.787518l 0.826356, -0.984397l 0.825944, -0.590638l 0.826356, 0.138974l 0.826356, -1.88773l 0.826356, -0.660125l
 0.826356, 1.69085l 0.825944, -1.05388l 0.826356, 0.880167l 0.826356, -4.38925l 0.826356, -0.868586l 0.826356, 0.555895l 0.825944, -1.36658l 0.826356, 0.185298l 0.826356, -0.150555l 0.826356, -2.25832l 0.826356, 0.845424l 0.825944, -2.24674l
 0.826356, -1.11179l 0.826356, -1.11179l 0.826356, -0.150555l 0.826356, -0.0579057l 0.826356, -0.683288l 0.825944, 0.70645l 0.826356, -2.15409l 0.826356, -1.44764l 0.826356, -0.208461l 0.826356, -2.00354l 0.825944, 1.64452l 0.826356, -4.93357l
 0.826356, 0.521152l 0.826356, 0.359016l 0.826356, -1.47081l 0.825944, -0.891748l 0.826356, -0.370597l 0.826356, 0.671706l 0.826356, -1.81824l 0.826356, 2.81422l 0.825944, -4.29661l 0.826356, 1.27393l 0.826356, -2.09619l 0.826356, -0.081068l
 0.826356, -0.277948l 0.825944, -1.77192l 0.826356, 1.18128l 0.826356, -2.93003l 0.826356, -0.463246l 0.826356, -0.590638l 0.826356, -3.46276l 0.825944, 0.961235l 0.826356, -3.53225l 0.826356, 3.16165l 0.826356, -0.428502l 0.826356, -0.799099l
 0.825944, -2.84896l 0.826356, 2.01512l 0.826356, -6.14959l 0.826356, 6.13801l 0.826356, -4.28502l 0.825944, -0.150555l 0.826356, 0.428502l 0.826356, -1.8414l 0.826356, -2.22358l 0.826356, -0.926492l 0.825944, -2.14251l 0.826356, -0.590638l 0.826356,
 1.91089l 0.826356, -3.69439l 0.826356, 2.50153l 0.825944, -4.59772l 0.826356, 2.07303l 0.826356, -3.17323l 0.826356, -0.243204l 0.826356, -0.995979l 0.826356, -0.382178l 0.825944, 0.995979l 0.826356, -2.09619l 0.826356, -1.07705l 0.826356,
 -0.984397l 0.826356, 0.660125l 0.825944, -2.33939l 0.826356, -1.29709l 0.826356, 2.14251l 0.826356, -1.35499l 0.826356, -1.54029l 0.825944, -1.66769l 0.826356, -2.70999l 0.826356, -0.162136l 0.826356, -2.06144l 0.826356, 0.729612l 0.825944,
 -2.62892l 0.826356, 2.76789l 0.826356, -2.65208l 0.826356, -2.66366l 0.826356, 3.13849l 0.825944, -1.07705l 0.826356, -1.45922l 0.826356, -6.32331l 0.826356, 3.45118l 0.826356, -0.741193l 0.826356, -1.06547l 0.825944, -2.72157l 0.826356, 1.35499l
 0.826356, -4.29661l 0.826356, 0.880167l 0.826356, 0.0463246l 0.825944, -0.752775l 0.826356, 0.277948l 0.826356, -1.43606l 0.826356, -0.579057l 0.826356, -2.47837l 0.825944, -1.11179l 0.826356, -1.80666l 0.826356, -0.718031l 0.826356, -1.8414l
 0.826356, 1.58662l 0.825944, 1.82982l 0.826356, -7.11082l 0.826356, 0.799099l 0.826356, -0.729612l 0.826356, -0.220042l 0.825944, 2.70999l 0.826356, -5.16519l 0.826356, -3.37011l 0.826356, 3.46276l 0.826356, -1.18128l 0.826356, -2.84896l 0.825944,
 1.88773l 0.826356, 1.71401l 0.826356, -7.14557l 0.826356, 0.567476l 0.826356, -0.30111l 0.825944, -1.25076l 0.826356, -4.29661l 0.826356, 3.93759l 0.826356, -3.54383l 0.826356, -0.775937l 0.825944, 1.15811l 0.826356, -1.70243l 0.826356, -3.18482l
 0.826356, 1.01914l 0.826356, -3.8102l 0.825944, 0.335853l 0.826356, -0.775937l 0.826356, -1.00756l 0.826356, 1.70243l 0.826356, -4.47032l 0.825944, -0.312691l 0.826356, 2.28149l 0.826356, -3.2543l 0.826356, -2.01512l 0.826356, 2.28149l 0.826356,
 -1.89931l 0.825944, -4.08814l 0.826356, -2.3973l 0.826356, 0.428502l 0.826356, 0.474827l 0.826356, -4.27344l 0.825944, 1.8414l 0.826356, 1.26234l 0.826356, -2.83738l 0.826356, -4.58613l 0.826356, -0.324272l 0.825944, 4.52823l 0.826356, -5.53579l
 0.826356, -4.13447l 0.826356, 3.15007l 0.826356, -1.80666l 0.825944, 0.972816l 0.826356, -1.71401l 0.826356, -1.11179l 0.826356, -5.84848l 0.826356, 1.79508l 0.825944, 3.48593l 0.826356, -2.06144l 0.826356, -7.09924l 0.826356, 2.57101l 0.826356,
 1.77192l 0.826356, -1.64452" fill="none" stroke="#0000ff"/>
<rect x="85.5394" y="52.6163" width="170.079" height="70.1551" fill="white"/>
<path d="M85.5394,122.771h 170.079" fill="none" stroke="black"/>
<path d="M255.618,122.771v -70.1551" fill="none" stroke="black"/>
<path d="M255.618,52.6163h -170.079" fill="none" stroke="black"/>
<path d="M85.5394,52.6163v 70.1551" fill="none" stroke="black"/>
<text xml:space="preserve" x="145.55" y="64.9409" fill="black" font-size="13.5464" font-family="Helvetica">algorithm</text>
<text xml:space="preserve" x="128.012" y="82.4797" fill="black" font-size="13.5464" font-family="Helvetica">heap sort</text>
<path d="M91.9173,85.0631h 29.7638v -12.2771h -29.7638z" fill="white"/>
<path d="M91.9173,78.9245h 29.7638" fill="none" stroke="#00ff00"/>
<g stroke="black" stroke-width="1" fill="none">
<line x1="105.799" y1="78.9245" x2="106.799" y2="78.9245"/>
</g>
<text xml:space="preserve" x="128.012" y="100.018" fill="black" font-size="13.5464" font-family="Helvetica">shell sort</text>
<path d="M91.9173,102.602h 29.7638v -12.2771h -29.7638z" fill="white"/>
<path d="M91.9173,96.4633h 29.7638" fill="none" stroke="#ff0000"/>
<g stroke="black" stroke-width="1" fill="none">
<line x1="105.799" y1="96.4633" x2="106.799" y2="96.4633"/>
</g>
<text xml:space="preserve" x="128.012" y="117.557" fill="black" font-size="13.5464" font-family="Helvetica">parallel quicksort</text>
<path d="M91.9173,120.141h 29.7638v -12.2771h -29.7638z" fill="white"/>
<path d="M91.9173,114.002h 29.7638" fill="none" stroke="#0000ff"/>
<g stroke="black" stroke-width="1" fill="none">
<line x1="105.799" y1="114.002" x2="106.799" y2="114.002"/>
</g>
<text xml:space="preserve" x="203.381" y="17.0648" fill="black" font-size="15.5447" font-family="Helvetica">Sort Benchmark T=char</text></svg>
