<?xml version="1.0" standalone="no"?>
<svg width="567.429" height="351.276" viewBox="0 0 567.429 351.276" xmlns="http://www.w3.org/2000/svg" shape-rendering="crispEdges">
<title>
root_canvas_short.svg
</title>
<desc>
Creator: ROOT Version 6.18/04
CreationDate: Thu Jun 25 17:18:42 2020</desc>
<defs>
</defs>
<rect x="0.5" y="0" width="566.929" height="350.776" fill="white"/>
<rect x="57.1929" y="35.0776" width="453.543" height="280.62" fill="white"/>
<rect x="57.1929" y="35.0776" width="453.543" height="280.62" fill="none" stroke="black"/>
<rect x="57.1929" y="35.0776" width="453.543" height="280.62" fill="white"/>
<rect x="57.1929" y="35.0776" width="453.543" height="280.62" fill="none" stroke="black"/>
<path d="M57.1929,315.698h 453.543" fill="none" stroke="black"/>
<path d="M77.7673,307.279v 8.41861" fill="none" stroke="black"/>
<path d="M98.3849,311.489v 4.20931" fill="none" stroke="black"/>
<path d="M119.003,311.489v 4.20931" fill="none" stroke="black"/>
<path d="M139.62,311.489v 4.20931" fill="none" stroke="black"/>
<path d="M160.238,307.279v 8.41861" fill="none" stroke="black"/>
<path d="M180.856,311.489v 4.20931" fill="none" stroke="black"/>
<path d="M201.473,311.489v 4.20931" fill="none" stroke="black"/>
<path d="M222.091,311.489v 4.20931" fill="none" stroke="black"/>
<path d="M242.709,307.279v 8.41861" fill="none" stroke="black"/>
<path d="M263.326,311.489v 4.20931" fill="none" stroke="black"/>
<path d="M283.944,311.489v 4.20931" fill="none" stroke="black"/>
<path d="M304.562,311.489v 4.20931" fill="none" stroke="black"/>
<path d="M325.179,307.279v 8.41861" fill="none" stroke="black"/>
<path d="M345.797,311.489v 4.20931" fill="none" stroke="black"/>
<path d="M366.415,311.489v 4.20931" fill="none" stroke="black"/>
<path d="M387.032,311.489v 4.20931" fill="none" stroke="black"/>
<path d="M407.65,307.279v 8.41861" fill="none" stroke="black"/>
<path d="M428.268,311.489v 4.20931" fill="none" stroke="black"/>
<path d="M448.885,311.489v 4.20931" fill="none" stroke="black"/>
<path d="M469.503,311.489v 4.20931" fill="none" stroke="black"/>
<path d="M490.121,307.279v 8.41861" fill="none" stroke="black"/>
<path d="M77.7673,307.279v 8.41861" fill="none" stroke="black"/>
<path d="M490.121,307.279v 8.41861" fill="none" stroke="black"/>
<text xml:space="preserve" x="74.4473" y="327.075" fill="black" font-size="11.7634" font-family="Helvetica">0</text>
<text xml:space="preserve" x="150.291" y="327.075" fill="black" font-size="11.7634" font-family="Helvetica">200</text>
<text xml:space="preserve" x="232.77" y="327.075" fill="black" font-size="11.7634" font-family="Helvetica">400</text>
<text xml:space="preserve" x="315.25" y="327.075" fill="black" font-size="11.7634" font-family="Helvetica">600</text>
<text xml:space="preserve" x="397.73" y="327.075" fill="black" font-size="11.7634" font-family="Helvetica">800</text>
<text xml:space="preserve" x="476.891" y="327.075" fill="black" font-size="11.7634" font-family="Helvetica">1000</text>
<text xml:space="preserve" x="530.93" y="310.01" fill="black" font-size="8.00896" font-family="Helvetica">3</text>
<text xml:space="preserve" x="518.605" y="315.698" fill="black" font-size="11.7634" font-family="Helvetica">10</text>
<text xml:space="preserve" x="512.443" y="315.698" fill="black" font-size="11.7634" font-family="Times">&#0215;</text>
<text xml:space="preserve" x="439.917" y="338.451" fill="black" font-size="11.7634" font-family="Helvetica"> X number (N)</text>
<path d="M57.1929,315.698v -280.62" fill="none" stroke="black"/>
<path d="M70.7992,315.698h -13.6063" fill="none" stroke="black"/>
<path d="M63.9961,306.539h -6.80315" fill="none" stroke="black"/>
<path d="M63.9961,297.38h -6.80315" fill="none" stroke="black"/>
<path d="M63.9961,288.221h -6.80315" fill="none" stroke="black"/>
<path d="M70.7992,279.062h -13.6063" fill="none" stroke="black"/>
<path d="M63.9961,269.903h -6.80315" fill="none" stroke="black"/>
<path d="M63.9961,260.744h -6.80315" fill="none" stroke="black"/>
<path d="M63.9961,251.585h -6.80315" fill="none" stroke="black"/>
<path d="M70.7992,242.427h -13.6063" fill="none" stroke="black"/>
<path d="M63.9961,233.268h -6.80315" fill="none" stroke="black"/>
<path d="M63.9961,224.109h -6.80315" fill="none" stroke="black"/>
<path d="M63.9961,214.95h -6.80315" fill="none" stroke="black"/>
<path d="M70.7992,205.791h -13.6063" fill="none" stroke="black"/>
<path d="M63.9961,196.632h -6.80315" fill="none" stroke="black"/>
<path d="M63.9961,187.473h -6.80315" fill="none" stroke="black"/>
<path d="M63.9961,178.314h -6.80315" fill="none" stroke="black"/>
<path d="M70.7992,169.155h -13.6063" fill="none" stroke="black"/>
<path d="M63.9961,159.996h -6.80315" fill="none" stroke="black"/>
<path d="M63.9961,150.837h -6.80315" fill="none" stroke="black"/>
<path d="M63.9961,141.678h -6.80315" fill="none" stroke="black"/>
<path d="M70.7992,132.519h -13.6063" fill="none" stroke="black"/>
<path d="M63.9961,123.36h -6.80315" fill="none" stroke="black"/>
<path d="M63.9961,114.202h -6.80315" fill="none" stroke="black"/>
<path d="M63.9961,105.043h -6.80315" fill="none" stroke="black"/>
<path d="M70.7992,95.8837h -13.6063" fill="none" stroke="black"/>
<path d="M63.9961,86.7248h -6.80315" fill="none" stroke="black"/>
<path d="M63.9961,77.5658h -6.80315" fill="none" stroke="black"/>
<path d="M63.9961,68.4069h -6.80315" fill="none" stroke="black"/>
<path d="M70.7992,59.248h -13.6063" fill="none" stroke="black"/>
<path d="M70.7992,59.248h -13.6063" fill="none" stroke="black"/>
<path d="M63.9961,50.089h -6.80315" fill="none" stroke="black"/>
<path d="M63.9961,40.9301h -6.80315" fill="none" stroke="black"/>
<text xml:space="preserve" x="47.9021" y="319.964" fill="black" font-size="11.7634" font-family="Helvetica">0</text>
<text xml:space="preserve" x="41.7398" y="282.991" fill="black" font-size="11.7634" font-family="Helvetica">20</text>
<text xml:space="preserve" x="41.7398" y="246.491" fill="black" font-size="11.7634" font-family="Helvetica">40</text>
<text xml:space="preserve" x="41.7398" y="209.991" fill="black" font-size="11.7634" font-family="Helvetica">60</text>
<text xml:space="preserve" x="41.7398" y="173.018" fill="black" font-size="11.7634" font-family="Helvetica">80</text>
<text xml:space="preserve" x="35.5776" y="136.518" fill="black" font-size="11.7634" font-family="Helvetica">100</text>
<text xml:space="preserve" x="35.5776" y="100.018" fill="black" font-size="11.7634" font-family="Helvetica">120</text>
<text xml:space="preserve" x="35.5776" y="63.0448" fill="black" font-size="11.7634" font-family="Helvetica">140</text>
<g transform="rotate(-90,21.3569,95.7523)">
<text xml:space="preserve" x="21.3569" y="95.7523" fill="black" font-size="11.7634" font-family="Helvetica"> Y time (ms)</text>
</g>
<path d="M77.8085,315.698l 0.825944, -0.219814l 0.826356, -0.329721l 0.826356, -0.219814l 0.826356, -0.348039l 0.826356, -0.219814l 0.825944, -0.238132l 0.826356, -0.201496l 0.826356, -0.366357l 0.826356, -0.183179l 0.826356, -0.366357l 0.825944,
 -0.293086l 0.826356, -0.293086l 0.826356, -0.329721l 0.826356, -0.311404l 0.826356, -0.274768l 0.825944, -0.622807h 0.826356l 0.826356, -0.293086l 0.826356, -0.329721l 0.826356, -0.311404l 0.825944, -0.293086l 0.826356, -0.329721l 0.826356,
 -0.348039l 0.826356, -0.567854l 0.826356, -0.128225l 0.825944, -0.329721l 0.826356, -0.549536l 0.826356, -0.0366357l 0.826356, -0.604489l 0.826356, -0.0732714l 0.826356, -0.677761l 0.825944, -0.164861l 0.826356, -0.183179l 0.826356, -0.238132l
 0.826356, -0.348039l 0.826356, -0.402993l 0.825944, -1.35552l 0.826356, 0.879257l 0.826356, -0.402993l 0.826356, -0.402993l 0.826356, -0.201496l 0.825944, -2.01496l 0.826356, -0.201496l 0.826356, 0.164861l 0.826356, 0.604489l 0.826356, -0.677761l
 0.825944, -0.659443l 0.826356, 0.421311l 0.826356, -0.439629l 0.826356, -2.03328l 0.826356, -0.384675l 0.825944, -2.03328h 0.826356l 0.826356, 0.567854l 0.826356, 0.714397l 0.826356, 0.128225l 0.826356, -0.25645l 0.825944, 0.183179l 0.826356,
 -0.494582l 0.826356, -1.90506l 0.826356, -0.366357l 0.826356, -2.32637l 0.825944, 1.46543l 0.826356, -1.83179l 0.826356, 1.00748l 0.826356, -0.641125l 0.826356, 0.293086l 0.825944, -1.86842l 0.826356, 0.879257l 0.826356, 0.476264l 0.826356, -2.766l
 0.826356, 0.934211l 0.825944, 0.714397l 0.826356, 0.787668l 0.826356, -2.49123l 0.826356, -0.787668l 0.826356, -1.13571l 0.825944, 0.879257l 0.826356, 0.109907l 0.826356, 0.128225l 0.826356, -1.44711l 0.826356, -1.59365l 0.826356, 1.06244l 0.825944,
 0.751032l 0.826356, -1.15403l 0.826356, -1.81347l 0.826356, -1.28225l 0.826356, 1.19066l 0.825944, -0.5129l 0.826356, 0.128225l 0.826356, 0.439629l 0.826356, 1.37384l 0.826356, -2.41796l 0.825944, -0.238132l 0.826356, 0.604489l 0.826356, -1.7402l
 0.826356, -0.842622l 0.826356, 1.55702l 0.825944, -2.28973l 0.826356, 0.586172l 0.826356, -0.549536l 0.826356, -0.384675l 0.826356, -0.677761l 0.825944, -0.860939l 0.826356, 1.70356l 0.826356, -1.50206l 0.826356, -2.30805l 0.826356, -0.384675l
 0.826356, -0.439629l 0.825944, 1.08075l 0.826356, 1.35552l 0.826356, -1.17234l 0.826356, -1.15403l 0.826356, 0.860939l 0.825944, -0.549536l 0.826356, -1.77683l 0.826356, -0.293086l 0.826356, -0.25645l 0.826356, -0.201496l 0.825944, -0.348039l
 0.826356, 0.0366357l 0.826356, -0.128225l 0.826356, -0.219814l 0.826356, -4.63442l 0.825944, 2.83927l 0.826356, 0.293086l 0.826356, -0.366357l 0.826356, -0.805986l 0.826356, -0.0732714l 0.825944, 1.08075l 0.826356, -1.90506l 0.826356, -1.13571l
 0.826356, 2.06992l 0.826356, -1.70356l 0.826356, -1.2273l 0.825944, 0.586172h 0.826356l 0.826356, -1.97833l 0.826356, 0.915893l 0.826356, -0.439629l 0.825944, -0.201496l 0.826356, -0.274768l 0.826356, -0.238132l 0.826356, -1.30057l 0.826356,
 1.04412l 0.825944, -1.48375l 0.826356, -0.586172l 0.826356, -0.128225l 0.826356, -0.293086l 0.826356, -0.659443l 0.825944, 0.549536l 0.826356, -0.604489l 0.826356, -0.641125l 0.826356, -1.31889l 0.826356, 0.293086l 0.825944, -0.5129l 0.826356,
 0.439629l 0.826356, 0.384675l 0.826356, -0.549536l 0.826356, -0.329721l 0.826356, -3.75516l 0.825944, 1.46543l 0.826356, 0.787668l 0.826356, -1.57534l 0.826356, 0.531218l 0.826356, -1.24561l 0.825944, -0.25645l 0.826356, -0.384675l 0.826356,
 0.0366357l 0.826356, -4.21311l 0.826356, 2.50955l 0.825944, -4.85423l 0.826356, 1.77683l 0.826356, 3.5903l 0.826356, -6.13648l 0.826356, -3.97498l 0.825944, 7.6935l 0.826356, -0.805986l 0.826356, -0.0366357l 0.826356, 1.17234l 0.826356, -0.989164l
 0.825944, -2.03328l 0.826356, -1.63029l 0.826356, 1.04412l 0.826356, 1.19066l 0.826356, -2.41796l 0.826356, 1.28225l 0.825944, -3.00413l 0.826356, 0.842622l 0.826356, 1.72188l 0.826356, -0.402993l 0.826356, -3.0774l 0.825944, 0.531218l 0.826356,
 1.28225l 0.826356, -0.714397l 0.826356, -1.15403l 0.826356, -6.33798l 0.825944, 4.96414l 0.826356, -0.805986l 0.826356, 0.219814l 0.826356, -0.238132l 0.826356, -0.476264l 0.825944, -3.37049l 0.826356, 3.29721l 0.826356, 0.549536l 0.826356,
 -9.08566l 0.826356, 3.09572l 0.825944, 0.0549536l 0.826356, 2.85759l 0.826356, -2.21646l 0.826356, 0.76935l 0.826356, 0.989164l 0.826356, -0.402993l 0.825944, -3.18731l 0.826356, -1.59365l 0.826356, -2.93086l 0.826356, 0.677761l 0.826356, -2.41796l
 0.825944, 2.52786l 0.826356, 2.16151l 0.826356, -1.96001l 0.826356, 0.586172l 0.826356, 0.677761l 0.825944, -1.08075l 0.826356, 0.586172l 0.826356, -2.91254l 0.826356, 1.41048l 0.826356, -0.586172l 0.825944, -1.79515l 0.826356, -1.35552l 0.826356,
 3.35217l 0.826356, -5.22059l 0.826356, 4.21311l 0.825944, 0.0183179l 0.826356, -3.57198l 0.826356, 2.12487l 0.826356, -4.46956l 0.826356, -0.329721l 0.826356, -2.80263l 0.825944, 6.24639l 0.826356, -3.92002l 0.826356, 3.3888l 0.826356, -2.41796l
 0.826356, 0.0366357l 0.825944, -0.128225l 0.826356, 2.19814l 0.826356, -5.129l 0.826356, -4.56115l 0.826356, 6.02658l 0.825944, 1.68524l 0.826356, -2.19814l 0.826356, 0.970847l 0.826356, -7.895l 0.826356, -5.20227l 0.825944, 2.34469l 0.826356,
 -4.12152l 0.826356, 1.20898l 0.826356, -2.38132l 0.826356, 8.42622l 0.825944, -3.00413l 0.826356, 3.51703l 0.826356, -0.201496l 0.826356, 1.08075l 0.826356, 1.3372l 0.826356, -2.43628l 0.825944, -4.37797l 0.826356, 2.58282l 0.826356, -7.01574l
 0.826356, 9.45201l 0.826356, -3.24226l 0.825944, -2.49123l 0.826356, 2.27141l 0.826356, -3.46208l 0.826356, 1.24561l 0.826356, 0.824304l 0.825944, -1.77683l 0.826356, 0.970847l 0.826356, -1.72188l 0.826356, -2.54618l 0.826356, 6.00826l 0.825944,
 -10.8442l 0.826356, 5.56863l 0.826356, 0.5129l 0.826356, -3.73684l 0.826356, 7.03406l 0.825944, -6.79593l 0.826356, -0.0366357l 0.826356, 7.05238l 0.826356, -6.08153l 0.826356, 1.42879l 0.826356, -2.80263l 0.825944, 1.30057l 0.826356, 3.00413l
 0.826356, -6.42957l 0.826356, 1.97833l 0.826356, -1.79515l 0.825944, -2.06992l 0.826356, 7.08901l 0.826356, -4.23143l 0.826356, -4.6161l 0.826356, 3.3888l 0.825944, -2.58282l 0.826356, -1.2273l 0.826356, -0.659443l 0.826356, -2.23478l 0.826356,
 2.60114l 0.825944, 0.604489l 0.826356, 0.238132l 0.826356, -3.57198l 0.826356, 2.98581l 0.826356, -3.95666l 0.825944, 1.35552l 0.826356, -3.13235l 0.826356, 0.329721l 0.826356, 8.48117l 0.826356, -10.7159l 0.826356, 0.183179l 0.825944, 3.97498l
 0.826356, -0.201496l 0.826356, 1.96001l 0.826356, -4.12152l 0.826356, -1.46543l 0.825944, 3.97498l 0.826356, -5.42209l 0.826356, -3.77348l 0.826356, 1.92338l 0.826356, 3.84675l 0.825944, -0.128225l 0.826356, -1.70356l 0.826356, 2.0516l 0.826356,
 -5.14732l 0.826356, -3.24226l 0.825944, -0.934211l 0.826356, 3.44376l 0.826356, 0.348039l 0.826356, 3.62694l 0.826356, -4.43292l 0.825944, 6.4662l 0.826356, -5.80676l 0.826356, -1.28225l 0.826356, -7.43705l 0.826356, 2.766l 0.826356, 1.08075l
 0.825944, -1.20898l 0.826356, 2.21646l 0.826356, -2.10655l 0.826356, -0.549536l 0.826356, 0.0915893l 0.825944, 4.83591l 0.826356, -5.01909l 0.826356, 4.90919l 0.826356, -4.50619l 0.826356, -1.24561l 0.825944, 3.86507l 0.826356, -6.57611l 0.826356,
 1.50206l 0.826356, 4.59778l 0.826356, -5.07405l 0.825944, -0.293086l 0.826356, -2.39964l 0.826356, -0.0366357l 0.826356, 3.31553l 0.826356, -4.65274l 0.825944, 6.26471l 0.826356, -0.842622l 0.826356, -9.12229l 0.826356, 4.34133l 0.826356, -3.44376l
 0.826356, 3.29721l 0.825944, -2.43628l 0.826356, 0.348039l 0.826356, -0.238132l 0.826356, 0.531218l 0.826356, -6.11817l 0.825944, 2.71104l 0.826356, 3.71853l 0.826356, -0.329721l 0.826356, -3.81011l 0.826356, -2.27141l 0.825944, -1.72188l 0.826356,
 7.14397l 0.826356, -5.3305l 0.826356, 2.38132l 0.826356, 2.10655l 0.825944, -5.20227l 0.826356, -3.3888l 0.826356, -0.897575l 0.826356, 0.567854l 0.826356, -3.33385l 0.825944, 10.5145l 0.826356, -7.96827l 0.826356, 3.09572l 0.826356, -1.94169l
 0.826356, 0.384675l 0.826356, 0.641125l 0.825944, -1.37384l 0.826356, -6.74097l 0.826356, 4.6161l 0.826356, 4.94582l 0.826356, -7.78509l 0.825944, 1.09907l 0.826356, -2.89422l 0.826356, 5.55031l 0.826356, -4.28638l 0.826356, -0.311404l 0.825944,
 3.22394l 0.826356, -4.9275l 0.826356, -6.33798l 0.826356, 6.42957l 0.826356, 0.622807l 0.825944, -4.39629l 0.826356, 7.12565l 0.826356, -1.50206l 0.826356, -3.11404l 0.826356, 2.65609l 0.825944, 0.677761l 0.826356, -2.2531l 0.826356, 2.5645l
 0.826356, -4.3047l 0.826356, 1.46543l 0.826356, 0.348039l 0.825944, -7.52864l 0.826356, 3.95666l 0.826356, -4.06656l 0.826356, -7.34546l 0.826356, 11.8883l 0.825944, -6.53948l 0.826356, -3.81011l 0.826356, 8.0049l 0.826356, -7.78509l 0.826356,
 -0.274768l 0.825944, -2.28973l 0.826356, 2.83927l 0.826356, 1.55702l 0.826356, 4.50619l 0.826356, -3.71853l 0.825944, 3.64525l 0.826356, -2.52786l 0.826356, 0.238132l 0.826356, -0.0549536l 0.826356, -1.00748l 0.825944, -6.94247l 0.826356, -4.1032l
 0.826356, 4.52451l 0.826356, 4.1032l 0.826356, -0.329721l 0.826356, -8.99407l 0.825944, 2.60114l 0.826356, 5.6419l 0.826356, -6.99742l 0.826356, 6.53948l 0.826356, -7.45537l 0.825944, 1.37384l 0.826356, -1.68524l 0.826356, -1.06244l 0.826356,
 3.35217l 0.826356, 0.476264l 0.825944, -0.439629l 0.826356, -1.77683l 0.826356, -3.86507l 0.826356, -1.48375l 0.826356, 4.74433l 0.825944, -5.27554l 0.826356, -1.57534l 0.826356, 7.40041l 0.826356, -5.31218l 0.826356, -1.59365l 0.825944, 5.8434l
 0.826356, -2.91254l 0.826356, 3.15067l 0.826356, -0.348039l 0.826356, -7.3821l 0.826356, 0.366357l 0.825944, 5.71517l 0.826356, -8.57276l 0.826356, 5.45872l 0.826356, 0.238132l 0.826356, -5.31218l 0.825944, 6.85088l 0.826356, -7.41873l 0.826356,
 3.97498l 0.826356, -8.4079l 0.826356, 8.75594l 0.825944, -7.65687l 0.826356, 8.37126l 0.826356, -0.805986l 0.826356, -10.203l 0.826356, 2.54618l 0.825944, -1.09907l 0.826356, 5.53199l 0.826356, 0.805986l 0.826356, -5.8434l 0.826356, 1.37384l
 0.825944, 4.54283l 0.826356, 0.128225l 0.826356, -13.8666l 0.826356, 6.6677l 0.826356, -0.659443l 0.826356, 2.98581" fill="none" stroke="#00ff00"/>
<path d="M77.8085,315.698l 0.825944, -0.384675l 0.826356, -0.311404l 0.826356, -0.293086l 0.826356, -0.238132l 0.826356, -0.5129l 0.825944, -0.311404l 0.826356, -0.25645l 0.826356, -0.659443l 0.826356, -0.128225l 0.826356, -0.531218l 0.825944,
 -0.421311l 0.826356, -0.421311l 0.826356, -0.311404l 0.826356, -0.696079l 0.826356, -0.201496l 0.825944, -0.677761l 0.826356, -0.402993l 0.826356, -0.25645l 0.826356, -0.366357l 0.826356, -1.00748l 0.825944, -0.366357l 0.826356, -0.476264l 0.826356,
 -0.714397l 0.826356, -0.329721l 0.826356, -0.751032l 0.825944, -0.128225l 0.826356, -0.183179l 0.826356, -0.164861l 0.826356, -0.476264l 0.826356, -0.659443l 0.826356, -0.384675l 0.825944, -0.311404l 0.826356, -1.24561l 0.826356, 0.5129l 0.826356,
 -0.5129l 0.826356, -0.366357l 0.825944, -1.55702l 0.826356, -0.293086l 0.826356, -0.366357l 0.826356, -0.476264l 0.826356, -0.5129l 0.825944, 0.219814l 0.826356, -0.567854l 0.826356, -0.76935l 0.826356, -1.13571l 0.826356, -0.146543l 0.825944,
 -0.457946l 0.826356, -1.11739l 0.826356, -0.641125l 0.826356, -0.384675l 0.826356, -0.457946l 0.825944, 0.604489l 0.826356, -0.842622l 0.826356, -0.201496l 0.826356, -0.439629l 0.826356, -0.0915893l 0.826356, -0.897575l 0.825944, -1.30057l 0.826356,
 -0.109907l 0.826356, -0.25645l 0.826356, -0.311404l 0.826356, -0.732714l 0.825944, -0.311404l 0.826356, 0.0183179l 0.826356, -0.970847l 0.826356, 0.201496l 0.826356, -0.732714l 0.825944, 0.329721l 0.826356, -1.42879l 0.826356, 0.329721l 0.826356,
 -0.696079l 0.826356, -0.201496l 0.825944, -1.55702l 0.826356, -1.35552l 0.826356, 0.439629h 0.826356l 0.826356, -0.76935l 0.825944, -0.0366357l 0.826356, -2.39964l 0.826356, 1.52038l 0.826356, -1.79515l 0.826356, 0.274768l 0.826356, -0.238132l
 0.825944, 0.0549536l 0.826356, -0.348039l 0.826356, -1.94169l 0.826356, -0.5129l 0.826356, 0.311404l 0.825944, -2.2531l 0.826356, -1.63029l 0.826356, 2.28973l 0.826356, -1.00748l 0.826356, 0.109907l 0.825944, -3.24226l 0.826356, 0.421311l 0.826356,
 -0.402993l 0.826356, -0.787668l 0.826356, -2.91254l 0.825944, 1.77683l 0.826356, -0.329721h 0.826356l 0.826356, -1.7402l 0.826356, 2.0516l 0.825944, -1.28225l 0.826356, 0.787668l 0.826356, -2.363l 0.826356, 0.567854l 0.826356, -1.42879l 0.826356,
 -0.274768l 0.825944, -0.897575l 0.826356, 1.19066l 0.826356, -0.329721l 0.826356, -1.63029l 0.826356, -1.31889l 0.825944, 0.531218l 0.826356, 0.5129l 0.826356, -1.06244l 0.826356, -5.27554l 0.826356, 3.37049l 0.825944, 0.311404l 0.826356, -3.86507l
 0.826356, 1.94169l 0.826356, -0.604489l 0.826356, 0.0366357l 0.825944, 1.04412l 0.826356, -0.842622l 0.826356, 0.293086l 0.826356, -1.35552l 0.826356, -1.0258l 0.825944, -1.96001l 0.826356, -6.30134l 0.826356, 6.72265l 0.826356, -0.0183179l
 0.826356, -3.18731l 0.826356, 0.567854l 0.825944, 0.402993l 0.826356, -0.567854l 0.826356, -1.39216l 0.826356, -2.61945l 0.826356, 3.31553l 0.825944, -5.66022l 0.826356, 2.21646l 0.826356, -1.68524l 0.826356, 2.45459l 0.826356, -1.08075l 0.825944,
 -0.696079l 0.826356, -7.12565l 0.826356, 4.48788l 0.826356, 0.457946l 0.826356, 0.76935l 0.825944, -1.08075l 0.826356, 1.5387l 0.826356, -4.01161l 0.826356, 1.0258l 0.826356, -1.04412l 0.825944, -0.567854l 0.826356, 0.989164l 0.826356, 0.164861l
 0.826356, -3.00413l 0.826356, 1.66693l 0.826356, -0.476264l 0.825944, -2.16151l 0.826356, -2.94918l 0.826356, 0.128225l 0.826356, 0.201496l 0.826356, -0.586172l 0.825944, -2.63777l 0.826356, 2.08824l 0.826356, -2.32637l 0.826356, -0.384675l
 0.826356, -1.00748l 0.825944, 0.76935l 0.826356, 2.08824l 0.826356, 0.457946l 0.826356, -8.2064l 0.826356, 2.2531l 0.825944, 3.53535l 0.826356, -3.00413l 0.826356, -0.531218l 0.826356, -1.52038l 0.826356, 3.40712l 0.825944, -1.5387l 0.826356,
 0.842622l 0.826356, -2.8759l 0.826356, 1.79515l 0.826356, -2.30805l 0.826356, -1.88674l 0.825944, -1.15403l 0.826356, 2.17983l 0.826356, -1.17234l 0.826356, -0.183179l 0.826356, -2.63777l 0.825944, 1.88674l 0.826356, -3.35217l 0.826356, 1.19066l
 0.826356, -1.06244l 0.826356, -5.14732l 0.825944, 1.00748l 0.826356, 1.86842l 0.826356, -0.384675l 0.826356, 0.128225l 0.826356, -1.19066l 0.825944, 0.531218l 0.826356, -2.19814l 0.826356, -1.57534l 0.826356, 4.57946l 0.826356, -0.0183179l 0.825944,
 0.586172l 0.826356, -1.50206l 0.826356, -1.26393l 0.826356, -1.44711l 0.826356, -3.35217l 0.826356, 1.64861l 0.825944, -0.76935l 0.826356, 3.24226l 0.826356, -0.934211l 0.826356, -0.439629l 0.826356, -2.30805l 0.825944, -0.439629l 0.826356,
 -0.879257l 0.826356, 2.49123l 0.826356, -1.5387l 0.826356, -2.766l 0.825944, -2.5645l 0.826356, 3.92002l 0.826356, -3.20563l 0.826356, 1.13571l 0.826356, -4.06656l 0.825944, -10.3313l 0.826356, 15.2954l 0.826356, -4.21311l 0.826356, -1.19066l
 0.826356, -5.20227l 0.825944, 3.97498l 0.826356, -0.76935l 0.826356, -0.0366357l 0.826356, -3.7918l 0.826356, 3.48039l 0.826356, -0.952529l 0.825944, -0.732714l 0.826356, -1.41048l 0.826356, 2.82095l 0.826356, -6.85088l 0.826356, 2.74768l 0.825944,
 -1.75851l 0.826356, 0.787668l 0.826356, -3.5903l 0.826356, 4.59778l 0.826356, -2.52786l 0.825944, 3.71853l 0.826356, -2.0516l 0.826356, -0.970847l 0.826356, -12.676l 0.826356, 7.84004l 0.825944, 1.42879l 0.826356, -7.87668l 0.826356, -7.94995l
 0.826356, 7.1806l 0.826356, 4.39629l 0.825944, -5.82508l 0.826356, 1.06244l 0.826356, -3.29721l 0.826356, 5.3305l 0.826356, 1.0258l 0.826356, -3.24226l 0.825944, 2.89422l 0.826356, 1.41048l 0.826356, -4.08488l 0.826356, -0.879257l 0.826356, 1.79515l
 0.825944, -3.00413l 0.826356, 7.10733l 0.826356, -8.59108l 0.826356, 4.72601l 0.826356, -1.55702l 0.825944, -0.677761l 0.826356, -4.02993l 0.826356, -11.3754l 0.826356, 16.7425l 0.826356, -13.8117l 0.825944, 6.09985l 0.826356, 1.15403l 0.826356,
 1.48375l 0.826356, -4.3047l 0.826356, 0.732714l 0.825944, -4.68937l 0.826356, 1.17234l 0.826356, 3.9017l 0.826356, -3.7918l 0.826356, 1.61197l 0.826356, 3.05908l 0.825944, -5.82508l 0.826356, -0.0366357l 0.826356, -1.57534l 0.826356, 1.55702l
 0.826356, 1.31889l 0.825944, 2.50955l 0.826356, -4.23143l 0.826356, 2.17983l 0.826356, -1.46543l 0.826356, -1.72188l 0.825944, -2.43628l 0.826356, 2.91254l 0.826356, -4.12152l 0.826356, -1.3372l 0.826356, -3.02245l 0.825944, 2.45459l 0.826356,
 0.421311l 0.826356, -5.67854l 0.826356, 0.622807l 0.826356, -4.35965l 0.825944, 8.82921l 0.826356, 0.494582l 0.826356, -0.238132l 0.826356, -9.58024l 0.826356, 7.80341l 0.826356, -0.201496l 0.825944, -2.21646l 0.826356, -4.23143l 0.826356, 4.04825l
 0.826356, 1.5387l 0.826356, -4.17647l 0.825944, -0.0183179l 0.826356, -2.91254l 0.826356, 1.96001l 0.826356, -7.34546l 0.826356, -6.94247l 0.825944, 2.83927l 0.826356, 3.02245l 0.826356, 1.61197l 0.826356, -4.46956l 0.826356, 7.40041l 0.825944,
 -8.75594l 0.826356, 5.38545l 0.826356, -1.09907l 0.826356, 0.384675l 0.826356, 0.0915893l 0.825944, -5.75181l 0.826356, -0.348039l 0.826356, -1.41048l 0.826356, 1.28225l 0.826356, 3.24226l 0.826356, -3.00413l 0.825944, -3.09572l 0.826356, 6.20975l
 0.826356, 1.68524l 0.826356, -3.82843l 0.826356, 0.5129l 0.825944, -1.37384l 0.826356, -2.0516l 0.826356, -2.82095l 0.826356, 2.58282l 0.826356, -5.3305l 0.825944, 0.421311l 0.826356, -1.70356l 0.826356, 7.94995l 0.826356, -6.17312l 0.826356,
 1.7402l 0.825944, -3.5903l 0.826356, -4.78096l 0.826356, 9.80005l 0.826356, -1.5387l 0.826356, -0.366357l 0.825944, 1.66693l 0.826356, -0.805986l 0.826356, 2.30805l 0.826356, -8.60939l 0.826356, 1.96001l 0.826356, 1.57534l 0.825944, 0.439629l
 0.826356, -2.43628l 0.826356, -11.7784l 0.826356, -14.2696l 0.826356, 20.0764l 0.825944, -1.83179l 0.826356, -4.56115l 0.826356, 8.16977l 0.826356, -1.77683l 0.826356, -3.99329l 0.825944, 0.860939l 0.826356, 5.73349l 0.826356, -1.72188l 0.826356,
 -1.13571l 0.826356, -2.45459l 0.825944, -5.3305l 0.826356, -1.11739l 0.826356, 2.766l 0.826356, 1.35552l 0.826356, 1.59365l 0.825944, -5.82508l 0.826356, -3.00413l 0.826356, -4.70769l 0.826356, -4.79928l 0.826356, 2.45459l 0.826356, 8.70098l
 0.825944, -11.8517l 0.826356, 15.5885l 0.826356, -6.57611l 0.826356, -2.8759l 0.826356, 1.2273l 0.825944, 5.16564l 0.826356, -3.60862l 0.826356, -2.67441l 0.826356, 3.11404l 0.826356, 3.53535l 0.825944, -9.04902l 0.826356, 2.06992l 0.826356,
 -4.59778l 0.826356, -1.64861l 0.826356, 6.17312l 0.825944, 5.73349l 0.826356, -4.56115l 0.826356, 1.97833l 0.826356, -0.476264l 0.826356, -8.60939l 0.825944, 3.9017l 0.826356, -7.65687l 0.826356, 6.55779l 0.826356, -14.3978l 0.826356, 9.28715l
 0.826356, -2.89422l 0.825944, 4.83591l 0.826356, -2.82095l 0.826356, -0.293086l 0.826356, -7.63855l 0.826356, 4.68937l 0.825944, 3.42544l 0.826356, -3.88339l 0.826356, 4.65274l 0.826356, 5.14732l 0.826356, -8.42622l 0.825944, 4.24974l 0.826356,
 -10.2397l 0.826356, 11.7051l 0.826356, -8.26135l 0.826356, 6.19144l 0.825944, -7.41873l 0.826356, 4.83591l 0.826356, -6.06321l 0.826356, 4.79928l 0.826356, -7.10733l 0.825944, 4.67105l 0.826356, -1.17234l 0.826356, 1.26393l 0.826356, -3.20563l
 0.826356, -1.96001l 0.826356, 2.38132l 0.825944, -0.879257l 0.826356, -5.88003l 0.826356, 2.14319l 0.826356, 0.842622l 0.826356, 2.67441l 0.825944, -8.33463l 0.826356, 0.531218l 0.826356, -1.90506l 0.826356, 2.41796l 0.826356, -11.9616l 0.825944,
 -17.7134l 0.826356, 26.3228l 0.826356, -0.0183179l 0.826356, 3.00413l 0.826356, 0.879257l 0.825944, -9.63519l 0.826356, 2.01496l 0.826356, -0.0915893l 0.826356, -12.3462l 0.826356, 1.5387l 0.825944, 4.37797l 0.826356, 2.43628l 0.826356, -2.67441l
 0.826356, 1.0258l 0.826356, 0.0183179l 0.826356, 3.09572l 0.825944, -6.81424l 0.826356, 6.96079l 0.826356, -0.494582l 0.826356, -4.87255l 0.826356, -1.42879l 0.825944, 5.77013l 0.826356, -4.17647l 0.826356, 1.68524l 0.826356, -2.12487l 0.826356,
 -3.62694l 0.825944, 4.85423l 0.826356, 0.109907l 0.826356, -3.88339l 0.826356, 4.98246l 0.826356, -11.3571l 0.825944, -4.06656l 0.826356, -4.70769l 0.826356, 2.83927l 0.826356, 10.258l 0.826356, 0.677761l 0.825944, 1.19066l 0.826356, -0.751032l
 0.826356, 3.0774l 0.826356, 0.439629l 0.826356, -5.97162l 0.826356, -1.90506" fill="none" stroke="#ff0000"/>
<path d="M77.8085,315.698l 0.825944, -0.146543l 0.826356, -0.146543l 0.826356, -0.329721l 0.826356, 0.128225l 0.826356, -0.293086l 0.825944, -0.293086l 0.826356, -0.201496l 0.826356, -0.329721l 0.826356, 0.0549536l 0.826356, -0.402993l 0.825944,
 0.311404l 0.826356, -0.696079l 0.826356, 0.348039l 0.826356, -0.860939l 0.826356, 0.842622l 0.825944, -0.219814l 0.826356, -0.915893l 0.826356, -0.457946l 0.826356, -0.5129l 0.826356, -0.421311l 0.825944, -0.549536l 0.826356, 0.76935l 0.826356,
 0.0183179l 0.826356, 0.238132l 0.826356, 0.531218l 0.825944, 0.531218l 0.826356, 0.421311l 0.826356, -2.93086l 0.826356, 0.439629l 0.826356, 0.696079h 0.826356l 0.825944, -0.494582l 0.826356, 0.293086l 0.826356, 1.17234l 0.826356, -1.57534l
 0.826356, 0.696079l 0.825944, 0.76935l 0.826356, 0.824304l 0.826356, -1.41048l 0.826356, -0.0915893l 0.826356, -1.66693l 0.825944, -0.586172l 0.826356, 1.57534l 0.826356, 1.19066l 0.826356, -1.86842h 0.826356l 0.825944, 0.219814l 0.826356,
 -0.293086l 0.826356, 0.311404l 0.826356, -0.860939l 0.826356, 0.879257l 0.825944, -0.25645l 0.826356, -0.860939l 0.826356, 0.842622l 0.826356, -0.384675l 0.826356, 0.0549536l 0.826356, 1.08075l 0.825944, -0.293086l 0.826356, -1.11739l 0.826356,
 1.17234l 0.826356, -1.44711l 0.826356, -0.311404l 0.825944, 0.329721l 0.826356, 0.183179l 0.826356, 0.402993l 0.826356, -0.128225l 0.826356, 0.842622l 0.825944, -0.25645l 0.826356, -0.549536l 0.826356, 0.293086l 0.826356, -1.97833l 0.826356,
 0.879257l 0.825944, 0.201496l 0.826356, -2.12487l 0.826356, 2.2531l 0.826356, -0.952529l 0.826356, 2.17983l 0.825944, -0.934211l 0.826356, -1.11739l 0.826356, -1.00748l 0.826356, 1.19066l 0.826356, -0.860939l 0.826356, 1.31889l 0.825944, 0.989164l
 0.826356, -1.81347l 0.826356, -0.805986l 0.826356, 0.164861l 0.826356, 0.641125l 0.825944, -1.13571l 0.826356, 1.99665l 0.826356, 0.677761l 0.826356, -1.44711l 0.826356, -0.76935l 0.825944, -1.42879l 0.826356, 1.26393l 0.826356, 2.34469l 0.826356,
 -0.201496l 0.826356, -1.8501l 0.825944, -0.714397l 0.826356, -1.26393l 0.826356, -0.622807l 0.826356, 4.78096l 0.826356, -0.494582l 0.825944, -1.06244l 0.826356, -1.35552l 0.826356, -0.494582l 0.826356, 2.16151l 0.826356, -0.952529l 0.826356,
 0.714397l 0.825944, 0.787668l 0.826356, 0.549536l 0.826356, -1.00748l 0.826356, 0.366357l 0.826356, -0.531218l 0.825944, -2.34469l 0.826356, 1.61197l 0.826356, 0.0549536l 0.826356, -2.83927l 0.826356, 2.83927l 0.825944, -0.128225l 0.826356,
 -0.146543l 0.826356, 0.897575l 0.826356, -3.70021l 0.826356, 3.62694l 0.825944, -1.94169l 0.826356, 2.65609l 0.826356, -0.384675l 0.826356, -3.04076l 0.826356, -0.5129l 0.825944, 2.80263l 0.826356, -0.0915893l 0.826356, -0.915893l 0.826356,
 -0.622807l 0.826356, -0.915893l 0.826356, 1.61197l 0.825944, -4.17647l 0.826356, 4.59778l 0.826356, -0.604489l 0.826356, -0.494582l 0.826356, 1.44711l 0.825944, 0.366357l 0.826356, -0.348039l 0.826356, -1.70356l 0.826356, -0.622807l 0.826356,
 1.7402l 0.825944, -2.16151l 0.826356, 0.952529l 0.826356, 1.0258l 0.826356, -1.52038l 0.826356, 1.15403l 0.825944, -0.146543l 0.826356, -1.11739l 0.826356, 2.14319l 0.826356, -4.67105l 0.826356, 2.94918l 0.825944, -0.76935l 0.826356, 1.66693l
 0.826356, -1.19066l 0.826356, -0.677761l 0.826356, 2.08824l 0.826356, -2.71104l 0.825944, 1.79515l 0.826356, -0.0183179l 0.826356, -0.329721l 0.826356, -2.52786l 0.826356, 3.48039l 0.825944, -1.52038l 0.826356, -0.402993l 0.826356, 1.52038l
 0.826356, 0.439629l 0.826356, 0.201496l 0.825944, -1.61197l 0.826356, 0.549536l 0.826356, 0.128225l 0.826356, -0.586172l 0.826356, 1.17234l 0.825944, -3.70021l 0.826356, 1.24561l 0.826356, 1.19066l 0.826356, -0.751032l 0.826356, 0.787668l 0.825944,
 -0.476264l 0.826356, 0.457946l 0.826356, -0.164861l 0.826356, -0.0915893l 0.826356, 0.0915893l 0.826356, -1.20898l 0.825944, -0.274768l 0.826356, 1.61197l 0.826356, -0.457946l 0.826356, 0.476264l 0.826356, -3.13235l 0.825944, 3.22394l 0.826356,
 -2.34469l 0.826356, 1.5387l 0.826356, -2.74768l 0.826356, -0.842622l 0.825944, 0.531218l 0.826356, 2.50955l 0.826356, 1.19066l 0.826356, -3.9017l 0.826356, 2.98581l 0.825944, 0.25645l 0.826356, -0.476264l 0.826356, -0.311404l 0.826356, -0.219814l
 0.826356, -0.293086l 0.825944, 0.751032l 0.826356, 0.0183179l 0.826356, 0.25645l 0.826356, -0.439629l 0.826356, -2.23478l 0.826356, -1.26393l 0.825944, 2.23478l 0.826356, -0.696079l 0.826356, 0.659443l 0.826356, 2.49123l 0.826356, -3.2789l 0.825944,
 2.01496l 0.826356, -2.61945l 0.826356, 2.39964l 0.826356, -0.421311l 0.826356, -1.13571l 0.825944, 0.293086l 0.826356, 1.61197l 0.826356, 0.915893l 0.826356, -1.30057l 0.826356, -0.25645l 0.825944, 0.0183179l 0.826356, -1.5387l 0.826356, -2.61945l
 0.826356, 4.32301l 0.826356, -0.0366357l 0.825944, -0.952529l 0.826356, 0.952529l 0.826356, -3.04076l 0.826356, -1.8501l 0.826356, 4.3047l 0.826356, 0.0183179l 0.825944, -0.842622l 0.826356, 0.421311l 0.826356, 0.329721l 0.826356, -0.567854l
 0.826356, 0.76935l 0.825944, -1.41048l 0.826356, 0.201496l 0.826356, 0.0549536l 0.826356, 1.00748l 0.826356, -0.109907l 0.825944, -0.842622l 0.826356, 0.219814l 0.826356, 1.24561l 0.826356, -3.82843l 0.826356, 0.915893l 0.825944, 2.63777l 0.826356,
 -0.860939l 0.826356, 0.549536l 0.826356, 0.5129l 0.826356, -3.68189l 0.825944, -0.25645l 0.826356, 2.93086l 0.826356, 0.5129l 0.826356, -1.83179l 0.826356, -1.70356l 0.826356, -1.48375l 0.825944, 3.31553l 0.826356, -4.39629l 0.826356, 3.40712l
 0.826356, -3.00413l 0.826356, 0.494582l 0.825944, 4.24974l 0.826356, -3.05908l 0.826356, 1.39216l 0.826356, 1.79515l 0.826356, -1.20898l 0.825944, 0.0366357l 0.826356, -0.476264l 0.826356, -1.15403l 0.826356, -2.19814l 0.826356, 0.402993l 0.825944,
 2.67441l 0.826356, -0.549536l 0.826356, -1.8501l 0.826356, 2.60114l 0.826356, -6.00826l 0.825944, 4.59778l 0.826356, 0.567854l 0.826356, 2.80263l 0.826356, -2.63777l 0.826356, 0.25645l 0.826356, 0.696079l 0.825944, -2.91254l 0.826356, 2.50955l
 0.826356, -3.22394l 0.826356, 3.24226l 0.826356, 0.0732714l 0.825944, -1.15403l 0.826356, 1.35552l 0.826356, 0.476264l 0.826356, -0.366357l 0.826356, -1.26393l 0.825944, -0.201496l 0.826356, 0.860939l 0.826356, -3.46208l 0.826356, -0.238132l
 0.826356, 1.99665l 0.825944, 1.90506l 0.826356, -3.82843l 0.826356, 1.28225l 0.826356, 0.586172l 0.826356, -2.91254l 0.825944, 3.15067l 0.826356, 2.50955l 0.826356, -3.60862l 0.826356, -0.0366357l 0.826356, 2.67441l 0.826356, -2.01496l 0.825944,
 -0.0549536l 0.826356, 1.26393l 0.826356, -0.0366357l 0.826356, -1.79515l 0.826356, 2.34469l 0.825944, -3.5903l 0.826356, -0.659443l 0.826356, 2.61945l 0.826356, -0.604489l 0.826356, 1.48375l 0.825944, 0.696079l 0.826356, -1.66693l 0.826356,
 -1.57534l 0.826356, 0.952529l 0.826356, 1.3372l 0.825944, 0.439629l 0.826356, -1.81347l 0.826356, -0.311404l 0.826356, 2.28973l 0.826356, -5.07405l 0.825944, 3.26058l 0.826356, 1.11739l 0.826356, -0.0549536l 0.826356, 0.238132l 0.826356, -0.146543l
 0.826356, -1.96001l 0.825944, -1.39216l 0.826356, 2.63777l 0.826356, -1.81347l 0.826356, -2.60114l 0.826356, 3.88339l 0.825944, 0.879257l 0.826356, -0.366357l 0.826356, 0.439629l 0.826356, -1.70356l 0.826356, -0.915893l 0.825944, -1.35552l 0.826356,
 2.23478l 0.826356, 0.439629l 0.826356, -2.63777l 0.826356, 2.98581l 0.825944, 0.402993l 0.826356, -2.82095l 0.826356, 1.96001l 0.826356, -0.183179l 0.826356, 0.25645l 0.825944, -0.402993l 0.826356, -4.39629l 0.826356, 5.00078l 0.826356, 0.897575l
 0.826356, -2.27141l 0.826356, 1.41048l 0.825944, -1.39216l 0.826356, 1.08075l 0.826356, -1.66693l 0.826356, 0.586172l 0.826356, 1.09907l 0.825944, -1.09907l 0.826356, -1.44711l 0.826356, 2.5645l 0.826356, -1.68524l 0.826356, -1.06244l 0.825944,
 1.06244l 0.826356, 0.751032l 0.826356, 1.37384l 0.826356, -1.30057l 0.826356, -1.94169l 0.825944, 1.2273l 0.826356, -0.751032l 0.826356, 0.586172l 0.826356, -5.51368l 0.826356, 6.92415l 0.825944, 0.0549536l 0.826356, 0.219814l 0.826356, -2.43628l
 0.826356, -2.54618l 0.826356, 3.24226l 0.826356, -0.494582l 0.825944, -2.06992l 0.826356, 2.58282l 0.826356, 0.567854l 0.826356, -2.72936l 0.826356, -0.476264l 0.825944, -0.659443l 0.826356, 0.824304l 0.826356, 2.5645l 0.826356, -0.934211l 0.826356,
 0.787668l 0.825944, -2.21646l 0.826356, 1.50206l 0.826356, -0.146543l 0.826356, -1.99665l 0.826356, 0.732714l 0.825944, 0.714397l 0.826356, 1.24561l 0.826356, -2.21646l 0.826356, 2.38132l 0.826356, -2.47291l 0.825944, 2.82095l 0.826356, 1.44711l
 0.826356, -4.26806l 0.826356, 1.44711l 0.826356, 1.31889l 0.826356, -1.2273l 0.825944, -1.28225l 0.826356, 1.13571l 0.826356, -2.82095l 0.826356, 2.32637l 0.826356, -0.457946l 0.825944, 0.952529l 0.826356, 0.879257l 0.826356, -3.55366l 0.826356,
 0.293086l 0.826356, -1.63029l 0.825944, 2.14319l 0.826356, 0.824304l 0.826356, -0.457946l 0.826356, 1.59365l 0.826356, -0.219814l 0.825944, 0.439629l 0.826356, -1.30057l 0.826356, 1.17234l 0.826356, -1.31889l 0.826356, -1.77683l 0.825944, 0.879257l
 0.826356, 0.586172l 0.826356, 1.42879l 0.826356, -1.26393l 0.826356, -1.55702l 0.826356, 0.897575l 0.825944, 1.00748l 0.826356, -1.26393l 0.826356, 2.766l 0.826356, -3.35217l 0.826356, 1.52038l 0.825944, 0.0915893l 0.826356, 0.457946l 0.826356,
 -0.128225l 0.826356, -4.01161l 0.826356, 3.20563l 0.825944, 0.348039l 0.826356, -2.2531l 0.826356, 2.45459l 0.826356, -0.439629l 0.826356, -3.18731l 0.825944, 2.12487l 0.826356, -0.659443l 0.826356, -1.00748l 0.826356, -0.641125l 0.826356, 3.71853l
 0.825944, -0.824304l 0.826356, -1.11739l 0.826356, 2.38132l 0.826356, -1.46543l 0.826356, -0.439629l 0.826356, 0.732714l 0.825944, -1.0258l 0.826356, 1.90506l 0.826356, -6.81424l 0.826356, 5.16564l 0.826356, -3.22394l 0.825944, 3.2789l 0.826356,
 -0.934211l 0.826356, 0.732714l 0.826356, 0.439629l 0.826356, -0.549536l 0.825944, 1.37384l 0.826356, -0.421311l 0.826356, -7.51032l 0.826356, 7.1806l 0.826356, -3.15067l 0.825944, -2.78431l 0.826356, 6.22807l 0.826356, -1.55702l 0.826356, -4.39629l
 0.826356, 5.58695l 0.825944, -0.348039l 0.826356, -0.348039l 0.826356, -0.897575l 0.826356, -1.64861l 0.826356, 3.31553l 0.826356, -1.09907" fill="none" stroke="#0000ff"/>
<rect x="85.5394" y="52.6163" width="170.079" height="70.1551" fill="white"/>
<path d="M85.5394,122.771h 170.079" fill="none" stroke="black"/>
<path d="M255.618,122.771v -70.1551" fill="none" stroke="black"/>
<path d="M255.618,52.6163h -170.079" fill="none" stroke="black"/>
<path d="M85.5394,52.6163v 70.1551" fill="none" stroke="black"/>
<text xml:space="preserve" x="145.55" y="64.9409" fill="black" font-size="13.5464" font-family="Helvetica">algorithm</text>
<text xml:space="preserve" x="128.012" y="82.4797" fill="black" font-size="13.5464" font-family="Helvetica">heap sort</text>
<path d="M91.9173,85.0631h 29.7638v -12.2771h -29.7638z" fill="white"/>
<path d="M91.9173,78.9245h 29.7638" fill="none" stroke="#00ff00"/>
<g stroke="black" stroke-width="1" fill="none">
<line x1="105.799" y1="78.9245" x2="106.799" y2="78.9245"/>
</g>
<text xml:space="preserve" x="128.012" y="100.018" fill="black" font-size="13.5464" font-family="Helvetica">shell sort</text>
<path d="M91.9173,102.602h 29.7638v -12.2771h -29.7638z" fill="white"/>
<path d="M91.9173,96.4633h 29.7638" fill="none" stroke="#ff0000"/>
<g stroke="black" stroke-width="1" fill="none">
<line x1="105.799" y1="96.4633" x2="106.799" y2="96.4633"/>
</g>
<text xml:space="preserve" x="128.012" y="117.557" fill="black" font-size="13.5464" font-family="Helvetica">parallel quicksort</text>
<path d="M91.9173,120.141h 29.7638v -12.2771h -29.7638z" fill="white"/>
<path d="M91.9173,114.002h 29.7638" fill="none" stroke="#0000ff"/>
<g stroke="black" stroke-width="1" fill="none">
<line x1="105.799" y1="114.002" x2="106.799" y2="114.002"/>
</g>
<text xml:space="preserve" x="201.485" y="17.0648" fill="black" font-size="15.5447" font-family="Helvetica">Sort Benchmark T=short</text></svg>
